<svg width="51" height="50" viewBox="0 0 51 50" fill="none" xmlns="http://www.w3.org/2000/svg">
<path d="M22.9006 19.5693C24.4749 21.2059 28.34 24.581 29.967 26.1648C30.1984 26.3899 30.5899 26.5348 30.9183 26.5586C31.6791 26.6166 32.4483 26.5842 33.2142 26.574C33.7741 26.5672 34.3936 26.7496 34.6965 25.9807C34.7612 25.8153 35.1867 25.7233 35.4488 25.7164C36.5261 25.6875 37.6033 25.7079 38.6823 25.7028C39.4039 25.6994 39.6984 26.0847 39.6984 26.77C39.6967 29.0153 39.695 31.2589 39.6984 33.5042C39.6984 34.2134 39.3308 34.5527 38.6534 34.5595C37.5761 34.5715 36.4971 34.5749 35.4198 34.5493C35.1833 34.5442 34.8037 34.4589 34.7374 34.3038C34.3902 33.4889 33.7094 33.6696 33.0848 33.6645C32.3803 33.6594 31.6757 33.6645 30.8554 33.6645C30.8554 34.3328 30.8554 34.9192 30.8554 35.5057C30.8554 37.1543 30.8639 38.8012 30.852 40.4498C30.8452 41.4028 30.5558 41.6517 29.5977 41.5955C27.4176 41.4659 25.6238 39.5616 25.571 37.2856C25.5438 36.1246 25.5659 34.9636 25.5659 33.7327H22.0617C22.0481 34.0293 22.0226 34.3277 22.0226 34.626C22.0192 38.2914 22.0243 41.9569 22.0192 45.6223C22.0158 47.692 20.9896 48.6297 18.949 48.7354C16.1137 48.8837 14.8713 47.9273 14.9428 44.7324C15.067 39.2223 14.9768 33.7071 14.9768 28.1953M14.9768 28.1953C16.9782 28.1953 20.5896 28.3334 22.4566 28.3334C23.0522 28.3334 23.6581 28.3982 24.2402 28.3112C24.6707 28.2481 25.2289 28.0981 25.4519 27.7861C25.8127 27.2815 25.343 26.8502 24.9703 26.487C24.1193 25.6568 21.9045 23.5121 21.0332 22.6613M14.9768 28.1953L16.9228 28.2209M11.7751 1.6473C14.8419 4.72797 19.5038 9.3379 22.5893 12.4697C22.7799 12.6624 22.8923 13.0153 22.8957 13.2966C22.9195 15.6544 22.9246 18.0122 22.8906 20.3683C22.8872 20.6905 22.6778 21.0417 22.4872 21.3264C21.529 22.7534 20.1999 23.2035 18.4912 23.0552C16.7757 22.9068 15.0364 23.0415 13.3072 23.0074C12.9771 23.0006 12.5635 22.883 12.3389 22.6613C9.2908 19.6523 6.26825 16.6176 3.2423 13.5864C3.16572 13.5097 1.73103 11.9139 1.71911 11.8986C0.614453 10.5567 0.372924 10.5961 1.42128 9.54418C4.04729 6.91189 6.675 4.27959 9.30441 1.6473C10.5179 0.433439 10.6863 0.440258 11.8538 1.73424M34.7374 33.7318L34.6965 26.3112" stroke="#5BA646" stroke-width="1.5"/>
<path d="M41.8145 26.3814C42.3659 25.8154 42.296 26.0067 43.5835 24.7192" stroke="#5BA646" stroke-width="1.5"/>
<path d="M41.8145 30.7275C42.3659 31.2935 42.296 31.1021 43.5835 32.3896" stroke="#5BA646" stroke-width="1.5"/>
<path d="M44.3896 23.8062C44.9411 23.2402 44.8712 23.4315 46.1587 22.144" stroke="#5BA646" stroke-width="1.5"/>
<path d="M44.3896 33.3027C44.9411 33.8687 44.8712 33.6773 46.1587 34.9648" stroke="#5BA646" stroke-width="1.5"/>
<path d="M44.0607 28.9458C44.8509 28.9355 44.6662 29.0214 46.487 29.0214" stroke="#5BA646" stroke-width="1.5"/>
<path d="M47.8227 28.9458C48.6128 28.9355 48.4282 29.0214 50.249 29.0214" stroke="#5BA646" stroke-width="1.5"/>
<path d="M47.823 21.2315C48.3744 20.6655 48.3046 20.8568 49.5921 19.5693" stroke="#5BA646" stroke-width="1.5"/>
<path d="M47.823 35.8779C48.3744 36.4439 48.3046 36.2525 49.5921 37.54" stroke="#5BA646" stroke-width="1.5"/>
</svg>
