<svg width="51" height="50" viewBox="0 0 51 50" fill="none" xmlns="http://www.w3.org/2000/svg">
<path d="M8.49414 28.3789L22.4069 42.1881L22.4155 42.1966L42.3725 22.3882C47.7218 17.0787 50.4762 9.73341 49.932 2.24703L49.8482 1.1504L48.743 1.06723C41.1921 0.527143 33.8004 3.26061 28.4512 8.57004L8.49414 28.3789Z" stroke="#5BA646" strokeWidth="1.5"/>
<path d="M34.2021 4.30078L46.6678 16.6736" stroke="#5BA646" strokeWidth="1.5"/>
<path d="M21.7228 15.4331L18.9098 15.1174C13.1754 14.4776 7.54997 16.43 3.47315 20.4765L2 21.9391L8.73055 28.6195V28.6276" stroke="#5BA646" strokeWidth="1.5"/>
<path d="M22.1631 41.9551L28.8936 48.6355H28.9022L30.3754 47.1729C34.4522 43.1265 36.4196 37.5429 35.775 31.8513L35.457 29.0596" stroke="#5BA646" strokeWidth="1.5"/>
<path d="M7.46325 34.6205L2.11816 39.9258" stroke="#5BA646" strokeWidth="1.5" strokeLinecap="round"/>
<path d="M16.61 43.6944L11.2646 49" stroke="#5BA646" strokeWidth="1.5" strokeLinecap="round"/>
<path d="M12.0259 39.16L4.04053 47.0859" stroke="#5BA646" strokeWidth="1.5" strokeLinecap="round"/>
<path d="M28.7052 21.8192C29.3749 22.4922 30.254 22.8245 31.1413 22.8245H31.1495C32.0285 22.8245 32.916 22.4839 33.5857 21.8192C34.9335 20.4814 34.9335 18.3127 33.5857 16.975C32.2379 15.6372 30.0529 15.6372 28.7052 16.975C27.3574 18.3127 27.3574 20.4814 28.7052 21.8192Z" stroke="#5BA646" strokeWidth="1.5"/>
</svg>
