<svg width="54" height="50" viewBox="0 0 54 50" fill="none" xmlns="http://www.w3.org/2000/svg">
<path d="M46.3178 34.6913L46.8264 35.2009L46.983 35.3601V35.358C48.2999 36.6801 50.5622 42.3211 52.2211 47.3262C52.2725 47.4823 52.2324 47.6508 52.1171 47.7666L51.6197 48.2659C51.5384 48.3475 51.4313 48.392 51.3159 48.392C51.2706 48.392 51.2243 48.3848 51.1811 48.3703C46.1942 46.704 40.5751 44.4339 39.2622 43.116L38.3235 42.177M46.3178 34.6913L37.7177 26.0898M46.3178 34.6913L38.5005 42L38.3235 42.177M30.5901 34.4422L38.3235 42.177" stroke="#5BA646" stroke-width="1.2"/>
<path d="M29.8806 18.1915L47.4535 1.91379L47.4649 1.90242C48.0528 1.32045 48.8354 1 49.6664 1C50.4881 1 51.2562 1.31631 51.8287 1.89105L52.1099 2.17325C53.3002 3.36925 53.2961 5.33432 52.0985 6.55409L52.0759 6.57786L23.1042 38.0986C22.6284 38.5761 22.0456 38.8191 21.3743 38.8191C21.3156 38.8191 21.2476 38.816 21.1621 38.8098L19.8503 38.7095L20.1005 40.0057C20.1644 40.3376 20.1983 40.6642 20.1983 40.9764C20.2014 42.2685 19.6938 43.4345 18.6898 44.4424C14.7409 48.4067 9.52443 48.999 6.76586 48.999C4.2091 48.999 1.8377 48.4811 1.12617 47.7668C1.02423 47.6655 0.980986 47.5208 1.00776 47.3802C1.03453 47.2396 1.12926 47.1218 1.26107 47.0649C5.0792 45.4296 5.91017 43.0045 6.78851 40.4368C7.37235 38.7312 7.97576 36.9677 9.45132 35.3562C10.5294 34.1788 11.7599 33.5813 13.1088 33.5813C13.4311 33.5813 13.7658 33.6175 14.1035 33.6878L15.2939 33.9358L15.3114 32.715C15.3206 32.0597 15.5616 31.4901 16.028 31.0218L21.8448 25.6331M29.8806 18.1915L18.2306 6.4962L17.6725 5.9381M29.8806 18.1915L21.8448 25.6331M17.7209 5.98555L14.2518 2.503C13.2859 1.53339 12.0029 1 10.6375 1C9.27216 1 7.98914 1.53339 7.02431 2.503L6.528 3.00125C4.53552 5.00146 4.53552 8.25659 6.528 10.2568L21.8448 25.6331" stroke="#5BA646" stroke-width="1.2"/>
<path d="M15.5005 34L20.0005 39" stroke="#5BA646" stroke-width="1.2"/>
</svg>
