<svg width="55" height="60" viewBox="0 0 55 60" fill="none" xmlns="http://www.w3.org/2000/svg">
<path d="M27.6885 43.9786C27.6885 43.9786 27.5873 43.9786 27.5425 43.9469L14.5277 38.484C14.3933 38.4312 14.3145 38.3043 14.3145 38.1775V23.1624C14.3145 23.025 14.4045 22.9088 14.5277 22.8559L27.5539 17.3931C27.5539 17.3931 27.6546 17.3613 27.6994 17.3613C27.7442 17.3613 27.8001 17.3614 27.8449 17.3931L40.8716 22.8559C41.0061 22.9088 41.0844 23.0356 41.0844 23.1624V38.1775C41.0844 38.3149 41.0061 38.4312 40.8716 38.484L27.8449 43.9469C27.8449 43.9469 27.7442 43.9786 27.6994 43.9786H27.6885ZM15.0314 37.9557L27.3297 43.1123V28.8474L15.0314 23.6907V37.9557ZM28.0576 28.8474V43.1123L40.3559 37.9557V23.6907L28.0576 28.8474ZM15.5581 23.1624L27.6885 28.245L39.8183 23.1624L27.6885 18.0798L15.5581 23.1624Z" stroke="#5BA646" strokeWidth="0.8"/>
<path d="M27.6796 9.85497C27.478 9.85497 27.3209 9.70696 27.3209 9.51677V2.15186L23.6025 5.65979C23.5129 5.74432 23.4118 5.75498 23.3558 5.75498C23.2998 5.75498 23.1878 5.74432 23.0982 5.65979C22.9638 5.53299 22.9526 5.32171 23.0982 5.18434L27.433 1.09519C27.5226 1.01066 27.6346 1 27.6906 1C27.7466 1 27.8586 1.01066 27.9482 1.09519L32.2939 5.19492C32.3835 5.27945 32.4287 5.40632 32.3951 5.52255C32.3615 5.63878 32.2607 5.73386 32.1375 5.76556C32.1039 5.76556 32.0702 5.77614 32.0478 5.77614C31.947 5.77614 31.8574 5.73377 31.7902 5.67037L28.0603 2.15186V9.51677C28.0603 9.70696 27.9037 9.85497 27.7021 9.85497H27.6796Z" stroke="#5BA646" strokeWidth="0.8"/>
<path d="M27.6775 58.9888C27.6775 58.9888 27.5096 58.9781 27.42 58.8936L23.0852 54.8042C22.9508 54.6668 22.9508 54.4555 23.0852 54.3287C23.1748 54.2442 23.2868 54.2338 23.3428 54.2338C23.3988 54.2338 23.4993 54.2442 23.5889 54.3287L27.3078 57.8369V50.472C27.3078 50.2818 27.4645 50.1338 27.6661 50.1338C27.8677 50.1338 28.0243 50.2818 28.0243 50.472V57.8369L31.7432 54.3287C31.8216 54.2547 31.9221 54.2441 31.9894 54.2441C32.0454 54.2441 32.1573 54.2548 32.2469 54.3393C32.3814 54.4661 32.3926 54.6774 32.2469 54.8147L27.9127 58.9041C27.8231 58.9887 27.7111 58.9991 27.6551 58.9991L27.6775 58.9888Z" stroke="#5BA646" strokeWidth="0.8"/>
<path d="M2.96221 21.6068C2.96221 21.6068 2.89519 21.6068 2.86158 21.5962C2.73838 21.5645 2.63759 21.4695 2.60399 21.3532L1.01359 15.7423C0.957586 15.5626 1.08077 15.3726 1.27118 15.3303L7.21878 13.8297C7.21878 13.8297 7.28581 13.8193 7.31941 13.8193C7.42022 13.8193 7.5098 13.8509 7.577 13.9143C7.66661 13.9988 7.7003 14.1257 7.6667 14.2419C7.6331 14.3581 7.53231 14.4532 7.4091 14.4849L2.30155 15.774L9.06678 19.4618C9.23478 19.5569 9.30212 19.7681 9.20131 19.9266C9.13411 20.0323 9.0218 20.0959 8.88739 20.0959C8.82019 20.0959 8.76401 20.0852 8.70801 20.0535L1.94333 16.3658L3.3095 21.1737C3.3431 21.2899 3.30941 21.4165 3.21981 21.5116C3.1526 21.575 3.06302 21.6174 2.96221 21.6174V21.6068Z" stroke="#5BA646" strokeWidth="0.8"/>
<path d="M48.0533 46.1623C47.9525 46.1623 47.8629 46.1305 47.7957 46.0671C47.7061 45.9826 47.6612 45.856 47.706 45.7292C47.7396 45.6129 47.8404 45.5179 47.9636 45.4862L53.0602 44.1971L46.295 40.5091C46.183 40.4457 46.1383 40.3506 46.1271 40.2978C46.1159 40.2449 46.0933 40.1499 46.1605 40.0442C46.2277 39.9385 46.34 39.8752 46.4744 39.8752C46.5416 39.8752 46.5972 39.8858 46.6532 39.9175L53.4185 43.6053L52.0523 38.7974C52.0187 38.6812 52.0518 38.5543 52.1414 38.4698C52.2086 38.4064 52.2982 38.3643 52.399 38.3643C52.4326 38.3643 52.4666 38.3643 52.5002 38.3748C52.6234 38.4065 52.7242 38.5016 52.7578 38.6178L54.3482 44.2285C54.4042 44.4082 54.281 44.5985 54.0906 44.6408L48.143 46.1412C48.143 46.1412 48.076 46.1517 48.0424 46.1517L48.0533 46.1623Z" stroke="#5BA646" strokeWidth="0.8"/>
<path d="M52.4005 21.6068C52.2996 21.6068 52.2101 21.575 52.1429 21.501C52.0533 21.4165 52.0196 21.2899 52.0532 21.1737L53.4199 16.3552L46.6547 20.043C46.6547 20.043 46.5425 20.0853 46.4753 20.0853C46.3073 20.0853 46.1616 19.9796 46.128 19.8317C46.0832 19.6838 46.1503 19.5251 46.2959 19.4512L53.0611 15.7634L47.9875 14.4849C47.7971 14.4321 47.696 14.2526 47.7408 14.0729C47.7856 13.9039 47.9537 13.8193 48.0881 13.8193C48.1217 13.8193 48.1442 13.8193 48.1778 13.8193L54.0915 15.3197C54.2819 15.3725 54.3939 15.5521 54.3491 15.7423L52.7587 21.3532C52.7251 21.4695 52.6243 21.5645 52.5011 21.5962C52.4675 21.5962 52.4338 21.6068 52.4114 21.6068H52.4005Z" stroke="#5BA646" strokeWidth="0.8"/>
<path d="M7.31567 46.1623C7.31567 46.1623 7.24864 46.1623 7.21504 46.1517L1.26744 44.6514C1.07703 44.5985 0.965041 44.4187 1.00984 44.2285L2.60025 38.6178C2.63385 38.5016 2.73463 38.4065 2.85784 38.3748C2.89144 38.3748 2.92513 38.3643 2.94753 38.3643C3.04834 38.3643 3.13792 38.3958 3.20512 38.4698C3.29473 38.5543 3.32842 38.6812 3.29482 38.808L1.9281 43.6158L8.70426 39.9281C8.70426 39.9281 8.8167 39.8858 8.87271 39.8858C9.00711 39.8858 9.11888 39.9491 9.18608 40.0548C9.25329 40.1604 9.24239 40.2661 9.21999 40.3084C9.20879 40.3612 9.16355 40.4562 9.05154 40.5196L2.28632 44.2074L7.38294 45.4967C7.50614 45.5284 7.60693 45.6235 7.64053 45.7397C7.67413 45.856 7.64044 45.9826 7.55084 46.0671C7.48363 46.1305 7.39405 46.1623 7.29324 46.1623H7.31567Z" stroke="#5BA646" strokeWidth="0.8"/>
</svg>
