<svg width="50" height="50" viewBox="0 0 50 50" fill="none" xmlns="http://www.w3.org/2000/svg">
<path d="M9 28.8679L14.1123 23.7529C20.7736 17.0887 27.6628 10.1963 34.4286 3.40849C34.7802 3.04724 35.0083 3 35.1984 3C35.3219 3 35.4644 3.01862 35.6355 3.07566C36.5382 3.36087 37.4598 3.62715 38.3531 3.88383C39.1988 4.13101 40.073 4.37846 40.9282 4.64465C41.2513 4.73972 41.5936 4.93918 41.8312 5.16734C42.962 6.24161 44.0548 7.36318 45.1761 8.504C45.4327 8.76068 45.5276 8.94136 45.5561 9.03643C46.0502 10.6621 46.5254 12.3164 46.9815 13.923L47.2761 14.9591C47.2856 15.0067 47.2952 15.0829 47.3142 15.1875C47.3142 15.2065 47.3142 15.2159 47.3142 15.2349C47.2571 15.368 47.1809 15.5012 47.1049 15.5867C46.6963 16.024 46.2591 16.4519 45.841 16.8702L45.8698 16.8605C45.7082 17.0221 45.5464 17.184 45.3849 17.3456C37.4217 25.3123 29.4492 33.2883 21.486 41.255" stroke="#5BA646" stroke-width="1.2" stroke-linecap="round"/>
<path d="M38.8228 26.9443L38.8984 27.0205C42.1293 30.2528 45.3603 33.4848 48.5912 36.7171H48.6102C48.9903 37.0879 49 37.221 49 37.2305C49 37.24 48.9903 37.3734 48.5912 37.7727C44.9897 41.3758 41.3882 44.9785 37.7867 48.5815C37.3781 48.9903 37.2545 49.0002 37.2355 49.0002C37.2165 49.0002 37.0836 48.981 36.675 48.5723C33.5581 45.454 30.4317 42.3262 27.3148 39.208C27.2863 39.17 27.2485 39.1416 27.2104 39.1035M33.6396 45.572L34.6984 44.5128L34.8315 44.3703C34.9456 44.2563 35.0597 44.1328 35.1832 44.0092C35.4778 43.705 35.7816 43.4098 36.0857 43.1151C36.7034 42.4972 37.3495 41.8602 37.9672 41.2138M29.6432 41.5373L31.4773 39.7024C32.133 39.0559 32.8075 38.3811 33.4822 37.7156" stroke="#5BA646" stroke-width="1.2"/>
<path d="M10.3054 22.2287H10.3151C6.79918 18.7112 3.92916 15.8399 1.27795 13.1875C0.90735 12.8072 0.90735 12.7315 1.27795 12.3608C4.98395 8.64363 8.7186 4.90732 12.3581 1.27573C12.6147 1.00954 12.7286 1 12.7571 1C12.7856 1 12.9093 1.00932 13.1849 1.28502C16.1212 4.2131 19.067 7.16017 21.9367 10.0407M8.33829 20.251C8.33829 20.251 9.8113 18.749 9.88733 18.6729C10.638 17.9409 11.4362 17.1424 12.2059 16.3533M8.43364 12.2368C8.32911 12.3224 8.22451 12.4273 8.11998 12.5414C8.06296 12.5984 8.006 12.6551 7.93949 12.7122L4.42708 16.2261" stroke="#5BA646" stroke-width="1.2"/>
<path d="M15.4319 34.9662C23.2525 27.1612 31.1966 19.2134 38.8746 11.5224L40.8225 9.57368C40.8225 9.57368 40.8796 9.51654 40.9176 9.47852" stroke="#5BA646" stroke-width="1.2" stroke-linecap="round"/>
<path d="M6.31575 32.0098L6.29673 32.0859C5.78359 34.0443 5.2701 36.0024 4.74746 37.9608L3.92109 41.1173C3.79756 41.6022 3.66437 42.0871 3.53133 42.5814C3.27477 43.5416 3.00888 44.5301 2.77132 45.4998C2.63828 46.0417 2.71406 46.5358 2.99914 46.8971C3.25571 47.2298 3.6738 47.42 4.16793 47.4295C4.20594 47.4295 4.24384 47.4297 4.29135 47.4202C4.36737 47.4202 4.50069 47.3914 4.57671 47.3724C8.69132 46.3267 13.5279 45.1006 18.3457 43.8742" stroke="#5BA646" stroke-width="1.2" stroke-linecap="round"/>
</svg>
