<svg width="50" height="50" viewBox="0 0 50 50" fill="none" xmlns="http://www.w3.org/2000/svg">
<path d="M28.2126 47.3273C28.2317 48.2543 28.9961 48.9997 29.9138 48.9997L29.9236 48.9899H29.952C30.2292 48.9899 30.5065 48.9137 30.7454 48.7799L34.4255 46.7347C35.0946 46.362 35.6487 45.8171 36.031 45.1482L48.7724 23.0824C49.2407 22.2701 48.9636 21.2282 48.1512 20.76L43.7734 18.2374C43.5153 18.0845 43.2193 18.0078 42.923 18.0078C42.3208 18.0078 41.7569 18.3329 41.451 18.8585L28.7096 40.9341C28.3273 41.5935 28.1358 42.3482 28.1454 43.1127L28.2126 47.3273Z" stroke="#5BA646" stroke-width="1.5"/>
<path d="M46.4704 37.0645V40.9827C46.4704 44.0026 44.0041 46.4684 40.9836 46.4684" stroke="#5BA646" stroke-width="1.5"/>
<path d="M45.6186 14.2358V5.61586C45.6186 3.06428 43.5444 1 41.0018 1H5.61677C3.06468 1 1 3.07383 1 5.61586V33.626M1 33.626L6.79243 27.8347C7.83429 26.8026 9.21075 26.229 10.6732 26.229C12.1356 26.229 13.5216 26.8026 14.5539 27.8347L16.7811 30.061C17.1826 30.4528 17.6987 30.6727 18.2531 30.6727C18.8075 30.6727 19.3333 30.4626 19.7252 30.0708L27.0083 22.7886C28.0406 21.7565 29.417 21.1834 30.889 21.1834C32.1125 21.1834 33.2595 21.5752 34.2345 22.3206L34.2634 22.3397C34.2634 22.3397 34.2823 22.3493 34.2919 22.3588M1 33.626L1.0098 34.849V40.9842C1.0098 43.5358 3.08404 45.6001 5.62657 45.6001H23.5961" stroke="#5BA646" stroke-width="1.5"/>
<path d="M10.2244 13.1942C10.2244 16.214 12.6811 18.6798 15.7111 18.6798C18.7315 18.6798 21.1973 16.214 21.1973 13.1942C21.1973 10.1743 18.7411 7.70898 15.7111 7.70898C12.6906 7.70898 10.2244 10.1743 10.2244 13.1942Z" stroke="#5BA646" stroke-width="1.5"/>
</svg>
