<svg width="53" height="35" viewBox="0 0 53 35" fill="none" xmlns="http://www.w3.org/2000/svg">
<path d="M26.5053 33.5C25.3234 33.5 23.7268 32.8017 23.0218 32.3255C22.0576 31.68 17.2054 27.9553 13.1515 24.495C12.5087 23.9447 11.5235 22.8968 10.5696 21.8704L10.3104 21.5952C10.1134 21.3836 9.91664 21.1721 9.74038 20.9817L8.90052 20.1033L8.53754 21.2674C8.39239 21.7224 8.30944 22.0081 8.27834 22.0716C8.2265 22.2304 8.08151 22.3362 7.92599 22.3362H1.37361C1.16625 22.3362 1 22.1668 1 21.9551V1.88107C1 1.77525 1.04184 1.66942 1.11441 1.60592C1.18699 1.53185 1.26993 1.5 1.37361 1.5H1.39437C5.68671 1.76455 11.2022 2.52667 12.5501 3.83884C12.633 3.9235 12.6743 4.0291 12.664 4.1455C12.6432 4.4418 12.6022 4.77003 12.5607 5.12982L12.4569 5.95525H22.265L22.4619 5.79636C24.1208 4.46303 25.5515 3.86003 27.1067 3.86003C28.2576 3.86003 29.543 4.18802 31.0256 4.86527C33.3895 5.94463 35.7537 6.897 37.3193 7.50018L38.999 8.14554L38.2214 6.49494C38.18 6.41028 38.1696 6.30445 38.2007 6.2198C38.2318 6.11398 38.3043 6.02909 38.3976 5.98676C38.5946 5.89153 43.3014 3.72233 51.6269 3.72233C51.8343 3.72233 52 3.89175 52 4.10339V24.1774C52 24.3891 51.8343 24.5583 51.6269 24.5583H45.0745C44.9086 24.5583 44.753 24.4418 44.7115 24.2725C44.639 24.008 44.5352 23.6588 44.4108 23.2461L44.1207 22.3044L41.1967 24.3043L41.2903 24.7804C41.4769 25.7963 41.1346 26.7805 40.3467 27.4683C39.7972 27.9445 39.1338 28.209 38.4806 28.209C38.4392 28.209 38.3973 28.209 38.3455 28.209L37.8271 28.1775L37.6408 28.6642C37.3919 29.3097 36.863 29.8705 36.158 30.2303C35.6396 30.4949 35.0692 30.6429 34.5197 30.6429C34.302 30.6429 34.0844 30.6219 33.8874 30.5796L33.3377 30.4631L33.0891 30.971C32.6951 31.7858 32.011 32.4419 31.2023 32.7593C30.8602 32.8969 30.518 32.9606 30.1655 32.9606C29.8441 32.9606 29.5326 32.8969 29.232 32.7805L28.8381 32.6219L28.5166 32.897C28.0708 33.278 27.3972 33.4685 26.4952 33.4685L26.5053 33.5ZM12.2078 7.3307C11.4925 11.0873 10.2174 15.6907 9.2635 18.8864L9.13896 19.3202L9.46043 19.6271C9.85441 19.9975 10.4556 20.6431 11.088 21.3204C11.99 22.2833 13.0167 23.3732 13.6284 23.9023C17.7859 27.4473 22.6383 31.1508 23.4263 31.6799C24.1624 32.1773 25.6035 32.7381 26.4952 32.7381C26.7233 32.7381 26.9305 32.7278 27.1067 32.696L28.5997 32.4948L27.5006 31.4366C25.8314 29.8281 23.5816 27.3942 22.9388 26.6852C22.7936 26.5265 22.804 26.2831 22.9596 26.1456C23.0529 26.0609 23.1462 26.0399 23.2188 26.0399C23.281 26.0399 23.395 26.0609 23.4987 26.1667C24.1208 26.8546 27.3245 30.3254 28.9211 31.7011L28.952 31.7329H28.9626C29.3048 32.0609 29.7197 32.2196 30.1655 32.2196C30.4143 32.2196 30.6733 32.1668 30.9325 32.0716C31.6375 31.7965 32.2285 31.1933 32.5084 30.4631L32.6952 29.987L32.3216 29.6483C30.6938 28.1562 27.8846 25.0875 27.3351 24.4844L27.3037 24.4526C27.2207 24.3573 27.2105 24.2409 27.2105 24.188C27.2105 24.0822 27.2625 23.987 27.3351 23.9235C27.4284 23.8388 27.5217 23.8282 27.5943 23.8282C27.6565 23.8282 27.7705 23.8494 27.8742 23.9553C28.6207 24.7912 31.9384 28.3891 33.2966 29.4896C33.2966 29.4896 33.307 29.5002 33.3174 29.5108C33.5973 29.7754 34.0117 29.9128 34.499 29.9128C34.9448 29.9128 35.401 29.7963 35.8157 29.5847C36.1683 29.4048 36.8008 28.9815 36.9978 28.2302L37.1117 27.7964L36.7903 27.5001C35.2351 26.0503 31.3575 21.9339 30.5902 21.1297C30.5177 21.0556 30.4865 20.9604 30.4865 20.8545C30.4865 20.7911 30.5076 20.6852 30.6009 20.59C30.6734 20.5159 30.7668 20.4843 30.8601 20.4843C30.9223 20.4843 31.0361 20.4948 31.1294 20.6006C33.1304 22.7276 36.7385 26.516 37.6301 27.2355L37.6716 27.2673L37.7238 27.2991C37.9311 27.4261 38.1797 27.4895 38.4492 27.4895C38.9365 27.4895 39.4447 27.2884 39.849 26.9286C40.6059 26.2725 40.7922 25.3202 40.3568 24.3784C39.4651 22.4948 35.9195 19.5636 32.4877 16.7277C30.7977 15.3308 29.0561 13.9022 27.8119 12.7064L27.4798 12.3889L27.0551 12.569C26.713 12.7066 26.4535 12.8228 26.2669 12.918C25.7277 13.1614 25.4269 13.2989 24.8048 13.3942L24.5147 13.4365L24.3386 13.6693C23.2292 15.1825 21.8917 15.9446 20.3676 15.9446C19.8388 15.9446 19.2791 15.8493 18.7192 15.6589C17.9727 15.4049 17.4853 14.8971 17.3194 14.1775C16.8736 12.2304 18.7916 9.36259 20.1084 8.00809L21.3213 6.75949H12.3015L12.1871 7.35188L12.2078 7.3307ZM50.5278 4.51598C45.2402 4.64296 41.5805 5.65872 39.8698 6.25131L39.1129 6.51586L39.4552 7.25681C41.114 10.8653 44.1727 19.8176 45.2198 23.2991L45.3752 23.8176H51.2639V4.50539L50.5278 4.52657V4.51598ZM27.5943 11.5529C27.6979 11.5529 27.7912 11.5953 27.8535 11.6588C29.0769 12.9075 30.9635 14.4736 32.9645 16.1138C35.9298 18.5689 38.9989 21.098 40.4504 23.0769L40.8544 23.6377L43.8717 21.5743L43.6955 21.0452C42.6172 17.733 40.8549 12.6852 39.5382 9.43651L39.4136 9.14044L39.1129 9.03452C38.0658 8.65357 34.3539 7.26732 30.694 5.59536C29.2943 4.96044 28.1539 4.66401 27.1067 4.66401C24.8465 4.66401 23.0941 6.01865 20.6369 8.51601C19.1335 10.0504 17.703 12.5794 18.0348 13.9868C18.1384 14.4419 18.4392 14.7489 18.9369 14.9182C19.4449 15.0981 19.9114 15.1827 20.3676 15.1827C21.7465 15.1827 22.9595 14.3997 23.9756 12.8441C24.0378 12.7489 24.1415 12.6853 24.2555 12.6747C25.0642 12.59 25.3236 12.4843 25.9353 12.2091L25.9869 12.1879C26.3291 12.0292 26.7644 11.8387 27.4383 11.5847C27.4798 11.5741 27.5214 11.5635 27.5629 11.5635L27.5943 11.5529ZM1.74672 21.5849H7.65666L7.81208 21.0767C8.61042 18.5053 11.2645 9.71173 11.8555 4.75934L11.9178 4.24083L11.4616 4.00806C9.90643 3.23557 5.85243 2.62176 2.52431 2.35721L1.74672 2.29365V21.5849Z" fill="white" stroke="#5BA646" stroke-width="1.2"/>
</svg>
