<svg width="58" height="58" viewBox="0 0 58 58" fill="none" xmlns="http://www.w3.org/2000/svg">
<g filter="url(#filter0_d_305_21887)">
<path d="M46.8951 48.9916C45.2637 48.9916 43.7329 48.3523 42.5808 47.1915L32.8433 37.4501C32.7256 37.3323 32.7256 37.1388 32.8433 37.0294L33.2551 36.6173C33.8101 36.0536 33.8101 35.1535 33.2551 34.5899C32.986 34.3207 32.6247 34.1693 32.2463 34.1693C31.8678 34.1693 31.5061 34.3207 31.237 34.5899L30.8247 35.0022C30.7659 35.0611 30.6902 35.0863 30.6145 35.0863C30.5388 35.0863 30.4547 35.0526 30.4043 35.0022L28.1677 32.7645L23.3238 37.6099L23.3829 37.8791C23.509 38.4764 23.5677 39.0821 23.5677 39.6877C23.5677 44.8024 19.4051 48.9664 14.2838 48.9664C9.16261 48.9664 5 44.8023 5 39.6793C5 34.5563 9.16261 30.3922 14.2838 30.3922C14.8893 30.3922 15.5031 30.4596 16.0917 30.5773L16.3611 30.6362L34.6344 12.3565L34.5752 12.0872C34.4491 11.4984 34.3905 10.8844 34.3905 10.2787C34.3905 9.50477 34.4828 8.73076 34.6762 7.98207C35.719 3.8685 39.4024 1 43.6406 1C44.4059 1 45.1711 1.09251 45.9195 1.28599C45.9784 1.30281 46.0287 1.32803 46.0624 1.37009C46.1212 1.42897 46.1466 1.50468 46.1466 1.58039C46.1466 1.6561 46.1128 1.73181 46.0624 1.7907L40.7561 7.09885L42.2868 11.6835L46.8696 13.2145L52.1759 7.90639C52.1759 7.90639 52.2599 7.83912 52.3188 7.83071C52.344 7.83071 52.3695 7.82229 52.3948 7.82229C52.5293 7.82229 52.6551 7.91484 52.6888 8.04943C52.8822 8.80653 52.975 9.58045 52.975 10.3544C52.9581 15.4353 48.8124 19.5741 43.7248 19.5741H43.6911C43.0857 19.5741 42.4719 19.5068 41.8832 19.3891L41.6139 19.3302L36.7703 24.1756L39.0069 26.4132C39.0658 26.4721 39.0911 26.5478 39.0911 26.6235C39.0911 26.6993 39.0574 26.775 39.0069 26.8339L38.5364 27.305C38.0402 27.877 38.0651 28.735 38.6033 29.2734C38.8724 29.5426 39.2341 29.694 39.6126 29.694C39.991 29.694 40.3527 29.5426 40.6218 29.2734L41.0337 28.8612C41.0925 28.8023 41.1682 28.7771 41.2439 28.7771C41.3196 28.7771 41.3953 28.8108 41.4541 28.8612L51.234 38.6446C52.3776 39.7971 53 41.3281 53 42.9517C53 44.5752 52.3524 46.0978 51.2003 47.2419C50.0567 48.3775 48.5349 49 46.9288 49L46.8951 48.9916ZM14.2165 30.998C13.4933 30.998 12.7621 31.0904 12.0641 31.2671C7.39696 32.4532 4.56305 37.2229 5.75716 41.8917C6.74104 45.7698 10.2221 48.4784 14.2165 48.4784C14.9397 48.4784 15.6716 48.386 16.3779 48.2093C18.64 47.6373 20.5406 46.2072 21.7347 44.2051C22.9288 42.1946 23.2649 39.8476 22.6931 37.5847C22.6678 37.4837 22.6932 37.3744 22.7772 37.2987L41.3281 18.7413C41.3785 18.6993 41.4374 18.6825 41.5046 18.6825C41.5299 18.6825 41.555 18.6825 41.5802 18.6909C42.2782 18.8676 43.0016 18.96 43.7248 18.96H43.7667C48.5263 18.9348 52.3863 15.04 52.3611 10.2703C52.3611 10.1104 52.3611 9.94212 52.3443 9.77387L52.2683 8.62983L47.1558 13.7445C47.097 13.8034 47.0213 13.8286 46.9456 13.8286C46.912 13.8286 46.878 13.8286 46.8528 13.8118L41.9501 12.1799C41.8576 12.1462 41.7904 12.0788 41.7567 11.9863L40.1254 7.09043C40.0918 6.98107 40.1257 6.86331 40.2014 6.7876L45.3138 1.6646L44.1703 1.59723C43.9937 1.58882 43.8086 1.58039 43.632 1.58039C42.9088 1.58039 42.1942 1.67298 41.4878 1.84964C36.8711 3.03576 34.0791 7.7466 35.2564 12.3649C35.2817 12.4658 35.2566 12.5752 35.1809 12.6509L16.6637 31.1746C16.6048 31.2335 16.5294 31.2587 16.4453 31.2587C16.42 31.2587 16.3945 31.2587 16.3693 31.2503C15.6713 31.0736 14.9481 30.9811 14.2165 30.9811V30.998ZM44.204 47.7382L44.9525 48.0243C45.5664 48.2514 46.2137 48.3691 46.8696 48.3775C47.534 48.3775 48.1817 48.2598 48.804 48.0243C51.6295 46.9643 53.0589 43.8013 51.9993 40.9832L51.7136 40.2345L44.204 47.7466V47.7382ZM32.2463 33.5552C32.7256 33.5552 33.1879 33.7235 33.5495 34.0263C33.9616 34.3712 34.2224 34.8676 34.2644 35.4059C34.3149 35.9443 34.1466 36.4743 33.7934 36.8865L33.4908 37.2482L42.9931 46.754C43.094 46.855 43.2034 46.9559 43.338 47.0653L43.6993 47.3681L51.3518 39.713L51.0492 39.3512C50.9315 39.2166 50.8389 39.1072 50.738 39.0063L41.2439 29.5006L40.8822 29.8034C40.5206 30.1146 40.0498 30.2828 39.5789 30.2828C39.0996 30.2828 38.6372 30.1146 38.2756 29.8118C37.8636 29.4669 37.6028 28.9706 37.5608 28.4322C37.5103 27.8938 37.6785 27.3638 38.0317 26.9516L38.3343 26.59L36.3244 24.5879L28.5795 32.327L30.5895 34.3376L30.9512 34.0348C31.3128 33.7235 31.7836 33.5552 32.2545 33.5552H32.2463Z" stroke="#5BA646" stroke-width="1.2" shape-rendering="crispEdges"/>
</g>
<defs>
<filter id="filter0_d_305_21887" x="0.399902" y="0.400391" width="57.2002" height="57.1992" filterUnits="userSpaceOnUse" color-interpolation-filters="sRGB">
<feFlood flood-opacity="0" result="BackgroundImageFix"/>
<feColorMatrix in="SourceAlpha" type="matrix" values="0 0 0 0 0 0 0 0 0 0 0 0 0 0 0 0 0 0 127 0" result="hardAlpha"/>
<feOffset dy="4"/>
<feGaussianBlur stdDeviation="2"/>
<feComposite in2="hardAlpha" operator="out"/>
<feColorMatrix type="matrix" values="0 0 0 0 0 0 0 0 0 0 0 0 0 0 0 0 0 0 0.25 0"/>
<feBlend mode="normal" in2="BackgroundImageFix" result="effect1_dropShadow_305_21887"/>
<feBlend mode="normal" in="SourceGraphic" in2="effect1_dropShadow_305_21887" result="shape"/>
</filter>
</defs>
</svg>
