<svg width="36" height="36" viewBox="0 0 36 36" fill="none" xmlns="http://www.w3.org/2000/svg">
<path d="M1 4.77778C1 3.77585 1.42144 2.81496 2.1716 2.10649C2.92176 1.39802 3.9392 1 5.00009 1H25.0006C26.0614 1 27.0789 1.39802 27.829 2.10649C28.5792 2.81496 29.0006 3.77585 29.0006 4.77778V8.55557C29.0006 9.5575 28.5792 10.5184 27.829 11.2269C27.0789 11.9353 26.0614 12.3334 25.0006 12.3334H5.00009C3.9392 12.3334 2.92176 11.9353 2.1716 11.2269C1.42144 10.5184 1 9.5575 1 8.55557V4.77778Z" stroke="#5BA646" strokeWidth="2" strokeLinecap="round" strokeLinejoin="round"/>
<path d="M29.0003 6.66699H31.0004C32.0613 6.66699 33.0787 7.06501 33.8289 7.77348C34.579 8.48195 35.0005 9.44285 35.0005 10.4448C35.0005 12.9496 33.9469 15.3518 32.0715 17.123C30.1961 18.8942 27.6525 19.8892 25.0002 19.8892H15V23.667" stroke="#5BA646" strokeWidth="2" strokeLinecap="round" strokeLinejoin="round"/>
<path d="M11 25.5554C11 25.0544 11.2107 24.574 11.5858 24.2197C11.9609 23.8655 12.4696 23.6665 13 23.6665H17.0001C17.5306 23.6665 18.0393 23.8655 18.4144 24.2197C18.7895 24.574 19.0002 25.0544 19.0002 25.5554V33.111C19.0002 33.6119 18.7895 34.0924 18.4144 34.4466C18.0393 34.8008 17.5306 34.9999 17.0001 34.9999H13C12.4696 34.9999 11.9609 34.8008 11.5858 34.4466C11.2107 34.0924 11 33.6119 11 33.111V25.5554Z" stroke="#5BA646" strokeWidth="2" strokeLinecap="round" strokeLinejoin="round"/>
</svg>
