<svg width="36" height="36" viewBox="0 0 36 36" fill="none" xmlns="http://www.w3.org/2000/svg">
<path d="M13.1527 19.8391L12.6771 19.6408L12.6485 19.6691L12.5568 19.38C12.3505 18.7339 12.2416 18.0595 12.2416 17.3794C12.2416 13.7918 15.1924 10.8729 18.8193 10.8729C19.5585 10.8729 20.2861 10.992 20.9737 11.23C21.0539 11.2527 21.1169 11.3207 21.1341 11.4C21.157 11.4851 21.1284 11.5701 21.0711 11.6267L18.7964 13.8768C18.3208 14.3472 18.0573 14.9763 18.0573 15.6394C18.0573 16.3025 18.3208 16.9316 18.7964 17.402L18.8308 17.4417H18.8365C19.3006 17.8781 19.908 18.1332 20.5783 18.1332C21.2487 18.1332 21.8847 17.8725 22.3603 17.402L24.635 15.152C24.6808 15.1067 24.7438 15.084 24.8068 15.084C24.8298 15.084 24.847 15.0897 24.8641 15.0897C24.9444 15.1123 25.0074 15.169 25.036 15.2483C25.2767 15.9341 25.397 16.6483 25.397 17.3794C25.397 20.967 22.4462 23.8858 18.8193 23.8858C18.126 23.8858 17.4442 23.7838 16.7967 23.5741V23.5627L16.4873 23.4664L5.62386 34.2122C5.11391 34.7223 4.41489 35 3.71014 35C3.00539 35 2.34075 34.7393 1.83653 34.2575L1.79643 34.2179C1.29221 33.7191 1 33.0447 1 32.3249C1 31.6051 1.28648 30.9307 1.79643 30.4262C1.89383 30.3356 10.9926 21.3127 12.6542 19.6691L12.8203 20.1848L2.14021 30.772C1.71621 31.1857 1.48702 31.7468 1.48702 32.3249C1.48702 32.903 1.72767 33.4697 2.14021 33.8778C2.55847 34.2972 3.11998 34.5239 3.71014 34.5239C4.3003 34.5239 4.86181 34.2915 5.28008 33.8778L16.2696 23.013C16.3154 22.9676 16.3785 22.945 16.4415 22.945C16.4702 22.945 16.5045 22.9506 16.5332 22.962C17.2608 23.2567 18.0286 23.4041 18.8251 23.4041C22.1826 23.4041 24.9157 20.7006 24.9157 17.3794C24.9157 17.1867 24.9043 16.994 24.8871 16.8069L24.7782 15.7018L22.7098 17.7478C22.1368 18.3089 21.3862 18.6206 20.5783 18.6206C19.7705 18.6206 19.0141 18.3089 18.4469 17.7478L18.4354 17.7364C17.8682 17.1753 17.5588 16.4329 17.5588 15.6394C17.5588 14.8459 17.8739 14.0978 18.4412 13.5367L20.5611 11.4397L18.8251 11.3547H18.8136C15.456 11.3547 12.7229 14.0581 12.7229 17.3794C12.7229 18.1615 12.8719 18.9266 13.1699 19.6464C13.1985 19.7088 13.1813 19.7768 13.1527 19.8391ZM13.1527 19.8391L13.1584 19.8393M13.1527 19.8391L13.1473 19.8393M34.8109 14.7893C34.7937 14.6816 34.7078 14.5966 34.5932 14.5853L30.7944 14.1715L30.697 13.8315C30.4277 12.8623 30.0324 11.9215 29.5339 11.0487L29.3563 10.737L31.7513 7.78981C31.82 7.70479 31.8258 7.58011 31.7513 7.49509C30.8059 6.23688 29.6829 5.13169 28.4109 4.19087C28.3593 4.1512 28.302 4.14553 28.2676 4.14553C28.2275 4.14553 28.1702 4.15686 28.1129 4.19654L25.1278 6.5656L24.8126 6.38991C23.9245 5.89116 22.9791 5.50576 21.9993 5.23938L21.6556 5.14303L21.2373 1.3854C21.2258 1.27771 21.1399 1.18703 21.031 1.17003C20.2518 1.05668 19.4554 1 18.6704 1C17.8854 1 17.089 1.05668 16.3098 1.17003C16.2009 1.18703 16.115 1.27205 16.1035 1.3854L15.6852 5.14303L15.3415 5.23938C14.3617 5.50576 13.4163 5.89682 12.5282 6.38991L12.213 6.5656C11.5828 6.06118 9.89252 4.72363 9.23361 4.19654C9.17631 4.1512 9.11901 4.14553 9.0789 4.14553C9.04453 4.14553 8.98723 4.1512 8.93566 4.19087C7.66367 5.12603 6.54065 6.23688 5.60098 7.48942C5.53223 7.5801 5.53796 7.69913 5.60098 7.78414L7.99599 10.7313L7.81837 11.043C7.31416 11.9215 6.92454 12.8567 6.65525 13.8258L6.54638 14.2112H6.16822C5.90466 14.2396 3.64143 14.4833 2.75333 14.5796C2.64447 14.5909 2.55279 14.676 2.5356 14.7836C2.30642 16.3309 2.30642 17.9065 2.5356 19.4538C2.55279 19.5615 2.63874 19.6465 2.75333 19.6578L6.55211 20.0715L6.64952 20.4116C6.75265 20.7913 6.88443 21.1711 7.02768 21.5394C7.06778 21.6471 7.17092 21.6925 7.25686 21.6925C7.28551 21.6925 7.31416 21.6925 7.34281 21.6755C7.46886 21.6301 7.53189 21.4884 7.48605 21.3638C7.28551 20.848 7.12508 20.3209 6.99903 19.7882C6.97611 19.6861 6.89016 19.6125 6.78703 19.6011L2.99398 19.1874L2.94814 18.768C2.82782 17.6685 2.82782 16.5463 2.94814 15.4468L2.99398 15.0274L6.78703 14.6136C6.89016 14.6023 6.97611 14.5286 6.99903 14.4266C7.29697 13.1514 7.80118 11.9442 8.50594 10.8277C8.56323 10.737 8.5575 10.6293 8.48875 10.5499L6.09947 7.60278L6.36876 7.27405C7.07351 6.41258 7.86994 5.62478 8.74658 4.92766L9.0789 4.66128L11.7833 6.80931L12.0526 7.02468C12.0927 7.05868 12.15 7.07569 12.2073 7.07569C12.2532 7.07569 12.299 7.06435 12.3391 7.03601C13.4621 6.34456 14.6883 5.84015 15.9774 5.54543C16.0806 5.52276 16.1551 5.43775 16.1665 5.33573L16.5848 1.58376L17.0088 1.53842C17.5646 1.48175 18.1261 1.44774 18.6876 1.44774C19.2491 1.44774 19.8106 1.47608 20.3664 1.53842L20.7904 1.58376L21.2086 5.33573C21.2201 5.43775 21.2946 5.52276 21.3977 5.54543C22.6869 5.84015 23.9073 6.3389 25.0361 7.03601C25.0762 7.05868 25.1163 7.07002 25.1621 7.07002C25.2194 7.07002 25.271 7.05302 25.3111 7.01901L28.2905 4.65561L28.6229 4.92199C29.4995 5.61911 30.2959 6.41258 31.0007 7.26839L31.27 7.59711L28.8807 10.5443C28.8177 10.6236 28.8062 10.737 28.8635 10.822C29.5625 11.9328 30.0725 13.1457 30.3704 14.4153C30.3933 14.5173 30.4793 14.5909 30.5824 14.6023L34.3755 15.016L34.4213 15.4354C34.5416 16.5406 34.5416 17.6571 34.4213 18.7566L34.3755 19.1761L30.5824 19.5898C30.4793 19.6011 30.3933 19.6748 30.3704 19.7712C30.0725 21.0464 29.5683 22.2592 28.8635 23.3701C28.8062 23.4551 28.8177 23.5685 28.8807 23.6478L31.27 26.5893L31.0007 26.918C30.2959 27.7795 29.4995 28.573 28.6229 29.2701L28.2905 29.5365L25.5976 27.4054H25.6033L25.3111 27.1731C25.2595 27.1277 25.1965 27.1221 25.1621 27.1221C25.1163 27.1221 25.0705 27.1334 25.0361 27.1561C23.9131 27.8475 22.6869 28.3519 21.4035 28.6466C21.3003 28.6693 21.2258 28.7543 21.2144 28.8563L20.7961 32.6083L20.3721 32.6536C19.8163 32.7103 19.2491 32.7443 18.6933 32.7443C18.1375 32.7443 17.5703 32.716 17.0145 32.6536L16.5905 32.6083L16.1723 28.8563C16.1608 28.7543 16.0863 28.6693 15.9832 28.6466C15.4503 28.5276 14.9289 28.3689 14.4247 28.1762C14.3961 28.1649 14.3674 28.1592 14.3388 28.1592C14.2528 28.1592 14.1497 28.2102 14.1096 28.3123C14.0637 28.4369 14.1268 28.5786 14.2528 28.624C14.6195 28.76 14.9919 28.8847 15.3644 28.9867L15.7082 29.083L16.1264 32.8407C16.1379 32.9484 16.2238 33.039 16.3327 33.0504C17.1119 33.1637 17.9083 33.2204 18.6933 33.2204C19.4783 33.2204 20.2747 33.1637 21.0539 33.0504C21.1628 33.0334 21.2488 32.9484 21.2602 32.8407L21.6785 29.083L22.0223 28.9867C23.0078 28.7147 23.9532 28.3293 24.8355 27.8305L25.1392 27.6605C25.7007 28.1082 27.4425 29.4798 28.1301 30.0239C28.1874 30.0692 28.2447 30.0749 28.2848 30.0749C28.3192 30.0749 28.3765 30.0692 28.4281 30.0295C29.6943 29.0944 30.8173 27.9835 31.7685 26.7253C31.8372 26.6403 31.8315 26.5156 31.7685 26.4306L29.3734 23.4778L29.5511 23.1661C30.0553 22.2876 30.4449 21.3524 30.7142 20.3833L30.8116 20.0432L34.6104 19.6295C34.7192 19.6181 34.8109 19.5331 34.8281 19.4254C35.0573 17.8782 35.0573 16.3026 34.8281 14.7553L34.8109 14.7893Z" stroke="#5BA646"/>
</svg>
