<svg width="35" height="43" viewBox="0 0 35 43" fill="none" xmlns="http://www.w3.org/2000/svg">
<path d="M27.5986 18.3388C27.5986 21.1671 27.6047 23.9954 27.5955 26.8238C27.5925 27.7997 27.5577 28.7762 27.5235 29.7521C27.5186 29.8916 27.5662 29.9854 27.6376 30.0842C29.6393 32.8397 31.6415 35.5958 33.6425 38.3519C34.225 39.1543 34.0888 39.9463 33.284 40.5234C32.7705 40.8913 32.2729 41.2827 31.7605 41.6518C30.9912 42.2067 30.2658 42.0981 29.6985 41.3277C28.8375 40.158 27.9918 38.9772 27.1382 37.8019C26.2131 36.5272 25.2831 35.2557 24.3647 33.9754C24.2444 33.8082 24.1828 33.802 24.0228 33.931C22.6416 35.0433 21.0442 35.6236 19.2966 35.647C15.9602 35.6921 12.6207 35.7279 9.2861 35.6396C6.44612 35.5643 4.20087 34.2125 2.55464 31.8866C1.50438 30.4021 0.998173 28.7243 1 26.8898C1.0055 21.1714 1.00184 15.453 1.00184 9.73464C1.00184 6.08287 3.33684 2.74653 6.74288 1.52063C7.7101 1.17249 8.70357 1.00027 9.72758 1.00027C12.7898 1.00027 15.8527 0.999657 18.915 1.00027C23.0629 1.00213 26.6643 4.01687 27.4447 8.13776C27.5674 8.78652 27.5992 9.44206 27.5992 10.1001C27.5986 12.8463 27.5992 15.5925 27.5992 18.3381L27.5986 18.3388ZM26.3462 18.3437C26.3462 18.3437 26.3511 18.3437 26.3535 18.3437C26.3535 15.4641 26.3712 12.5846 26.3492 9.70501C26.3175 5.58412 22.9719 2.2558 18.8924 2.2558C15.8503 2.2558 12.8088 2.25765 9.76666 2.25457C9.1652 2.25395 8.57412 2.31938 7.98671 2.45086C4.726 3.18294 2.23284 6.31682 2.23284 9.69081C2.23284 15.4086 2.23407 21.127 2.23223 26.8447C2.23223 28.2762 2.58151 29.612 3.34783 30.8138C4.83836 33.1514 6.96697 34.3859 9.72697 34.4125C12.6567 34.4409 15.5865 34.418 18.5168 34.4199C18.9443 34.4199 19.3705 34.4168 19.7955 34.3631C20.9318 34.2199 21.9894 33.8501 22.934 33.1952C23.5129 32.7934 23.5123 32.7607 23.0855 32.2162C22.7777 31.823 22.7735 31.4434 23.0043 31.023C23.2736 30.5317 23.6387 30.1138 24.0319 29.7311C24.2689 29.5009 24.2243 29.3595 24.0588 29.1336C22.4956 26.9954 20.9373 24.8528 19.3882 22.7041C19.2306 22.4856 19.1275 22.4664 18.915 22.6257C17.7652 23.4886 16.6062 24.3392 15.446 25.1886C15.3117 25.2868 15.2799 25.3892 15.3086 25.5485C15.4985 26.6108 15.0473 27.4707 14.052 27.8639C12.509 28.4737 10.8969 28.8564 9.29648 29.2712C9.05224 29.3342 8.83303 29.2354 8.68648 29.0249C8.53321 28.8046 8.51795 28.5614 8.66022 28.3293C8.74449 28.191 8.8544 28.0676 8.9582 27.9422C9.89428 26.8065 10.812 25.6546 11.8531 24.6121C12.5517 23.9121 13.4237 23.7275 14.2431 24.1633C14.5057 24.3028 14.6522 24.2417 14.8556 24.0892C16.0218 23.2146 17.1918 22.3448 18.3697 21.4868C19.0041 21.0245 19.8187 21.1776 20.2791 21.814C21.8911 24.043 23.5062 26.2694 25.1152 28.5003C25.2202 28.6459 25.3045 28.7009 25.4858 28.6243C25.6837 28.541 25.9023 28.5391 26.1154 28.5996C26.2357 28.6342 26.3065 28.6101 26.2979 28.4571C26.2766 28.0774 26.3413 27.699 26.3425 27.3213C26.3505 24.3288 26.3468 21.3362 26.3468 18.3437H26.3462ZM32.7565 39.2784C32.7198 39.2216 32.6789 39.1512 32.6319 39.0858C30.4361 36.0538 28.2397 33.0224 26.0445 29.9903C25.9395 29.8453 25.843 29.7947 25.6721 29.9212C25.1164 30.3323 24.6743 30.8521 24.2469 31.3891C24.151 31.5095 24.1773 31.5854 24.2621 31.702C25.1787 32.9576 26.0873 34.2193 26.9996 35.4779C28.2177 37.1593 29.4402 38.8377 30.6511 40.5253C30.8055 40.7407 30.9124 40.7407 31.1108 40.5864C31.6006 40.2049 32.1098 39.8494 32.6069 39.4778C32.6661 39.4333 32.7491 39.3926 32.7571 39.279L32.7565 39.2784ZM10.9641 27.4756C11.8849 27.2787 12.7416 27.0324 13.5781 26.7188C13.917 26.5917 14.1021 26.3392 14.1277 25.9781C14.146 25.7145 13.8993 25.3398 13.652 25.2516C13.3137 25.1306 13.0231 25.2053 12.7624 25.4651C12.2555 25.9695 11.7872 26.5089 11.3219 27.0515C11.2016 27.1916 11.0838 27.3342 10.9641 27.4756Z" fill="#5BA646" stroke="#5BA646"/>
<rect x="6" y="8" width="16" height="9" rx="3" stroke="#5BA646" stroke-width="1.5"/>
<path d="M18.5303 12.5303C18.8232 12.2374 18.8232 11.7626 18.5303 11.4697C18.2374 11.1768 17.7626 11.1768 17.4697 11.4697L18.5303 12.5303ZM13.5303 17.5303L18.5303 12.5303L17.4697 11.4697L12.4697 16.4697L13.5303 17.5303Z" fill="#5BA646"/>
<path d="M16.0529 11.5068C16.3328 11.2015 16.3121 10.727 16.0068 10.4471C15.7015 10.1672 15.227 10.1879 14.9471 10.4932L16.0529 11.5068ZM10.5529 17.5068L16.0529 11.5068L14.9471 10.4932L9.44713 16.4932L10.5529 17.5068Z" fill="#5BA646"/>
</svg>
