<svg width="93" height="50" viewBox="0 0 93 50" fill="none" xmlns="http://www.w3.org/2000/svg">
<path d="M64.5 32.7347L65.7879 31.0354C68.6048 27.193 72.9443 24.9885 77.7 24.9885L77.7051 24.9911C84.2397 24.9911 89.9293 29.206 91.8605 35.4774C92.1447 36.3985 91.9924 37.2966 91.424 38.0722C90.8555 38.8479 90.0485 39.2587 89.0893 39.2587L66.5 39.2586M28.5 33L27.8033 31.8366L27.2146 31.0329C24.4003 27.1904 20.0582 24.9885 15.3025 24.986H15.2975L15.2949 24.9885C8.76029 24.9885 3.07072 29.2035 1.13952 35.4749C0.855292 36.396 1.00755 37.2941 1.576 38.0697C2.14445 38.8453 2.95399 39.2561 3.91325 39.2561H25.3747H26.6831M26.6831 39.2561C28.0776 29.3767 36.4941 21.9956 46.4937 21.9931H46.5723C56.7359 22.0289 65.2499 29.6857 66.3945 39.8276L66.4046 39.9195V44.0834C66.4046 46.7956 64.2095 49 61.5144 49H31.4907C28.7931 49 26.6005 46.793 26.6005 44.0834V39.9195L26.6106 39.8276C26.6322 39.6362 26.6563 39.4457 26.6831 39.2561ZM77.7025 9.28448C73.7412 9.28448 70.5208 12.5248 70.5208 16.505C70.5208 20.4853 73.7412 23.7256 77.7 23.7256C81.6639 23.7256 84.8843 20.4853 84.8843 16.505C84.8843 12.5248 81.6614 9.28448 77.7025 9.28448ZM15.2975 9.28193C11.3361 9.28193 8.11571 12.5222 8.11571 16.5025C8.11571 20.4827 11.3361 23.723 15.2949 23.723C19.2588 23.723 22.4792 20.4827 22.4792 16.5025C22.4792 12.5222 19.2563 9.28193 15.2975 9.28193ZM46.5013 1C41.0908 1 36.6904 5.42418 36.6904 10.8638C36.6904 16.3035 41.0883 20.7251 46.4937 20.7276C51.9142 20.7251 56.3121 16.2984 56.3121 10.8638C56.3121 5.42418 51.9117 1 46.5013 1Z" stroke="white" stroke-width="2"/>
</svg>
