<svg width="64" height="64" viewBox="0 0 64 64" fill="none" xmlns="http://www.w3.org/2000/svg">
<path d="M39.5369 16.6259C39.9341 16.6259 40.2634 16.2966 40.2634 15.8994V10.2225H62.2734C62.6706 10.2225 63 9.89313 63 9.49594V4.88469C63 4.4875 62.6706 4.15812 62.2734 4.15812H40.2634V1.72656C40.2634 1.32937 39.9341 1 39.5369 1H24.4534C24.0562 1 23.7269 1.32937 23.7269 1.72656V4.15812H1.72656C1.32937 4.15812 1 4.47781 1 4.88469V9.49594C1 9.89313 1.32937 10.2225 1.72656 10.2225H23.7269V15.8994C23.7269 16.2966 24.0562 16.6259 24.4534 16.6259H27.6406L31.3412 24.0272C31.3509 24.0466 31.3703 24.0659 31.38 24.0853V32.3391L25.0734 36.9406H23.3394C22.9422 36.9406 22.6128 37.27 22.6128 37.6672V55.9475H1.72656C1.31969 55.9378 1 56.2672 1 56.6644C1 57.0616 1.32937 57.3909 1.72656 57.3909H12.6734V62.3316C12.6734 62.7287 13.0028 63.0581 13.4 63.0581H50.6C50.9972 63.0581 51.3266 62.7287 51.3266 62.3316V57.3909H62.2734C62.6706 57.3909 63 57.0616 63 56.6644C63 56.2672 62.6706 55.9378 62.2734 55.9378H41.3872V37.6575C41.3872 37.2603 41.0578 36.9309 40.6606 36.9309H27.5438L32.5425 33.2884C32.7266 33.1528 32.8428 32.93 32.8428 32.6975V23.6978C32.8428 23.6881 32.8331 23.6688 32.8331 23.6591L36.3594 16.6259H39.5369ZM49.8734 61.605H14.1266V57.3909H49.8734V61.605ZM39.9341 55.9378H24.0659V38.3841H39.9341V55.9378ZM61.5469 5.61125V8.76938H40.2634V5.61125H61.5469ZM2.45312 8.76938V5.61125H23.7269V8.76938H2.45312ZM25.18 9.49594V4.88469V2.45312H38.8103V4.875V4.88469V4.89438V9.48625V9.49594V9.50563V15.1728H25.18V9.49594ZM32 22.08L29.2681 16.6259H34.7319L32 22.08Z" fill="#5BA646"/>
<path d="M36.3017 5.94141H27.6992C27.302 5.94141 26.9727 6.27078 26.9727 6.66797C26.9727 7.06516 27.302 7.39453 27.6992 7.39453H36.3017C36.6989 7.39453 37.0283 7.06516 37.0283 6.66797C37.0283 6.27078 36.6989 5.94141 36.3017 5.94141Z" fill="#5BA646"/>
<path d="M36.3017 10.2344H27.6992C27.302 10.2344 26.9727 10.5637 26.9727 10.9609C26.9727 11.3581 27.2923 11.6875 27.6992 11.6875H36.3017C36.6989 11.6875 37.0283 11.3581 37.0283 10.9609C37.0283 10.5637 36.6989 10.2344 36.3017 10.2344Z" fill="#5BA646"/>
</svg>
