<svg width="60" height="64" viewBox="0 0 60 64" fill="none" xmlns="http://www.w3.org/2000/svg">
<path d="M43.5186 61.4544C43.6487 61.7809 43.4522 62.1075 43.1257 62.2376L38.8808 63.61H38.6844C38.4242 63.61 38.1614 63.4136 38.0976 63.1534C37.9675 62.8269 38.164 62.5003 38.4905 62.3703L42.7354 60.9978C43.0619 60.9952 43.3885 61.1279 43.5186 61.4544ZM21.9036 62.434L17.6587 61.0615C17.3321 60.9314 17.0056 61.1279 16.8755 61.4544C16.7454 61.7809 16.9418 62.1074 17.2684 62.2375L21.5133 63.61H21.7097C21.9699 63.61 22.2326 63.4136 22.2964 63.1534C22.424 62.8906 22.2301 62.4978 21.9036 62.434ZM24.1893 59.8856L7.53623 50.0897C7.2097 49.8932 6.88317 50.0233 6.68673 50.2861C6.4903 50.6126 6.6204 50.9391 6.88315 51.1356L23.5362 60.9981C23.6663 61.0644 23.7326 61.0644 23.8627 61.0644C24.0592 61.0644 24.2556 60.9343 24.3857 60.7379C24.5796 60.4751 24.4495 60.082 24.1893 59.8856ZM52.8573 50.0897L36.2043 59.8856C35.8777 60.082 35.8114 60.4723 36.0079 60.7351C36.138 60.9315 36.3344 61.0616 36.5308 61.0616C36.6609 61.0616 36.7272 61.0616 36.8573 60.9953L53.5104 51.1354C53.8369 50.9389 53.9032 50.5486 53.7068 50.2859C53.5767 50.0257 53.1839 49.8932 52.8573 50.0897ZM59.9744 0.653631V8.09721C59.9744 8.42374 59.7142 8.75027 59.3213 8.75027H53.5739V24.7503C53.5739 25.0768 53.3137 25.4033 52.9208 25.4033H42.7344V33.24C42.7344 35.0691 41.1681 36.5053 39.2089 36.5053H37.9028V42.6431C37.9028 45.1252 35.8772 47.1481 33.3977 47.1481L33.265 47.1507V60.6684C33.265 60.7985 33.1987 60.9949 33.0686 61.125L30.39 63.9974C30.3262 63.9337 30.1961 64 29.9997 64C29.8033 64 29.6732 63.9337 29.5431 63.7398L27.2574 60.8674C27.191 60.7373 27.1273 60.6072 27.1273 60.4745V47.0202H26.6043C24.1221 47.0202 22.0992 44.9946 22.0992 42.5151V36.3774H20.7931C18.8339 36.3774 17.2676 34.8748 17.2676 33.1121V25.2753L7.01262 25.2728C6.68609 25.2728 6.35956 25.0126 6.35956 24.6197V8.68636H0.678451C0.351921 8.68636 0.0253906 8.42615 0.0253906 8.0333V0.65306C0.0253906 0.32653 0.285596 0 0.678451 0H59.3873C59.7138 0 59.974 0.260205 59.974 0.65306L59.9744 0.653631ZM32.0253 53.4849L28.3672 51.0691V54.0079H28.4335L32.0253 56.4237L32.0253 53.4849ZM32.0253 60.2781V57.926L28.3672 55.5102V60.2781L30.0662 62.3673L32.0253 60.2781ZM32.0253 47.0203H28.3672V49.5662H28.4335L32.0253 51.982L32.0253 47.0203ZM36.6606 36.3747H23.3394V42.5125C23.3394 44.2752 24.7757 45.7778 26.6047 45.7778H33.3953C35.158 45.7778 36.6606 44.3415 36.6606 42.5125V36.3747ZM41.4947 33.1094V31.4104L18.505 31.413V33.112C18.505 34.2217 19.551 35.1375 20.7907 35.1375H39.1431C40.4492 35.135 41.4947 34.2192 41.4947 33.1094ZM41.4947 25.2727H18.505V30.1707H41.4288V25.2727H41.4947ZM52.3342 8.68627H7.66619V24.0332H52.4008V8.68627H52.3342ZM58.7347 1.24008H1.26541V7.44415H58.7347V1.24008ZM38.2933 16.3271C38.2933 14.5643 39.7295 13.1281 41.4922 13.1281C43.255 13.1281 44.6912 14.5643 44.6912 16.3271C44.6912 18.0898 43.255 19.526 41.4922 19.526C39.7295 19.526 38.2933 18.0898 38.2933 16.3271ZM39.5994 16.3271C39.5994 17.373 40.4489 18.2863 41.5586 18.2863C42.6045 18.2863 43.5178 17.4368 43.5178 16.3271C43.5178 15.2811 42.6683 14.3679 41.5586 14.3679C40.4489 14.3679 39.5994 15.2811 39.5994 16.3271ZM26.8007 16.3271C26.8007 14.5643 28.2369 13.1281 29.9997 13.1281C31.7624 13.1281 33.1986 14.5643 33.1986 16.3271C33.1986 18.0898 31.7624 19.526 29.9997 19.526C28.2369 19.526 26.8007 18.0898 26.8007 16.3271ZM28.0405 16.3271C28.0405 17.373 28.89 18.2863 29.9997 18.2863C31.0456 18.2863 31.9589 17.4368 31.9589 16.3271C31.9589 15.2811 31.1094 14.3679 29.9997 14.3679C28.9537 14.3679 28.0405 15.2811 28.0405 16.3271ZM15.3058 16.3271C15.3058 14.5643 16.742 13.1281 18.5048 13.1281C20.2675 13.1281 21.7037 14.5643 21.7037 16.3271C21.7037 18.0898 20.2675 19.526 18.5048 19.526C16.742 19.526 15.3058 18.0898 15.3058 16.3271ZM16.5456 16.3271C16.5456 17.373 17.3951 18.2863 18.5048 18.2863C19.5507 18.2863 20.464 17.4368 20.464 16.3271C20.464 15.2811 19.6145 14.3679 18.5048 14.3679C17.3951 14.3679 16.5456 15.2811 16.5456 16.3271Z" fill="#5BA646"/>
</svg>
