<svg width="58" height="64" viewBox="0 0 58 64" fill="none" xmlns="http://www.w3.org/2000/svg">
<path d="M1.78741 57.8423C0.794683 57.8423 -0.00976562 58.65 -0.00976562 59.6395V62.2028C-0.00976562 63.1956 0.797853 64 1.78741 64H7.2109H7.21728H55.2112C56.2039 64 57.0116 63.1924 57.0116 62.2028V59.6395C57.0116 58.6468 56.2039 57.8423 55.2112 57.8423H52.9543V53.8808H55.2112C56.2039 53.8808 57.0116 53.0732 57.0116 52.0805V49.5172C57.0116 48.5244 56.2039 47.72 55.2112 47.72H52.0669L31.011 31.3344C33.536 30.6289 34.8257 28.3337 34.9533 26.1886C35.1002 23.7082 33.7818 20.8513 30.5768 20.066V17.8475H31.1578C32.9454 17.8475 34.4011 16.3919 34.4011 14.6042V12.8293C37.2613 12.1462 39.3969 9.57329 39.3969 6.50561V0.836318C39.3969 0.37345 39.0234 0 38.5605 0H21.1984C20.7355 0 20.3621 0.376678 20.3621 0.836318V6.50561C20.3621 9.57329 22.4977 12.143 25.3578 12.8293V14.6042C25.3578 16.3918 26.8134 17.8475 28.6011 17.8475H28.9012V20.7587C28.9012 21.1769 29.2108 21.5312 29.6258 21.5887C32.3137 21.9526 33.399 24.1105 33.2809 26.0896C33.1692 27.9506 31.937 29.8437 29.4375 29.8819C29.4056 29.8819 29.3737 29.8851 29.3418 29.8883C27.934 30.0703 26.5837 29.5946 25.7314 28.6146C24.7387 27.475 24.4929 25.7512 25.0387 23.7657C25.16 23.3188 24.8982 22.8591 24.4513 22.7378C24.0044 22.6165 23.5447 22.8783 23.4235 23.3252C22.7244 25.8694 23.0979 28.139 24.4673 29.7159C25.1185 30.4629 25.9612 31.0055 26.9061 31.312L5.36237 47.7196H1.79032C0.797594 47.7196 -0.00685402 48.5272 -0.00685402 49.5168V52.0801C-0.00685402 53.0728 0.800765 53.8773 1.79032 53.8773H4.04717V57.8388L1.78741 57.8423ZM22.0383 6.50937V1.67958L37.7211 1.67639V6.50618C37.7211 9.17163 35.5537 11.336 32.8914 11.336H26.8709C24.2055 11.3392 22.0383 9.17163 22.0383 6.50937ZM29.7379 16.1433C29.6836 16.1433 29.6357 16.1656 29.5815 16.1752H28.6015C27.7364 16.1752 27.0341 15.4729 27.0341 14.6078V13.0405H32.7257V14.6078C32.7257 15.4729 32.0234 16.1752 31.1583 16.1752H29.8942C29.8399 16.1656 29.7922 16.1433 29.7379 16.1433ZM55.2115 49.3958C55.2785 49.3958 55.336 49.4533 55.336 49.5171V52.0804C55.336 52.1474 55.2785 52.2049 55.2115 52.2049H53.0153C52.9642 52.1953 52.9163 52.173 52.8589 52.173H34.7784C34.3156 52.173 33.9421 52.5497 33.9421 53.0093C33.9421 53.4722 34.3156 53.8456 34.7784 53.8456H51.2784V58.6754C51.2784 59.1383 51.6519 59.5117 52.1147 59.5117H55.208C55.275 59.5117 55.3325 59.5692 55.3325 59.633V62.1963C55.3325 62.2602 55.275 62.3176 55.208 62.3176H14.5337C14.5369 62.2761 14.5369 62.2346 14.5369 62.1931V59.6298C14.5369 59.5884 14.5273 59.5469 14.5241 59.5054L28.9656 59.5149C29.4285 59.5149 29.8019 59.1383 29.8019 58.6786C29.8019 58.2157 29.4284 57.8423 28.9656 57.8423L11.3542 57.8391C11.351 57.8391 11.3478 57.8423 11.3446 57.8423H10.4891V53.8808H12.746C13.7387 53.8808 14.5431 53.0732 14.5431 52.0836V49.5203C14.5431 49.4852 14.5431 49.4501 14.54 49.415H44.08C44.131 49.415 44.2076 49.4086 44.2587 49.399L55.2115 49.3958ZM28.9558 31.858L49.3375 47.7197H44.2555C44.1725 47.7197 44.0927 47.7261 44.0129 47.7357H12.9211H12.9179C12.8604 47.7293 12.803 47.7166 12.7455 47.7166H8.12965L28.9558 31.858ZM4.88369 52.2045H1.79044C1.72659 52.2045 1.66913 52.1471 1.66913 52.08V49.5167C1.66913 49.4529 1.72659 49.3954 1.79044 49.3954H12.7425C12.7712 49.3954 12.7936 49.4082 12.8159 49.4273C12.8223 49.4305 12.8255 49.4305 12.8319 49.4369C12.8542 49.4593 12.867 49.488 12.867 49.5199V52.0832C12.867 52.1471 12.8095 52.2077 12.7457 52.2077H9.65243C9.18957 52.2077 8.81612 52.5844 8.81612 53.044V58.6814C8.81612 59.1442 9.1896 59.5177 9.65243 59.5177H12.7457C12.8095 59.5177 12.867 59.5751 12.867 59.6422V62.2055C12.867 62.2693 12.8095 62.3268 12.7457 62.3268L1.78709 62.3236C1.72324 62.3236 1.66578 62.2661 1.66578 62.2023V59.639C1.66578 59.5751 1.72324 59.5145 1.78709 59.5145H4.88034C5.34321 59.5145 5.71666 59.1378 5.71666 58.6782V53.0408C5.71985 52.578 5.34653 52.2045 4.88369 52.2045Z" fill="#5BA646"/>
</svg>
