<svg width="62" height="61" viewBox="0 0 62 61" fill="none" xmlns="http://www.w3.org/2000/svg">
<path d="M8.95616 48.4961C7.02672 48.4961 5.51172 50.0111 5.51172 51.9405C5.51172 53.87 7.02672 55.385 8.95616 55.385C10.8856 55.385 12.4006 53.87 12.4006 51.9405C12.4006 50.0111 10.8856 48.4961 8.95616 48.4961ZM8.95616 54.0072C7.7856 54.0072 6.8895 53.1111 6.8895 51.9405C6.8895 50.77 7.7856 49.8739 8.95616 49.8739C10.1267 49.8739 11.0228 50.77 11.0228 51.9405C11.0228 53.1111 10.1267 54.0072 8.95616 54.0072Z" fill="#5BA646"/>
<path d="M61.3111 47.3958H58.6928V15.0181C58.6928 14.6036 58.4183 14.3292 58.0039 14.3292H19.4261C19.0117 14.3292 18.7372 14.6036 18.7372 15.0181V47.3958H16.6706C15.7072 45.7436 14.1895 44.4331 12.4 43.6769V0.688889C12.4 0.274481 12.1255 0 11.7111 0H0.688889C0.274481 0 0 0.274481 0 0.688889V6.2C0 6.61441 0.274481 6.88889 0.688889 6.88889H4.40779V44.226C1.79214 45.811 0 48.6338 0 51.9408C0 56.9003 3.99611 60.8964 8.95556 60.8964C12.2628 60.8964 15.0856 59.1042 16.6704 56.4886H61.3111C61.7255 56.4886 62 56.2141 62 55.7997V48.0849C62 47.6705 61.7255 47.3958 61.3111 47.3958ZM34.4444 15.7069H42.9853V29.0032L39.1264 25.9032C38.8519 25.696 38.5075 25.696 38.2303 25.9032L34.4441 29.0005L34.4444 15.7069ZM20.1149 15.7069H33.0667V30.4478C33.0667 30.7223 33.2039 30.9295 33.4811 31.0667C33.6883 31.204 34.0327 31.1367 34.24 30.9967L38.7877 27.2778L43.3355 30.9967C43.4727 31.0667 43.61 31.134 43.7499 31.134C43.8199 31.134 43.9571 31.134 44.0244 31.064C44.2316 30.9268 44.4388 30.7196 44.4388 30.4451L44.4334 15.7063H57.3852V47.3952H20.1852V15.7063L20.1149 15.7069ZM5.0964 5.5107H1.3775V1.37736H11.0219V43.2625C10.3331 43.1253 9.64417 42.988 8.95528 42.988C7.85196 42.988 6.75139 43.1952 5.78529 43.6069V6.19959C5.78529 5.78518 5.51081 5.5107 5.0964 5.5107ZM8.95528 59.5182C4.75196 59.5182 1.3775 56.1438 1.3775 51.9404C1.3775 47.7371 4.75196 44.3627 8.95528 44.3627C13.1586 44.3627 16.5331 47.7371 16.5331 51.9404C16.5331 56.1438 13.1586 59.5182 8.95528 59.5182ZM60.622 55.1104H17.2922C17.6367 54.1471 17.9111 53.0438 17.9111 51.9404C17.9111 50.8371 17.7039 49.7365 17.2922 48.7704L60.622 48.7731V55.1104Z" fill="#5BA646"/>
<path d="M35.9592 40.7812H24.9369C24.5225 40.7812 24.248 41.0557 24.248 41.4701C24.248 41.8845 24.5225 42.159 24.9369 42.159H35.9592C36.3736 42.159 36.648 41.8845 36.648 41.4701C36.648 41.0557 36.3736 40.7812 35.9592 40.7812Z" fill="#5BA646"/>
<path d="M24.9369 37.7528H31.5514C31.9658 37.7528 32.2403 37.4783 32.2403 37.0639C32.2403 36.6495 31.9658 36.375 31.5514 36.375H24.9369C24.5225 36.375 24.248 36.6495 24.248 37.0639C24.248 37.4756 24.5252 37.7528 24.9369 37.7528Z" fill="#5BA646"/>
</svg>
