<svg width="64" height="64" viewBox="0 0 64 64" fill="none" xmlns="http://www.w3.org/2000/svg">
<g clip-path="url(#clip0_59_91613)">
<path d="M38.725 62V54.15C40.2625 53.6875 41.7375 53.0625 43.15 52.3L47.3875 56.6C48.0375 57.2625 49.1 57.2625 49.75 56.6L56.8375 49.425C57.4875 48.7625 57.4875 47.6875 56.8375 47.0375L52.6 42.7375C53.3625 41.3125 53.975 39.8125 54.425 38.25H60.425C61.35 38.25 62.1 37.4875 62.1 36.5625V26.4125C62.1 25.475 61.35 24.725 60.425 24.725H54.425C53.975 23.175 53.3625 21.6625 52.6 20.2375L56.8375 15.9375C57.4875 15.275 57.4875 14.2 56.8375 13.55L49.75 6.375C49.1 5.7125 48.0375 5.7125 47.3875 6.375L43.15 10.675C41.7375 9.9 40.2625 9.2875 38.725 8.825V2.6875C38.725 1.75 37.975 1 37.05 1H27.0375C26.1125 1 25.3625 1.7625 25.3625 2.6875V8.775C23.825 9.2375 22.35 9.8625 20.9375 10.625L16.7 6.325C16.05 5.6625 14.9875 5.6625 14.3375 6.325L7.25 13.5C6.6 14.1625 6.6 15.2375 7.25 15.8875L11.4875 20.1875C10.725 21.6125 10.1125 23.1125 9.6625 24.675H3.675C2.75 24.675 2 25.4375 2 26.3625V36.525C2.025 37.45 2.7625 38.1875 3.675 38.2125H9.675C10.125 39.7625 10.7375 41.275 11.5 42.7L7.2625 47C6.6125 47.6625 6.6125 48.7375 7.2625 49.3875L14.35 56.5625C15 57.225 16.0625 57.225 16.7125 56.5625L20.95 52.2625C22.3625 53.0375 23.8375 53.65 25.375 54.1125V61.9625C25.375 62.7875 26.0375 63.4625 26.8625 63.4625H37.25C38.0625 63.4625 38.725 62.7875 38.725 61.9625V62Z" stroke="#5BA646" stroke-width="2" stroke-linecap="round" stroke-linejoin="round"/>
<path d="M42.7969 42.3633C36.8594 48.3758 27.2344 48.3758 21.2969 42.3633C15.3594 36.3508 15.3594 26.5883 21.2969 20.5758C27.2344 14.5633 36.8594 14.5633 42.7969 20.5758C48.7344 26.5883 48.7344 36.3508 42.7969 42.3633Z" stroke="#5BA646" stroke-width="2" stroke-linecap="round" stroke-linejoin="round"/>
</g>
<defs>
<clipPath id="clip0_59_91613">
<rect width="64" height="64" fill="white"/>
</clipPath>
</defs>
</svg>
