<svg width="64" height="64" viewBox="0 0 64 64" fill="none" xmlns="http://www.w3.org/2000/svg">
<g clip-path="url(#clip0_59_91622)">
<path d="M29.6185 12.1566C29.3216 12.1566 29.0247 11.9599 29.0247 11.5629L27.9375 2.58057C27.9375 2.38396 28.0377 2.08712 28.2344 1.98689L29.4179 1.10023C29.5182 0.999999 29.6146 1 29.8112 1H34.3528C34.453 1 34.6497 0.999999 34.746 1.10023L35.9296 1.98689C36.1262 2.08712 36.2265 2.38011 36.2265 2.58057L34.9465 11.5629C34.9465 11.9561 34.5532 12.1566 34.2564 12.1566C33.8631 12.1566 33.6627 11.7633 33.6627 11.4665L34.7499 2.88131L34.0598 2.38787H29.9153L29.2252 2.88131L30.3125 11.4665C30.3086 11.7595 30.1119 12.0563 29.6185 12.1566Z" fill="#5BA646"/>
<path d="M43.6388 18.2792H20.3444C20.1478 18.2792 19.9512 18.179 19.8509 17.9824C19.7507 17.7858 19.6543 17.5891 19.6543 17.2923C19.6543 16.502 19.6543 15.4188 19.7545 14.7248C19.7545 14.5282 19.8548 14.428 19.9512 14.3316L21.235 13.2444C21.8287 7.32306 23.5058 4.65924 28.1438 2.48926C28.4406 2.29265 28.8339 2.48926 29.0305 2.78609C29.2271 3.08293 29.0305 3.47615 28.7336 3.67276C24.4889 5.64654 23.1087 7.91719 22.6152 13.6424C22.6152 13.839 22.515 13.9392 22.4186 14.0356L21.1348 15.1227C21.1348 15.7164 21.0345 16.4065 21.0345 16.9963H43.3419C43.3419 16.4026 43.3419 15.7125 43.2417 15.1227L41.9579 14.0356C41.8576 13.9353 41.7612 13.7387 41.7612 13.6424C41.2677 8.41103 40.2808 5.55062 35.6428 3.97001C35.346 3.86978 35.1493 3.47656 35.2496 3.17973C35.3498 2.88289 35.7431 2.68628 36.0399 2.78651C41.2716 4.5637 42.5555 7.91757 43.049 13.2496L44.3328 14.3367C44.433 14.4369 44.5294 14.6336 44.5294 14.7299C44.6297 15.42 44.6297 16.5071 44.6297 17.2974C44.6297 17.5943 44.5294 17.7909 44.433 17.9875C44.0321 18.1802 43.8355 18.2805 43.6388 18.2805L43.6388 18.2792Z" fill="#5BA646"/>
<path d="M31.99 31.6018C31.1033 31.6018 30.3129 31.5015 29.6229 31.4052H29.5226C26.5617 30.1214 24.5878 27.0644 23.8977 24.5972L23.7975 24.2039L23.2037 23.9071C23.1035 23.8069 23.0071 23.7105 22.9069 23.5139C22.2168 21.7367 21.9199 19.9595 21.9199 18.2826C21.9199 18.086 22.0202 17.8893 22.2168 17.7891L23.0071 17.1954C23.304 16.9988 23.6972 16.9988 23.8939 17.2957C24.0905 17.5925 24.0905 17.9857 23.7936 18.1823L23.3001 18.5756C23.3001 19.9556 23.597 21.3396 24.0905 22.82L24.6842 23.1168C24.8808 23.2171 24.9811 23.3134 24.9811 23.51L25.1777 24.1037C25.7714 26.2741 27.6451 28.9379 30.0122 30.0251C31.0995 30.2217 33.0734 30.2217 34.1567 30.0251C36.5238 28.9379 38.4014 26.2741 38.9913 24.1037L39.1879 23.51C39.1879 23.3134 39.3845 23.2132 39.4847 23.1168L40.0785 22.82C40.5719 21.3396 40.8688 19.9596 40.8688 18.5756L40.1826 18.2787C39.8857 18.0821 39.8857 17.685 40.0823 17.3921C40.2789 17.0952 40.676 17.0952 40.969 17.2918L41.7594 17.8855C41.956 17.9857 42.0562 18.1823 42.0562 18.3789C42.0562 20.0559 41.7594 21.8331 41.0693 23.6103C40.969 23.7105 40.8727 23.9071 40.7724 24.0035L40.1787 24.3003L40.0785 24.6935C39.3884 27.0605 37.4144 30.2217 34.4535 31.5015H34.3533C33.6671 31.6018 32.7803 31.6018 31.99 31.6018Z" fill="#5BA646"/>
<path d="M31.8881 37.6233C31.7878 37.6233 31.5912 37.6233 31.4948 37.5231L25.2762 32.8855C24.9793 32.6889 24.9793 32.2918 25.1759 31.9988C25.3725 31.702 25.7696 31.702 26.0627 31.8986L31.8842 36.2393L37.7057 31.8986C38.0026 31.702 38.3958 31.702 38.5924 31.9988C38.789 32.2956 38.789 32.6889 38.4922 32.8855L32.2735 37.5231C32.1848 37.6233 32.0886 37.6233 31.8881 37.6233Z" fill="#5BA646"/>
<path d="M8.40499 61.9945C8.01175 61.9945 7.71489 61.6977 7.81128 61.3045L8.50138 41.9594C8.60162 39.6887 10.7722 36.728 12.8425 36.038L25.2802 31.7936L26.6604 29.1297C26.857 28.8329 27.2541 28.7365 27.5471 28.8329C27.844 28.9331 27.9403 29.4266 27.844 29.7196L26.3635 32.58C26.2633 32.6802 26.1669 32.8768 25.9703 32.8768L13.2404 37.2176C11.6597 37.711 9.88627 40.1782 9.88627 41.9554L9.19617 61.3005C9.09593 61.6976 8.79824 61.9945 8.40499 61.9945Z" fill="#5BA646"/>
<path d="M16.5904 62.0013C16.1972 62.0013 15.9967 61.7045 15.9967 61.4077L15.8965 48.0846C15.8965 47.6914 16.1933 47.3945 16.4902 47.3945C16.8834 47.3945 17.0839 47.6914 17.0839 47.9882L17.1842 61.3113C17.1842 61.7045 16.8873 62.0013 16.5904 62.0013Z" fill="#5BA646"/>
<path d="M55.4809 61.992C55.1841 61.992 54.8872 61.6951 54.8872 61.3983L54.1971 42.0532C54.1971 40.276 52.3235 37.8088 50.843 37.3153L37.9118 32.9746C37.7152 32.8743 37.6149 32.778 37.5185 32.6777L36.0381 29.8173C35.8415 29.5205 36.0381 29.1273 36.335 28.9307C36.6318 28.7341 37.0251 28.9307 37.2217 29.2275L38.6019 31.8913L51.1353 36.1358C53.2095 36.7294 55.3801 39.6902 55.3801 42.0571L56.0702 61.4022C56.0702 61.595 55.7778 61.8917 55.4809 61.992Z" fill="#5BA646"/>
<path d="M47.2858 62.0013C46.8926 62.0013 46.5957 61.7045 46.5957 61.3113L46.6959 47.9882C46.6959 47.595 46.9928 47.3945 47.386 47.3945C47.7793 47.3945 47.9798 47.6914 47.9798 48.0846L47.8795 61.4077C47.9759 61.7045 47.6791 62.0013 47.2858 62.0013Z" fill="#5BA646"/>
<path d="M20.6395 34.3675C20.4429 34.3675 20.2463 34.2673 20.146 34.0707C19.7528 33.477 19.2593 33.0838 18.8622 32.9835L10.9664 30.3197C10.7698 30.2195 10.6696 30.1231 10.5732 30.0229L9.68262 28.1494C9.486 27.8525 9.68262 27.4593 9.97948 27.2627C10.2763 27.0661 10.6696 27.2627 10.8662 27.5595L11.6566 29.1401L19.2554 31.804C19.9455 32.0006 20.6356 32.5942 21.2293 33.3846C21.426 33.6814 21.3296 34.0746 21.0327 34.2712C20.9363 34.2674 20.8361 34.3675 20.6395 34.3675Z" fill="#5BA646"/>
<path d="M5.83265 17.1894C5.53579 17.1894 5.23893 16.9927 5.23893 16.5957L4.54883 10.9712C4.54883 10.7746 4.64906 10.4777 4.84569 10.3775L5.63603 9.78382C5.73627 9.68359 5.83265 9.68359 6.02928 9.68359H8.8899C8.99013 9.68359 9.18676 9.68359 9.28314 9.78382L10.0735 10.3775C10.2701 10.4777 10.3703 10.7707 10.3703 10.9712L9.68024 16.5957C9.68024 16.9889 9.28699 17.1894 8.99014 17.1894C8.59689 17.1894 8.39642 16.7961 8.39642 16.4993L9.08652 11.268L8.78966 11.0714H6.32225L6.02539 11.268L6.71549 16.4993C6.52273 16.7961 6.2259 17.1894 5.83265 17.1894Z" fill="#5BA646"/>
<path d="M14.6165 21.0365H0.0123726C-0.184251 21.0365 -0.380874 20.9363 -0.48111 20.7397C-0.581347 20.6394 -0.677734 20.4428 -0.677734 20.2462V18.5693C-0.677734 18.3727 -0.577497 18.2725 -0.48111 18.1761L0.208997 17.5824C0.602243 13.8314 1.68945 12.1545 4.65034 10.7744C4.9472 10.5778 5.34045 10.7744 5.53707 11.0712C5.7337 11.3681 5.53707 11.7613 5.24021 11.9579C2.67252 13.1414 1.78583 14.5254 1.48895 17.9795C1.48895 18.1762 1.38872 18.2764 1.29233 18.3728L0.602224 18.9664V19.7567H14.0269V18.9664L13.2366 18.3728C13.1364 18.2725 13.04 18.0759 13.04 17.9795C12.7431 14.8223 12.1532 13.1453 9.38898 12.1585C9.09212 12.0582 8.8955 11.665 8.99574 11.3682C9.09597 11.0713 9.48922 10.8747 9.78608 10.9749C13.1402 12.1584 13.9305 14.2325 14.3277 17.6866L15.0178 18.2803C15.118 18.3805 15.2144 18.5771 15.2144 18.6735C15.2144 19.167 15.3147 19.7607 15.3147 20.2541C15.3147 20.551 15.2144 20.6473 15.118 20.8478C15.0139 20.9365 14.817 21.0365 14.6165 21.0365Z" fill="#5BA646"/>
<path d="M7.31364 29.4303C6.71992 29.4303 6.2264 29.4303 5.83319 29.33H5.73295C3.8593 28.5398 2.47518 26.4696 2.08197 24.889V24.7888L1.78511 24.6886C1.68487 24.5883 1.58849 24.492 1.48825 24.2953C1.095 23.1119 0.894531 22.0247 0.894531 20.9415C0.894531 20.7449 0.994767 20.5483 1.19139 20.448L1.68487 20.0548C1.98173 19.8582 2.37498 19.8582 2.5716 20.155C2.76823 20.4519 2.76823 20.8451 2.47137 21.0417L2.08198 21.2383C2.08198 22.0286 2.2786 22.8189 2.57546 23.6053L2.87232 23.8019C3.06895 23.9021 3.16918 23.9985 3.16918 24.1951L3.26942 24.5883C3.66266 25.8721 4.74987 27.4487 6.13004 28.1427C6.82014 28.243 7.90737 28.243 8.59745 28.1427C9.97763 27.5491 11.0649 25.8721 11.4581 24.5883L11.5583 24.1951C11.5583 23.9985 11.7549 23.8983 11.8552 23.8019L12.152 23.6053C12.4489 22.815 12.5453 22.0247 12.6455 21.2383L12.2484 21.0417C11.9516 20.8451 11.9516 20.448 12.1482 20.155C12.3448 19.8582 12.7419 19.8582 13.0349 20.0548L13.5284 20.448C13.725 20.5483 13.8253 20.7449 13.8253 20.9415C13.8253 22.0286 13.6286 23.1119 13.2315 24.2953C13.1313 24.3956 13.0349 24.5922 12.9347 24.6886L12.6378 24.7888V24.889C12.2446 26.4696 10.8605 28.4434 8.98683 29.33H8.8866C8.40082 29.33 7.80712 29.4303 7.31364 29.4303Z" fill="#5BA646"/>
<path d="M7.31649 33.1807C7.21625 33.1807 7.01963 33.1807 6.92324 33.0805L2.97538 30.1198C2.67852 29.9232 2.67852 29.5262 2.87514 29.2332C3.07176 28.9363 3.46886 28.9363 3.76187 29.1329L7.31653 31.7004L10.8712 29.1329C11.168 28.9363 11.5613 28.9363 11.7579 29.2332C11.9545 29.53 11.9545 29.9232 11.6577 30.1198L7.70981 32.9803C7.51319 33.0805 7.41672 33.1807 7.31649 33.1807Z" fill="#5BA646"/>
<path d="M-7.38797 48.3764C-7.78122 48.3764 -8.07808 48.0796 -7.98169 47.6864L-7.48821 35.6473C-7.48821 34.1669 -6.00776 32.1931 -4.62759 31.8L3.07154 29.1361L3.86188 27.5555C4.0585 27.2587 4.4556 27.1623 4.74861 27.2587C5.04547 27.4553 5.14185 27.8524 5.04547 28.1453L4.15874 29.9225C4.0585 30.0228 3.96211 30.2194 3.76549 30.2194L-4.23051 32.8832C-5.11724 33.18 -6.20444 34.6604 -6.20444 35.547L-6.69793 47.5861C-6.79816 48.0796 -7.09496 48.3764 -7.38797 48.3764Z" fill="#5BA646"/>
<path d="M43.3411 34.3662C43.2408 34.3662 43.0442 34.3662 42.9478 34.2659C42.651 34.0693 42.5546 33.6723 42.7512 33.3793C43.3449 32.589 44.035 31.9992 44.7251 31.7987L52.324 29.2312L53.1143 27.7508C53.3109 27.454 53.708 27.3576 54.0011 27.454C54.2979 27.6506 54.3943 28.0477 54.2979 28.3407L53.4112 30.1179C53.3109 30.2181 53.2146 30.4147 53.0179 30.4147L45.2225 33.0785C44.7213 33.0824 44.2278 33.4756 43.8346 34.0693C43.7344 34.2659 43.5377 34.3662 43.3411 34.3662Z" fill="#5BA646"/>
<path d="M55.1823 17.1894C54.8854 17.1894 54.5885 16.9927 54.5885 16.5957L53.8984 10.9712C53.8984 10.7746 53.9987 10.4777 54.1953 10.3775L54.9856 9.78382C55.0859 9.68359 55.1823 9.68359 55.3789 9.68359H58.2395C58.3397 9.68359 58.5364 9.68359 58.6328 9.78382L59.4231 10.3775C59.6197 10.4777 59.72 10.7707 59.72 10.9712L59.0299 16.5957C59.0299 16.9889 58.6366 17.1894 58.3397 17.1894C57.9465 17.1894 57.746 16.7961 57.746 16.4993L58.4361 11.268L58.1393 11.0714H55.6719L55.375 11.268L56.0651 16.4993C55.8723 16.7961 55.6757 17.1894 55.1823 17.1894C55.2825 17.1894 55.2825 17.1894 55.1823 17.1894Z" fill="#5BA646"/>
<path d="M63.9642 21.0392H49.36C49.1634 21.0392 48.9668 20.9389 48.8665 20.7423C48.7663 20.6421 48.6699 20.4455 48.6699 20.2489V18.5719C48.6699 18.3753 48.7702 18.2751 48.8665 18.1787L49.5566 17.5851C49.8535 14.1309 50.7402 12.0569 54.0983 10.8734C54.3951 10.7732 54.7884 10.9736 54.8886 11.2666C54.9889 11.5634 54.7884 11.9567 54.4954 12.0569C51.7311 13.0438 51.041 14.7207 50.8444 17.878C50.8444 18.0746 50.7441 18.1748 50.6478 18.2712L49.9577 18.8649V19.6552H63.3824V18.8649L62.6923 18.2712C62.592 18.171 62.4956 17.9744 62.4956 17.878C62.1988 14.4239 61.4084 13.0438 58.7444 11.8564C58.4475 11.6597 58.2509 11.3629 58.4475 10.9697C58.6441 10.6728 58.941 10.4762 59.3342 10.6728C62.2951 12.0529 63.3824 13.7338 63.7756 17.4808L64.4657 18.0745C64.5659 18.1747 64.6623 18.3714 64.6623 18.4677C64.6623 18.9612 64.7626 19.5549 64.7626 20.0483C64.7626 20.2449 64.6623 20.4416 64.5659 20.642C64.3616 20.9389 64.1646 21.0392 63.9642 21.0392Z" fill="#5BA646"/>
<path d="M56.6613 29.4303C56.0676 29.4303 55.5741 29.4303 55.1808 29.33H55.0806C53.207 28.5398 51.8228 26.4696 51.4296 24.889V24.7888L51.1328 24.6886C51.0325 24.5883 50.9361 24.492 50.8359 24.2953C50.4427 23.1119 50.2422 22.0247 50.2422 20.9415C50.2422 20.7449 50.3424 20.5483 50.539 20.448L51.0325 20.0548C51.3294 19.8582 51.7226 19.8582 51.9193 20.155C52.1159 20.4519 52.1159 20.8451 51.819 21.0417L51.4296 21.2383C51.4296 22.0286 51.6263 22.8189 51.9231 23.6053L52.22 23.8019C52.4166 23.9021 52.5168 23.9985 52.5168 24.1951L52.6171 24.5883C53.0103 25.8721 54.0975 27.4487 55.4777 28.1427C56.1678 28.243 57.255 28.243 57.9451 28.1427C59.3253 27.5491 60.4125 25.8721 60.8057 24.5883L60.906 24.1951C60.906 23.9985 61.1026 23.8983 61.2028 23.8019L61.4997 23.6053C61.7966 22.815 61.8929 22.0247 61.9932 21.2383L61.7966 21.0417C61.4997 20.8451 61.4997 20.448 61.6963 20.155C61.8929 19.8582 62.29 19.8582 62.583 20.0548L63.0765 20.448C63.2731 20.5483 63.3734 20.7449 63.3734 20.9415C63.3734 22.0286 63.1768 23.1119 62.7797 24.2953C62.6794 24.3956 62.583 24.5922 62.4828 24.6886L62.1859 24.7888V24.889C61.7927 26.4696 60.4086 28.4434 58.535 29.33H58.4347C57.7485 29.33 57.2551 29.4303 56.6613 29.4303Z" fill="#5BA646"/>
<path d="M56.6641 33.1781C56.5639 33.1781 56.3673 33.1781 56.2709 33.0779L52.323 30.2175C52.0262 30.0209 52.0262 29.6238 52.2228 29.3308C52.4194 29.034 52.8165 29.034 53.1095 29.2306L56.6642 31.7981L60.2188 29.2306C60.5157 29.034 60.9089 29.034 61.1056 29.3308C61.3022 29.6277 61.3022 30.0209 61.0053 30.2175L57.1577 33.0779C56.9611 33.0779 56.8608 33.1781 56.6641 33.1781Z" fill="#5BA646"/>
<path d="M71.3668 48.3804C71.0699 48.3804 70.773 48.0836 70.773 47.7867L70.2796 35.7476C70.2796 34.7607 69.1923 33.2804 68.3056 33.0838L60.3096 30.42C60.113 30.3198 60.0128 30.2234 59.9164 30.1231L59.1299 28.1494C58.9333 27.8525 59.1299 27.4593 59.4267 27.2627C59.7236 27.0661 60.1169 27.2627 60.3135 27.5595L61.1038 29.0399L68.8029 31.7037C70.1831 32.0969 71.5672 34.0707 71.6636 35.551L72.157 47.5901C72.0607 47.9872 71.7639 48.3804 71.3668 48.3804Z" fill="#5BA646"/>
</g>
<defs>
<clipPath id="clip0_59_91622">
<rect width="64" height="64" fill="white"/>
</clipPath>
</defs>
</svg>
