<svg width="54" height="65" viewBox="0 0 54 65" fill="none" xmlns="http://www.w3.org/2000/svg">
<g clip-path="url(#clip0_3_463)">
<path d="M1.25 12.25L27.15 1.25L52.75 11.25V32.55C52.75 41.8125 48.025 50.425 40.225 55.4125L27.15 63.75L13.9 55.4C6.025 50.4375 1.25 41.775 1.25 32.4625V12.25Z" stroke="#5BA646" strokeWidth="2" strokeLinecap="round" strokeLinejoin="round"/>
<path d="M27.5876 47.625C27.5876 47.625 17.4876 47.8875 15.5001 38.25C14.1376 31.725 17.8001 28.875 17.8001 28.875C17.8001 28.875 17.5376 36.4625 21.1501 35.8375C25.8126 35.1 15.8126 19.0875 29.5251 17.3625C29.5251 17.3625 27.2751 23.9625 34.9751 28.4625C42.6751 32.9625 38.1126 47.575 27.6001 47.625H27.5876Z" stroke="#5BA646" strokeWidth="2" strokeLinecap="round" strokeLinejoin="round"/>
</g>
<defs>
<clipPath id="clip0_3_463">
<rect width="54" height="65" fill="white"/>
</clipPath>
</defs>
</svg>
