<svg width="63" height="65" viewBox="0 0 63 65" fill="none" xmlns="http://www.w3.org/2000/svg">
<g clip-path="url(#clip0_3_446)">
<path d="M37.975 62.25V54.4C39.5125 53.9375 40.9875 53.3125 42.4 52.55L46.6375 56.85C47.2875 57.5125 48.35 57.5125 49 56.85L56.0875 49.675C56.7375 49.0125 56.7375 47.9375 56.0875 47.2875L51.85 42.9875C52.6125 41.5625 53.225 40.0625 53.675 38.5H59.675C60.6 38.5 61.35 37.7375 61.35 36.8125V26.6625C61.35 25.725 60.6 24.975 59.675 24.975H53.675C53.225 23.425 52.6125 21.9125 51.85 20.4875L56.0875 16.1875C56.7375 15.525 56.7375 14.45 56.0875 13.8L49 6.625C48.35 5.9625 47.2875 5.9625 46.6375 6.625L42.4 10.925C40.9875 10.15 39.5125 9.5375 37.975 9.075V2.9375C37.975 2 37.225 1.25 36.3 1.25H26.2875C25.3625 1.25 24.6125 2.0125 24.6125 2.9375V9.025C23.075 9.4875 21.6 10.1125 20.1875 10.875L15.95 6.575C15.3 5.9125 14.2375 5.9125 13.5875 6.575L6.5 13.75C5.85 14.4125 5.85 15.4875 6.5 16.1375L10.7375 20.4375C9.975 21.8625 9.3625 23.3625 8.9125 24.925H2.925C2 24.925 1.25 25.6875 1.25 26.6125V36.775C1.275 37.7 2.0125 38.4375 2.925 38.4625H8.925C9.375 40.0125 9.9875 41.525 10.75 42.95L6.5125 47.25C5.8625 47.9125 5.8625 48.9875 6.5125 49.6375L13.6 56.8125C14.25 57.475 15.3125 57.475 15.9625 56.8125L20.2 52.5125C21.6125 53.2875 23.0875 53.9 24.625 54.3625V62.2125C24.625 63.0375 25.2875 63.7125 26.1125 63.7125H36.5C37.3125 63.7125 37.975 63.0375 37.975 62.2125V62.25Z" stroke="#5BA646" strokeWidth="2" strokeLinecap="round" strokeLinejoin="round"/>
<path d="M42.0469 42.6125C36.1094 48.625 26.4844 48.625 20.5469 42.6125C14.6094 36.6 14.6094 26.8375 20.5469 20.825C26.4844 14.8125 36.1094 14.8125 42.0469 20.825C47.9844 26.8375 47.9844 36.6 42.0469 42.6125Z" stroke="#5BA646" strokeWidth="2" strokeLinecap="round" strokeLinejoin="round"/>
</g>
<defs>
<clipPath id="clip0_3_446">
<rect width="62.6" height="65" fill="white"/>
</clipPath>
</defs>
</svg>
