<svg width="36" height="36" viewBox="0 0 36 36" fill="none" xmlns="http://www.w3.org/2000/svg">
<path d="M1 13.4031H22.1912L32.709 1H14.0168L1 13.4031Z" stroke="#5BA646" strokeWidth="2" strokeLinecap="round" strokeLinejoin="round"/>
<path d="M1 13.6686V19.4962H6.58733C7.88088 19.4962 8.93063 20.5502 8.93063 21.849V27.2481C8.93063 28.5469 7.88088 29.6009 6.58733 29.6009H1V35H22.1912L34.9981 19.3874V14.5254H32.2823C32.2823 14.5254 29.4852 14.4438 29.702 10.1938" stroke="#5BA646" strokeWidth="2" strokeLinecap="round" strokeLinejoin="round"/>
<path d="M22.1933 34.9996V29.7092H16.7076C15.414 29.7092 14.3643 28.6552 14.3643 27.3564V21.8485C14.3643 20.5497 15.414 19.4957 16.7076 19.4957H22.1933L32.711 6.40579V1.06104" stroke="#5BA646" strokeWidth="2" strokeLinecap="round" strokeLinejoin="round"/>
<path d="M22.1934 19.4963V13.2676" stroke="#5BA646" strokeWidth="2" strokeLinecap="round" strokeLinejoin="round"/>
<path d="M22.1934 29.7097L35.0002 14.5254" stroke="#5BA646" strokeWidth="2" strokeLinecap="round" strokeLinejoin="round"/>
<path d="M1 29.6011L8.93063 21.8491" stroke="#5BA646" strokeWidth="2" strokeLinecap="round" strokeLinejoin="round"/>
</svg>
