<svg width="46" height="37" viewBox="0 0 46 37" fill="none" xmlns="http://www.w3.org/2000/svg">
<g clip-path="url(#clip0_3_167)">
<path d="M23.0995 13.3926C28.9847 13.3926 33.7616 18.1694 33.7616 24.0546V31.2555C33.7616 33.5176 31.9273 35.3518 29.6653 35.3518H16.5338C14.2718 35.3518 12.4375 33.5176 12.4375 31.2555V24.0546C12.4375 18.1694 17.2144 13.3926 23.0995 13.3926Z" stroke="#5BA646" strokeWidth="2" stroke-miterlimit="10"/>
<path d="M23.1814 13.1202C26.3494 13.1202 28.9175 10.552 28.9175 7.38406C28.9175 4.21609 26.3494 1.64795 23.1814 1.64795C20.0135 1.64795 17.4453 4.21609 17.4453 7.38406C17.4453 10.552 20.0135 13.1202 23.1814 13.1202Z" stroke="#5BA646" strokeWidth="2" stroke-linecap="round" stroke-linejoin="round"/>
<path d="M12.6088 21.9351H1.6875C1.6875 21.9351 2.12824 13.9499 10.0162 13.9499C10.0162 13.9499 13.0106 13.8786 15.7977 16.2249" stroke="#5BA646" strokeWidth="2" stroke-miterlimit="10"/>
<path d="M9.97789 13.7038C12.3906 13.7038 14.3464 11.748 14.3464 9.33532C14.3464 6.92265 12.3906 4.9668 9.97789 4.9668C7.56523 4.9668 5.60938 6.92265 5.60938 9.33532C5.60938 11.748 7.56523 13.7038 9.97789 13.7038Z" stroke="#5BA646" strokeWidth="2" stroke-linecap="round" stroke-linejoin="round"/>
<path d="M33.6512 21.9351H44.5789C44.5789 21.9351 44.1382 13.9499 36.2502 13.9499C36.2502 13.9499 33.2558 13.8786 30.4688 16.2249" stroke="#5BA646" strokeWidth="2" stroke-miterlimit="10"/>
<path d="M36.4545 13.7038C38.8671 13.7038 40.823 11.748 40.823 9.33532C40.823 6.92265 38.8671 4.9668 36.4545 4.9668C34.0418 4.9668 32.0859 6.92265 32.0859 9.33532C32.0859 11.748 34.0418 13.7038 36.4545 13.7038Z" stroke="#5BA646" strokeWidth="2" stroke-linecap="round" stroke-linejoin="round"/>
</g>
<defs>
<clipPath id="clip0_3_167">
<rect width="46" height="37" fill="white"/>
</clipPath>
</defs>
</svg>
