<svg width="34" height="35" viewBox="0 0 34 35" fill="none" xmlns="http://www.w3.org/2000/svg">
<path d="M25.6627 33.4293L30.6227 26.3454C31.0413 25.7457 31.2724 25.0273 31.2724 24.2902V14.264C31.2724 13.4894 30.6477 12.8647 29.8731 12.8647C29.0985 12.8647 28.4738 13.4894 28.4738 14.264V22.5036C28.4738 22.9159 28.3176 23.3157 28.0365 23.6218L24.6133 27.3698" stroke="#5BA646" strokeWidth="2" strokeLinecap="round" strokeLinejoin="round"/>
<path d="M18.7969 33.4295L19.8963 28.2884C20.1649 27.0265 20.8271 25.8833 21.7891 25.0213L25.2248 21.9416C25.887 21.3481 26.899 21.4044 27.4924 22.0665C28.0422 22.6787 28.0422 23.6157 27.4862 24.2217L26.7491 25.0275" stroke="#5BA646" strokeWidth="2" strokeLinecap="round" strokeLinejoin="round"/>
<path d="M7.17214 33.4293L2.21217 26.3454C1.79363 25.7457 1.5625 25.0273 1.5625 24.2902V14.264C1.5625 13.4894 2.18718 12.8647 2.96179 12.8647C3.73639 12.8647 4.36107 13.4894 4.36107 14.264V22.5036C4.36107 22.9159 4.51724 23.3157 4.79835 23.6218L8.2216 27.3698" stroke="#5BA646" strokeWidth="2" strokeLinecap="round" strokeLinejoin="round"/>
<path d="M14.0446 33.4295L12.9451 28.2884C12.6765 27.0265 12.0144 25.8833 11.0524 25.0213L7.61661 21.9416C6.95444 21.3481 5.94246 21.4044 5.34901 22.0665C4.79929 22.6787 4.79929 23.6157 5.35526 24.2217L6.09238 25.0275" stroke="#5BA646" strokeWidth="2" strokeLinecap="round" strokeLinejoin="round"/>
<path d="M24.0833 17.681C24.0833 13.4456 20.6538 10.0161 16.4185 10.0161C12.1832 10.0161 8.75366 13.4456 8.75366 17.681H24.0896H24.0833Z" stroke="#5BA646" strokeWidth="2" strokeLinecap="round" strokeLinejoin="round"/>
<path d="M16.482 9.8161C18.759 9.8161 20.6049 7.97022 20.6049 5.69321C20.6049 3.4162 18.759 1.57031 16.482 1.57031C14.205 1.57031 12.3591 3.4162 12.3591 5.69321C12.3591 7.97022 14.205 9.8161 16.482 9.8161Z" stroke="#5BA646" strokeWidth="2" strokeLinecap="round" strokeLinejoin="round"/>
</svg>
