<svg width="51" height="50" viewBox="0 0 51 50" fill="none" xmlns="http://www.w3.org/2000/svg">
<g clip-path="url(#clip0_2115_88)">
<path d="M8.17506 11.3825L4.98694 10.5826C4.91123 10.5658 4.84376 10.5152 4.8017 10.4394L1.538 4.71351C1.47071 4.59562 1.496 4.45243 1.58852 4.3598L4.86084 1.08419C4.91973 1.02524 4.99543 1 5.07114 1C5.12161 1 5.17182 1.01678 5.22229 1.04204L10.9426 4.30923C11.0099 4.35133 11.0687 4.41878 11.0855 4.49456L11.8848 7.68589L23.4206 19.2324L23 19.6534L11.3969 8.0396C11.3969 8.0396 11.3293 7.95536 11.3209 7.90484L10.5302 4.75555L5.12166 1.66526L2.17752 4.61246L5.2646 10.0184L8.41041 10.81C8.46088 10.8268 8.5117 10.8521 8.55376 10.8858L19.9212 23.079L19.5006 23.5L8.20011 11.3741L8.17506 11.3825Z" stroke="#5FA64D" strokeWidth="1.2"/>
<path d="M8.26573 44.1025C8.16124 44.1025 8.0567 44.0432 7.99575 43.9585L5.46174 39.8509C5.40078 39.7578 5.40078 39.6392 5.46174 39.5376L7.99575 35.43C8.04799 35.3369 8.15253 35.2861 8.26573 35.2861H13.3418C13.455 35.2861 13.5508 35.3369 13.6118 35.43L16.1458 39.5376C16.2067 39.6307 16.2067 39.7493 16.1458 39.8509L13.6118 43.9585C13.5595 44.0517 13.455 44.1025 13.3418 44.1025H8.26573ZM6.09736 39.6901L8.44855 43.5012H13.1679L15.5187 39.6901L13.1679 35.8789H8.44855L6.09736 39.6901Z" stroke="#5FA64D" strokeWidth="1.2"/>
<path d="M43.3951 48.9916C41.7637 48.9916 40.2329 48.3523 39.0808 47.1915L29.3433 37.4501C29.2256 37.3323 29.2256 37.1388 29.3433 37.0294L29.7551 36.6173C30.3101 36.0536 30.3101 35.1535 29.7551 34.5899C29.486 34.3207 29.1247 34.1693 28.7463 34.1693C28.3678 34.1693 28.0061 34.3207 27.737 34.5899L27.3247 35.0022C27.2659 35.0611 27.1902 35.0863 27.1145 35.0863C27.0388 35.0863 26.9547 35.0526 26.9043 35.0022L24.6677 32.7645L19.8238 37.6099L19.8829 37.8791C20.009 38.4764 20.0677 39.0821 20.0677 39.6877C20.0677 44.8024 15.9051 48.9664 10.7838 48.9664C5.66261 48.9664 1.5 44.8023 1.5 39.6793C1.5 34.5563 5.66261 30.3922 10.7838 30.3922C11.3893 30.3922 12.0031 30.4596 12.5917 30.5773L12.8611 30.6362L31.1344 12.3565L31.0752 12.0872C30.9491 11.4984 30.8905 10.8844 30.8905 10.2787C30.8905 9.50477 30.9828 8.73076 31.1762 7.98207C32.219 3.8685 35.9024 1 40.1406 1C40.9059 1 41.6711 1.09251 42.4195 1.28599C42.4784 1.30281 42.5287 1.32803 42.5624 1.37009C42.6212 1.42897 42.6466 1.50468 42.6466 1.58039C42.6466 1.6561 42.6128 1.73181 42.5624 1.7907L37.2561 7.09885L38.7868 11.6835L43.3696 13.2145L48.6759 7.90639C48.6759 7.90639 48.7599 7.83912 48.8188 7.83071C48.844 7.83071 48.8695 7.82229 48.8948 7.82229C49.0293 7.82229 49.1551 7.91484 49.1888 8.04943C49.3822 8.80653 49.475 9.58045 49.475 10.3544C49.4581 15.4353 45.3124 19.5741 40.2248 19.5741H40.1911C39.5857 19.5741 38.9719 19.5068 38.3832 19.3891L38.1139 19.3302L33.2703 24.1756L35.5069 26.4132C35.5658 26.4721 35.5911 26.5478 35.5911 26.6235C35.5911 26.6993 35.5574 26.775 35.5069 26.8339L35.0364 27.305C34.5402 27.877 34.5651 28.735 35.1033 29.2734C35.3724 29.5426 35.7341 29.694 36.1126 29.694C36.491 29.694 36.8527 29.5426 37.1218 29.2734L37.5337 28.8612C37.5925 28.8023 37.6682 28.7771 37.7439 28.7771C37.8196 28.7771 37.8953 28.8108 37.9541 28.8612L47.734 38.6446C48.8776 39.7971 49.5 41.3281 49.5 42.9517C49.5 44.5752 48.8524 46.0978 47.7003 47.2419C46.5567 48.3775 45.0349 49 43.4288 49L43.3951 48.9916ZM10.7165 30.998C9.9933 30.998 9.26206 31.0904 8.56409 31.2671C3.89696 32.4532 1.06305 37.2229 2.25716 41.8917C3.24104 45.7698 6.7221 48.4784 10.7165 48.4784C11.4397 48.4784 12.1716 48.386 12.8779 48.2093C15.14 47.6373 17.0406 46.2072 18.2347 44.2051C19.4288 42.1946 19.7649 39.8476 19.1931 37.5847C19.1678 37.4837 19.1932 37.3744 19.2772 37.2987L37.8281 18.7413C37.8785 18.6993 37.9374 18.6825 38.0046 18.6825C38.0299 18.6825 38.055 18.6825 38.0802 18.6909C38.7782 18.8676 39.5016 18.96 40.2248 18.96H40.2667C45.0263 18.9348 48.8863 15.04 48.8611 10.2703C48.8611 10.1104 48.8611 9.94212 48.8443 9.77387L48.7683 8.62983L43.6558 13.7445C43.597 13.8034 43.5213 13.8286 43.4456 13.8286C43.412 13.8286 43.378 13.8286 43.3528 13.8118L38.4501 12.1799C38.3576 12.1462 38.2904 12.0788 38.2567 11.9863L36.6254 7.09043C36.5918 6.98107 36.6257 6.86331 36.7014 6.7876L41.8138 1.6646L40.6703 1.59723C40.4937 1.58882 40.3086 1.58039 40.132 1.58039C39.4088 1.58039 38.6942 1.67298 37.9878 1.84964C33.3711 3.03576 30.5791 7.7466 31.7564 12.3649C31.7817 12.4658 31.7566 12.5752 31.6809 12.6509L13.1637 31.1746C13.1048 31.2335 13.0294 31.2587 12.9453 31.2587C12.92 31.2587 12.8945 31.2587 12.8693 31.2503C12.1713 31.0736 11.4481 30.9811 10.7165 30.9811V30.998ZM40.704 47.7382L41.4525 48.0243C42.0664 48.2514 42.7137 48.3691 43.3696 48.3775C44.034 48.3775 44.6817 48.2598 45.304 48.0243C48.1295 46.9643 49.5589 43.8013 48.4993 40.9832L48.2136 40.2345L40.704 47.7466V47.7382ZM28.7463 33.5552C29.2256 33.5552 29.6879 33.7235 30.0495 34.0263C30.4616 34.3712 30.7224 34.8676 30.7644 35.4059C30.8149 35.9443 30.6466 36.4743 30.2934 36.8865L29.9908 37.2482L39.4931 46.754C39.594 46.855 39.7034 46.9559 39.838 47.0653L40.1993 47.3681L47.8518 39.713L47.5492 39.3512C47.4315 39.2166 47.3389 39.1072 47.238 39.0063L37.7439 29.5006L37.3822 29.8034C37.0206 30.1146 36.5498 30.2828 36.0789 30.2828C35.5996 30.2828 35.1372 30.1146 34.7756 29.8118C34.3636 29.4669 34.1028 28.9706 34.0608 28.4322C34.0103 27.8938 34.1785 27.3638 34.5317 26.9516L34.8343 26.59L32.8244 24.5879L25.0795 32.327L27.0895 34.3376L27.4512 34.0348C27.8128 33.7235 28.2836 33.5552 28.7545 33.5552H28.7463Z" stroke="#5FA64D" strokeWidth="1.2"/>
</g>
<defs>
<clipPath id="clip0_2115_88">
<rect width="50" height="50" fill="white" transform="translate(0.5)"/>
</clipPath>
</defs>
</svg>
