<svg width="48" height="42" viewBox="0 0 48 42" fill="none" xmlns="http://www.w3.org/2000/svg">
<path d="M43.5429 9.46875H38.2286C37.6286 9.46875 37.1143 9.98125 37.1143 10.5792V13.1417H29.3143L27.6857 9.98125C28.0286 9.38333 28.2 8.7 28.2 8.01667C28.2 6.47917 27.4286 5.19792 26.2286 4.42917V2.20833C26.2286 1.26875 25.4571 0.5 24.5143 0.5H23.5714C22.6286 0.5 21.8571 1.26875 21.8571 2.20833V4.42917C20.6571 5.19792 19.8857 6.47917 19.8857 8.01667C19.8857 8.7 20.0571 9.38333 20.4 9.98125L18.7714 13.1417H10.9714V10.5792C10.9714 9.98125 10.4571 9.46875 9.85714 9.46875H4.45714C1.97143 9.46875 0 11.4333 0 13.9104V36.9729C0 39.5354 1.97143 41.5 4.45714 41.5H43.5429C46.0286 41.5 48 39.5354 48 37.0583V13.9958C48 11.5187 46.0286 9.46875 43.5429 9.46875ZM32.7429 25.0146C32.5714 25.1 32.4 25.1 32.1429 25.1C31.9714 25.0146 31.8 24.9292 31.7143 24.7583L25.2 12.0312C25.7143 11.8604 26.1429 11.6896 26.4857 11.3479L33 24.075C33.2571 24.4167 33.0857 24.8438 32.7429 25.0146ZM24 17.2417C23.5714 17.2417 23.1429 17.5833 23.1429 18.0958V18.7792H21.1714L24 13.3125L26.8286 18.7792H24.8571V18.0958C24.8571 17.5833 24.4286 17.2417 24 17.2417ZM15.2571 25.0146C14.9143 24.8438 14.7429 24.4167 14.9143 23.9896L21.4286 11.3479C21.8571 11.6042 22.2857 11.8604 22.7143 12.0312L16.2 24.7583C16.1143 24.9292 15.9429 25.1 15.7714 25.1C15.6 25.1 15.4286 25.1 15.2571 25.0146ZM23.4857 2.20833C23.4857 2.12292 23.4857 2.12292 23.5714 2.12292H24.5143C24.6 2.12292 24.6 2.12292 24.6 2.20833V3.83125C24.4286 3.83125 24.2571 3.74583 24.0857 3.74583C23.9143 3.74583 23.7429 3.74583 23.5714 3.83125V2.20833H23.4857ZM24 5.45417C25.3714 5.45417 26.5714 6.56458 26.5714 8.01667C26.5714 9.46875 25.4571 10.5792 24 10.5792C22.5429 10.5792 21.4286 9.46875 21.4286 8.01667C21.4286 6.56458 22.6286 5.45417 24 5.45417ZM1.62857 13.9958C1.62857 12.4583 2.91429 11.1771 4.45714 11.1771H9.17143V32.6167H4.45714C3.42857 32.6167 2.4 32.9583 1.62857 33.6417V13.9958ZM43.5429 39.8771H4.45714C2.91429 39.8771 1.62857 38.5958 1.62857 37.0583C1.62857 35.5208 2.91429 34.2396 4.45714 34.2396H9.77143C10.3714 34.2396 10.8857 33.7271 10.8857 33.1292V14.7646H17.8286L13.4571 23.3063C13.0286 24.2458 13.2 25.2708 13.8 26.0396L12.4286 28.6875C12.2571 29.1146 12.3429 29.6271 12.7714 29.7979C12.8571 29.8833 13.0286 29.8833 13.1143 29.8833C13.4571 29.8833 13.7143 29.7125 13.8857 29.4563L15.2571 26.7229C15.3429 26.7229 15.4286 26.7229 15.5143 26.7229C15.7714 26.7229 16.0286 26.7229 16.2857 26.6375C16.8857 26.4667 17.4 26.0396 17.6571 25.4417L20.2286 20.3167H23.1429V21C23.1429 21.4271 23.4857 21.8542 24 21.8542C24.5143 21.8542 24.8571 21.5125 24.8571 21V20.3167H27.6857L30.2571 25.4417C30.5143 26.0396 31.0286 26.4667 31.6286 26.6375C31.8857 26.7229 32.1429 26.7229 32.4 26.7229C32.4857 26.7229 32.5714 26.7229 32.6571 26.7229L34.0286 29.4563C34.2 29.7125 34.4571 29.8833 34.8 29.8833C34.8857 29.8833 35.0571 29.8833 35.1429 29.7979C35.5714 29.6271 35.7429 29.1146 35.4857 28.6875L34.1143 25.9542C34.8 25.2708 34.9714 24.1604 34.4571 23.2208L30.0857 14.6792H37.0286V33.0438C37.0286 33.6417 37.5429 34.1542 38.1429 34.1542H43.4571C45 34.1542 46.2857 35.4354 46.2857 36.9729C46.2857 38.5104 45.0857 39.8771 43.5429 39.8771ZM46.3714 33.5563C45.6 32.9583 44.6571 32.5312 43.5429 32.5312H38.8286V11.1771H43.5429C45.0857 11.1771 46.3714 12.4583 46.3714 13.9958V33.5563Z" fill="white"/>
</svg>
