<svg width="48" height="38" viewBox="0 0 48 38" fill="none" xmlns="http://www.w3.org/2000/svg">
<path d="M15.3388 14.3996L23.8386 17.016C23.8794 17.0267 23.9245 17.0332 23.9653 17.0332C24.006 17.0332 24.0511 17.0267 24.0919 17.016L32.5917 14.3996C32.7699 14.3416 32.8944 14.1763 32.8944 13.9874V3.05563V3.03845C32.8944 2.98694 32.8772 2.93543 32.86 2.89035C32.86 2.88391 32.86 2.87318 32.8536 2.86245C32.8257 2.8045 32.7849 2.75942 32.7334 2.72508C32.7334 2.72508 32.7334 2.71864 32.727 2.71435C32.7162 2.70362 32.6991 2.70362 32.6819 2.69718C32.654 2.68001 32.6304 2.66284 32.596 2.6521L24.0962 0.0313797C24.0168 0.00776927 23.9245 0.00776927 23.8451 0.0313797L15.3452 2.6521C15.3109 2.66284 15.2873 2.68001 15.2594 2.69718C15.2486 2.70362 15.2315 2.70791 15.2143 2.71435C15.2143 2.71435 15.2143 2.72079 15.2079 2.72508C15.1563 2.76586 15.1156 2.81094 15.0877 2.86245C15.0877 2.86889 15.0877 2.87962 15.0812 2.89035C15.0576 2.93543 15.0469 2.98694 15.0469 3.03845V3.05563V13.9874C15.0469 14.1763 15.1671 14.3416 15.3495 14.3996H15.3388ZM32.0417 13.6719L24.4007 16.0244V5.98983L32.0417 3.63741V13.6719ZM23.965 0.885636L31.0115 3.05563L23.965 5.22561L16.9251 3.05563L23.965 0.885636ZM15.8943 3.6373L23.5353 5.98972V16.0242L15.8943 13.6718V3.6373Z" fill="white"/>
<path d="M42.8532 27.5234V19.2236V19.2064C42.8532 19.1549 42.8361 19.1034 42.8189 19.0583C42.8189 19.0519 42.8189 19.0412 42.8124 19.0304C42.7845 18.9725 42.7438 18.9274 42.6922 18.893C42.6922 18.893 42.6922 18.8866 42.6858 18.8823C42.6751 18.8716 42.6579 18.8716 42.645 18.8651C42.6171 18.848 42.5935 18.8308 42.5592 18.8201L34.0593 16.1993C33.9799 16.1757 33.8876 16.1757 33.8082 16.1993L25.3084 18.8201C25.274 18.8308 25.2504 18.848 25.2225 18.8651C25.2118 18.8716 25.1946 18.8759 25.1774 18.8823C25.1774 18.8823 25.1774 18.8888 25.171 18.893C25.1195 18.9338 25.0787 18.9789 25.0508 19.0304C25.0508 19.0369 25.0508 19.0476 25.0444 19.0583C25.0208 19.1034 25.01 19.1549 25.01 19.2064V19.2236V25.1414C24.3339 25.1243 23.647 25.1243 22.9602 25.1414V19.2236V19.2064C22.9602 19.1549 22.943 19.1034 22.9259 19.0583C22.9259 19.0519 22.9259 19.0412 22.9194 19.0304C22.8915 18.9725 22.8507 18.9274 22.7992 18.893C22.7992 18.893 22.7992 18.8866 22.7928 18.8823C22.782 18.8716 22.7649 18.8716 22.752 18.8651C22.7241 18.848 22.7005 18.8308 22.6661 18.8201L14.1663 16.1993C14.0869 16.1757 13.9946 16.1757 13.9152 16.1993L5.41534 18.8201C5.381 18.8308 5.35739 18.848 5.32948 18.8651C5.31875 18.8716 5.30158 18.8759 5.28441 18.8823C5.28441 18.8823 5.28441 18.8888 5.27797 18.893C5.22646 18.9338 5.18568 18.9789 5.15777 19.0304C5.15777 19.0369 5.15777 19.0476 5.15133 19.0583C5.12772 19.1034 5.11699 19.1549 5.11699 19.2064V19.2236V27.5174C1.77508 28.6335 0 30.0308 0 31.5633C0 35.5814 12.2022 37.9856 24.0055 37.9856C35.8088 37.9856 48 35.5816 48 31.5633C48 30.0244 46.2313 28.6335 42.8894 27.5217L42.8532 27.5234ZM33.9242 17.0493L40.9641 19.2193L33.9242 21.3893L26.8778 19.2193L33.9242 17.0493ZM41.9949 19.8031V29.8376L34.3539 32.1901V22.1555L41.9949 19.8031ZM25.8475 19.8031L33.4885 22.1555V32.1901L25.8475 29.8376V19.8031ZM22.0827 25.6006V29.8355L14.4417 32.1879V22.1533L22.0827 19.8009V25.5875V25.5939V25.6006ZM14.012 17.0497L21.0519 19.2197L14.012 21.3897L6.96554 19.2197L14.012 17.0497ZM5.93528 27.8678V27.8442V19.7971L13.5763 22.1495V32.184L5.93528 29.8316V27.8634V27.8678ZM23.9713 37.1231C10.3311 37.1231 0.824603 34.1933 0.824603 31.5597C0.824603 30.4951 2.36357 29.3618 5.08304 28.4174V30.1452C5.08304 30.3341 5.20324 30.4993 5.38568 30.5573L13.8855 33.1737C13.9263 33.1845 13.9714 33.1909 14.0122 33.1909C14.0529 33.1909 14.098 33.1845 14.1388 33.1737L22.6386 30.5573C22.8168 30.4993 22.9413 30.3341 22.9413 30.1452V25.9962C23.2783 25.9898 23.611 25.9855 23.9544 25.9855H23.9716C24.3214 25.9855 24.652 25.9919 24.9911 25.9962V30.1452C24.9911 30.3341 25.1113 30.4993 25.2938 30.5573L33.7936 33.1737C33.8344 33.1845 33.8795 33.1909 33.9202 33.1909C33.961 33.1909 34.0061 33.1845 34.0469 33.1737L42.5467 30.5573C42.7249 30.4993 42.8494 30.3341 42.8494 30.1452V28.4174C45.5624 29.3553 47.1014 30.4843 47.1014 31.5532C47.1014 34.1869 37.5993 37.1167 23.9657 37.1167L23.9713 37.1231Z" fill="white"/>
<path d="M4.96797 11.3822C4.96797 11.3822 5.01305 11.3822 5.0431 11.3757C5.27705 11.3349 5.43159 11.1117 5.39296 10.8778L5.07315 9.01684L11.9993 13.9042C12.0744 13.9557 12.1603 13.9836 12.2461 13.9836C12.3835 13.9836 12.5144 13.9213 12.596 13.8011C12.7334 13.6058 12.6883 13.3375 12.493 13.2001L5.56682 8.3128L7.45564 7.98655C7.6896 7.94577 7.84414 7.72254 7.8055 7.48859C7.76472 7.25463 7.5415 7.10009 7.30754 7.13873L4.39488 7.64313C4.33693 7.65386 4.28541 7.67103 4.24034 7.70537C4.19527 7.73328 4.14805 7.77406 4.12014 7.81913C4.0858 7.86421 4.06219 7.91572 4.05146 7.97367C4.04073 8.01445 4.04502 8.05953 4.05146 8.10031V8.14109L4.54942 11.0194C4.58376 11.2319 4.76621 11.3736 4.97226 11.3736L4.96797 11.3822Z" fill="white"/>
<path d="M35.6867 13.9928C35.7725 13.9928 35.8584 13.9692 35.9335 13.9134L42.8641 9.02605L42.5442 10.887C42.5035 11.1209 42.658 11.3441 42.8941 11.3849C42.9177 11.3849 42.9456 11.3914 42.9692 11.3914C43.1753 11.3914 43.3534 11.2433 43.3921 11.0372L43.89 8.15889V8.11811C43.89 8.07733 43.8965 8.03225 43.89 7.99147C43.8793 7.93352 43.8557 7.88201 43.8213 7.83693C43.787 7.79186 43.7462 7.75108 43.7011 7.72317C43.6561 7.69527 43.5981 7.67166 43.5466 7.66522L40.6339 7.16082C40.4 7.12004 40.1811 7.27458 40.136 7.51068C40.0952 7.74464 40.2497 7.96786 40.4858 8.00864L42.3747 8.33489L35.4441 13.2222C35.2488 13.3596 35.2037 13.6279 35.3411 13.8232C35.427 13.9434 35.5579 14.0057 35.691 14.0057L35.6867 13.9928Z" fill="white"/>
</svg>
