<svg width="44" height="48" viewBox="0 0 44 48" fill="none" xmlns="http://www.w3.org/2000/svg">
<path fill-rule="evenodd" clip-rule="evenodd" d="M10.1117 13.9051C10.0201 13.9076 9.9288 13.8919 9.84335 13.8589C9.7579 13.8258 9.67999 13.7761 9.61424 13.7127C9.54848 13.6493 9.49622 13.5734 9.46053 13.4896C9.42484 13.4058 9.40645 13.3158 9.40645 13.2248C9.40645 13.1338 9.42484 13.0438 9.46053 12.96C9.49622 12.8762 9.54848 12.8003 9.61424 12.7369C9.67999 12.6735 9.7579 12.6238 9.84335 12.5907C9.9288 12.5577 10.0201 12.542 10.1117 12.5445H30.5616C30.6533 12.542 30.7445 12.5577 30.83 12.5907C30.9154 12.6238 30.9933 12.6735 31.0591 12.7369C31.1248 12.8003 31.1771 12.8762 31.2128 12.96C31.2485 13.0438 31.2669 13.1338 31.2669 13.2248C31.2669 13.3158 31.2485 13.4058 31.2128 13.4896C31.1771 13.5734 31.1248 13.6493 31.0591 13.7127C30.9933 13.7761 30.9154 13.8258 30.83 13.8589C30.7445 13.8919 30.6533 13.9076 30.5616 13.9051H10.1117ZM6.44095 13.9051C6.26239 13.9001 6.09281 13.8263 5.96828 13.6992C5.84374 13.5722 5.77407 13.402 5.77407 13.2248C5.77407 13.0476 5.84374 12.8774 5.96828 12.7504C6.09281 12.6233 6.26239 12.5495 6.44095 12.5445H6.61247C6.70415 12.542 6.79542 12.5577 6.88087 12.5907C6.96632 12.6238 7.04423 12.6735 7.10998 12.7369C7.17573 12.8003 7.228 12.8762 7.26369 12.96C7.29938 13.0438 7.31777 13.1338 7.31777 13.2248C7.31777 13.3158 7.29938 13.4058 7.26369 13.4896C7.228 13.5734 7.17573 13.6493 7.10998 13.7127C7.04423 13.7761 6.96632 13.8258 6.88087 13.8589C6.79542 13.8919 6.70415 13.9076 6.61247 13.9051H6.44095ZM10.1117 18.3355C10.0217 18.3355 9.93257 18.3179 9.84939 18.2837C9.76622 18.2495 9.69064 18.1994 9.62698 18.1363C9.56332 18.0732 9.51283 17.9982 9.47837 17.9157C9.44392 17.8332 9.42619 17.7448 9.42619 17.6555C9.42619 17.5662 9.44392 17.4777 9.47837 17.3952C9.51283 17.3127 9.56332 17.2378 9.62698 17.1746C9.69064 17.1115 9.76622 17.0614 9.84939 17.0272C9.93257 16.9931 10.0217 16.9755 10.1117 16.9755H30.5616C30.6516 16.9755 30.7408 16.9931 30.8239 17.0272C30.9071 17.0614 30.9827 17.1115 31.0463 17.1746C31.11 17.2378 31.1605 17.3127 31.195 17.3952C31.2294 17.4777 31.2471 17.5662 31.2471 17.6555C31.2471 17.7448 31.2294 17.8332 31.195 17.9157C31.1605 17.9982 31.11 18.0732 31.0463 18.1363C30.9827 18.1994 30.9071 18.2495 30.8239 18.2837C30.7408 18.3179 30.6516 18.3355 30.5616 18.3355H10.1117ZM6.44095 18.3355C6.25913 18.3355 6.08476 18.2638 5.95619 18.1363C5.82763 18.0088 5.7554 17.8358 5.7554 17.6555C5.7554 17.4751 5.82763 17.3022 5.95619 17.1746C6.08476 17.0471 6.25913 16.9755 6.44095 16.9755H6.61247C6.7025 16.9755 6.79165 16.9931 6.87482 17.0272C6.958 17.0614 7.03357 17.1115 7.09723 17.1746C7.16089 17.2378 7.21139 17.3127 7.24584 17.3952C7.28029 17.4777 7.29802 17.5662 7.29802 17.6555C7.29802 17.7448 7.28029 17.8332 7.24584 17.9157C7.21139 17.9982 7.16089 18.0732 7.09723 18.1363C7.03357 18.1994 6.958 18.2495 6.87482 18.2837C6.79165 18.3179 6.7025 18.3355 6.61247 18.3355H6.44095ZM10.1117 22.7664C10.0201 22.7689 9.9288 22.7532 9.84335 22.7202C9.7579 22.6872 9.67999 22.6375 9.61424 22.574C9.54848 22.5106 9.49622 22.4348 9.46053 22.351C9.42484 22.2672 9.40645 22.1771 9.40645 22.0861C9.40645 21.9952 9.42484 21.9051 9.46053 21.8213C9.49622 21.7375 9.54848 21.6617 9.61424 21.5982C9.67999 21.5348 9.7579 21.4851 9.84335 21.4521C9.9288 21.419 10.0201 21.4033 10.1117 21.4059H30.5616C30.6533 21.4033 30.7445 21.419 30.83 21.4521C30.9154 21.4851 30.9933 21.5348 31.0591 21.5982C31.1248 21.6617 31.1771 21.7375 31.2128 21.8213C31.2485 21.9051 31.2669 21.9952 31.2669 22.0861C31.2669 22.1771 31.2485 22.2672 31.2128 22.351C31.1771 22.4348 31.1248 22.5106 31.0591 22.574C30.9933 22.6375 30.9154 22.6872 30.83 22.7202C30.7445 22.7532 30.6533 22.7689 30.5616 22.7664H10.1117ZM6.44095 22.7664C6.26239 22.7614 6.09281 22.6876 5.96828 22.5606C5.84374 22.4335 5.77407 22.2633 5.77407 22.0861C5.77407 21.9089 5.84374 21.7387 5.96828 21.6117C6.09281 21.4847 6.26239 21.4108 6.44095 21.4059H6.61247C6.70415 21.4033 6.79542 21.419 6.88087 21.4521C6.96632 21.4851 7.04423 21.5348 7.10998 21.5982C7.17573 21.6617 7.228 21.7375 7.26369 21.8213C7.29938 21.9051 7.31777 21.9952 7.31777 22.0861C7.31777 22.1771 7.29938 22.2672 7.26369 22.351C7.228 22.4348 7.17573 22.5106 7.10998 22.574C7.04423 22.6375 6.96632 22.6872 6.88087 22.7202C6.79542 22.7532 6.70415 22.7689 6.61247 22.7664H6.44095ZM6.44095 27.1973C6.26239 27.1924 6.09281 27.1185 5.96828 26.9915C5.84374 26.8645 5.77407 26.6943 5.77407 26.5171C5.77407 26.3399 5.84374 26.1697 5.96828 26.0426C6.09281 25.9156 6.26239 25.8418 6.44095 25.8368H6.61247C6.70415 25.8343 6.79542 25.85 6.88087 25.883C6.96632 25.916 7.04423 25.9657 7.10998 26.0292C7.17573 26.0926 7.228 26.1684 7.26369 26.2522C7.29938 26.336 7.31777 26.4261 7.31777 26.5171C7.31777 26.608 7.29938 26.6981 7.26369 26.7819C7.228 26.8657 7.17573 26.9415 7.10998 27.005C7.04423 27.0684 6.96632 27.1181 6.88087 27.1511C6.79542 27.1842 6.70415 27.1999 6.61247 27.1973H6.44095ZM6.44095 31.6277C6.35092 31.6277 6.26178 31.6101 6.1786 31.576C6.09543 31.5418 6.01985 31.4917 5.95619 31.4286C5.89253 31.3654 5.84204 31.2905 5.80759 31.208C5.77313 31.1255 5.7554 31.037 5.7554 30.9477C5.7554 30.8584 5.77313 30.77 5.80759 30.6875C5.84204 30.605 5.89253 30.53 5.95619 30.4669C6.01985 30.4038 6.09543 30.3537 6.1786 30.3195C6.26178 30.2853 6.35092 30.2677 6.44095 30.2677H6.61247C6.7025 30.2677 6.79165 30.2853 6.87482 30.3195C6.958 30.3537 7.03357 30.4038 7.09723 30.4669C7.16089 30.53 7.21139 30.605 7.24584 30.6875C7.28029 30.77 7.29802 30.8584 7.29802 30.9477C7.29802 31.037 7.28029 31.1255 7.24584 31.208C7.21139 31.2905 7.16089 31.3654 7.09723 31.4286C7.03357 31.4917 6.958 31.5418 6.87482 31.576C6.79165 31.6101 6.7025 31.6277 6.61247 31.6277H6.44095ZM6.44095 36.0587C6.25913 36.0587 6.08476 35.987 5.95619 35.8595C5.82763 35.732 5.7554 35.559 5.7554 35.3787C5.7554 35.1983 5.82763 35.0254 5.95619 34.8978C6.08476 34.7703 6.25913 34.6987 6.44095 34.6987H6.61247C6.79429 34.6987 6.96867 34.7703 7.09723 34.8978C7.2258 35.0254 7.29802 35.1983 7.29802 35.3787C7.29802 35.559 7.2258 35.732 7.09723 35.8595C6.96867 35.987 6.79429 36.0587 6.61247 36.0587H6.44095ZM6.44095 40.4896C6.26239 40.4846 6.09281 40.4108 5.96828 40.2838C5.84374 40.1567 5.77407 39.9865 5.77407 39.8093C5.77407 39.6321 5.84374 39.4619 5.96828 39.3349C6.09281 39.2079 6.26239 39.134 6.44095 39.1291H6.61247C6.70415 39.1265 6.79542 39.1422 6.88087 39.1753C6.96632 39.2083 7.04423 39.258 7.10998 39.3214C7.17573 39.3849 7.228 39.4607 7.26369 39.5445C7.29938 39.6283 7.31777 39.7184 7.31777 39.8093C7.31777 39.9003 7.29938 39.9904 7.26369 40.0742C7.228 40.158 7.17573 40.2338 7.10998 40.2972C7.04423 40.3607 6.96632 40.4104 6.88087 40.4434C6.79542 40.4764 6.70415 40.4921 6.61247 40.4896H6.44095ZM37.2542 28.0976C36.7143 27.563 36.0042 27.2306 35.2449 27.157C34.4857 27.0835 33.7242 27.2733 33.0902 27.6942C32.4562 28.1151 31.989 28.741 31.768 29.4653C31.5471 30.1896 31.5862 30.9674 31.8786 31.6663C32.1711 32.3652 32.6988 32.9419 33.3718 33.2982C34.0449 33.6545 34.8216 33.7682 35.5697 33.6202C36.3179 33.4721 36.9911 33.0713 37.4747 32.486C37.9583 31.9008 38.2224 31.1674 38.222 30.4107C38.2222 29.9809 38.1369 29.5553 37.9708 29.1583C37.8047 28.7614 37.5612 28.4009 37.2542 28.0976ZM34.9222 25.7792C36.0025 25.7791 37.0494 26.1505 37.8845 26.8302C38.7197 27.5098 39.2914 28.4557 39.5022 29.5066C39.7131 30.5575 39.5501 31.6484 39.0409 32.5935C38.5318 33.5385 37.7081 34.2793 36.7101 34.6894C35.7121 35.0996 34.6016 35.1538 33.5678 34.8428C32.534 34.5319 31.6409 33.875 31.0407 32.9841C30.4404 32.0932 30.1702 31.0235 30.276 29.9571C30.3817 28.8907 30.857 27.8937 31.6208 27.136C32.0538 26.7052 32.5684 26.3635 33.135 26.1307C33.7015 25.8978 34.3089 25.7784 34.9222 25.7792ZM36.3251 23.4965C36.2014 23.4027 36.0772 23.3083 35.953 23.2197C35.9312 23.2061 35.9102 23.1914 35.8901 23.1755C35.6147 22.9482 35.2782 22.806 34.9222 22.7664C34.3928 22.8686 33.9051 23.1225 33.5194 23.4965C33.1496 23.8037 32.7416 24.0625 32.3053 24.2667C31.8383 24.4393 31.35 24.5487 30.8536 24.592C30.363 24.5978 29.8841 24.7411 29.4722 25.0053C29.206 25.414 29.0615 25.8889 29.0555 26.3755L29.0313 26.5557C29.0288 26.5942 29.0232 26.6323 29.0147 26.6699C28.969 27.0622 28.8726 27.447 28.7281 27.8149C28.5216 28.2473 28.2607 28.6519 27.9517 29.0192C27.5743 29.4016 27.3184 29.8854 27.2156 30.4107C27.3186 30.936 27.5747 31.4198 27.9522 31.8021C28.2617 32.1691 28.5226 32.5738 28.7286 33.0064C28.9022 33.4697 29.0124 33.954 29.0561 34.4464C29.0899 34.6987 29.1238 34.9509 29.1765 35.1755C29.1853 35.2029 29.1921 35.2309 29.1969 35.2592C29.2391 35.4656 29.3341 35.6577 29.4728 35.8171C29.885 36.0812 30.364 36.2245 30.8546 36.2304C31.3511 36.2733 31.8394 36.3826 32.3064 36.5552C32.7425 36.7595 33.1505 37.0183 33.5205 37.3253C33.9061 37.6994 34.3938 37.9532 34.9233 38.0555C35.4528 37.9532 35.9405 37.6994 36.3261 37.3253C36.6958 37.0182 37.1034 36.759 37.5392 36.5541C38.0061 36.3815 38.4945 36.2723 38.9909 36.2293C39.4814 36.2233 39.9602 36.0801 40.3722 35.816C40.6387 35.4072 40.7831 34.9321 40.7889 34.4453C40.8326 33.953 40.9428 33.4686 41.1164 33.0053C41.323 32.573 41.5845 32.1687 41.8944 31.8021C42.2715 31.4196 42.5274 30.9359 42.6305 30.4107C42.5276 29.8854 42.2716 29.4017 41.8944 29.0192C41.585 28.6521 41.3239 28.2474 41.1175 27.8149C40.9439 27.3516 40.8338 26.8673 40.79 26.3749C40.7843 25.8884 40.6398 25.4133 40.3733 25.0048C39.961 24.7405 39.4817 24.5974 38.9909 24.592C38.4945 24.5486 38.0062 24.4392 37.5392 24.2667C37.103 24.0624 36.695 23.8036 36.3251 23.4965ZM38.379 37.7045V43.4064L36.7197 42.3264C36.7024 42.3138 36.6845 42.302 36.6659 42.2912L35.2981 41.4005C35.1846 41.3269 35.0516 41.2883 34.916 41.2896C34.7804 41.2909 34.6482 41.3321 34.5362 41.408L31.4633 43.4064V37.7067C31.5688 37.7313 31.6722 37.7641 31.7725 37.8048C32.0992 37.9697 32.4059 38.1712 32.6865 38.4053C33.3447 38.9056 34.0178 39.4187 34.9195 39.4187C35.8212 39.4187 36.4944 38.9072 37.1526 38.4053C37.4332 38.1712 37.7398 37.9697 38.0666 37.8048C38.1669 37.7641 38.2703 37.7313 38.3758 37.7067L38.379 37.7045ZM37.0015 22.3024V1.57653C37.0009 1.15886 36.8335 0.758433 36.5359 0.462943C36.2383 0.167454 35.8348 0.000987361 35.4137 0H1.58886C1.1676 0.00070546 0.763795 0.167048 0.465964 0.462567C0.168132 0.758087 0.000568681 1.15868 0 1.57653V46.4235C0.000568681 46.8413 0.168132 47.2419 0.465964 47.5374C0.763795 47.833 1.1676 47.9993 1.58886 48H35.4137C35.8348 47.999 36.2383 47.8326 36.5359 47.5371C36.8335 47.2416 37.0009 46.8411 37.0015 46.4235V44.1365L38.6608 45.216C38.763 45.2897 38.8838 45.3339 39.0099 45.3437C39.1359 45.3536 39.2622 45.3286 39.3748 45.2716C39.4874 45.2146 39.5819 45.1279 39.6479 45.0209C39.7138 44.914 39.7486 44.791 39.7485 44.6656V37.4885C40.3415 37.4253 40.8988 37.1762 41.3395 36.7776C41.8455 36.1695 42.1285 35.4091 42.1423 34.6208C42.1744 34.25 42.252 33.8844 42.3735 33.5323C42.5395 33.2081 42.7425 32.9039 42.9784 32.6256C43.4827 31.9728 44 31.3051 44 30.4107C44 29.5163 43.4844 28.8485 42.9784 28.1952C42.7426 27.9168 42.5397 27.6126 42.3735 27.2885C42.2519 26.9364 42.1743 26.5708 42.1423 26.2C42.1285 25.4117 41.8455 24.6513 41.3395 24.0432C40.7263 23.5417 39.9598 23.2612 39.1651 23.2475C38.7914 23.2157 38.4231 23.1387 38.0682 23.0181C37.7415 22.8534 37.4348 22.6521 37.1542 22.4181L37.0015 22.3024ZM7.63946 1.36053H12.1023V7.01387L10.3365 5.38187C10.2099 5.26505 10.0435 5.20012 9.87059 5.20012C9.69771 5.20012 9.53125 5.26505 9.40468 5.38187L7.63892 7.01387L7.63946 1.36053ZM13.4744 1.36053V8.57707C13.4741 8.71293 13.4327 8.84556 13.3556 8.95786C13.2785 9.07017 13.1693 9.157 13.042 9.20716C12.9147 9.25732 12.7752 9.26851 12.6414 9.23929C12.5077 9.21006 12.3858 9.14177 12.2915 9.0432L9.87193 6.808L7.42062 9.0736C7.32305 9.16342 7.2012 9.22308 7.06998 9.24526C6.93876 9.26744 6.80387 9.25119 6.68182 9.1985C6.55976 9.14581 6.45585 9.05896 6.38279 8.94858C6.30974 8.83821 6.27072 8.7091 6.27051 8.57707V1.36053H1.59263C1.53556 1.36191 1.48126 1.38519 1.44114 1.42548C1.40103 1.46576 1.37823 1.51991 1.37755 1.57653V46.4235C1.37823 46.4801 1.40103 46.5342 1.44114 46.5745C1.48126 46.6148 1.53556 46.6381 1.59263 46.6395H35.4137C35.4712 46.6388 35.5262 46.6158 35.5669 46.5754C35.6076 46.5351 35.6307 46.4805 35.6314 46.4235V43.2437L34.9222 42.7819L31.1547 45.2352C31.0513 45.3022 30.9317 45.3402 30.8083 45.3453C30.685 45.3504 30.5626 45.3223 30.454 45.2641C30.3454 45.2059 30.2547 45.1196 30.1915 45.0144C30.1283 44.9093 30.0949 44.7891 30.0949 44.6667V40.4907H10.1117C10.0201 40.4932 9.9288 40.4775 9.84335 40.4445C9.7579 40.4114 9.67999 40.3617 9.61424 40.2983C9.54848 40.2349 9.49622 40.159 9.46053 40.0752C9.42484 39.9914 9.40645 39.9014 9.40645 39.8104C9.40645 39.7194 9.42484 39.6294 9.46053 39.5456C9.49622 39.4618 9.54848 39.3859 9.61424 39.3225C9.67999 39.2591 9.7579 39.2094 9.84335 39.1763C9.9288 39.1433 10.0201 39.1276 10.1117 39.1301H30.0943V37.4885C29.5022 37.4249 28.9459 37.1759 28.506 36.7776C28.2985 36.572 28.134 36.3276 28.0221 36.0587H10.1117C10.0217 36.0587 9.93257 36.0411 9.84939 36.0069C9.76622 35.9727 9.69064 35.9226 9.62698 35.8595C9.56332 35.7964 9.51283 35.7214 9.47837 35.6389C9.44392 35.5564 9.42619 35.468 9.42619 35.3787C9.42619 35.2894 9.44392 35.2009 9.47837 35.1184C9.51283 35.0359 9.56332 34.961 9.62698 34.8978C9.69064 34.8347 9.76622 34.7846 9.84939 34.7504C9.93257 34.7163 10.0217 34.6987 10.1117 34.6987H27.7113L27.7006 34.6208C27.6685 34.25 27.5908 33.8844 27.4694 33.5323C27.3034 33.2081 27.1004 32.9039 26.8645 32.6256C26.6081 32.3115 26.3778 31.9775 26.1757 31.6267H10.1117C9.92992 31.6267 9.75555 31.555 9.62698 31.4275C9.49842 31.3 9.42619 31.127 9.42619 30.9467C9.42619 30.7663 9.49842 30.5934 9.62698 30.4658C9.75555 30.3383 9.92992 30.2667 10.1117 30.2667H25.8488C25.9663 29.4892 26.3207 28.766 26.8645 28.1941C27.1002 27.9157 27.3032 27.6115 27.4694 27.2875C27.4823 27.2583 27.4941 27.2279 27.5048 27.1963H10.1117C10.0201 27.1988 9.9288 27.1831 9.84335 27.1501C9.7579 27.117 9.67999 27.0673 9.61424 27.0039C9.54848 26.9405 9.49622 26.8646 9.46053 26.7808C9.42484 26.697 9.40645 26.607 9.40645 26.516C9.40645 26.425 9.42484 26.335 9.46053 26.2512C9.49622 26.1674 9.54848 26.0915 9.61424 26.0281C9.67999 25.9647 9.7579 25.915 9.84335 25.8819C9.9288 25.8489 10.0201 25.8332 10.1117 25.8357H27.7533C27.7972 25.1717 28.062 24.5409 28.506 24.0421C29.1192 23.5405 29.8857 23.26 30.6804 23.2464C31.0541 23.2146 31.4225 23.1376 31.7773 23.0171C32.1041 22.8523 32.4108 22.651 32.6914 22.4171C33.3495 21.9163 34.0227 21.4037 34.9244 21.4037C35.1649 21.4032 35.4041 21.4391 35.6336 21.5104V1.57653C35.6329 1.51946 35.6097 1.46492 35.569 1.42456C35.5284 1.3842 35.4734 1.36123 35.4158 1.36053H13.4744Z" fill="white"/>
</svg>
