<svg width="48" height="44" viewBox="0 0 48 44" fill="none" xmlns="http://www.w3.org/2000/svg">
<path d="M47.8921 37.9751L46.7067 32.7479C46.1129 30.0542 43.9837 27.9633 41.1338 27.2877C40.3463 27.1276 39.5672 27.0029 38.8171 26.9115C38.715 26.9011 38.6109 26.9156 38.5171 26.9551C36.6484 27.7491 34.4983 27.7491 32.6174 26.9551C32.5257 26.9156 32.4257 26.9011 32.3236 26.9115C31.9569 26.953 31.5924 27.0071 31.2319 27.0674L31.0069 26.2277C30.9382 25.972 30.7048 25.7933 30.4403 25.7933H28.1173C27.8131 25.1178 27.184 24.6668 26.4465 24.592L26.4402 24.5649C25.7777 21.5325 23.3798 19.1942 20.1757 18.4625C19.3819 18.2838 18.5173 18.1383 17.6069 18.0282C17.5027 18.0157 17.3986 18.0302 17.3027 18.0718C15.1694 18.9926 12.7236 18.9926 10.5902 18.0718C10.4943 18.0323 10.3922 18.0157 10.2881 18.0282C9.42348 18.13 8.54433 18.2817 7.66512 18.4771C4.49636 19.2191 2.11736 21.5531 1.45442 24.563L0.11692 30.4574C-0.226831 31.9559 0.196088 33.4399 1.27111 34.5269C2.12946 35.404 3.20238 35.8612 4.36489 35.8612C4.44822 35.8612 4.53364 35.8529 4.61906 35.8488V41.6016C4.61906 41.9258 4.88156 42.1877 5.20658 42.1877C5.5316 42.1877 5.7941 41.9259 5.7941 41.6016V35.5886L18.1963 30.883L21.6005 43.5656C21.6692 43.8213 21.9026 44 22.1672 44H35.0254C35.2087 44 35.3795 43.9169 35.492 43.7714C35.6024 43.6259 35.6399 43.4388 35.5941 43.2622L35.4587 42.7592H43.2523C43.5169 42.8111 43.7794 42.8361 44.0399 42.8361C45.0982 42.8361 46.0941 42.4204 46.8503 41.6431C47.8336 40.6475 48.2047 39.3448 47.8921 37.9751ZM27.0941 26.4024L27.3129 27.2296H21.115L20.8546 26.2673C20.8525 26.2569 20.8483 26.2465 20.8462 26.234L20.7692 25.9514C20.7525 25.8807 20.7712 25.8454 20.8067 25.8017C20.8337 25.7664 20.8671 25.7477 20.9129 25.7477H26.2359C26.6442 25.7477 26.9837 26.0075 27.0941 26.4024ZM2.1084 33.7041C1.30631 32.8935 1.00631 31.8335 1.2605 30.7174L2.598 24.8166C3.16259 22.2498 5.20633 20.2566 7.92512 19.6185C8.70635 19.446 9.49388 19.3088 10.2709 19.2111C12.6147 20.1755 15.2731 20.1755 17.6166 19.2111C18.4312 19.313 19.2041 19.446 19.9145 19.606C22.575 20.215 24.5854 22.1022 25.2291 24.5755H20.9103C20.4957 24.5755 20.1124 24.7668 19.877 25.0806C19.7103 25.2864 19.6207 25.5337 19.5978 25.7956H17.5895C17.4061 25.7956 17.2353 25.8808 17.1249 26.0263C17.0145 26.1718 16.977 26.3568 17.0228 26.5334L17.3353 27.6974L6.68725 29.2395L6.91642 28.3562C6.99767 28.0423 6.80809 27.7243 6.4935 27.6412C6.17892 27.5601 5.86016 27.7472 5.7768 28.061L5.3268 29.7965C5.2768 29.9856 5.3268 30.1872 5.45805 30.3348C5.5893 30.4803 5.78513 30.551 5.98097 30.5239L17.9058 28.7968C18.3308 28.8259 18.7142 29.0212 18.985 29.3288L5.03931 34.6205C3.94138 34.8387 2.90216 34.5147 2.1084 33.7041ZM22.6168 42.8282L19.298 30.4637L20.0459 30.1811C20.3459 30.0668 20.5 29.7321 20.3896 29.4329C20.0813 28.5911 19.3959 27.9759 18.5625 27.7369L18.3563 26.9679H19.825L20.1 27.9738C20.1709 28.2295 20.4021 28.4061 20.6667 28.4061H28.0753H28.0836C28.4086 28.4061 28.6711 28.1442 28.6711 27.82C28.6711 27.7348 28.6524 27.6537 28.619 27.5789L28.4565 26.9699H29.9857L32.2649 35.4395L32.167 35.425C32.1336 35.4208 32.1003 35.4188 32.067 35.4188C31.0378 35.4479 30.1461 36.0901 29.792 37.0545C29.7711 37.1147 29.7586 37.1771 29.7566 37.2353V37.2374V37.2394V37.2415C29.7524 37.3351 29.7732 37.4265 29.8128 37.5097V37.5117C29.8482 37.5886 29.9024 37.6572 29.9691 37.7133V37.7154H29.9711C30.0191 37.7549 30.0753 37.7882 30.1378 37.811L33.2211 38.9812L34.2586 42.8367L22.617 42.8304L22.6168 42.8282ZM35.1416 41.5874L34.5771 39.4861L40.1126 41.5874H35.1416ZM46.0105 40.8225C45.3355 41.5146 44.4355 41.7931 43.4709 41.6082L33.9082 37.9792C33.904 37.9772 33.902 37.9772 33.8978 37.9751L31.2186 36.9587C31.4395 36.7446 31.7353 36.6116 32.0561 36.5908L42.6247 38.1102C42.8205 38.1393 43.0164 38.0686 43.1476 37.921C43.2789 37.7755 43.3268 37.5719 43.2768 37.3827L42.8726 35.853C42.7914 35.5392 42.4685 35.3542 42.1539 35.4352C41.8393 35.5184 41.6539 35.8385 41.7351 36.1523L41.9122 36.8257L33.5287 35.6202L31.5328 28.2041C31.7849 28.1647 32.0391 28.1272 32.2974 28.0981C34.3849 28.9357 36.7475 28.9357 38.8244 28.1002C39.4952 28.1834 40.1911 28.2977 40.8765 28.439C43.2661 29.0043 45.0578 30.7544 45.5536 33.0094L46.7411 38.2408C46.9661 39.2011 46.7057 40.1197 46.0099 40.8223L46.0105 40.8225ZM6.75002 11.0448H8.08336C8.24587 11.6371 8.48337 12.2087 8.79585 12.7511L7.85627 13.6885C7.74585 13.7987 7.68544 13.9462 7.68544 14.1021C7.68544 14.258 7.74794 14.4056 7.85835 14.5157L9.81671 16.4695C10.0459 16.7002 10.4188 16.7002 10.648 16.4695L11.5875 15.5321C12.1209 15.8355 12.6917 16.0725 13.298 16.2408V17.5606C13.298 17.8849 13.5605 18.1468 13.8855 18.1468H16.6522C16.9772 18.1468 17.2397 17.8849 17.2397 17.5606V16.2408C17.8501 16.0745 18.4231 15.8376 18.9522 15.5342L19.8897 16.4695C20.1209 16.7002 20.4918 16.7002 20.7209 16.4695L22.6793 14.5157C22.9085 14.2871 22.9085 13.9171 22.6814 13.6885L21.748 12.747C22.0564 12.2025 22.2918 11.6308 22.4522 11.0427H23.7855C24.1085 11.0427 24.3731 10.7808 24.3731 10.4565V7.68602C24.3731 7.36178 24.1106 7.09988 23.7855 7.09988H22.4522C22.2918 6.51167 22.0564 5.94011 21.748 5.39558L22.6814 4.45407C22.9085 4.22544 22.9085 3.85548 22.6793 3.62685L20.7209 1.67311C20.6105 1.56296 20.4626 1.50268 20.3063 1.50268H20.3043C20.148 1.50268 19.998 1.56504 19.8876 1.67519L18.9605 2.60841C18.4147 2.29664 17.8376 2.0576 17.2396 1.8976L17.2355 0.586137C17.2355 0.2619 16.973 0 16.6479 0H13.8813C13.5563 0 13.2937 0.261884 13.2937 0.586137V1.90388C12.7 2.066 12.1271 2.30294 11.5833 2.61468L10.6438 1.67732C10.4146 1.44662 10.0417 1.44662 9.81249 1.67732L7.85414 3.63106C7.74372 3.74121 7.68122 3.89086 7.68122 4.04466C7.68122 4.20055 7.74372 4.34811 7.85205 4.45827L8.79163 5.39563C8.47913 5.93808 8.24165 6.5097 8.07915 7.102H6.7458C6.4208 7.102 6.15828 7.36389 6.15828 7.68814V10.4587C6.16245 10.7829 6.42501 11.0448 6.75002 11.0448ZM7.33755 8.27424H8.54795C8.82712 8.27424 9.06879 8.07679 9.12502 7.80244C9.27919 7.0355 9.58336 6.30389 10.0292 5.6305C10.1834 5.39771 10.1521 5.09012 9.95419 4.89266L9.10207 4.04256L10.2292 2.91812L11.0813 3.76822C11.2792 3.96567 11.5875 3.99685 11.8209 3.84304C12.4959 3.39618 13.2292 3.09271 13.9979 2.94101C14.2729 2.88489 14.4709 2.64587 14.4709 2.3653V1.1702H16.0605V2.3653C16.0605 2.64589 16.2584 2.88699 16.5355 2.94101C17.3105 3.09274 18.0459 3.39619 18.723 3.84304C18.9563 3.99685 19.2667 3.96567 19.4647 3.76614L20.3042 2.92025L21.4313 4.04469L20.5876 4.89479C20.3938 5.09016 20.3605 5.39361 20.5105 5.62432C20.9522 6.31022 21.2543 7.04183 21.4084 7.80254C21.4626 8.07689 21.7043 8.27434 21.9834 8.27434H23.1938V9.87265H21.9834C21.7043 9.87265 21.4626 10.0701 21.4084 10.3445C21.2564 11.1031 20.9543 11.8347 20.5105 12.5205C20.3605 12.7512 20.3918 13.0568 20.5876 13.2501L21.4313 14.1002L20.3022 15.2267L19.45 14.3766C19.2521 14.1791 18.9396 14.148 18.7063 14.3038C18.0667 14.732 17.3334 15.0375 16.5271 15.2038C16.2542 15.262 16.0605 15.501 16.0605 15.7774V16.9746L14.4688 16.9767V15.7795C14.4688 15.5031 14.275 15.2641 14.0042 15.208C13.2084 15.0396 12.4729 14.7341 11.8208 14.3039C11.5875 14.15 11.2792 14.1812 11.0813 14.3787L10.2291 15.2288L9.10205 14.1043L9.95416 13.2542C10.1521 13.0589 10.1833 12.7492 10.0292 12.5164C9.58332 11.843 9.27918 11.1114 9.125 10.3465C9.06875 10.0722 8.82916 9.87473 8.54793 9.87473H7.33752L7.33755 8.27424ZM15.2645 13.7238C17.8312 13.7238 19.9187 11.637 19.9187 9.0681C19.9187 6.50748 17.8312 4.42487 15.2645 4.42487C12.6978 4.42487 10.6082 6.50748 10.6082 9.0681C10.6103 11.635 12.6978 13.7238 15.2645 13.7238ZM15.2645 5.59736C17.1833 5.59736 18.7437 7.15619 18.7437 9.06831C18.7437 10.9888 17.1833 12.5518 15.2645 12.5518C13.3458 12.5518 11.7854 10.9888 11.7854 9.06831C11.7854 7.15613 13.3458 5.59736 15.2645 5.59736ZM27.5814 20.5642H28.6522C28.7856 21.0339 28.9731 21.4849 29.2127 21.911L28.4543 22.6675C28.2251 22.8962 28.2251 23.2682 28.4543 23.4968L30.1251 25.1637C30.346 25.382 30.7355 25.382 30.9564 25.1637L31.7127 24.4092C32.1418 24.6483 32.5939 24.8353 33.0626 24.9683V26.0366C33.0626 26.3588 33.3251 26.6228 33.6502 26.6228H36.0127C36.3377 26.6228 36.6002 26.3609 36.6002 26.0366V24.9683C37.0773 24.8332 37.5315 24.6462 37.9627 24.4072L38.7211 25.1637C38.8315 25.2739 38.9794 25.3341 39.1357 25.3341H39.1377C39.294 25.3341 39.444 25.2718 39.5544 25.1616L41.2128 23.4947C41.4399 23.2661 41.4399 22.8982 41.2128 22.6696L40.4649 21.9151C40.7045 21.4849 40.894 21.0339 41.0274 20.5641H42.0857C42.4107 20.5641 42.6733 20.3022 42.6733 19.978L42.6774 17.621C42.6774 17.2968 42.4149 17.0349 42.0899 17.0349H41.0295C40.8941 16.5589 40.7066 16.1038 40.467 15.6735L41.2149 14.919C41.4419 14.6883 41.4419 14.3184 41.2128 14.0918L39.5544 12.4374C39.3252 12.2087 38.9565 12.2067 38.7252 12.4353L37.9669 13.1814C37.5356 12.9424 37.0794 12.7533 36.6023 12.6202V11.5644C36.6023 11.2402 36.3398 10.9783 36.0148 10.9783H33.6523C33.3272 10.9783 33.0647 11.2401 33.0647 11.5644V12.6202C32.5939 12.7533 32.1418 12.9424 31.7126 13.1814L30.9543 12.4353C30.7251 12.2067 30.3563 12.2087 30.1272 12.4353L28.4563 14.0918C28.3459 14.1999 28.2834 14.3495 28.2834 14.5054C28.2834 14.6613 28.3459 14.8109 28.4563 14.9211L29.2147 15.6756C28.9751 16.1058 28.7876 16.561 28.6522 17.0349H27.5813C27.2563 17.0349 26.9938 17.2968 26.9938 17.621V19.978C26.9938 20.3022 27.2564 20.5642 27.5814 20.5642ZM28.1689 18.2072H29.1127C29.3918 18.2072 29.6335 18.0098 29.6876 17.7375C29.821 17.0807 30.0751 16.4655 30.4439 15.9085C30.5981 15.6757 30.5668 15.3681 30.3689 15.1707L29.7022 14.5076L30.5418 13.6763L31.2106 14.3351C31.4085 14.5305 31.7147 14.5617 31.9481 14.4079C32.5064 14.04 33.1189 13.7864 33.7689 13.6555C34.0439 13.5993 34.2398 13.3603 34.2398 13.0798V12.1507H35.4273V13.0798C35.4273 13.3583 35.6231 13.5994 35.8981 13.6555C36.5586 13.7906 37.1752 14.0441 37.7315 14.4079C37.9627 14.5596 38.271 14.5305 38.469 14.3351L39.1377 13.6783L39.9711 14.5097L39.3106 15.1769C39.1148 15.3723 39.0835 15.6799 39.2377 15.9126C39.6044 16.4676 39.8586 17.0828 39.994 17.7417C40.0502 18.016 40.2898 18.2114 40.569 18.2114H41.5023V19.3961H40.569C40.2898 19.3961 40.0481 19.5915 39.994 19.8658C39.8627 20.5143 39.6086 21.1254 39.2398 21.6824C39.0856 21.9152 39.1169 22.2207 39.3127 22.4181L39.9731 23.0853L39.1398 23.9208L38.4731 23.2578C38.2752 23.0604 37.9669 23.0292 37.7336 23.183C37.1773 23.5488 36.5606 23.8024 35.9002 23.9354C35.6252 23.9915 35.4294 24.2326 35.4294 24.509V25.4526H34.2418V24.507C34.2418 24.2285 34.046 23.9874 33.771 23.9333C33.1231 23.8024 32.5106 23.5488 31.9502 23.1809C31.7168 23.0271 31.4064 23.0583 31.2106 23.2557L30.5439 23.9208L29.7043 23.0853L30.3731 22.4181C30.571 22.2207 30.6022 21.9131 30.4481 21.6803C30.0772 21.1212 29.8231 20.5122 29.6918 19.8638C29.6356 19.5894 29.396 19.394 29.1168 19.394H28.1731L28.1689 18.2072ZM34.8399 22.84C37.0753 22.84 38.8962 21.0255 38.8962 18.7933C38.8962 16.5611 37.0774 14.7466 34.8399 14.7466C32.6045 14.7466 30.7836 16.5611 30.7836 18.7933C30.7857 21.0235 32.6045 22.84 34.8399 22.84ZM34.8399 15.9188C36.4295 15.9188 37.719 17.2074 37.719 18.7932C37.719 20.377 36.4274 21.6677 34.8399 21.6677C33.2524 21.6677 31.9586 20.3769 31.9586 18.7932C31.9607 17.2073 33.2524 15.9188 34.8399 15.9188Z" fill="white"/>
</svg>
