<svg width="48" height="56" viewBox="0 0 48 56" fill="none" xmlns="http://www.w3.org/2000/svg">
<path fill-rule="evenodd" clip-rule="evenodd" d="M14.6435 36.5842C14.0368 33.5292 12.1495 33.7944 10.6424 29.4466C7.50941 20.4076 14.2695 10.8994 24 10.8994C33.7305 10.8994 40.4906 20.4078 37.3575 29.4466C35.8498 33.7964 33.9609 33.5295 33.3555 36.5888C33.8163 37.1272 34.0414 37.8075 34.0372 38.51C41.9429 38.4168 45.6656 47.703 40.306 53.0118C36.3754 56.9052 29.8209 56.1151 26.9248 51.4415C23.2803 53.4948 18.6196 51.2215 18.1052 47.0431C15.4588 46.5349 14.1879 43.2447 15.6101 41.4607C13.9568 40.3851 13.3907 38.0578 14.6435 36.5842ZM15.4949 34.2918C15.7288 34.7183 15.9199 35.1783 16.0646 35.691C16.9426 35.4395 19.7173 35.5429 20.8006 35.5429V28.6742L19.6623 28.0233C17.7098 29.9573 14.3767 28.5782 14.3767 25.8615C14.3767 24.1691 15.7627 22.7962 17.4714 22.7962C19.515 22.7962 20.988 24.7276 20.4592 26.6612L22.397 27.7695V35.5429H25.1646V23.2898L27.4339 22.6833C27.4339 20.9905 28.8195 19.618 30.5286 19.618C33.2829 19.618 34.6533 22.9323 32.7166 24.8507C31.2769 26.2768 28.8623 25.9562 27.8462 24.2126L26.761 24.5006V35.5428C27.8995 35.5428 31.0341 35.432 31.9342 35.6942C32.7354 32.8521 34.7055 32.2322 35.8487 28.934C38.6273 20.9171 32.6324 12.4805 24 12.4805C15.3675 12.4805 9.37263 20.917 12.1512 28.934C13.1028 31.6795 14.37 32.2425 15.4949 34.2918ZM26.2214 50.0256C25.8678 49.1057 25.6712 48.1093 25.6634 47.0685L19.7291 47.1061C20.2787 50.07 23.6565 51.5356 26.2214 50.0256ZM18.8562 45.5368L25.7983 45.4928C26.0254 44.2408 26.5291 43.084 27.2449 42.0868H17.8349C15.6455 42.0868 16.625 45.5505 18.8562 45.5368ZM17.8349 40.5056H28.715C29.7667 39.6273 31.0346 38.9948 32.4282 38.6979C32.5527 37.65 31.8334 37.1242 30.8102 37.1242H17.1895C14.6045 37.1242 15.2687 40.5056 17.8349 40.5056ZM17.4714 24.3774C15.5145 24.3774 15.4738 27.3457 17.4714 27.3457C19.4342 27.3457 19.4648 24.3774 17.4714 24.3774ZM30.5286 21.1993C28.571 21.1993 28.5313 24.1675 30.5286 24.1675C32.4855 24.1675 32.5262 21.1993 30.5286 21.1993ZM0 23.4818V25.063H7.67387V23.4818H0ZM7.59378 6.90395L6.46526 8.02177L11.8916 13.3966L13.0201 12.2788L7.59378 6.90395ZM24.7982 0.5V8.10116H23.2019V0.5H24.7982ZM41.5348 8.02177L40.4063 6.90395L34.98 12.2788L36.1085 13.3966L41.5348 8.02177ZM48 25.063V23.4818H40.3261V25.063H48ZM39.1775 42.1141C34.7915 37.7697 27.2593 40.8613 27.2593 47.0041C27.2593 53.1468 34.7914 56.2385 39.1775 51.894C41.9037 49.1936 41.9037 44.8144 39.1775 42.1141ZM31.1998 46.0136L30.0713 47.1314L33.3295 50.3589L38.4103 45.3262L37.2818 44.2084L33.3295 48.1231L31.1998 46.0136Z" fill="white"/>
</svg>
