<svg width="36" height="48" viewBox="0 0 36 48" fill="none" xmlns="http://www.w3.org/2000/svg">
<path d="M33.0611 5.85283H27.8658V5.23782C27.8658 4.28901 27.0947 3.5117 26.1536 3.5117H22.0196C21.7361 1.52724 20.0398 0 17.9966 0C15.9534 0 14.2572 1.52724 13.9737 3.5117H9.83963C8.89852 3.5117 8.12751 4.28445 8.12751 5.23782V5.85283H2.93217C1.313 5.85283 0 7.17657 0 8.80898V45.0439C0 46.6716 1.313 48 2.93217 48H33.0678C34.6824 48 36 46.6763 36 45.0439V8.80898C35.9932 7.17657 34.6803 5.85283 33.0611 5.85283ZM9.2887 5.23782C9.2887 4.93374 9.53815 4.68225 9.83976 4.68225H14.5135C14.8333 4.68225 15.0941 4.41933 15.0941 4.09697C15.0941 2.48059 16.3935 1.17055 17.9968 1.17055C19.6 1.17055 20.8994 2.48059 20.8994 4.09697C20.8994 4.41933 21.1602 4.68225 21.48 4.68225H26.1538C26.4622 4.68225 26.7048 4.92917 26.7048 5.23782V8.81354C26.7048 9.11762 26.4554 9.36911 26.1538 9.36911L9.83953 9.37139C9.53792 9.36453 9.28847 9.11762 9.28847 8.80897L9.2887 5.23782ZM34.8323 45.0371C34.8323 46.0202 34.0363 46.8226 33.0612 46.8226H2.93252C1.9574 46.8226 1.16142 46.0202 1.16142 45.0371V8.80921C1.16142 7.82611 1.9574 7.02363 2.93252 7.02363H8.12786V8.80921C8.12786 9.75802 8.89887 10.5353 9.83998 10.5353H26.1472C27.0929 10.5353 27.8594 9.76258 27.8594 8.80921V7.02363H33.0547C34.0298 7.02363 34.8258 7.82611 34.8258 8.80921V45.0371H34.8323ZM30.188 18.1439C30.188 18.4663 29.9272 18.7292 29.6075 18.7292H16.8357C16.5159 18.7292 16.2551 18.4663 16.2551 18.1439C16.2551 17.8215 16.5159 17.5586 16.8357 17.5586H29.6075C29.9272 17.5586 30.188 17.8215 30.188 18.1439ZM13.7652 15.3867C13.992 15.6153 13.992 15.9834 13.7652 16.212L9.12093 20.8943C9.00527 21.0109 8.86014 21.0704 8.7082 21.0704C8.55626 21.0704 8.41113 21.0109 8.29547 20.9012L5.97333 18.56C5.74656 18.3314 5.74656 17.9633 5.97333 17.7347C6.2001 17.5061 6.56518 17.5061 6.792 17.7347L8.70823 19.6597L12.9398 15.3935C13.1666 15.1581 13.5384 15.1581 13.7652 15.3867ZM30.188 28.679C30.188 29.0014 29.9272 29.2643 29.6075 29.2643H16.8357C16.5159 29.2643 16.2551 29.0014 16.2551 28.679C16.2551 28.3567 16.5159 28.0938 16.8357 28.0938H29.6075C29.9272 28.0938 30.188 28.3567 30.188 28.679ZM13.7652 25.9218C13.992 26.1505 13.992 26.5185 13.7652 26.7472L9.12093 31.4295C9.00527 31.5461 8.86014 31.6055 8.7082 31.6055C8.55626 31.6055 8.41113 31.5461 8.29547 31.4363L5.97333 29.0952C5.74656 28.8666 5.74656 28.4985 5.97333 28.2698C6.2001 28.0412 6.56518 28.0412 6.792 28.2698L8.70823 30.1949L12.9398 25.9287C13.1666 25.6932 13.5384 25.6932 13.7652 25.9218ZM30.188 39.2142C30.188 39.5366 29.9272 39.7995 29.6075 39.7995H16.8357C16.5159 39.7995 16.2551 39.5366 16.2551 39.2142C16.2551 38.8918 16.5159 38.6289 16.8357 38.6289H29.6075C29.9272 38.6289 30.188 38.8918 30.188 39.2142ZM13.7652 36.457C13.992 36.6856 13.992 37.0537 13.7652 37.2824L9.12093 41.9646C9.00527 42.0812 8.86014 42.1407 8.7082 42.1407C8.55626 42.1407 8.41113 42.0812 8.29547 41.9715L5.97333 39.6303C5.74656 39.4017 5.74656 39.0337 5.97333 38.805C6.2001 38.5764 6.56518 38.5764 6.792 38.805L8.70823 40.73L12.9398 36.4639C13.1666 36.2284 13.5384 36.2284 13.7652 36.457Z" fill="white"/>
</svg>
