<svg width="48" height="44" viewBox="0 0 48 44" fill="none" xmlns="http://www.w3.org/2000/svg">
<path d="M47.9847 43.0078L42.2375 22.0275C42.1766 21.8134 41.986 21.6699 41.766 21.6699L28.9377 21.668C28.6626 21.668 28.4504 21.888 28.4504 22.1552C28.4504 22.4225 28.6705 22.6425 28.9377 22.6425H41.3827L43.99 32.1541H26.4462C26.1711 32.1541 25.9589 32.3741 25.9589 32.6414C25.9589 32.9086 26.1789 33.1286 26.4462 33.1286H44.2571L46.8624 42.6422H24.4874V35.0893C24.4874 34.8221 24.2673 34.602 24.0001 34.602C23.7329 34.602 23.5128 34.8221 23.5128 35.0893V42.6422H1.13774L3.74504 33.1306H21.556C21.8311 33.1306 22.0433 32.9106 22.0433 32.6434C22.0433 32.3762 21.8232 32.1561 21.556 32.1561L4.01012 32.1541L6.61743 22.6426H19.0549C19.33 22.6426 19.5422 22.4225 19.5422 22.1553C19.5422 21.8881 19.3221 21.668 19.0549 21.668H6.2422C6.02214 21.668 5.83155 21.8134 5.77064 22.0256L2.96687 32.2761C2.86076 32.3684 2.792 32.4961 2.792 32.6494C2.792 32.7103 2.80771 32.7634 2.82343 32.8085L0.0157329 43.0077C-0.0215982 43.1531 0.0078737 43.3123 0.10022 43.4341C0.192565 43.5559 0.335998 43.6247 0.489254 43.6247H47.5034C47.6566 43.6247 47.8001 43.5559 47.8924 43.4341C47.9907 43.3123 48.0221 43.1532 47.9847 43.0078Z" fill="white"/>
<path d="M24.4875 17.8584C24.4875 17.5912 24.2674 17.3711 24.0002 17.3711C23.733 17.3711 23.5129 17.5912 23.5129 17.8584C23.5129 21.6622 20.4184 24.7629 16.6084 24.7629C16.3333 24.7629 16.1211 24.983 16.1211 25.2502C16.1211 25.5174 16.3412 25.7375 16.6084 25.7375C20.4122 25.7375 23.5129 28.832 23.5129 32.642C23.5129 32.9093 23.733 33.1293 24.0002 33.1293C24.2674 33.1293 24.4875 32.9093 24.4875 32.642C24.4875 28.8382 27.582 25.7375 31.392 25.7375C31.6671 25.7375 31.8793 25.5174 31.8793 25.2502C31.8793 24.983 31.6593 24.7629 31.392 24.7629C27.5901 24.7629 24.4875 21.6684 24.4875 17.8584ZM24.0002 29.9065C23.2006 27.757 21.4931 26.0496 19.3436 25.2499C21.4931 24.4503 23.2006 22.7428 24.0002 20.5933C24.7999 22.7428 26.5073 24.4503 28.6568 25.2499C26.5073 26.0516 24.7999 27.757 24.0002 29.9065Z" fill="white"/>
<path d="M19.8994 5.44226C21.8878 5.44226 23.5048 7.05732 23.5048 9.04771C23.5048 9.31492 23.7249 9.53498 23.9921 9.53498C24.2593 9.53498 24.4794 9.31492 24.4794 9.04771C24.4794 7.05933 26.0944 5.44226 28.0848 5.44226C28.3599 5.44226 28.5721 5.22221 28.5721 4.95499C28.5721 4.68778 28.352 4.46772 28.0848 4.46772C26.0964 4.46772 24.4794 2.85266 24.4794 0.862273C24.4794 0.595059 24.2593 0.375 23.9921 0.375C23.7249 0.375 23.5048 0.595059 23.5048 0.862273C23.5048 2.85065 21.8898 4.46772 19.8994 4.46772C19.6243 4.46772 19.4121 4.68778 19.4121 4.95499C19.4121 5.23007 19.6322 5.44226 19.8994 5.44226ZM23.9999 2.91946C24.442 3.79577 25.1592 4.51294 26.0355 4.95502C25.1592 5.3971 24.442 6.11426 23.9999 6.99057C23.5578 6.11426 22.8407 5.3971 21.9644 4.95502C22.8407 4.51293 23.5578 3.79577 23.9999 2.91946Z" fill="white"/>
<path d="M10.5654 14.8321C13.21 14.8321 15.3595 16.9816 15.3595 19.6262C15.3595 19.8934 15.5796 20.1135 15.8468 20.1135C16.114 20.1135 16.3341 19.8934 16.3341 19.6262C16.3341 16.9816 18.4836 14.8321 21.1282 14.8321C21.4033 14.8321 21.6155 14.612 21.6155 14.3448C21.6155 14.0776 21.3954 13.8576 21.1282 13.8576C18.4836 13.8576 16.3341 11.7081 16.3341 9.06345C16.3341 8.79623 16.114 8.57617 15.8468 8.57617C15.5796 8.57617 15.3595 8.79623 15.3595 9.06345C15.3595 11.7081 13.21 13.8576 10.5654 13.8576C10.2903 13.8576 10.0781 14.0776 10.0781 14.3448C10.0762 14.6101 10.2982 14.8321 10.5654 14.8321ZM15.8549 11.3799C16.4345 12.6983 17.4935 13.7574 18.8119 14.337C17.4935 14.9166 16.4345 15.9756 15.8549 17.294C15.2753 15.9756 14.2162 14.9166 12.8978 14.337C14.2084 13.7574 15.2674 12.6983 15.8549 11.3799Z" fill="white"/>
<path d="M26.377 14.337C26.377 14.6042 26.597 14.8243 26.8642 14.8243C29.5089 14.8243 31.6583 16.9738 31.6583 19.6184C31.6583 19.8856 31.8784 20.1057 32.1456 20.1057C32.4207 20.1057 32.6329 19.8856 32.6329 19.6184C32.6329 16.9738 34.7824 14.8243 37.427 14.8243C37.7021 14.8243 37.9143 14.6042 37.9143 14.337C37.9143 14.0698 37.6942 13.8497 37.427 13.8497C34.7824 13.8497 32.6329 11.7003 32.6329 9.05563C32.6329 8.78842 32.4128 8.56836 32.1456 8.56836C31.8705 8.56836 31.6583 8.78842 31.6583 9.05563C31.6583 11.7003 29.5089 13.8497 26.8642 13.8497C26.599 13.8497 26.377 14.0698 26.377 14.337ZM32.1533 11.38C32.7329 12.6984 33.7998 13.7574 35.1103 14.337C33.792 14.9166 32.7329 15.9757 32.1533 17.2941C31.5737 15.9757 30.5147 14.9166 29.1963 14.337C30.5068 13.7574 31.5678 12.6984 32.1533 11.38Z" fill="white"/>
</svg>
