<svg width="48" height="48" viewBox="0 0 48 48" fill="none" xmlns="http://www.w3.org/2000/svg">
<path d="M26.6599 15.8969L25.6899 14.9781C25.3086 14.6173 24.8172 14.4355 24.3258 14.4355C23.8421 14.4355 23.343 14.6173 22.9643 14.9781L13.3796 24.0537C13.0238 24.3865 13.011 24.9367 13.3463 25.2924C13.679 25.6456 14.2293 25.6584 14.585 25.3232L16.2946 23.7056V29.2414C16.2946 29.9043 16.5301 30.5134 16.937 30.9715C17.3363 31.4296 17.9377 31.7444 18.6057 31.7444H30.1455C30.8135 31.7444 31.4149 31.4296 31.8142 30.9715C32.2211 30.5134 32.4566 29.8966 32.4566 29.2414V23.8029L33.8975 25.167C34.2532 25.4997 34.8035 25.4818 35.1362 25.1337C35.4714 24.7805 35.451 24.2303 35.1029 23.895L26.6523 15.8971L26.6599 15.8969ZM30.7088 22.3566V29.2413C30.7088 29.4844 30.6218 29.6866 30.504 29.812C30.3863 29.9426 30.2686 29.9886 30.1457 29.9963H18.6059C18.4831 29.9963 18.3654 29.9426 18.2476 29.812C18.135 29.6815 18.0429 29.4768 18.0429 29.2413V22.3566C18.0429 22.2645 18.0173 22.18 17.9917 22.1007L24.1699 16.2501L24.326 16.1835L24.4847 16.2501L30.7473 22.18C30.7346 22.2389 30.7141 22.2901 30.7141 22.3566L30.7088 22.3566Z" fill="white"/>
<path d="M43.3932 19.1515C42.9146 17.1911 42.1417 15.4047 41.1257 13.7335C41.9114 12.8684 42.39 11.727 42.39 10.4703C42.39 7.78303 40.2146 5.60762 37.5298 5.60762C36.2706 5.60762 35.124 6.09389 34.259 6.87959C32.5954 5.88404 30.7809 5.11623 28.8486 4.6325C28.7232 2.05782 26.6015 0.0078125 23.9987 0.0078125C21.3908 0.0078125 19.2768 2.05782 19.1514 4.6325C17.2191 5.11621 15.3969 5.87631 13.7333 6.87959C12.8683 6.0939 11.7268 5.61528 10.4702 5.61528C7.78288 5.61528 5.60747 7.7907 5.60747 10.4754C5.60747 11.7346 6.09374 12.8812 6.87178 13.7386C5.87623 15.4047 5.11608 17.2244 4.63236 19.1567C2.05768 19.2693 0 21.391 0 23.9989C0 26.6017 2.03723 28.7106 4.60674 28.8487C5.09813 30.8271 5.88894 32.5572 6.92551 34.2131C6.11164 35.0858 5.61514 36.2452 5.61514 37.53C5.61514 40.2147 7.79055 42.3901 10.4753 42.3901C11.7422 42.3901 12.8887 41.9064 13.7512 41.113C15.4174 42.1214 17.1986 42.8944 19.1565 43.3729C19.2896 45.9476 21.4062 47.9925 24.0064 47.9925C26.6195 47.9925 28.7437 45.9297 28.8537 43.3473C30.7809 42.8611 32.5954 42.1087 34.2539 41.113C35.1189 41.9064 36.2655 42.3901 37.5298 42.3901C40.2146 42.3901 42.39 40.2147 42.39 37.53C42.39 36.2656 41.9063 35.1191 41.1129 34.254C42.1341 32.5828 42.9223 30.8271 43.3984 28.8487C45.9603 28.7105 48 26.594 48 23.9989C48 21.3986 45.955 19.2821 43.3932 19.1515ZM35.4851 8.42026C36.0098 7.8956 36.7289 7.57311 37.5351 7.568C38.3413 7.568 39.0553 7.88791 39.5877 8.42026C40.1098 8.94237 40.4323 9.66407 40.4374 10.4703C40.4374 11.2765 40.1175 11.9905 39.5877 12.5203C39.063 13.0449 38.3413 13.3649 37.5351 13.3725C36.7289 13.3725 36.0149 13.0501 35.4851 12.5203C34.9604 11.9956 34.6405 11.2765 34.6328 10.4703C34.6328 9.66407 34.9553 8.95005 35.4851 8.42026ZM21.9568 2.8179C22.4789 2.29324 23.2006 1.9733 24.0068 1.96564C24.8131 1.96564 25.5271 2.28555 26.0569 2.8179C26.5815 3.34256 26.9015 4.06171 26.9091 4.86791C26.9091 5.67412 26.5866 6.38814 26.0569 6.91792C25.5322 7.44258 24.8131 7.76508 24.0068 7.77019C23.2006 7.77019 22.4866 7.45027 21.9568 6.91792C21.4322 6.39582 21.1097 5.67412 21.1046 4.86791C21.1046 4.06171 21.4245 3.34769 21.9568 2.8179ZM8.4207 8.42026C8.94281 7.8956 9.66451 7.57311 10.4707 7.568C11.2769 7.568 11.9909 7.88791 12.5207 8.42026C13.0454 8.94237 13.3653 9.66407 13.373 10.4703C13.373 11.2765 13.0531 11.9905 12.5207 12.5203C11.9961 13.0449 11.2769 13.3649 10.4707 13.3725C9.66451 13.3725 8.95049 13.0501 8.4207 12.5203C7.89605 11.9956 7.57355 11.2765 7.56844 10.4703C7.56844 9.66407 7.88835 8.95005 8.4207 8.42026ZM2.81835 26.0513C2.29369 25.5266 1.97375 24.8049 1.96608 23.9987C1.96608 23.1925 2.28599 22.4785 2.81835 21.9487C3.34301 21.4241 4.06215 21.1041 4.86835 21.0965C5.67456 21.0965 6.38858 21.4189 6.91837 21.9487C7.44302 22.4734 7.76552 23.1925 7.77063 23.9987C7.77063 24.8049 7.45072 25.519 6.91837 26.0513C6.39626 26.5734 5.67456 26.8959 4.86835 26.901C4.06215 26.901 3.34813 26.5811 2.81835 26.0513ZM12.521 39.5848C11.9963 40.1095 11.2772 40.432 10.471 40.4371C9.66477 40.4371 8.95075 40.1172 8.42097 39.5848C7.89631 39.0627 7.57381 38.341 7.5687 37.5348C7.5687 36.7286 7.88862 36.0146 8.42097 35.4848C8.94307 34.9601 9.66477 34.6402 10.471 34.6325C11.2772 34.6325 11.9912 34.955 12.521 35.4848C13.0456 36.0095 13.3656 36.7286 13.3733 37.5348C13.3733 38.341 13.0533 39.055 12.521 39.5848ZM26.0519 45.1872C25.5272 45.7118 24.8055 46.0343 23.9993 46.0394C23.1931 46.0394 22.4791 45.7195 21.9493 45.1872C21.4246 44.6625 21.1047 43.9434 21.097 43.1372C21.097 42.331 21.4195 41.6169 21.9493 41.0872C22.474 40.5625 23.1931 40.24 23.9993 40.2349C24.8055 40.2349 25.5195 40.5548 26.0519 41.0872C26.574 41.6118 26.8965 42.331 26.9016 43.1372C26.9016 43.9434 26.5817 44.6574 26.0519 45.1872ZM39.5801 39.5848C39.0555 40.1095 38.3363 40.432 37.5301 40.4371C36.7239 40.4371 36.0099 40.1172 35.4776 39.5848C34.9555 39.0627 34.633 38.341 34.6279 37.5348C34.6279 36.7286 34.9478 36.0146 35.4776 35.4848C36.0022 34.9601 36.7239 34.6402 37.5301 34.6325C38.3363 34.6325 39.0504 34.955 39.5801 35.4848C40.1048 36.0095 40.4247 36.7286 40.4324 37.5348C40.4324 38.341 40.1099 39.055 39.5801 39.5848ZM39.7184 33.1916C39.0632 32.8564 38.321 32.667 37.5353 32.667C34.8505 32.667 32.6751 34.8424 32.6751 37.5297C32.6751 38.3154 32.8645 39.0499 33.1921 39.7051C31.7768 40.5292 30.2438 41.1793 28.6186 41.5964C27.9762 39.6642 26.1565 38.2617 24.0066 38.2617C21.844 38.2617 20.0167 39.6718 19.3794 41.6246C17.7414 41.1972 16.2417 40.5497 14.8135 39.7051C15.1411 39.0499 15.3305 38.3077 15.3305 37.522C15.3305 34.8347 13.1551 32.6619 10.4704 32.6619C9.70255 32.6619 8.97575 32.8436 8.33334 33.1584C7.45035 31.7175 6.78239 30.2689 6.35501 28.6181C8.31546 27.9886 9.73072 26.1535 9.73072 23.9935C9.73072 21.8359 8.32823 20.0163 6.38823 19.3739C6.81308 17.7487 7.45546 16.208 8.28211 14.7927C8.9424 15.128 9.6846 15.3173 10.4755 15.3173C13.1628 15.3173 15.3382 13.1419 15.3382 10.4572C15.3382 9.66381 15.1411 8.91644 14.8084 8.26126C16.2237 7.4295 17.7619 6.78709 19.3871 6.36227C20.0218 8.30738 21.8517 9.70987 24.0066 9.71498C26.1616 9.71498 27.9889 8.31505 28.6262 6.36738C30.2514 6.79478 31.7895 7.43716 33.2048 8.26892C32.8721 8.92922 32.6802 9.67141 32.6802 10.4623C32.6802 13.1496 34.8556 15.325 37.5429 15.325C38.3363 15.325 39.0759 15.1356 39.7363 14.8003C40.5885 16.2285 41.2386 17.7282 41.6558 19.3739C39.7055 20.0035 38.2903 21.8359 38.2903 23.9986C38.2903 26.1689 39.7107 28.0014 41.6712 28.6309C41.2514 30.2817 40.5963 31.7507 39.7312 33.1916L39.7184 33.1916ZM45.1876 26.0514C44.6655 26.5735 43.9438 26.896 43.1376 26.9011C42.3314 26.9011 41.6174 26.5812 41.0876 26.0514C40.563 25.5268 40.243 24.8051 40.2354 23.9989C40.2354 23.1927 40.5553 22.4786 41.0876 21.9489C41.6123 21.4242 42.3314 21.1043 43.1376 21.0966C43.9438 21.0966 44.6579 21.4191 45.1876 21.9489C45.7123 22.4735 46.0348 23.1927 46.0399 23.9989C46.0399 24.8051 45.72 25.5191 45.1876 26.0514Z" fill="white"/>
</svg>
