<svg width="48" height="50" viewBox="0 0 48 50" fill="none" xmlns="http://www.w3.org/2000/svg">
<path d="M1.2828 28.4117L21.9643 37.2048C22.6154 37.4802 23.3151 37.6221 24.0221 37.6221C24.729 37.6221 25.4287 37.4802 26.0798 37.2048L46.7613 28.4117C47.1347 28.2536 47.4522 27.9874 47.673 27.6473C47.8938 27.3072 48.0078 26.9089 48.0004 26.5035C47.993 26.0981 47.8644 25.7042 47.6313 25.3725C47.3981 25.0407 47.0711 24.7863 46.6922 24.642L43.1559 23.2759C43.1022 23.2504 43.0438 23.2362 42.9843 23.2343C42.9249 23.2324 42.8657 23.2428 42.8104 23.2648C42.7552 23.2868 42.7051 23.3199 42.6632 23.3622C42.6214 23.4044 42.5887 23.4549 42.5672 23.5103C42.5457 23.5658 42.5359 23.6251 42.5384 23.6845C42.5409 23.7439 42.5557 23.8022 42.5817 23.8557C42.6077 23.9091 42.6445 23.9567 42.6898 23.9953C42.735 24.0339 42.7877 24.0627 42.8446 24.08L46.3809 25.4288C46.5956 25.5164 46.7794 25.666 46.9088 25.8585C47.0382 26.051 47.1073 26.2776 47.1073 26.5096C47.1073 26.7415 47.0382 26.9682 46.9088 27.1607C46.7794 27.3531 46.5956 27.5027 46.3809 27.5903L25.7513 36.4094C25.2044 36.6419 24.6163 36.7618 24.0221 36.7618C23.4278 36.7618 22.8397 36.6419 22.2928 36.4094L1.62 27.599C1.40525 27.5114 1.22147 27.3618 1.0921 27.1693C0.962734 26.9768 0.893642 26.7501 0.893642 26.5182C0.893642 26.2863 0.962734 26.0596 1.0921 25.8671C1.22147 25.6746 1.40525 25.5251 1.62 25.4375L7.12757 23.3364C7.22612 23.2896 7.30331 23.2073 7.34368 23.1059C7.38404 23.0045 7.38458 22.8917 7.3452 22.7899C7.30581 22.6882 7.22941 22.6051 7.13132 22.5573C7.03322 22.5095 6.9207 22.5006 6.81631 22.5324L1.30874 24.6334C0.928982 24.7807 0.602267 25.0387 0.370993 25.374C0.139719 25.7093 0.0145629 26.1064 0.0117666 26.5137C0.00897041 26.921 0.128664 27.3198 0.355313 27.6582C0.581962 27.9967 0.905102 28.2592 1.2828 28.4117Z" fill="white"/>
<path d="M46.6834 30.8153C46.6296 30.7898 46.5712 30.7756 46.5118 30.7737C46.4524 30.7717 46.3932 30.7821 46.3379 30.8041C46.2826 30.8261 46.2325 30.8593 46.1907 30.9015C46.1488 30.9438 46.1161 30.9942 46.0947 31.0497C46.0732 31.1051 46.0634 31.1644 46.0659 31.2239C46.0684 31.2833 46.0831 31.3415 46.1092 31.395C46.1352 31.4485 46.172 31.496 46.2172 31.5346C46.2625 31.5732 46.3152 31.6021 46.3721 31.6194C46.5868 31.707 46.7706 31.8565 46.9 32.049C47.0294 32.2415 47.0985 32.4682 47.0985 32.7001C47.0985 32.9321 47.0294 33.1587 46.9 33.3512C46.7706 33.5437 46.5868 33.6933 46.3721 33.7809L25.7511 42.5826C25.2043 42.8152 24.6162 42.9351 24.0219 42.9351C23.4277 42.9351 22.8395 42.8152 22.2927 42.5826L1.61985 33.7895C1.40511 33.7019 1.22133 33.5523 1.09196 33.3599C0.962588 33.1674 0.893496 32.9407 0.893496 32.7088C0.893496 32.4768 0.962588 32.2502 1.09196 32.0577C1.22133 31.8652 1.40511 31.7156 1.61985 31.628C1.67676 31.6107 1.72948 31.5819 1.77472 31.5433C1.81996 31.5047 1.85675 31.4571 1.88279 31.4037C1.90883 31.3502 1.92356 31.2919 1.92605 31.2325C1.92854 31.1731 1.91875 31.1138 1.89728 31.0583C1.87581 31.0029 1.84312 30.9524 1.80127 30.9102C1.75942 30.8679 1.7093 30.8348 1.65405 30.8128C1.5988 30.7908 1.5396 30.7804 1.48016 30.7823C1.42072 30.7842 1.36231 30.7984 1.30859 30.8239C0.929685 30.9682 0.602624 31.2226 0.369481 31.5544C0.136339 31.8861 0.00778055 32.28 0.000342081 32.6854C-0.00709639 33.0908 0.106926 33.4891 0.327742 33.8292C0.548557 34.1693 0.866066 34.4355 1.23942 34.5936L21.9641 43.3781C22.6152 43.6534 23.315 43.7953 24.0219 43.7953C24.7288 43.7953 25.4286 43.6534 26.0797 43.3781L46.7612 34.585C47.1342 34.426 47.4512 34.1591 47.6712 33.8185C47.8913 33.4779 48.0045 33.0792 47.9961 32.6738C47.9877 32.2684 47.8582 31.8748 47.6243 31.5436C47.3903 31.2123 47.0626 30.9587 46.6834 30.8153Z" fill="white"/>
<path d="M46.6834 36.9874C46.579 36.9557 46.4664 36.9646 46.3684 37.0124C46.2703 37.0602 46.1939 37.1432 46.1545 37.245C46.1151 37.3467 46.1156 37.4596 46.156 37.561C46.1964 37.6623 46.2736 37.7447 46.3721 37.7915C46.5868 37.8791 46.7706 38.0287 46.9 38.2212C47.0294 38.4137 47.0985 38.6404 47.0985 38.8723C47.0985 39.1042 47.0294 39.3309 46.9 39.5234C46.7706 39.7159 46.5868 39.8655 46.3721 39.9531L25.7511 48.7548C25.2043 48.9874 24.6162 49.1072 24.0219 49.1072C23.4277 49.1072 22.8395 48.9874 22.2927 48.7548L1.61985 39.9617C1.40511 39.8741 1.22133 39.7245 1.09196 39.532C0.962588 39.3395 0.893496 39.1129 0.893496 38.8809C0.893496 38.649 0.962588 38.4223 1.09196 38.2299C1.22133 38.0374 1.40511 37.8878 1.61985 37.8002C1.7184 37.7533 1.7956 37.671 1.83596 37.5696C1.87632 37.4683 1.87687 37.3554 1.83748 37.2536C1.79809 37.1519 1.72169 37.0688 1.6236 37.021C1.52551 36.9733 1.41298 36.9644 1.30859 36.9961C0.929685 37.1404 0.602624 37.3948 0.369481 37.7265C0.136339 38.0583 0.00778055 38.4522 0.000342081 38.8576C-0.00709639 39.263 0.106926 39.6613 0.327742 40.0014C0.548557 40.3414 0.866066 40.6077 1.23942 40.7658L21.9641 49.5502C22.6152 49.8256 23.315 49.9675 24.0219 49.9675C24.7288 49.9675 25.4286 49.8256 26.0797 49.5502L46.7612 40.7571C47.1342 40.5982 47.4512 40.3312 47.6712 39.9906C47.8913 39.6501 48.0045 39.2514 47.9961 38.846C47.9877 38.4406 47.8582 38.0469 47.6243 37.7157C47.3903 37.3845 47.0626 37.1309 46.6834 36.9874Z" fill="white"/>
<path d="M33.2565 13.9801C33.1136 14.024 32.9631 14.0382 32.8144 14.0218C32.6657 14.0055 32.522 13.9589 32.3919 13.885L31.2507 13.2452C30.6432 12.9064 29.931 12.8073 29.2541 12.9673C28.5772 13.1273 27.9848 13.5349 27.5933 14.1098L22.8899 21.1996C22.8573 21.249 22.8352 21.3045 22.8249 21.3628C22.8146 21.4211 22.8165 21.4809 22.8302 21.5384C22.844 21.596 22.8695 21.6501 22.905 21.6974C22.9405 21.7447 22.9854 21.7842 23.0369 21.8135L36.8706 29.595C36.9344 29.6294 37.0057 29.6472 37.0781 29.6469H37.2078C37.2649 29.6281 37.3175 29.5977 37.3621 29.5575C37.4068 29.5173 37.4426 29.4682 37.4672 29.4134L41.0553 21.7097C41.357 21.0705 41.4042 20.3405 41.1875 19.6678C40.9707 18.995 40.5062 18.4299 39.8881 18.087L38.7209 17.4558C38.5936 17.3833 38.482 17.2862 38.3925 17.1701C38.303 17.0541 38.2375 16.9215 38.1997 16.7799C38.1619 16.6383 38.1526 16.4907 38.1723 16.3455C38.192 16.2003 38.2403 16.0605 38.3145 15.9341L44.3668 5.73172C44.5708 5.40548 44.7065 5.04124 44.7657 4.66104C44.8249 4.28084 44.8063 3.89259 44.7111 3.51977C44.616 3.14695 44.4461 2.79732 44.2119 2.49203C43.9777 2.18674 43.684 1.93214 43.3486 1.74364C43.0131 1.55514 42.6429 1.43665 42.2604 1.39534C41.8778 1.35404 41.4908 1.39078 41.1229 1.50333C40.7549 1.61589 40.4137 1.80193 40.1197 2.05019C39.8257 2.29844 39.5852 2.60377 39.4126 2.94767L33.9223 13.444C33.8528 13.5734 33.7581 13.6874 33.6437 13.7795C33.5294 13.8716 33.3977 13.9398 33.2565 13.9801ZM28.0689 14.9398L29.5387 15.8044L25.0687 22.021L23.8323 21.3293L28.0689 14.9398ZM33.4035 26.6639L36.3778 19.6087L37.6574 20.3263L34.6745 27.3816L33.4035 26.6639ZM32.6686 26.2316L30.5935 25.0644L34.32 18.4329L35.6429 19.1764L32.6686 26.2316ZM29.8413 24.6408L27.896 23.5513L32.366 17.3348L33.5332 18.0178L29.8413 24.6408ZM27.1351 23.119L25.8641 22.4101L30.3342 16.1935L31.6138 16.9111L27.1351 23.119ZM36.862 28.5834L35.4613 27.7966L38.4442 20.7414L40.087 21.6579L36.862 28.5834ZM34.6832 13.8418L40.234 3.38863C40.3611 3.16154 40.5318 2.96173 40.7362 2.80059C40.9405 2.63946 41.1747 2.52016 41.4252 2.44951C41.6757 2.37886 41.9376 2.35823 42.1961 2.38882C42.4545 2.41941 42.7045 2.5006 42.9315 2.62777C43.1586 2.75494 43.3584 2.92559 43.5196 3.12997C43.6807 3.33436 43.8 3.56849 43.8707 3.81898C43.9413 4.06948 43.9619 4.33143 43.9313 4.5899C43.9008 4.84836 43.8196 5.09827 43.6924 5.32535L37.6401 15.5278C37.506 15.7535 37.4184 16.0038 37.3824 16.2639C37.3464 16.5239 37.3627 16.7886 37.4303 17.0423C37.498 17.296 37.6156 17.5336 37.7764 17.7413C37.9371 17.9489 38.1377 18.1223 38.3664 18.2513L39.5077 18.8911C39.8522 19.0873 40.1271 19.3857 40.2944 19.7451C40.4618 20.1045 40.5131 20.5071 40.4415 20.897L28.6828 14.3C28.9777 14.0358 29.3475 13.8698 29.7409 13.8249C30.1343 13.7799 30.532 13.8584 30.8789 14.0493L31.9769 14.6286C32.2053 14.7587 32.4575 14.8416 32.7185 14.8725C32.9796 14.9033 33.2442 14.8813 33.4966 14.808C33.749 14.7346 33.9841 14.6112 34.1879 14.4453C34.3917 14.2793 34.5602 14.0741 34.6832 13.8418Z" fill="white"/>
<path d="M11.6831 26.058C14.9894 27.414 18.5281 28.113 22.1017 28.1158C24.0392 28.1121 25.9714 27.9122 27.8686 27.5192C27.9254 27.5078 27.9794 27.4854 28.0275 27.4532C28.0756 27.421 28.1169 27.3796 28.149 27.3314C28.1811 27.2833 28.2034 27.2292 28.2146 27.1724C28.2259 27.1156 28.2258 27.0572 28.2145 27.0004C28.2031 26.9436 28.1807 26.8897 28.1485 26.8416C28.1163 26.7935 28.0749 26.7522 28.0267 26.72C27.9785 26.6879 27.9245 26.6656 27.8677 26.6544C27.8109 26.6432 27.7525 26.6432 27.6957 26.6546C22.4411 27.7686 16.9728 27.2745 12.003 25.2366C11.6021 25.0707 11.2602 24.7884 11.0213 24.4263C10.7824 24.0641 10.6576 23.6386 10.6629 23.2048V21.3026C13.855 21.9547 17.1058 22.2763 20.3638 22.2623H20.4848C20.5995 22.2623 20.7095 22.2168 20.7905 22.1357C20.8716 22.0547 20.9172 21.9447 20.9172 21.83C20.9172 21.7154 20.8716 21.6054 20.7905 21.5244C20.7095 21.4433 20.5995 21.3977 20.4848 21.3977C17.1891 21.4151 13.9003 21.0906 10.6715 20.4294V10.6247C16.7238 11.8957 23.6407 11.9043 31.6383 10.6247V12.2069C31.6383 12.3216 31.6839 12.4315 31.7649 12.5126C31.846 12.5937 31.956 12.6392 32.0706 12.6392C32.1853 12.6392 32.2952 12.5937 32.3763 12.5126C32.4574 12.4315 32.5029 12.3216 32.5029 12.2069V10.1059C32.5024 10.0431 32.4882 9.98123 32.4613 9.92449C32.4345 9.86775 32.3955 9.81754 32.3473 9.77736C32.2985 9.73698 32.2416 9.70759 32.1804 9.69118C32.1193 9.67477 32.0553 9.67172 31.9928 9.68226C23.7877 11.0483 16.8103 11.0656 10.6629 9.75143V2.88642C13.2135 3.98447 20.6491 4.045 22.3783 4.045C24.1076 4.045 31.5519 3.97583 34.0938 2.88642V7.62448C34.0938 7.73914 34.1394 7.8491 34.2204 7.93017C34.3015 8.01124 34.4115 8.05679 34.5261 8.05679C34.6408 8.05679 34.7507 8.01124 34.8318 7.93017C34.9129 7.8491 34.9584 7.73914 34.9584 7.62448V1.85753C34.9585 1.74436 34.9141 1.63569 34.8349 1.55486C34.7557 1.47403 34.6479 1.42749 34.5348 1.42523C32.5635 0.102372 24.22 0.0332031 22.3783 0.0332031C20.5367 0.0332031 12.1932 0.111018 10.1873 1.43387C10.0742 1.43614 9.96643 1.48268 9.88722 1.56351C9.80801 1.64434 9.76365 1.75301 9.76368 1.86618V23.2307C9.7627 23.8402 9.94527 24.4359 10.2876 24.9402C10.63 25.4445 11.1163 25.834 11.6831 26.058ZM22.387 0.897814C28.8283 0.897814 33.1082 1.53763 33.9987 2.0391C33.1341 2.54057 28.811 3.18039 22.387 3.18039C15.9629 3.18039 11.6658 2.52328 10.7753 2.0391C11.6658 1.53763 15.9456 0.897814 22.387 0.897814Z" fill="white"/>
</svg>
