<svg width="48" height="48" viewBox="0 0 48 48" fill="none" xmlns="http://www.w3.org/2000/svg">
<path d="M47.25 0H0.75C0.551091 9.94472e-06 0.360331 0.0790308 0.219681 0.219681C0.0790308 0.360331 9.94472e-06 0.551091 0 0.75L0 43.6875C0.000811708 43.8081 0.0310194 43.9267 0.088005 44.033C0.31378 45.2256 0.976516 46.2911 1.9465 47.0209C2.91649 47.7507 4.12391 48.0922 5.33244 47.9786C6.54098 47.8651 7.66363 47.3046 8.48068 46.4069C9.29774 45.5092 9.75037 44.3389 9.75 43.125C9.7374 43.0631 9.7374 42.9994 9.75 42.9375C9.75 42.2413 10.0266 41.5736 10.5188 41.0813C11.0111 40.5891 11.6788 40.3125 12.375 40.3125C13.0712 40.3125 13.7389 40.5891 14.2312 41.0813C14.7234 41.5736 15 42.2413 15 42.9375C15.0002 42.9908 15.0061 43.0439 15.0175 43.096C15.1063 44.0564 15.5618 44.9456 16.2894 45.5788C17.0169 46.2121 17.9605 46.5405 18.924 46.496C19.8874 46.4514 20.7967 46.0373 21.4627 45.3396C22.1287 44.642 22.5002 43.7145 22.5 42.75C22.5 42.7286 22.4955 42.7085 22.4937 42.6876C22.4955 42.6666 22.5 42.6465 22.5 42.6251V30.8749C22.4992 30.7895 22.4836 30.705 22.4541 30.6249C22.4836 30.5449 22.4992 30.4603 22.5 30.375C22.5 29.6788 22.7766 29.0111 23.2688 28.5188C23.7611 28.0266 24.4288 27.75 25.125 27.75C25.8212 27.75 26.4889 28.0266 26.9812 28.5188C27.4734 29.0111 27.75 29.6788 27.75 30.375C27.7626 30.4369 27.7626 30.5006 27.75 30.5625C27.75 31.243 28.0154 31.8966 28.4897 32.3846C28.6149 32.3399 28.7439 32.3061 28.875 32.2837V31.4194C28.8761 31.2691 28.8866 31.1189 28.9064 30.9699C28.9167 30.8852 28.9289 30.8009 28.9449 30.7177C28.9506 30.6884 28.9585 30.6599 28.9649 30.6308C28.9798 30.562 28.9945 30.493 29.0133 30.4254C29.0408 30.3272 29.072 30.2303 29.107 30.1349C29.14 30.0451 29.1763 29.9567 29.2158 29.8698C29.0876 28.8276 28.5665 27.8736 27.759 27.2024C26.9515 26.5312 25.9183 26.1933 24.8702 26.2578C23.8222 26.3222 22.8382 26.7841 22.119 27.5492C21.3998 28.3143 20.9996 29.3249 21 30.375C21.0008 30.4603 21.0164 30.5449 21.0459 30.6249C21.0164 30.705 21.0008 30.7895 21 30.8749V42.6251C21 42.6465 21.0045 42.6666 21.0063 42.6876C21.0045 42.7085 21 42.7286 21 42.75C21 43.3467 20.7629 43.919 20.341 44.341C19.919 44.7629 19.3467 45 18.75 45C18.1533 45 17.581 44.7629 17.159 44.341C16.7371 43.919 16.5 43.3467 16.5 42.75C16.4998 42.6967 16.4939 42.6436 16.4825 42.5915C16.3936 41.5313 15.8984 40.5465 15.1004 39.8429C14.3023 39.1394 13.2632 38.7715 12.2003 38.8161C11.1373 38.8608 10.1328 39.3146 9.3966 40.0827C8.66042 40.8507 8.2496 41.8736 8.25 42.9375C8.2626 42.9994 8.2626 43.0631 8.25 43.125C8.25 44.0201 7.89442 44.8786 7.26149 45.5115C6.62855 46.1444 5.77011 46.5 4.875 46.5C3.97989 46.5 3.12145 46.1444 2.48851 45.5115C1.85558 44.8786 1.5 44.0201 1.5 43.125V1.5H46.5V30.5625C46.5 31.6565 46.0654 32.7057 45.2918 33.4793C44.5182 34.2529 43.469 34.6875 42.375 34.6875C41.281 34.6875 40.2318 34.2529 39.4582 33.4793C38.6846 32.7057 38.25 31.6565 38.25 30.5625C38.2494 30.4271 38.2118 30.2944 38.1413 30.1789L36.7565 30.6911C36.7863 32.0233 37.2882 33.3016 38.1729 34.298C39.0575 35.2945 40.2673 35.9443 41.5866 36.1317C42.9059 36.319 44.2488 36.0316 45.3758 35.3209C46.5029 34.6101 47.3409 33.522 47.7403 32.2508C47.8215 32.1811 47.8868 32.0947 47.9316 31.9975C47.9764 31.9003 47.9997 31.7945 48 31.6875V0.75C48 0.551091 47.921 0.360331 47.7803 0.219681C47.6397 0.0790308 47.4489 9.94472e-06 47.25 0Z" fill="white"/>
<path d="M31.8446 29.3093C31.4141 29.4698 31.0427 29.7577 30.7801 30.1348C30.5175 30.5118 30.3762 30.96 30.375 31.4194V33.75H29.25C29.0511 33.75 28.8603 33.829 28.7197 33.9697C28.579 34.1103 28.5 34.3011 28.5 34.5V42.75C28.5004 43.1477 28.6586 43.529 28.9398 43.8102C29.221 44.0914 29.6023 44.2496 30 44.25H32.25C32.6477 44.2496 33.029 44.0914 33.3102 43.8102C33.5914 43.529 33.7496 43.1477 33.75 42.75V34.5C33.75 34.3011 33.671 34.1103 33.5303 33.9697C33.3897 33.829 33.1989 33.75 33 33.75H31.875V31.4194C31.8753 31.2663 31.9224 31.1169 32.01 30.9912C32.0976 30.8656 32.2214 30.7697 32.365 30.7163L43.4308 26.6228C43.6195 26.6088 43.796 26.524 43.9248 26.3853C44.0536 26.2466 44.1252 26.0643 44.1251 25.875V19.125C44.0533 18.9138 43.9195 18.7292 43.741 18.5954C43.5626 18.4616 43.3478 18.3847 43.125 18.375H41.25V17.25C41.2496 16.8523 41.0914 16.471 40.8102 16.1898C40.529 15.9086 40.1477 15.7504 39.75 15.75H23.25C22.8523 15.7504 22.471 15.9086 22.1898 16.1898C21.9086 16.471 21.7504 16.8523 21.75 17.25V18.375H21C20.8011 18.375 20.6103 18.454 20.4697 18.5947C20.329 18.7353 20.25 18.9261 20.25 19.125C20.25 19.3239 20.329 19.5147 20.4697 19.6553C20.6103 19.796 20.8011 19.875 21 19.875H21.75V21C21.7504 21.3977 21.9086 21.779 22.1898 22.0602C22.471 22.3414 22.8523 22.4996 23.25 22.5H39.75C40.1477 22.4996 40.529 22.3414 40.8102 22.0602C41.0914 21.779 41.2496 21.3977 41.25 21V19.875H42.6251V25.3217L31.8446 29.3093ZM32.2511 42.75H30V35.25H32.25L32.2511 42.75ZM23.25 21V17.25H39.75L39.7505 19.1196L39.75 19.125L39.7505 19.1305L39.7511 21H23.25Z" fill="white"/>
</svg>
