<svg width="46" height="54" viewBox="0 0 46 54" fill="none" xmlns="http://www.w3.org/2000/svg">
<path d="M3.20605 0C1.71596 0 0.5 1.30588 0.5 2.90582V38.2152C0.5 39.8151 1.71596 41.121 3.20605 41.121H27.2441V53.449C27.2441 53.5951 27.2981 53.7353 27.3944 53.8386C27.4906 53.9419 27.6211 54 27.7572 54H28.13C28.1976 54.0001 28.2645 53.986 28.3269 53.9583C28.3893 53.9306 28.4461 53.8899 28.4938 53.8386L34.2568 47.6277L40.0187 53.8386C40.0665 53.8899 40.1232 53.9306 40.1856 53.9583C40.2481 53.986 40.315 54.0001 40.3825 54H40.7553C40.8914 54 41.0219 53.9419 41.1182 53.8386C41.2144 53.7353 41.2685 53.5951 41.2685 53.449V39.0923C43.8432 36.9443 45.5001 33.6469 45.5 29.9403C45.5 23.8077 40.9754 18.7812 35.237 18.2623V11.7974V11.3648L35.0936 10.9848L25.432 0.172093L25.0611 0.00205153H24.0268H3.20703L3.20605 0ZM3.20605 1.10204H23.5136V9.44377C23.5136 11.0371 24.7015 12.3485 26.1706 12.3485H34.2107V18.216C29.3906 18.2364 25.2719 21.4319 23.697 25.9077C23.697 25.9132 23.697 25.9143 23.6919 25.9176C23.5669 26.2738 23.458 26.6385 23.3662 27.0099C23.3456 27.0924 23.3287 27.1765 23.31 27.2596C23.2864 27.365 23.2608 27.4696 23.2399 27.576C23.2395 27.576 23.2399 27.5815 23.2399 27.5826C23.2029 27.7714 23.1698 27.9621 23.1417 28.1541C23.0872 28.5246 23.0507 28.9009 23.0304 29.282C23.0304 29.3002 23.0253 29.3184 23.0253 29.3371C23.0155 29.5367 23.0104 29.7378 23.0104 29.9399C23.0103 33.6462 24.6673 36.9439 27.2419 39.0919V40.0186H3.2039C2.26457 40.0186 1.52414 39.2232 1.52414 38.2148V2.90544C1.52414 1.89712 2.26457 1.10167 3.2039 1.10167L3.20605 1.10204ZM24.5399 1.10204H24.8427L33.908 11.2464H26.1706C25.2649 11.2464 24.5399 10.4588 24.5399 9.44377V1.10204ZM3.21909 12.8747C3.15109 12.8737 3.08358 12.8872 3.02048 12.9144C2.95738 12.9416 2.89995 12.982 2.85152 13.0333C2.8031 13.0846 2.76464 13.1457 2.73839 13.213C2.71215 13.2804 2.69863 13.3527 2.69863 13.4257C2.69863 13.4987 2.71215 13.571 2.73839 13.6384C2.76464 13.7058 2.8031 13.7669 2.85152 13.8181C2.89995 13.8694 2.95738 13.9098 3.02048 13.9371C3.08358 13.9643 3.15109 13.9778 3.21909 13.9767H19.7943C19.8623 13.9778 19.9298 13.9643 19.9929 13.9371C20.056 13.9098 20.1135 13.8694 20.1619 13.8181C20.2103 13.7669 20.2488 13.7058 20.275 13.6384C20.3012 13.571 20.3148 13.4987 20.3148 13.4257C20.3148 13.3527 20.3012 13.2804 20.275 13.213C20.2488 13.1457 20.2103 13.0846 20.1619 13.0333C20.1135 12.982 20.056 12.9416 19.9929 12.9144C19.9298 12.8872 19.8623 12.8737 19.7943 12.8747H3.21909ZM3.21909 16.4284C3.15109 16.4274 3.08358 16.4409 3.02048 16.4681C2.95738 16.4953 2.89995 16.5357 2.85152 16.587C2.8031 16.6383 2.76464 16.6994 2.73839 16.7667C2.71215 16.8341 2.69863 16.9064 2.69863 16.9794C2.69863 17.0524 2.71215 17.1247 2.73839 17.1921C2.76464 17.2595 2.8031 17.3206 2.85152 17.3718C2.89995 17.4231 2.95738 17.4635 3.02048 17.4908C3.08358 17.518 3.15109 17.5315 3.21909 17.5304H5.29073C5.35873 17.5315 5.42624 17.518 5.48934 17.4908C5.55244 17.4635 5.60987 17.4231 5.6583 17.3718C5.70673 17.3206 5.74518 17.2595 5.77143 17.1921C5.79768 17.1247 5.81119 17.0524 5.81119 16.9794C5.81119 16.9064 5.79768 16.8341 5.77143 16.7667C5.74518 16.6994 5.70673 16.6383 5.6583 16.587C5.60987 16.5357 5.55244 16.4953 5.48934 16.4681C5.42624 16.4409 5.35873 16.4274 5.29073 16.4284H3.21909ZM9.43403 16.4284C9.36603 16.4274 9.29852 16.4409 9.23542 16.4681C9.17232 16.4953 9.11489 16.5357 9.06646 16.587C9.01803 16.6383 8.97958 16.6994 8.95334 16.7667C8.92709 16.8341 8.91358 16.9064 8.91358 16.9794C8.91358 17.0524 8.92709 17.1247 8.95334 17.1921C8.97958 17.2595 9.01803 17.3206 9.06646 17.3718C9.11489 17.4231 9.17232 17.4635 9.23542 17.4908C9.29852 17.518 9.36603 17.5315 9.43403 17.5304H19.7943C19.8623 17.5315 19.9298 17.518 19.9929 17.4908C20.056 17.4635 20.1135 17.4231 20.1619 17.3718C20.2103 17.3206 20.2488 17.2595 20.275 17.1921C20.3012 17.1247 20.3148 17.0524 20.3148 16.9794C20.3148 16.9064 20.3012 16.8341 20.275 16.7667C20.2488 16.6994 20.2103 16.6383 20.1619 16.587C20.1135 16.5357 20.056 16.4953 19.9929 16.4681C19.9298 16.4409 19.8623 16.4274 19.7943 16.4284H9.43403ZM34.2518 19.3179C34.3973 19.3235 34.5426 19.3306 34.6877 19.3416L34.7016 19.3279C40.151 19.5699 44.4735 24.2312 44.4735 29.9404C44.4735 33.3729 42.9048 36.4174 40.4745 38.3596C40.466 38.365 40.4576 38.3707 40.4494 38.3767C39.3765 39.23 38.1573 39.8429 36.8674 40.1998C36.7853 40.2224 36.7036 40.245 36.6208 40.2654C36.4364 40.3112 36.2504 40.3518 36.0636 40.3871C35.9224 40.413 35.7798 40.435 35.6366 40.4549C35.4602 40.4802 35.2844 40.5072 35.1064 40.5226C35.0956 40.5226 35.0843 40.5227 35.0736 40.5282C34.8028 40.5513 34.53 40.5645 34.2567 40.5645C33.9833 40.5645 33.7118 40.5513 33.4409 40.5282C33.4296 40.5282 33.4188 40.5282 33.408 40.5226C33.2137 40.5056 33.0212 40.4764 32.8287 40.4473C32.7133 40.4308 32.5981 40.4132 32.4839 40.3922C32.2727 40.3531 32.0626 40.3085 31.8545 40.2556C31.8 40.2418 31.7463 40.2258 31.6922 40.2115C31.2932 40.1028 30.9028 39.9646 30.5195 39.8068C30.4557 39.7826 30.3925 39.7567 30.3291 39.7314C29.5554 39.3941 28.8206 38.9582 28.1422 38.4282C26.5511 37.1922 25.3657 35.5218 24.6884 33.639C24.6731 33.5961 24.6571 33.5533 24.6423 33.5099C24.5465 33.2327 24.4642 32.9505 24.3907 32.665C24.362 32.5528 24.3326 32.4408 24.3075 32.3271C24.1825 31.7687 24.0986 31.1976 24.062 30.6181C24.062 30.5944 24.0569 30.5718 24.0569 30.5482C24.0456 30.3464 24.0394 30.1446 24.0389 29.9412C24.0389 29.758 24.044 29.5754 24.0528 29.3945C24.0702 29.0329 24.1056 28.6759 24.157 28.3248C24.1826 28.1494 24.2123 27.9753 24.2462 27.8028C24.314 27.4575 24.3986 27.118 24.4978 26.7858C24.5352 26.6606 24.5854 26.542 24.627 26.4188C24.6959 26.2152 24.7603 26.0085 24.8405 25.8108C24.9694 25.4934 25.1127 25.1838 25.2695 24.883C25.4262 24.5827 25.5968 24.2911 25.7796 24.0091C25.9625 23.7272 26.1585 23.4552 26.3659 23.1935C26.3664 23.1935 26.3665 23.1935 26.3659 23.1935C26.5735 22.9317 26.7931 22.6811 27.0234 22.4412C27.2549 22.2002 27.4972 21.9706 27.7501 21.7535C28.0015 21.5375 28.2629 21.3337 28.5338 21.1432C28.8064 20.9516 29.0882 20.7735 29.3787 20.6094C29.6673 20.4465 29.9641 20.2979 30.2687 20.1639C31.4912 19.6259 32.836 19.3284 34.2497 19.3277L34.2518 19.3179ZM3.21909 20.194C3.15109 20.193 3.08358 20.2065 3.02048 20.2337C2.95738 20.2609 2.89995 20.3014 2.85152 20.3526C2.8031 20.4039 2.76464 20.465 2.73839 20.5324C2.71215 20.5997 2.69863 20.672 2.69863 20.745C2.69863 20.8181 2.71215 20.8904 2.73839 20.9577C2.76464 21.0251 2.8031 21.0862 2.85152 21.1375C2.89995 21.1887 2.95738 21.2291 3.02048 21.2564C3.08358 21.2836 3.15109 21.2971 3.21909 21.2961H19.7943C19.8623 21.2971 19.9298 21.2836 19.9929 21.2564C20.056 21.2291 20.1135 21.1887 20.1619 21.1375C20.2103 21.0862 20.2488 21.0251 20.275 20.9577C20.3012 20.8904 20.3148 20.8181 20.3148 20.745C20.3148 20.672 20.3012 20.5997 20.275 20.5324C20.2488 20.465 20.2103 20.4039 20.1619 20.3526C20.1135 20.3014 20.056 20.2609 19.9929 20.2337C19.9298 20.2065 19.8623 20.193 19.7943 20.194H3.21909ZM34.2568 23.1687C30.6863 23.1687 27.7652 26.1977 27.7652 29.9402C27.7652 33.6828 30.6863 36.7106 34.2568 36.7106C37.8272 36.7106 40.7473 33.6828 40.7473 29.9402C40.7473 26.1977 37.8272 23.1687 34.2568 23.1687ZM3.21909 23.7477C3.15109 23.7466 3.08358 23.7601 3.02048 23.7874C2.95738 23.8146 2.89995 23.855 2.85152 23.9063C2.8031 23.9575 2.76464 24.0186 2.73839 24.086C2.71215 24.1534 2.69863 24.2257 2.69863 24.2987C2.69863 24.3717 2.71215 24.444 2.73839 24.5114C2.76464 24.5787 2.8031 24.6398 2.85152 24.6911C2.89995 24.7424 2.95738 24.7828 3.02048 24.81C3.08358 24.8373 3.15109 24.8507 3.21909 24.8497H5.29073C5.35873 24.8507 5.42624 24.8373 5.48934 24.81C5.55244 24.7828 5.60987 24.7424 5.6583 24.6911C5.70673 24.6398 5.74518 24.5787 5.77143 24.5114C5.79768 24.444 5.81119 24.3717 5.81119 24.2987C5.81119 24.2257 5.79768 24.1534 5.77143 24.086C5.74518 24.0186 5.70673 23.9575 5.6583 23.9063C5.60987 23.855 5.55244 23.8146 5.48934 23.7874C5.42624 23.7601 5.35873 23.7466 5.29073 23.7477H3.21909ZM9.43403 23.7477C9.36603 23.7466 9.29852 23.7601 9.23542 23.7874C9.17232 23.8146 9.11489 23.855 9.06646 23.9063C9.01803 23.9575 8.97958 24.0186 8.95334 24.086C8.92709 24.1534 8.91358 24.2257 8.91358 24.2987C8.91358 24.3717 8.92709 24.444 8.95334 24.5114C8.97958 24.5787 9.01803 24.6398 9.06646 24.6911C9.11489 24.7424 9.17232 24.7828 9.23542 24.81C9.29852 24.8373 9.36603 24.8507 9.43403 24.8497H19.7943C19.8623 24.8507 19.9298 24.8373 19.9929 24.81C20.056 24.7828 20.1135 24.7424 20.1619 24.6911C20.2103 24.6398 20.2488 24.5787 20.275 24.5114C20.3012 24.444 20.3148 24.3717 20.3148 24.2987C20.3148 24.2257 20.3012 24.1534 20.275 24.086C20.2488 24.0186 20.2103 23.9575 20.1619 23.9063C20.1135 23.855 20.056 23.8146 19.9929 23.7874C19.9298 23.7601 19.8623 23.7466 19.7943 23.7477H9.43403ZM34.2568 24.2707C37.2898 24.2707 39.721 26.8123 39.721 29.9402C39.721 33.0682 37.2898 35.6086 34.2568 35.6086C31.2237 35.6086 28.7915 33.0682 28.7915 29.9402C28.7915 26.8123 31.2237 24.2707 34.2568 24.2707ZM34.7058 25.3103V25.3158H33.7887L32.6191 27.8944L29.9902 28.3152L29.7086 29.258L31.6168 31.2565L31.1748 34.088L31.9185 34.6681L34.2678 33.3261L36.6231 34.6552L37.3638 34.0697L36.9077 31.2414L38.805 29.2311L38.5193 28.2894L35.8885 27.8847L34.7058 25.3126V25.3103ZM34.2508 26.8084L35.0916 28.6369L35.4775 28.9383L37.3487 29.2256L35.9997 30.6559L35.8534 31.1456L36.1781 33.157L34.5033 32.2111H34.0273L32.3565 33.1667L32.6702 31.1531L32.5219 30.6645L31.1658 29.2428L33.035 28.9437L33.4189 28.6402L34.2508 26.8084ZM28.2704 39.8489C29.7926 40.8517 31.5554 41.4894 33.451 41.63C33.4561 41.6302 33.4561 41.63 33.4592 41.63C33.4643 41.6301 33.4643 41.6298 33.4674 41.63C33.7267 41.6488 33.9873 41.6631 34.2512 41.6631C34.2512 41.6631 34.2563 41.6631 34.2574 41.6631C34.5238 41.6631 34.7872 41.6488 35.0491 41.63C35.0491 41.6299 35.0542 41.6301 35.0542 41.63C35.0542 41.6299 35.0594 41.63 35.0594 41.63C36.9563 41.49 38.7198 40.8522 40.243 39.8489V52.518L34.6204 46.4579C34.5727 46.4066 34.5161 46.3659 34.4537 46.3381C34.3914 46.3104 34.3245 46.2961 34.257 46.2961C34.1895 46.2961 34.1227 46.3104 34.0604 46.3381C33.998 46.3659 33.9414 46.4066 33.8937 46.4579L28.2711 52.518V40.5699V39.8489L28.2704 39.8489Z" fill="white"/>
</svg>
