<svg width="48" height="38" viewBox="0 0 48 38" fill="none" xmlns="http://www.w3.org/2000/svg">
<path d="M24.0002 0.00181498C21.2927 0.00181498 19.0783 2.14421 19.0783 4.77823C19.0783 6.35386 19.8695 7.75335 21.0845 8.62463C18.1464 9.75084 16.0652 12.5297 16.0652 15.7836V17.5555V17.5537C16.0652 17.7481 16.1439 17.9352 16.2846 18.0746C16.4252 18.2122 16.6146 18.2892 16.8152 18.291H31.1926H31.1907C31.6051 18.2892 31.9407 17.959 31.9388 17.5537V15.7818C31.9388 12.5279 29.8557 9.74884 26.9157 8.62282C28.1325 7.75154 28.9275 6.35205 28.9275 4.77642C28.9275 2.14244 26.7094 0 24.0018 0L24.0002 0.00181498ZM24.0002 1.46921C25.9052 1.46921 27.4258 2.94576 27.4258 4.77819C27.4258 6.61057 25.9052 8.089 24.0002 8.089C22.0952 8.089 20.5727 6.61245 20.5727 4.77819C20.5727 2.9458 22.0952 1.46921 24.0002 1.46921ZM30.9827 4.95244C30.8852 4.94878 30.7858 4.96528 30.694 5.00013C30.5065 5.068 30.3546 5.2074 30.274 5.38532C30.1033 5.75401 30.2721 6.18687 30.649 6.3538C35.4489 8.48149 38.8709 12.7699 39.8213 17.8361C39.8569 18.0287 39.9694 18.1993 40.1344 18.3093C40.2994 18.4194 40.5019 18.4616 40.6988 18.4267C40.8938 18.3919 41.0681 18.2818 41.1806 18.1204C41.295 17.9608 41.3381 17.7627 41.3006 17.5701C40.2619 12.0325 36.5138 7.34062 31.2677 5.01674H31.2696C31.1796 4.97639 31.0821 4.95428 30.9827 4.95244ZM17.0196 4.95795C16.9221 4.96161 16.8265 4.98363 16.7365 5.02398C11.492 7.34978 7.74225 12.0365 6.70354 17.5722H6.70541C6.66791 17.7648 6.71104 17.9629 6.82541 18.1225C6.93791 18.2839 7.11229 18.3939 7.30915 18.4288C7.71603 18.4985 8.10413 18.2343 8.17915 17.8382C9.12979 12.7739 12.5591 8.48535 17.3572 6.35775V6.35592C17.7322 6.189 17.8972 5.75431 17.7266 5.38744C17.6459 5.20951 17.4941 5.07011 17.3066 5.00225V5.00041C17.2147 4.96923 17.1171 4.95428 17.0196 4.95795ZM24.0002 9.5564C27.5833 9.5564 30.437 12.3261 30.437 15.7838V16.8238H17.5673V15.7838C17.5673 12.3262 20.4172 9.5564 24.0002 9.5564ZM7.93897 19.7126C5.2315 19.7126 3.01132 21.855 3.01132 24.4891C3.01132 26.0647 3.80442 27.4642 5.02318 28.3355C2.08319 29.4598 0 32.2387 0 35.4926V37.2644C0 37.4589 0.0787485 37.6478 0.219373 37.7854C0.361875 37.9229 0.553121 38.0018 0.753755 38H15.1254C15.326 38.0018 15.5172 37.9229 15.6579 37.7854C15.8004 37.6478 15.8791 37.4589 15.8791 37.2644V35.4926C15.8791 32.2386 13.796 29.4596 10.856 28.3336C12.0728 27.4623 12.8678 26.0628 12.8678 24.4872C12.8678 21.8532 10.6478 19.7108 7.94016 19.7108L7.93897 19.7126ZM40.0672 19.7126C37.3597 19.7126 35.1395 21.855 35.1395 24.4891C35.1395 26.0647 35.9326 27.4642 37.1514 28.3355C34.2114 29.4617 32.1282 32.2405 32.1282 35.4944V37.2663V37.2645C32.1263 37.6698 32.4601 37.9982 32.8744 38H47.2537C47.6662 37.9982 48.0019 37.6698 48 37.2645V35.4926C48 32.2387 45.9206 29.4596 42.9826 28.3336C44.1995 27.4623 44.9944 26.0628 44.9944 24.4872C44.9944 21.8532 42.7763 19.7108 40.0687 19.7108L40.0672 19.7126ZM7.93897 21.1745C9.84399 21.1745 11.3664 22.6566 11.3664 24.489C11.3664 26.3214 9.84394 27.798 7.93897 27.798C6.03401 27.798 4.51337 26.3214 4.51337 24.489C4.51337 22.6566 6.03401 21.1745 7.93897 21.1745ZM40.0672 21.1745C41.9722 21.1745 43.4928 22.6566 43.4928 24.489C43.4928 26.3214 41.9721 27.798 40.0672 27.798C38.1622 27.798 36.6397 26.3214 36.6397 24.489C36.6397 22.6566 38.1622 21.1745 40.0672 21.1745ZM7.93897 29.2651C11.5221 29.2651 14.3777 32.0348 14.3777 35.4925V36.5325H1.5022V35.4925C1.5022 32.035 4.35593 29.2651 7.93897 29.2651ZM40.0672 29.2651C43.6502 29.2651 46.5001 32.0348 46.5001 35.4925V36.5325H33.6285V35.4925C33.6285 32.035 36.4841 29.2651 40.0672 29.2651ZM18.3305 35.4282H18.3286C18.0136 35.43 17.7342 35.6245 17.6273 35.9161C17.4886 36.2958 17.693 36.7158 18.0811 36.8516C19.9823 37.5156 21.9811 37.8531 24.0004 37.8531C26.0179 37.8531 28.0242 37.5156 29.9236 36.8516H29.9255C30.3155 36.7159 30.518 36.2958 30.3792 35.9161C30.2405 35.5346 29.8111 35.3347 29.4211 35.4704C27.683 36.0775 25.8474 36.3857 24.0005 36.3857C22.1536 36.3857 20.3236 36.0775 18.5856 35.4704C18.5031 35.4429 18.4167 35.4282 18.3305 35.4282Z" fill="white"/>
</svg>
