<svg width="48" height="42" viewBox="0 0 48 42" fill="none" xmlns="http://www.w3.org/2000/svg">
<path d="M19.4959 0C19.3105 0 19.1417 0.136734 19.0626 0.302915L18.1959 2.01943L16.2792 2.32235C15.8896 2.38125 15.7001 2.95133 15.9792 3.23109L17.3626 4.59418L17.0459 6.51264C16.9959 6.81345 17.2563 7.12897 17.5626 7.13527C17.6542 7.13737 17.748 7.11213 17.8292 7.06796L19.5459 6.19287L21.2626 7.06796C21.6126 7.25518 22.1084 6.90388 22.046 6.51264L21.7293 4.59418L23.1126 3.23109C23.3918 2.95132 23.2022 2.38126 22.8127 2.32235L20.896 2.01943L20.0293 0.302915C19.9355 0.107283 19.7126 0 19.4959 0ZM19.5459 1.71652L20.0625 2.75989C20.1396 2.91135 20.2938 3.02074 20.4625 3.04598L21.5959 3.21426L20.7792 4.03884C20.6626 4.15664 20.6063 4.32913 20.6292 4.49321L20.8126 5.63755L19.7959 5.11587C19.6418 5.03593 19.4501 5.03593 19.2959 5.11587L18.2793 5.63755L18.4626 4.49321C18.4855 4.32913 18.4293 4.15664 18.3126 4.03884L17.4793 3.21426L18.6293 3.04598C18.798 3.02073 18.9522 2.91135 19.0293 2.75989L19.5459 1.71652ZM25.9293 3.19743C25.6502 3.21426 25.4127 3.48772 25.4293 3.7696C25.446 4.05149 25.7168 4.29129 25.996 4.27446H47.4584C47.7396 4.27867 48 4.01993 48 3.73595C48 3.45197 47.7417 3.19323 47.4584 3.19743H25.996C25.9731 3.19533 25.9523 3.19533 25.9293 3.19743ZM19.5459 10.4695C18.0709 10.4695 16.8626 11.6875 16.8626 13.1789C16.8626 14.6724 18.0709 15.8883 19.5459 15.8883C21.0209 15.8883 22.2292 14.6703 22.2292 13.1789C22.2292 11.6854 21.0209 10.4695 19.5459 10.4695ZM19.5459 11.5466C20.4417 11.5466 21.1625 12.266 21.1625 13.1789C21.1625 14.0919 20.4417 14.8113 19.5459 14.8113C18.65 14.8113 17.9292 14.0919 17.9292 13.1789C17.9292 12.266 18.6501 11.5466 19.5459 11.5466ZM25.9293 12.6404C25.6502 12.6572 25.4127 12.9307 25.4293 13.2126C25.446 13.4945 25.7168 13.7343 25.996 13.7174H47.4584C47.7396 13.7216 48 13.4629 48 13.1789C48 12.8949 47.7417 12.6362 47.4584 12.6404H25.996C25.9731 12.6383 25.9523 12.6383 25.9293 12.6404ZM19.5459 19.8958C18.0709 19.8958 16.8626 21.1306 16.8626 22.622C16.8626 24.1156 18.0709 25.3314 19.5459 25.3314C21.0209 25.3314 22.2292 24.1135 22.2292 22.622C22.2292 21.1285 21.0209 19.8958 19.5459 19.8958ZM19.5459 20.9728C20.4417 20.9728 21.1625 21.7091 21.1625 22.622C21.1625 23.535 20.4417 24.2544 19.5459 24.2544C18.65 24.2544 17.9292 23.535 17.9292 22.622C17.9292 21.7091 18.6501 20.9728 19.5459 20.9728ZM25.8792 22.0835C25.6 22.1151 25.373 22.3991 25.4042 22.681C25.4355 22.9628 25.7167 23.1921 25.9959 23.1606H47.4582C47.7395 23.1669 47.9999 22.906 47.9999 22.6221C47.9999 22.3381 47.7416 22.0793 47.4582 22.0835H25.9959C25.9563 22.0772 25.9188 22.0772 25.8792 22.0835ZM0.433398 24.591C0.189649 24.6372 -0.0040994 24.8792 6.59213e-05 25.1295V40.4475C6.59213e-05 40.7294 0.254231 40.986 0.533398 40.986H7.61445C7.89361 40.986 8.14778 40.7294 8.14778 40.4475V38.5627L20.1125 41.979C20.1646 41.9937 20.2209 42 20.2751 42C20.3667 42 20.4521 41.9727 20.5292 41.9285L34.3772 33.8653C34.3939 33.8548 34.4105 33.8443 34.4272 33.8316C35.048 33.3604 35.4605 32.6032 35.4605 31.7617C35.4605 30.4196 34.423 29.3131 33.123 29.1974C32.798 29.1512 32.5022 29.2395 32.2189 29.3047C31.2418 29.5487 25.74 30.9539 25.6104 30.9876C25.1479 30.508 24.5062 30.1966 23.7937 30.1966H18.8937C16.9271 28.7115 13.9458 26.7236 8.14602 26.6437V25.1291C8.14602 24.8472 7.89186 24.5906 7.61269 24.5906H0.531638C0.498305 24.5843 0.464971 24.5843 0.431638 24.5906L0.433398 24.591ZM1.06673 25.668H7.08325V39.909H1.06673V25.668ZM8.14778 27.7211C13.8438 27.7968 16.4267 29.6627 18.4288 31.1709C18.5205 31.2382 18.633 31.274 18.7455 31.2719H23.7955C24.6309 31.2719 25.2788 31.945 25.2788 32.7865C25.2788 33.63 24.6309 34.2842 23.7955 34.2842H16.2142C15.9329 34.2779 15.6809 34.5387 15.6809 34.8227C15.6809 35.1067 15.9329 35.3654 16.2142 35.3612H23.7955C25.2017 35.3612 26.3455 34.2064 26.3455 32.7865C26.3455 32.4857 26.2892 32.2143 26.1955 31.945C26.5351 31.8567 31.3913 30.6261 32.4141 30.3736C32.6995 30.2916 32.9287 30.2222 33.0454 30.2706C33.8037 30.3442 34.3933 30.9753 34.3933 31.762C34.3933 32.2311 34.1745 32.6476 33.8433 32.9231C33.837 32.9294 33.8329 32.9357 33.8266 32.94L20.1952 40.8852L8.14722 37.4164L8.14778 27.7211Z" fill="white"/>
</svg>
