<svg width="48" height="34" viewBox="0 0 48 34" fill="none" xmlns="http://www.w3.org/2000/svg">
<path d="M16.8854 5.86664L31.007 0.944038C31.188 0.880903 31.3762 0.885412 31.5443 0.944681L45.6659 5.86664C46.0905 6.01481 46.3153 6.48059 46.1672 6.90514C46.0821 7.14866 45.8921 7.32647 45.6659 7.40571L31.5443 12.3283C31.3633 12.3914 31.1752 12.3869 31.007 12.3277L16.8854 7.40636C16.4608 7.25818 16.236 6.7924 16.3842 6.36785C16.4692 6.12433 16.6593 5.94652 16.8854 5.86664ZM0.818178 12.3766C0.366569 12.3766 0 12.0101 0 11.5584C0 11.1068 0.366569 10.7403 0.818178 10.7403H12.475C12.9266 10.7403 13.2931 11.1068 13.2931 11.5584C13.2931 12.0101 12.9266 12.3766 12.475 12.3766H0.818178ZM0.818178 26.9859C0.366569 26.9859 0 26.6194 0 26.1678C0 25.7162 0.366569 25.3496 0.818178 25.3496H8.98836C9.43997 25.3496 9.80654 25.7162 9.80654 26.1678C9.80654 26.6194 9.43997 26.9859 8.98836 26.9859H0.818178ZM3.10586 22.1162C2.65425 22.1162 2.28768 21.7496 2.28768 21.298C2.28768 20.8464 2.65425 20.4798 3.10586 20.4798H12.475C12.9266 20.4798 13.2931 20.8464 13.2931 21.298C13.2931 21.7496 12.9266 22.1162 12.475 22.1162H3.10586ZM4.84915 17.2464C4.39755 17.2464 4.03098 16.8798 4.03098 16.4282C4.03098 15.9766 4.39755 15.61 4.84915 15.61H10.8405C11.2921 15.61 11.6587 15.9766 11.6587 16.4282C11.6587 16.8798 11.2921 17.2464 10.8405 17.2464H4.84915ZM15.7026 9.45696L29.7604 14.3564C30.0961 14.4736 30.3067 14.7893 30.3074 15.1262L30.31 32.2841C30.31 32.7357 29.9434 33.1023 29.4918 33.1023C29.3732 33.1023 29.2605 33.0772 29.1587 33.0314L15.1009 28.1327C14.7652 28.0154 14.5546 27.6998 14.5539 27.3628L14.5513 10.2043C14.5513 9.75266 14.9179 9.38609 15.3695 9.38609C15.488 9.38609 15.6008 9.41121 15.7026 9.45696ZM28.6736 15.7047L16.1877 11.3529V26.7843L28.6736 31.1355V15.7047ZM46.3636 11.3529L33.8777 15.7047V31.1355L46.3636 26.7843V11.3529ZM32.7909 14.3564L46.8488 9.45696C46.9505 9.41121 47.0633 9.38609 47.1818 9.38609C47.6334 9.38609 48 9.75266 48 10.2043V27.3628C47.9968 27.6998 47.7861 28.0154 47.4505 28.1327L33.3926 33.0314C33.2908 33.0772 33.1781 33.1023 33.0596 33.1023C32.6079 33.1023 32.2414 32.7357 32.2414 32.2841V15.1262C32.2446 14.7893 32.4553 14.4736 32.7909 14.3564ZM31.2757 2.57717L19.6311 6.6365L31.2757 10.6952L42.9202 6.6365L31.2757 2.57717Z" fill="white"/>
</svg>
