<svg width="40" height="44" viewBox="0 0 40 44" fill="none" xmlns="http://www.w3.org/2000/svg">
<path d="M39.1918 17.4473C38.2093 16.8694 36.7682 17.5998 35.9082 19.1123L35.3293 20.1329V0.526369C35.3293 0.386718 35.2743 0.253518 35.1771 0.154688C35.0799 0.0558583 34.9489 0 34.8116 0H3.48859C3.20333 0 2.97302 0.236331 2.97302 0.526369V6.7546L0.150021 9.62495C0.0528216 9.72378 0 9.85698 0 9.99663V43.4736C0 43.7637 0.230317 44 0.51557 44H31.8386C32.1238 44 32.3563 43.7637 32.3563 43.4736V40.455H34.8116C35.0968 40.455 35.3293 40.2187 35.3293 39.9287V28.3676L39.4158 21.1703C40.2737 19.6599 40.1765 18.0252 39.1918 17.4473ZM29.9641 35.7134L28.2484 34.7058L35.3605 22.1784L37.0763 23.186L29.9641 35.7134ZM27.9082 35.722L29.2668 36.5191L27.4433 38.1369L27.9082 35.722ZM4.00562 1.05043H34.2954V21.9549L32.3557 25.3688V4.06884C32.3557 3.7788 32.1233 3.54462 31.838 3.54462H6.34247C6.20512 3.54462 6.07412 3.59833 5.97692 3.69715L4.00551 5.70164L4.00562 1.05043ZM5.82493 5.34088V9.47019L1.76375 9.47234L5.82493 5.34088ZM1.03263 42.9495V10.523H6.3426C6.62785 10.523 6.86028 10.2867 6.86028 9.99664V4.59759H31.3227V27.1906L27.0946 34.6349C27.065 34.6864 27.046 34.7402 27.0354 34.7982L26.1395 39.4431H26.1374C26.0951 39.6644 26.1945 39.8878 26.3867 39.9995C26.5769 40.1113 26.8178 40.0876 26.9847 39.9394L30.4923 36.8285C30.5367 36.7898 30.5726 36.7447 30.6022 36.6953L31.3227 35.4255V42.9496L1.03263 42.9495ZM34.2932 39.4046L32.3556 39.4024V33.6059L34.2953 30.1921L34.2932 39.4046ZM38.5171 20.6484L37.5938 22.2747L35.878 21.2693L36.8035 19.6386C37.3824 18.6181 38.2699 18.1197 38.6735 18.3582C39.0792 18.5967 39.0982 19.6258 38.5192 20.6463L38.5171 20.6484ZM23.7771 35.5112C23.7771 35.8034 23.5447 36.0376 23.2594 36.0376H7.23008C6.94271 36.0376 6.7124 35.8034 6.7124 35.5112C6.7124 35.2212 6.94271 34.987 7.23008 34.987H23.2594C23.5447 34.987 23.7771 35.2212 23.7771 35.5112ZM23.7771 39.6147C23.7771 39.9048 23.5447 40.1411 23.2594 40.1411H7.23008C6.94905 40.1304 6.7293 39.8983 6.7293 39.6147C6.7293 39.3311 6.94905 39.097 7.23008 39.0884H23.2594C23.5447 39.0884 23.7771 39.3225 23.7771 39.6147Z" fill="white"/>
</svg>
