<svg width="44" height="50" viewBox="0 0 44 50" fill="none" xmlns="http://www.w3.org/2000/svg">
<path d="M43.921 26.232L40.3813 20.5632C40.3277 20.4774 40.2518 20.4123 40.1651 20.3661L40.1663 20.3644L33.0243 16.5516C33.4963 15.3219 33.7432 14.0498 33.7432 12.7811V2.71722C33.7432 2.46003 33.5487 2.23847 33.2766 2.18558L22.121 0.0116906C22.0409 -0.00389686 21.9584 -0.00389686 21.8783 0.0116906L10.7233 2.18502C10.4512 2.23791 10.2567 2.46003 10.2567 2.71667V12.7806C10.2567 14.0493 10.5036 15.3213 10.9756 16.5511L3.83356 20.3639L3.83476 20.3655C3.74806 20.4117 3.6722 20.4769 3.61861 20.5626L0.0788978 26.2314C0.0012277 26.3561 -0.0204474 26.5047 0.0198929 26.6439C0.0602332 26.7831 0.158977 26.9017 0.293846 26.974L3.53973 28.707V39.916C3.53973 40.1103 3.65172 40.2896 3.83356 40.3865L21.7061 49.9271C21.797 49.9755 21.8988 50 21.9999 50C22.1011 50 22.2028 49.9755 22.2938 49.9271L40.1663 40.3865C40.3481 40.2896 40.4601 40.1098 40.4601 39.916V28.707L43.706 26.974C43.8409 26.9022 43.9396 26.7831 43.98 26.6439C44.0203 26.5047 43.9992 26.3567 43.921 26.232ZM11.432 3.15812L21.9999 1.09891L32.5679 3.15812V12.7811C32.5679 18.043 27.7379 23.193 21.9999 24.0709C16.262 23.193 11.432 18.0436 11.432 12.7811V3.15812ZM13.7705 20.8771C15.9639 23.1663 18.9305 24.7267 21.9084 25.1581C21.9385 25.1626 21.9692 25.1648 21.9993 25.1648C22.0294 25.1648 22.0601 25.1626 22.0903 25.1581C25.0688 24.7267 28.0347 23.1663 30.2282 20.8771C31.2072 19.855 31.9959 18.7378 32.5763 17.5681L38.6954 20.8348L21.9999 29.748L5.30327 20.8348L11.4223 17.5681C12.0028 18.7378 12.7915 19.8556 13.7705 20.8771ZM4.34293 21.5774L21.1973 30.5747L18.2453 35.3022L1.39086 26.3049L4.34293 21.5774ZM4.71502 29.3344L18.1658 36.5147C18.2585 36.5642 18.3597 36.5876 18.459 36.5876C18.6619 36.5876 18.86 36.4902 18.9684 36.3159L21.4111 32.4035V48.5153L4.71502 39.6021V29.3344ZM39.2849 39.6021L22.5876 48.5153V32.4035L25.0303 36.3159C25.1393 36.4902 25.3367 36.5876 25.5396 36.5876C25.6396 36.5876 25.7401 36.5642 25.8329 36.5147L39.2836 29.3344V39.6021H39.2849ZM25.7546 35.3016L22.8025 30.5742L39.6569 21.5769L42.609 26.3043L25.7546 35.3016ZM17.0664 12.3146C16.837 12.1025 16.837 11.7585 17.0664 11.5458C17.2958 11.3337 17.6685 11.3337 17.8979 11.5458L20.4941 13.9463L26.1026 8.76069C26.332 8.54859 26.7047 8.54859 26.9341 8.76069C27.1635 8.97279 27.1635 9.31683 26.9341 9.52948L20.9095 15.0992C20.7951 15.2055 20.6446 15.2584 20.4941 15.2584C20.3436 15.2584 20.1931 15.2055 20.0787 15.0992L17.0664 12.3146Z" fill="white"/>
</svg>
