<svg width="48" height="48" viewBox="0 0 48 48" fill="none" xmlns="http://www.w3.org/2000/svg">
<path d="M42.0551 11.8863C43.5773 11.8863 45.0996 11.3068 46.2586 10.1479C47.3818 9.0252 48 7.53223 48 5.94492C48 4.35703 47.3818 2.86406 46.2586 1.74141C45.1359 0.618164 43.643 0 42.0551 0C40.4678 0 38.9748 0.618164 37.8521 1.74141C35.6774 3.9156 35.5434 7.36978 37.4494 9.70217L30.0318 17.1197C26.5878 14.0977 21.4122 14.0977 17.9682 17.1197L10.5506 9.70217C12.4566 7.36978 12.3226 3.9156 10.1479 1.74141C9.0252 0.618164 7.53223 0 5.94492 0C4.35703 0 2.86406 0.618164 1.74141 1.74141C0.618164 2.86406 0 4.35703 0 5.94492C0 7.53223 0.618164 9.0252 1.74141 10.1479C2.90039 11.3068 4.42266 11.8863 5.94492 11.8863C7.27859 11.8863 8.61255 11.4409 9.70214 10.5506L17.1197 17.9682C14.0977 21.4122 14.0977 26.5878 17.1197 30.0318L9.70217 37.4494C7.36893 35.5429 3.91567 35.6779 1.74141 37.8521C0.618164 38.9748 0 40.4678 0 42.0551C0 43.643 0.618164 45.1359 1.74141 46.2586C2.86406 47.3818 4.35703 48 5.94492 48C7.53223 48 9.0252 47.3818 10.1479 46.2586C12.3226 44.0844 12.4566 40.6302 10.5506 38.2978L17.9682 30.8803C19.6901 32.3913 21.842 33.1564 24 33.1564C26.158 33.1564 28.3099 32.3913 30.0318 30.8803L37.4494 38.2978C35.5434 40.6302 35.6774 44.0844 37.8521 46.2586C38.9748 47.3818 40.4678 48 42.0551 48C43.643 48 45.1359 47.3818 46.2586 46.2586C47.3818 45.1359 48 43.643 48 42.0551C48 40.4678 47.3818 38.9748 46.2586 37.8521C44.0838 35.6774 40.6305 35.5428 38.2978 37.4494L30.8803 30.0318C33.9023 26.5878 33.9023 21.4122 30.8803 17.9682L38.2979 10.5506C39.3875 11.4409 40.7214 11.8863 42.0551 11.8863ZM38.7006 2.58984C39.5971 1.69336 40.7883 1.2 42.0551 1.2C43.3225 1.2 44.5143 1.69336 45.4102 2.58984C46.3066 3.48574 46.8 4.67754 46.8 5.94492C46.8 7.21172 46.3066 8.40293 45.4102 9.29941C44.5143 10.1953 43.3225 10.6887 42.0551 10.6887C40.7883 10.6887 39.5965 10.1953 38.7006 9.29941C37.8047 8.40352 37.3113 7.21172 37.3113 5.94492C37.3113 4.67754 37.8047 3.48574 38.7006 2.58984ZM5.94492 10.6887C4.67754 10.6887 3.48574 10.1953 2.58984 9.29941C1.69336 8.40293 1.2 7.21172 1.2 5.94492C1.2 4.67754 1.69336 3.48574 2.58984 2.58984C3.48574 1.69336 4.67754 1.2 5.94492 1.2C7.21172 1.2 8.40293 1.69336 9.29941 2.58984C10.1953 3.48574 10.6887 4.67754 10.6887 5.94492C10.6887 7.21172 10.1953 8.40352 9.29941 9.29941C8.40352 10.1953 7.21172 10.6887 5.94492 10.6887ZM9.29941 45.4102C8.40293 46.3066 7.21172 46.8 5.94492 46.8C4.67754 46.8 3.48574 46.3066 2.58984 45.4102C1.69336 44.5143 1.2 43.3225 1.2 42.0551C1.2 40.7883 1.69336 39.5971 2.58984 38.7006C3.48574 37.8047 4.67754 37.3113 5.94492 37.3113C7.21172 37.3113 8.40352 37.8047 9.29941 38.7006C10.1953 39.5965 10.6887 40.7883 10.6887 42.0551C10.6887 43.3225 10.1953 44.5143 9.29941 45.4102ZM42.0551 37.3113C43.3225 37.3113 44.5143 37.8047 45.4102 38.7006C46.3066 39.5971 46.8 40.7883 46.8 42.0551C46.8 43.3225 46.3066 44.5143 45.4102 45.4102C44.5143 46.3066 43.3225 46.8 42.0551 46.8C40.7883 46.8 39.5971 46.3066 38.7006 45.4102C37.8047 44.5143 37.3113 43.3225 37.3113 42.0551C37.3113 40.7883 37.8047 39.5965 38.7006 38.7006C39.5965 37.8047 40.7883 37.3113 42.0551 37.3113ZM29.6291 29.6291C28.1256 31.1326 26.1264 31.9611 24 31.9611C21.8736 31.9611 19.8744 31.1326 18.3709 29.6291C16.8674 28.1256 16.0389 26.1264 16.0389 24C16.0389 21.8736 16.8674 19.8744 18.3709 18.3709C19.8744 16.8674 21.8736 16.0389 24 16.0389C26.1264 16.0389 28.1256 16.8674 29.6291 18.3709C31.1326 19.8744 31.9611 21.8736 31.9611 24C31.9611 26.1264 31.1326 28.1256 29.6291 29.6291Z" fill="white"/>
</svg>
