<svg width="48" height="34" viewBox="0 0 48 34" fill="none" xmlns="http://www.w3.org/2000/svg">
<path d="M32.1048 4.48296L31.3203 3.61719L28.6009 6.61855L29.3853 7.48432L32.1048 4.48296Z" fill="white"/>
<path d="M24.6289 0.5H23.5195V4.7446H24.6289V0.5Z" fill="white"/>
<path d="M17.0842 11.8477H13.2383V13.0721H17.0842V11.8477Z" fill="white"/>
<path d="M34.8342 11.8477H30.9883V13.0721H34.8342V11.8477Z" fill="white"/>
<path d="M19.4542 6.57167L16.7344 3.57031L15.9499 4.43621L18.6698 7.43757L19.4542 6.57167Z" fill="white"/>
<path d="M16.842 33.4227L17.9492 33.5L18.2107 28.938L17.1035 28.8607L16.842 33.4227Z" fill="white"/>
<path d="M29.8549 28.8912L30.1152 33.4531L31.2224 33.3762L30.9621 28.8142L29.8549 28.8912Z" fill="white"/>
<path d="M24.0368 18.7059C26.8473 18.7059 29.1401 16.1755 29.1401 13.0737C29.1401 9.97184 26.8473 7.44141 24.0368 7.44141C21.2264 7.44141 18.9336 9.97184 18.9336 13.0737C18.9336 16.1755 21.2264 18.7059 24.0368 18.7059ZM24.0368 8.58418C26.2556 8.58418 28.1046 10.5432 28.1046 13.0737C28.1046 15.6041 26.3296 17.5631 24.0368 17.5631C21.818 17.5631 19.969 15.6041 19.969 13.0737C19.969 10.5432 21.818 8.58418 24.0368 8.58418Z" fill="white"/>
<path d="M47.7042 27.9283C47.7042 27.1937 47.4823 26.459 47.1125 25.6428C46.7427 24.8265 46.077 24.2551 45.2635 23.9286L42.379 22.7858L39.8644 27.9283H39.1988L36.6841 22.7858L34.0216 23.847C33.9476 23.6837 33.8736 23.5205 33.7997 23.3572C33.282 22.3777 32.4684 21.643 31.433 21.2349L27.8089 19.7656L24.5547 26.459H23.4453L20.1911 19.7656L16.567 21.2349C15.5316 21.643 14.718 22.3777 14.2003 23.3572C14.1263 23.5205 14.0524 23.6837 13.9784 23.847L11.3159 22.7858L8.80123 27.9283H8.13559L5.62095 22.7858L2.81048 23.9286C1.99692 24.2551 1.33128 24.8265 0.961479 25.6428C0.591679 26.3774 0.3698 27.1937 0.3698 27.8467C0.3698 27.8467 0.0739599 30.7036 0 33.3973L1.1094 33.479C1.18336 30.7853 1.4792 28.0099 1.4792 27.9283C1.4792 27.2753 1.70108 26.7039 1.92296 26.2958C2.2188 25.806 2.66256 25.3163 3.18028 25.153L5.1772 24.3367L7.54391 29.2343H9.54083L11.9075 24.3367L13.6086 24.9897C13.5347 25.3979 13.4607 25.806 13.4607 26.1325C13.4607 26.1325 13.0909 29.8057 12.943 33.3973L14.0524 33.479C14.2003 29.969 14.5701 26.2958 14.5701 26.2142C14.5701 25.3163 14.9399 24.5 15.1618 23.9286C15.5316 23.194 16.1233 22.6226 16.9368 22.2961L19.6733 21.2349L22.7797 27.6018H25.2203L28.3267 21.2349L31.0632 22.2961C31.8028 22.6226 32.4684 23.194 32.8382 23.9286C33.1341 24.5 33.4299 25.3163 33.4299 26.2142C33.4299 26.2142 33.7997 29.8874 33.9476 33.3973L35.057 33.3157C34.9091 29.7241 34.5393 26.1325 34.5393 26.1325C34.5393 25.7244 34.4653 25.3163 34.3914 24.9081L36.0924 24.2551L38.4592 29.1527H40.4561L42.8228 24.2551L44.8197 25.0714C45.3374 25.3163 45.8552 25.7244 46.077 26.2142C46.2989 26.6223 46.5208 27.1937 46.5208 27.9283C46.5208 27.9283 46.8166 30.7036 46.8906 33.3973L48 33.3157C48 30.7036 47.7042 27.9283 47.7042 27.9283Z" fill="white"/>
<path d="M43.8586 29.9502L44.0586 33.4531L45.1658 33.3761L44.9658 29.8732L43.8586 29.9502Z" fill="white"/>
<path d="M39.4936 22.2954C41.7124 22.2954 43.5614 20.2547 43.5614 17.8059C43.5614 15.3571 41.7124 13.3164 39.4936 13.3164C37.2748 13.3164 35.4258 15.3571 35.4258 17.8059C35.4258 20.3363 37.2748 22.2954 39.4936 22.2954ZM39.4936 14.5408C41.1207 14.5408 42.452 16.0101 42.452 17.8059C42.452 19.6017 41.1207 21.071 39.4936 21.071C37.8665 21.071 36.5352 19.6017 36.5352 17.8059C36.5352 16.0101 37.8665 14.5408 39.4936 14.5408Z" fill="white"/>
<path d="M2.95923 33.3524L4.06641 33.4297L4.26718 29.9267L3.16 29.8495L2.95923 33.3524Z" fill="white"/>
<path d="M8.57952 22.2954C10.7983 22.2954 12.6473 20.2547 12.6473 17.8059C12.6473 15.3571 10.7983 13.3164 8.57952 13.3164C6.36072 13.3164 4.51172 15.3571 4.51172 17.8059C4.51172 20.3363 6.36072 22.2954 8.57952 22.2954ZM8.57952 14.5408C10.2066 14.5408 11.5379 16.0101 11.5379 17.8059C11.5379 19.6017 10.2066 21.071 8.57952 21.071C6.9524 21.071 5.62112 19.6017 5.62112 17.8059C5.62112 16.0101 6.9524 14.5408 8.57952 14.5408Z" fill="white"/>
</svg>
