<svg width="34" height="36" viewBox="0 0 34 36" fill="none" xmlns="http://www.w3.org/2000/svg">
<path d="M26.1081 33.9278L31.068 26.8439C31.4866 26.2442 31.7177 25.5258 31.7177 24.7887V14.7626C31.7177 13.988 31.093 13.3633 30.3184 13.3633C29.5438 13.3633 28.9191 13.988 28.9191 14.7626V23.0021C28.9191 23.4144 28.763 23.8142 28.4818 24.1203L25.0586 27.8684" stroke="#5BA646" strokeWidth="2" strokeLinecap="round" strokeLinejoin="round"/>
<path d="M19.2422 33.9261L20.3416 28.7849C20.6102 27.5231 21.2724 26.3799 22.2344 25.5179L25.6702 22.4382C26.3323 21.8447 27.3443 21.901 27.9378 22.5631C28.4875 23.1753 28.4875 24.1123 27.9315 24.7183L27.1944 25.5241" stroke="#5BA646" strokeWidth="2" strokeLinecap="round" strokeLinejoin="round"/>
<path d="M7.61745 33.9278L2.65748 26.8439C2.23894 26.2442 2.00781 25.5258 2.00781 24.7887V14.7626C2.00781 13.988 2.63249 13.3633 3.4071 13.3633C4.1817 13.3633 4.80638 13.988 4.80638 14.7626V23.0021C4.80638 23.4144 4.96256 23.8142 5.24366 24.1203L8.66692 27.8684" stroke="#5BA646" strokeWidth="2" strokeLinecap="round" strokeLinejoin="round"/>
<path d="M14.4899 33.93L13.3904 28.7888C13.1218 27.527 12.4597 26.3838 11.4977 25.5218L8.06192 22.4421C7.39976 21.8486 6.38777 21.9049 5.79432 22.567C5.24461 23.1792 5.2446 24.1162 5.80057 24.7222L6.5377 25.528" stroke="#5BA646" strokeWidth="2" strokeLinecap="round" strokeLinejoin="round"/>
<path d="M24.5289 18.1805C24.5289 13.9451 21.0994 10.5156 16.8641 10.5156C12.6287 10.5156 9.19922 13.9451 9.19922 18.1805H24.5351H24.5289Z" stroke="#5BA646" strokeWidth="2" strokeLinecap="round" strokeLinejoin="round"/>
<path d="M16.9276 10.3161C19.2046 10.3161 21.0505 8.47022 21.0505 6.19321C21.0505 3.9162 19.2046 2.07031 16.9276 2.07031C14.6506 2.07031 12.8047 3.9162 12.8047 6.19321C12.8047 8.47022 14.6506 10.3161 16.9276 10.3161Z" stroke="#5BA646" strokeWidth="2" strokeLinecap="round" strokeLinejoin="round"/>
</svg>
