<svg width="47" height="38" viewBox="0 0 47 38" fill="none" xmlns="http://www.w3.org/2000/svg">
<g clip-path="url(#clip0_243_6568)">
<path d="M23.5995 13.8906C29.4847 13.8906 34.2616 18.6675 34.2616 24.5527V31.7536C34.2616 34.0156 32.4273 35.8499 30.1653 35.8499H17.0338C14.7718 35.8499 12.9375 34.0156 12.9375 31.7536V24.5527C12.9375 18.6675 17.7144 13.8906 23.5995 13.8906Z" stroke="#5BA646" stroke-width="2" stroke-miterlimit="10"/>
<path d="M23.6814 13.6207C26.8494 13.6207 29.4175 11.0525 29.4175 7.88455C29.4175 4.71658 26.8494 2.14844 23.6814 2.14844C20.5135 2.14844 17.9453 4.71658 17.9453 7.88455C17.9453 11.0525 20.5135 13.6207 23.6814 13.6207Z" stroke="#5BA646" stroke-width="2" stroke-linecap="round" stroke-linejoin="round"/>
<path d="M13.1088 22.4346H2.1875C2.1875 22.4346 2.62824 14.4495 10.5162 14.4495C10.5162 14.4495 13.5106 14.3782 16.2977 16.7245" stroke="#5BA646" stroke-width="2" stroke-miterlimit="10"/>
<path d="M10.4779 14.2058C12.8906 14.2058 14.8464 12.2499 14.8464 9.83727C14.8464 7.4246 12.8906 5.46875 10.4779 5.46875C8.06523 5.46875 6.10938 7.4246 6.10938 9.83727C6.10938 12.2499 8.06523 14.2058 10.4779 14.2058Z" stroke="#5BA646" stroke-width="2" stroke-linecap="round" stroke-linejoin="round"/>
<path d="M34.1512 22.4346H45.0789C45.0789 22.4346 44.6382 14.4495 36.7502 14.4495C36.7502 14.4495 33.7558 14.3782 30.9688 16.7245" stroke="#5BA646" stroke-width="2" stroke-miterlimit="10"/>
<path d="M36.9545 14.2058C39.3671 14.2058 41.323 12.2499 41.323 9.83727C41.323 7.4246 39.3671 5.46875 36.9545 5.46875C34.5418 5.46875 32.5859 7.4246 32.5859 9.83727C32.5859 12.2499 34.5418 14.2058 36.9545 14.2058Z" stroke="#5BA646" stroke-width="2" stroke-linecap="round" stroke-linejoin="round"/>
</g>
<defs>
<clipPath id="clip0_243_6568">
<rect width="46" height="37" fill="white" transform="translate(0.5 0.5)"/>
</clipPath>
</defs>
</svg>
