<svg width="165" height="34" viewBox="0 0 165 34" fill="none" xmlns="http://www.w3.org/2000/svg">
<g clip-path="url(#clip0_3_214)">
<mask id="mask0_3_214" style="mask-type:luminance" maskUnits="userSpaceOnUse" x="-3" y="-8" width="170" height="50">
<path d="M166.973 -7.41846H-2.31641V41.5365H166.973V-7.41846Z" fill="white"/>
</mask>
<g mask="url(#mask0_3_214)">
<path d="M44.8343 30.0179C44.9427 30.2583 44.9969 30.5393 44.9969 30.8542C44.9969 31.3011 44.8987 31.7142 44.7125 32.0697C44.5262 32.4218 44.2723 32.7265 43.9608 32.9737C43.6527 33.2175 43.287 33.4071 42.8774 33.5323C42.4677 33.6576 42.0377 33.7219 41.5942 33.7219C39.9453 33.7219 38.6993 33.1938 37.8901 32.1509L37.8359 32.0798L39.3494 30.8L39.4069 30.8643C39.732 31.2131 40.0807 31.4806 40.4396 31.66C40.7985 31.8394 41.2149 31.9309 41.6754 31.9309C42.0275 31.9309 42.3187 31.8564 42.5422 31.7074C42.7555 31.5652 42.8604 31.3824 42.8604 31.1521C42.8604 31.0641 42.8435 30.9828 42.8029 30.9151C42.7656 30.844 42.6979 30.7695 42.6031 30.6951C42.5015 30.6172 42.3593 30.5291 42.1833 30.4445C42.0038 30.3531 41.7736 30.2549 41.4994 30.1432C41.2285 30.0314 40.9644 29.9062 40.7139 29.7741C40.4633 29.6421 40.2365 29.4796 40.0401 29.2967C39.8403 29.1105 39.6846 28.8972 39.5661 28.6568C39.4476 28.413 39.39 28.1286 39.39 27.807C39.39 27.3668 39.4848 26.9639 39.6676 26.6152C39.8505 26.2698 40.101 25.9685 40.4125 25.7247C40.7206 25.4809 41.0863 25.2913 41.496 25.1627C41.9056 25.034 42.339 24.9663 42.7927 24.9663C43.524 24.9663 44.1538 25.0814 44.6617 25.3083C45.1695 25.5351 45.6131 25.8466 45.9787 26.236L46.0397 26.3003L44.6515 27.6885L44.5872 27.6275C44.2791 27.3397 43.971 27.1231 43.673 26.9775C43.3818 26.8353 43.0365 26.7608 42.6471 26.7608C42.2815 26.7608 42.0004 26.842 41.8075 27.0079C41.6145 27.1705 41.5231 27.3364 41.5231 27.5158C41.5231 27.6106 41.5434 27.6919 41.584 27.763C41.6246 27.8341 41.6957 27.9086 41.7973 27.9797C41.9023 28.0541 42.0478 28.1354 42.2307 28.22C42.4135 28.3081 42.6437 28.4063 42.9349 28.5282C43.2227 28.6467 43.4902 28.7787 43.734 28.9141C43.9811 29.0529 44.2012 29.2121 44.384 29.3915C44.577 29.5642 44.726 29.7741 44.8343 30.0179Z" fill="#5BA646"/>
</g>
<mask id="mask1_3_214" style="mask-type:luminance" maskUnits="userSpaceOnUse" x="-3" y="-8" width="170" height="50">
<path d="M166.973 -7.41846H-2.31641V41.5365H166.973V-7.41846Z" fill="white"/>
</mask>
<g mask="url(#mask1_3_214)">
<path d="M54.2701 25.0815L53.769 26.9539H51.2364L49.4487 33.5968H47.4274L49.2117 26.9539H46.6758L47.1769 25.0815H54.2701Z" fill="#5BA646"/>
</g>
<mask id="mask2_3_214" style="mask-type:luminance" maskUnits="userSpaceOnUse" x="-3" y="-8" width="170" height="50">
<path d="M166.973 -7.41846H-2.31641V41.5365H166.973V-7.41846Z" fill="white"/>
</mask>
<g mask="url(#mask2_3_214)">
<path d="M56.8642 26.8929L56.4613 28.4131H60.3312L59.8437 30.2042H55.9738L55.5471 31.7854H60.0231L59.5322 33.5968H53.0586L53.0891 33.4817L55.344 25.0815H61.76L61.2725 26.8929H56.8642Z" fill="#5BA646"/>
</g>
<mask id="mask3_3_214" style="mask-type:luminance" maskUnits="userSpaceOnUse" x="-3" y="-8" width="170" height="50">
<path d="M166.973 -7.41846H-2.31641V41.5365H166.973V-7.41846Z" fill="white"/>
</mask>
<g mask="url(#mask3_3_214)">
<path d="M64.7783 26.8929L64.3754 28.4131H68.2453L67.7544 30.2042H63.8878L63.4612 31.7854H67.9372L67.4463 33.5968H60.9727L61.0031 33.4817L63.2581 25.0815H69.6741L69.1832 26.8929H64.7783Z" fill="#5BA646"/>
</g>
<mask id="mask4_3_214" style="mask-type:luminance" maskUnits="userSpaceOnUse" x="-3" y="-8" width="170" height="50">
<path d="M166.973 -7.41846H-2.31641V41.5365H166.973V-7.41846Z" fill="white"/>
</mask>
<g mask="url(#mask4_3_214)">
<path d="M75.5708 31.7481L75.0663 33.5968H68.8906L68.9211 33.4817L71.176 25.0815H73.2007L71.413 31.7481H75.5708Z" fill="#5BA646"/>
</g>
<mask id="mask5_3_214" style="mask-type:luminance" maskUnits="userSpaceOnUse" x="-3" y="-8" width="170" height="50">
<path d="M166.973 -7.41846H-2.31641V41.5365H166.973V-7.41846Z" fill="white"/>
</mask>
<g mask="url(#mask5_3_214)">
<path d="M84.3062 25.0815L84.2757 25.1967L82.0208 33.5968H79.9961L80.0266 33.4817L82.2849 25.0815H84.3062Z" fill="#5BA646"/>
</g>
<mask id="mask6_3_214" style="mask-type:luminance" maskUnits="userSpaceOnUse" x="-3" y="-8" width="170" height="50">
<path d="M166.973 -7.41846H-2.31641V41.5365H166.973V-7.41846Z" fill="white"/>
</mask>
<g mask="url(#mask6_3_214)">
<path d="M93.7464 25.0815L93.7159 25.1967L91.461 33.5968H89.7715L89.7478 33.5426L87.3303 28.3082L85.9117 33.5968H83.9141L83.9445 33.4817L86.2029 25.0815H88.021L88.0447 25.1357L90.3674 30.2042L91.7488 25.0815H93.7464Z" fill="#5BA646"/>
</g>
<mask id="mask7_3_214" style="mask-type:luminance" maskUnits="userSpaceOnUse" x="-3" y="-8" width="170" height="50">
<path d="M166.973 -7.41846H-2.31641V41.5365H166.973V-7.41846Z" fill="white"/>
</mask>
<g mask="url(#mask7_3_214)">
<path d="M101.371 26.1785C101.046 25.8535 100.609 25.586 100.077 25.3828C99.5457 25.1797 98.8618 25.0781 98.0458 25.0781H95.5471L93.2922 33.4782L93.2617 33.5934H96.4748C97.4499 33.5934 98.3133 33.4613 99.0412 33.1972C99.7726 32.9297 100.399 32.5404 100.907 32.0325C101.367 31.5721 101.716 31.054 101.95 30.492C102.183 29.9299 102.302 29.3205 102.302 28.684C102.302 27.6412 101.99 26.7981 101.371 26.1785ZM96.6983 31.7583H95.7807L97.0876 26.9166H97.9104C98.3742 26.9166 98.7602 26.9708 99.0582 27.0791C99.3527 27.1841 99.5897 27.3263 99.7624 27.499C100.067 27.8037 100.223 28.2269 100.223 28.7551C100.223 29.1478 100.155 29.5169 100.016 29.8656C99.8809 30.2076 99.6778 30.5157 99.4171 30.7764C99.0954 31.098 98.6925 31.3452 98.2253 31.5111C97.758 31.6736 97.2434 31.7583 96.6983 31.7583Z" fill="#5BA646"/>
</g>
<mask id="mask8_3_214" style="mask-type:luminance" maskUnits="userSpaceOnUse" x="-3" y="-8" width="170" height="50">
<path d="M166.973 -7.41846H-2.31641V41.5365H166.973V-7.41846Z" fill="white"/>
</mask>
<g mask="url(#mask8_3_214)">
<path d="M112.149 25.0815L110.785 30.1602C110.494 31.2504 110.057 32.0968 109.475 32.6758C109.126 33.0246 108.709 33.2886 108.232 33.4647C107.761 33.6374 107.203 33.7254 106.576 33.7254C106.085 33.7254 105.635 33.6611 105.246 33.529C104.85 33.4004 104.511 33.2074 104.23 32.9636C103.952 32.7164 103.736 32.4083 103.587 32.0494C103.438 31.6906 103.363 31.2775 103.363 30.8238C103.363 30.6139 103.38 30.3904 103.417 30.1602C103.455 29.9299 103.505 29.6963 103.57 29.4661L104.745 25.0781H106.766L105.534 29.6828C105.493 29.8216 105.462 29.9638 105.439 30.1026C105.418 30.2381 105.405 30.3972 105.405 30.5631C105.405 30.9491 105.52 31.2639 105.75 31.5009C105.977 31.7346 106.319 31.8531 106.766 31.8531C107.281 31.8531 107.714 31.6838 108.059 31.3554C108.408 31.0066 108.672 30.4988 108.845 29.8521L110.125 25.0815H112.149Z" fill="#5BA646"/>
</g>
<mask id="mask9_3_214" style="mask-type:luminance" maskUnits="userSpaceOnUse" x="-3" y="-8" width="170" height="50">
<path d="M166.973 -7.41846H-2.31641V41.5365H166.973V-7.41846Z" fill="white"/>
</mask>
<g mask="url(#mask9_3_214)">
<path d="M118.342 30.0179C118.45 30.2583 118.505 30.5393 118.505 30.8542C118.505 31.3011 118.406 31.7142 118.22 32.0697C118.034 32.4218 117.78 32.7265 117.469 32.9737C117.161 33.2175 116.795 33.4071 116.385 33.5323C115.975 33.6576 115.546 33.7219 115.102 33.7219C113.453 33.7219 112.207 33.1938 111.398 32.1509L111.344 32.0798L112.857 30.8L112.915 30.8643C113.24 31.2131 113.589 31.4806 113.947 31.66C114.306 31.8394 114.723 31.9309 115.18 31.9309C115.532 31.9309 115.823 31.8564 116.047 31.7074C116.26 31.5652 116.365 31.3824 116.365 31.1521C116.365 31.0641 116.348 30.9828 116.307 30.9151C116.27 30.844 116.202 30.7695 116.108 30.6951C116.006 30.6172 115.864 30.5291 115.688 30.4445C115.508 30.3531 115.278 30.2549 115.004 30.1432C114.733 30.0314 114.469 29.9062 114.218 29.7741C113.968 29.6421 113.741 29.4796 113.545 29.2967C113.348 29.1105 113.189 28.8972 113.074 28.6568C112.955 28.413 112.898 28.1286 112.898 27.807C112.898 27.3668 112.989 26.9639 113.175 26.6152C113.358 26.2698 113.609 25.9685 113.92 25.7247C114.228 25.4809 114.594 25.2913 115.004 25.1627C115.413 25.034 115.847 24.9663 116.301 24.9663C117.032 24.9663 117.662 25.0814 118.169 25.3083C118.677 25.5351 119.121 25.8466 119.483 26.236L119.544 26.3003L118.156 27.6885L118.092 27.6275C117.784 27.3397 117.475 27.1231 117.177 26.9775C116.886 26.8353 116.541 26.7608 116.152 26.7608C115.786 26.7608 115.505 26.842 115.312 27.0079C115.119 27.1705 115.027 27.3364 115.027 27.5158C115.027 27.6106 115.048 27.6919 115.088 27.763C115.129 27.8341 115.2 27.9086 115.302 27.9797C115.407 28.0541 115.552 28.1354 115.735 28.22C115.918 28.3081 116.148 28.4063 116.439 28.5282C116.727 28.6467 116.995 28.7787 117.238 28.9141C117.486 29.0529 117.706 29.2121 117.888 29.3915C118.085 29.5642 118.237 29.7741 118.342 30.0179Z" fill="#5BA646"/>
</g>
<mask id="mask10_3_214" style="mask-type:luminance" maskUnits="userSpaceOnUse" x="-3" y="-8" width="170" height="50">
<path d="M166.973 -7.41846H-2.31641V41.5365H166.973V-7.41846Z" fill="white"/>
</mask>
<g mask="url(#mask10_3_214)">
<path d="M127.778 25.0815L127.277 26.9539H124.741L122.957 33.5968H120.932L122.72 26.9539H120.184L120.685 25.0815H127.778Z" fill="#5BA646"/>
</g>
<mask id="mask11_3_214" style="mask-type:luminance" maskUnits="userSpaceOnUse" x="-3" y="-8" width="170" height="50">
<path d="M166.973 -7.41846H-2.31641V41.5365H166.973V-7.41846Z" fill="white"/>
</mask>
<g mask="url(#mask11_3_214)">
<path d="M134.665 25.9415C134.377 25.6537 134.008 25.437 133.561 25.2948C133.121 25.156 132.58 25.0815 131.957 25.0815H128.852L126.597 33.4817L126.566 33.5968H128.588L129.302 30.9288H130.545L131.831 33.5968H134.12L132.688 30.7223C133.538 30.5089 134.191 30.1467 134.635 29.6422C135.102 29.1174 135.336 28.4572 135.336 27.6818C135.336 26.9742 135.109 26.3851 134.665 25.9415ZM131.303 29.1174H129.793L130.386 26.9166H131.852C132.403 26.9166 132.789 27.025 133.003 27.2349C133.159 27.394 133.236 27.587 133.236 27.8342C133.236 28.0441 133.189 28.2303 133.098 28.3861C133.003 28.5418 132.867 28.6772 132.698 28.7822C132.525 28.8905 132.315 28.9752 132.082 29.0327C131.841 29.0903 131.581 29.1174 131.303 29.1174Z" fill="#5BA646"/>
</g>
<mask id="mask12_3_214" style="mask-type:luminance" maskUnits="userSpaceOnUse" x="-3" y="-8" width="170" height="50">
<path d="M166.973 -7.41846H-2.31641V41.5365H166.973V-7.41846Z" fill="white"/>
</mask>
<g mask="url(#mask12_3_214)">
<path d="M139.615 25.0815L139.584 25.1967L137.326 33.5968H135.305L135.339 33.4817L137.59 25.0815H139.615Z" fill="#5BA646"/>
</g>
<mask id="mask13_3_214" style="mask-type:luminance" maskUnits="userSpaceOnUse" x="-3" y="-8" width="170" height="50">
<path d="M166.973 -7.41846H-2.31641V41.5365H166.973V-7.41846Z" fill="white"/>
</mask>
<g mask="url(#mask13_3_214)">
<path d="M143.028 26.8929L142.621 28.4131H146.491L146 30.2042H142.134L141.707 31.7854H146.183L145.692 33.5968H139.219L139.249 33.4817L141.504 25.0815H147.92L147.429 26.8929H143.028Z" fill="#5BA646"/>
</g>
<mask id="mask14_3_214" style="mask-type:luminance" maskUnits="userSpaceOnUse" x="-3" y="-8" width="170" height="50">
<path d="M166.973 -7.41846H-2.31641V41.5365H166.973V-7.41846Z" fill="white"/>
</mask>
<g mask="url(#mask14_3_214)">
<path d="M153.863 30.0179C153.971 30.2583 154.025 30.5393 154.025 30.8542C154.025 31.3011 153.93 31.7142 153.741 32.0697C153.555 32.4218 153.301 32.7265 152.993 32.9737C152.684 33.2175 152.319 33.4071 151.909 33.5323C151.499 33.6576 151.069 33.7219 150.629 33.7219C148.98 33.7219 147.734 33.1938 146.925 32.1509L146.871 32.0798L148.385 30.8L148.445 30.8643C148.771 31.2131 149.119 31.4806 149.478 31.66C149.834 31.8394 150.25 31.9309 150.711 31.9309C151.063 31.9309 151.354 31.8564 151.577 31.7074C151.791 31.5652 151.896 31.3824 151.896 31.1521C151.896 31.0641 151.879 30.9828 151.841 30.9151C151.804 30.844 151.736 30.7695 151.638 30.6951C151.537 30.6172 151.394 30.5291 151.218 30.4445C151.039 30.3531 150.809 30.2549 150.535 30.1432C150.264 30.0314 150 29.9062 149.752 29.7741C149.502 29.6421 149.272 29.4796 149.079 29.2967C148.879 29.1105 148.723 28.8972 148.608 28.6568C148.493 28.413 148.432 28.1286 148.432 27.807C148.432 27.3668 148.527 26.9639 148.71 26.6152C148.892 26.2698 149.143 25.9685 149.454 25.7247C149.763 25.4809 150.128 25.2913 150.535 25.1627C150.944 25.034 151.378 24.9663 151.831 24.9663C152.563 24.9663 153.192 25.0814 153.7 25.3083C154.211 25.5351 154.652 25.8466 155.017 26.236L155.078 26.3003L153.69 27.6885L153.626 27.6275C153.318 27.3397 153.01 27.1231 152.712 26.9775C152.42 26.8353 152.075 26.7608 151.689 26.7608C151.323 26.7608 151.042 26.842 150.849 27.0079C150.66 27.1705 150.565 27.3364 150.565 27.5158C150.565 27.6106 150.582 27.6919 150.623 27.763C150.663 27.8341 150.734 27.9086 150.836 27.9797C150.944 28.0541 151.086 28.1354 151.269 28.22C151.452 28.3081 151.682 28.4063 151.973 28.5282C152.261 28.6467 152.532 28.7787 152.776 28.9141C153.023 29.0529 153.243 29.2121 153.426 29.3915C153.605 29.5642 153.754 29.7741 153.863 30.0179Z" fill="#5BA646"/>
</g>
<mask id="mask15_3_214" style="mask-type:luminance" maskUnits="userSpaceOnUse" x="-3" y="-8" width="170" height="50">
<path d="M166.973 -7.41846H-2.31641V41.5365H166.973V-7.41846Z" fill="white"/>
</mask>
<g mask="url(#mask15_3_214)">
<path d="M36.1384 14.5891L18.1531 8.14258L12.6038 14.7787C11.4764 16.1195 11.4764 17.5821 12.6004 17.9749L18.1633 19.9962L36.8866 16.4648C37.1406 15.5947 36.8866 14.8464 36.1384 14.5891Z" fill="#5BA646"/>
</g>
<mask id="mask16_3_214" style="mask-type:luminance" maskUnits="userSpaceOnUse" x="-3" y="-8" width="170" height="50">
<path d="M166.973 -7.41846H-2.31641V41.5365H166.973V-7.41846Z" fill="white"/>
</mask>
<g mask="url(#mask16_3_214)">
<path d="M22.0143 5.33918C21.0358 5.50169 19.9896 6.13822 19.2177 7.00498L33.0926 11.8365L34.4977 11.5589C36.4885 11.1796 38.5606 9.94045 39.9996 8.20693L46.8456 0.0302734L22.0143 5.33918ZM12.3479 22.478C10.3571 22.8504 8.28162 24.1201 6.85282 25.8231L0 33.9998L25.7455 29.1683C26.7781 28.9753 27.8954 28.3083 28.6674 27.3569L36.2786 17.9884C36.282 17.9715 36.2888 17.9715 36.2888 17.9715L19.5698 21.1169L12.3479 22.478Z" fill="white"/>
</g>
<mask id="mask17_3_214" style="mask-type:luminance" maskUnits="userSpaceOnUse" x="-3" y="-8" width="170" height="50">
<path d="M166.973 -7.41846H-2.31641V41.5365H166.973V-7.41846Z" fill="white"/>
</mask>
<g mask="url(#mask17_3_214)">
<path d="M55.4623 1.14437L42.8672 20.555H48.7415L51.809 15.5238H59.2577L59.7927 20.555H65.5858L62.5555 1.14437H55.4623ZM53.4274 12.3411L56.0006 8.16648C56.6879 7.0424 57.4159 5.5425 58.066 4.36086H58.1438C58.2589 5.5425 58.4113 7.09996 58.5264 8.16648L59.0275 12.3411H53.4274ZM78.3806 9.17544C76.1934 8.25789 74.619 7.56381 74.619 6.4465C74.619 5.37998 75.9632 4.39472 78.5364 4.39472C80.683 4.36086 82.5248 4.90259 83.3747 5.25132L85.1014 1.79105C83.9841 1.33736 82.1422 0.819336 78.9968 0.819336C73.3561 0.819336 68.7887 3.2097 68.7887 7.13043C68.7887 9.66976 71.3958 11.1697 74.1619 12.2836C76.5422 13.2113 77.6527 13.9257 77.6527 15.0362C77.6527 16.5632 75.7025 17.3013 73.5491 17.3013C71.1689 17.3013 68.9817 16.7562 67.4446 16.0655L65.6027 19.4614C66.8351 20.1589 69.4049 20.8428 73.0176 20.8428C78.7734 20.8428 83.5304 18.6218 83.5304 14.2981C83.5236 12.0026 81.5294 10.4079 78.3806 9.17544ZM137.253 8.19695C136.528 11.0444 136.179 13.174 136.068 15.1717H135.949C135.336 13.0454 134.635 11.0207 133.599 8.54907L130.193 1.14437H123.706L118.793 20.555H123.93L125.626 13.7564C126.394 10.699 127.004 7.92947 127.315 6.06052L127.427 6.02666C128.114 8.42041 128.805 10.1709 129.963 12.7982L133.569 20.555H139.291L144.156 1.14437H139.02L137.253 8.19695ZM145.433 1.14437L144.468 4.7807H151.304L147.346 20.555H152.881L156.833 4.7807H163.746L164.66 1.14437H145.433ZM95.5905 9.17544C93.3999 8.25789 91.8289 7.56381 91.8289 6.4465C91.8289 5.37998 93.1697 4.39472 95.7429 4.39472C97.8963 4.36086 99.7381 4.90259 100.578 5.25132L102.305 1.79105C101.194 1.33736 99.3522 0.819336 96.2034 0.819336C90.5593 0.819336 85.9885 3.2097 85.9885 7.13043C85.9885 9.66976 88.6023 11.1697 91.3651 12.2836C93.7487 13.2113 94.8626 13.9257 94.8626 15.0362C94.8626 16.5632 92.9056 17.3013 90.7523 17.3013C88.3687 17.3013 86.1849 16.7562 84.6511 16.0655L82.8058 19.4614C84.0349 20.1589 86.6047 20.8428 90.2105 20.8428C95.9765 20.8428 100.737 18.6218 100.737 14.2981C100.737 12.0026 98.7326 10.4079 95.5905 9.17544ZM110.458 4.67574H120.209L121.129 1.14437H105.816L100.899 20.555H116.752L117.635 17.0101H107.312L108.497 12.3107H117.706L118.594 8.83348H109.381L110.458 4.67574Z" fill="white"/>
</g>
</g>
<defs>
<clipPath id="clip0_3_214">
<rect width="164.84" height="34" fill="white"/>
</clipPath>
</defs>
</svg>
