<svg width="165" height="34" viewBox="0 0 165 34" fill="none" xmlns="http://www.w3.org/2000/svg">
<mask id="mask0_3_323" style="mask-type:luminance" maskUnits="userSpaceOnUse" x="-3" y="-8" width="170" height="50">
<path d="M166.973 -7.41824H-2.31641V41.5367H166.973V-7.41824Z" fill="white"/>
</mask>
<g mask="url(#mask0_3_323)">
<path d="M44.8343 30.0183C44.9427 30.2587 44.9969 30.5397 44.9969 30.8546C44.9969 31.3015 44.8987 31.7146 44.7125 32.0701C44.5262 32.4222 44.2723 32.7269 43.9608 32.9741C43.6527 33.2179 43.287 33.4075 42.8774 33.5328C42.4677 33.658 42.0377 33.7224 41.5942 33.7224C39.9453 33.7224 38.6993 33.1942 37.8901 32.1514L37.8359 32.0803L39.3494 30.8004L39.4069 30.8648C39.732 31.2135 40.0807 31.481 40.4396 31.6604C40.7985 31.8399 41.2149 31.9313 41.6754 31.9313C42.0275 31.9313 42.3187 31.8568 42.5422 31.7078C42.7555 31.5656 42.8604 31.3828 42.8604 31.1526C42.8604 31.0645 42.8435 30.9833 42.8029 30.9156C42.7656 30.8444 42.6979 30.77 42.6031 30.6955C42.5015 30.6176 42.3593 30.5296 42.1833 30.4449C42.0038 30.3535 41.7736 30.2553 41.4994 30.1436C41.2285 30.0319 40.9644 29.9066 40.7139 29.7745C40.4633 29.6425 40.2365 29.48 40.0401 29.2971C39.8403 29.1109 39.6846 28.8976 39.5661 28.6572C39.4476 28.4135 39.39 28.1291 39.39 27.8074C39.39 27.3673 39.4848 26.9643 39.6676 26.6156C39.8505 26.2703 40.101 25.9689 40.4125 25.7252C40.7206 25.4814 41.0863 25.2918 41.496 25.1631C41.9056 25.0345 42.339 24.9667 42.7927 24.9667C43.524 24.9667 44.1538 25.0819 44.6617 25.3087C45.1695 25.5355 45.6131 25.847 45.9787 26.2364L46.0397 26.3007L44.6515 27.6889L44.5872 27.628C44.2791 27.3402 43.971 27.1235 43.673 26.9779C43.3818 26.8357 43.0365 26.7612 42.6471 26.7612C42.2815 26.7612 42.0004 26.8425 41.8075 27.0084C41.6145 27.1709 41.5231 27.3368 41.5231 27.5162C41.5231 27.611 41.5434 27.6923 41.584 27.7634C41.6246 27.8345 41.6957 27.909 41.7973 27.9801C41.9023 28.0546 42.0478 28.1358 42.2307 28.2205C42.4135 28.3085 42.6437 28.4067 42.9349 28.5286C43.2227 28.6471 43.4902 28.7791 43.734 28.9146C43.9811 29.0534 44.2012 29.2125 44.384 29.392C44.577 29.5646 44.726 29.7745 44.8343 30.0183Z" fill="#5BA646"/>
</g>
<mask id="mask1_3_323" style="mask-type:luminance" maskUnits="userSpaceOnUse" x="-3" y="-8" width="170" height="50">
<path d="M166.973 -7.41824H-2.31641V41.5367H166.973V-7.41824Z" fill="white"/>
</mask>
<g mask="url(#mask1_3_323)">
<path d="M54.2701 25.0819L53.769 26.9542H51.2364L49.4487 33.5971H47.4274L49.2117 26.9542H46.6758L47.1769 25.0819H54.2701Z" fill="#5BA646"/>
</g>
<mask id="mask2_3_323" style="mask-type:luminance" maskUnits="userSpaceOnUse" x="-3" y="-8" width="170" height="50">
<path d="M166.973 -7.41824H-2.31641V41.5367H166.973V-7.41824Z" fill="white"/>
</mask>
<g mask="url(#mask2_3_323)">
<path d="M56.8642 26.8932L56.4613 28.4135H60.3312L59.8437 30.2045H55.9738L55.5471 31.7857H60.0231L59.5322 33.5971H53.0586L53.0891 33.482L55.344 25.0818H61.76L61.2725 26.8932H56.8642Z" fill="#5BA646"/>
</g>
<mask id="mask3_3_323" style="mask-type:luminance" maskUnits="userSpaceOnUse" x="-3" y="-8" width="170" height="50">
<path d="M166.973 -7.41824H-2.31641V41.5367H166.973V-7.41824Z" fill="white"/>
</mask>
<g mask="url(#mask3_3_323)">
<path d="M64.7783 26.8932L64.3754 28.4135H68.2453L67.7544 30.2045H63.8878L63.4612 31.7857H67.9372L67.4463 33.5971H60.9727L61.0031 33.482L63.2581 25.0818H69.6741L69.1832 26.8932H64.7783Z" fill="#5BA646"/>
</g>
<mask id="mask4_3_323" style="mask-type:luminance" maskUnits="userSpaceOnUse" x="-3" y="-8" width="170" height="50">
<path d="M166.973 -7.41824H-2.31641V41.5367H166.973V-7.41824Z" fill="white"/>
</mask>
<g mask="url(#mask4_3_323)">
<path d="M75.5708 31.7484L75.0663 33.5971H68.8906L68.9211 33.482L71.176 25.0818H73.2007L71.413 31.7484H75.5708Z" fill="#5BA646"/>
</g>
<mask id="mask5_3_323" style="mask-type:luminance" maskUnits="userSpaceOnUse" x="-3" y="-8" width="170" height="50">
<path d="M166.973 -7.41824H-2.31641V41.5367H166.973V-7.41824Z" fill="white"/>
</mask>
<g mask="url(#mask5_3_323)">
<path d="M84.3062 25.0818L84.2757 25.197L82.0208 33.5971H79.9961L80.0266 33.482L82.2849 25.0818H84.3062Z" fill="#5BA646"/>
</g>
<mask id="mask6_3_323" style="mask-type:luminance" maskUnits="userSpaceOnUse" x="-3" y="-8" width="170" height="50">
<path d="M166.973 -7.41824H-2.31641V41.5367H166.973V-7.41824Z" fill="white"/>
</mask>
<g mask="url(#mask6_3_323)">
<path d="M93.7464 25.0818L93.7159 25.197L91.461 33.5971H89.7715L89.7478 33.5429L87.3303 28.3085L85.9117 33.5971H83.9141L83.9445 33.482L86.2029 25.0818H88.021L88.0447 25.136L90.3674 30.2045L91.7488 25.0818H93.7464Z" fill="#5BA646"/>
</g>
<mask id="mask7_3_323" style="mask-type:luminance" maskUnits="userSpaceOnUse" x="-3" y="-8" width="170" height="50">
<path d="M166.973 -7.41824H-2.31641V41.5367H166.973V-7.41824Z" fill="white"/>
</mask>
<g mask="url(#mask7_3_323)">
<path d="M101.371 26.1788C101.046 25.8538 100.609 25.5863 100.077 25.3832C99.5457 25.18 98.8618 25.0785 98.0458 25.0785H95.5471L93.2922 33.4786L93.2617 33.5937H96.4748C97.4499 33.5937 98.3133 33.4617 99.0412 33.1976C99.7726 32.9301 100.399 32.5407 100.907 32.0329C101.367 31.5724 101.716 31.0544 101.95 30.4923C102.183 29.9303 102.302 29.3208 102.302 28.6843C102.302 27.6415 101.99 26.7984 101.371 26.1788ZM96.6983 31.7586H95.7807L97.0876 26.9169H97.9104C98.3742 26.9169 98.7602 26.9711 99.0582 27.0795C99.3527 27.1844 99.5897 27.3266 99.7624 27.4993C100.067 27.804 100.223 28.2272 100.223 28.7554C100.223 29.1482 100.155 29.5172 100.016 29.866C99.8809 30.2079 99.6778 30.516 99.4171 30.7767C99.0954 31.0984 98.6925 31.3455 98.2253 31.5114C97.758 31.674 97.2434 31.7586 96.6983 31.7586Z" fill="#5BA646"/>
</g>
<mask id="mask8_3_323" style="mask-type:luminance" maskUnits="userSpaceOnUse" x="-3" y="-8" width="170" height="50">
<path d="M166.973 -7.41824H-2.31641V41.5367H166.973V-7.41824Z" fill="white"/>
</mask>
<g mask="url(#mask8_3_323)">
<path d="M112.149 25.0818L110.785 30.1605C110.494 31.2507 110.057 32.0972 109.475 32.6762C109.126 33.0249 108.709 33.289 108.232 33.465C107.761 33.6377 107.203 33.7257 106.576 33.7257C106.085 33.7257 105.635 33.6614 105.246 33.5294C104.85 33.4007 104.511 33.2077 104.23 32.9639C103.952 32.7168 103.736 32.4087 103.587 32.0498C103.438 31.6909 103.363 31.2778 103.363 30.8241C103.363 30.6142 103.38 30.3907 103.417 30.1605C103.455 29.9303 103.505 29.6967 103.57 29.4664L104.745 25.0785H106.766L105.534 29.6831C105.493 29.8219 105.462 29.9641 105.439 30.103C105.418 30.2384 105.405 30.3975 105.405 30.5634C105.405 30.9494 105.52 31.2643 105.75 31.5013C105.977 31.7349 106.319 31.8534 106.766 31.8534C107.281 31.8534 107.714 31.6841 108.059 31.3557C108.408 31.007 108.672 30.4991 108.845 29.8524L110.125 25.0818H112.149Z" fill="#5BA646"/>
</g>
<mask id="mask9_3_323" style="mask-type:luminance" maskUnits="userSpaceOnUse" x="-3" y="-8" width="170" height="50">
<path d="M166.973 -7.41824H-2.31641V41.5367H166.973V-7.41824Z" fill="white"/>
</mask>
<g mask="url(#mask9_3_323)">
<path d="M118.34 30.0183C118.449 30.2587 118.503 30.5397 118.503 30.8546C118.503 31.3015 118.405 31.7146 118.218 32.0701C118.032 32.4222 117.778 32.7269 117.467 32.9741C117.159 33.2179 116.793 33.4075 116.383 33.5328C115.974 33.658 115.544 33.7224 115.1 33.7224C113.451 33.7224 112.205 33.1942 111.396 32.1514L111.342 32.0803L112.855 30.8004L112.913 30.8648C113.238 31.2135 113.587 31.481 113.945 31.6604C114.304 31.8399 114.721 31.9313 115.178 31.9313C115.53 31.9313 115.821 31.8568 116.045 31.7078C116.258 31.5656 116.363 31.3828 116.363 31.1526C116.363 31.0645 116.346 30.9833 116.305 30.9156C116.268 30.8444 116.2 30.77 116.106 30.6955C116.004 30.6176 115.862 30.5296 115.686 30.4449C115.506 30.3535 115.276 30.2553 115.002 30.1436C114.731 30.0319 114.467 29.9066 114.216 29.7745C113.966 29.6425 113.739 29.48 113.543 29.2971C113.346 29.1109 113.187 28.8976 113.072 28.6572C112.953 28.4135 112.896 28.1291 112.896 27.8074C112.896 27.3673 112.987 26.9643 113.174 26.6156C113.356 26.2703 113.607 25.9689 113.918 25.7252C114.226 25.4814 114.592 25.2918 115.002 25.1631C115.412 25.0345 115.845 24.9667 116.299 24.9667C117.03 24.9667 117.66 25.0819 118.168 25.3087C118.675 25.5355 119.119 25.847 119.481 26.2364L119.542 26.3007L118.154 27.6889L118.09 27.628C117.782 27.3402 117.473 27.1235 117.175 26.9779C116.884 26.8357 116.539 26.7612 116.15 26.7612C115.784 26.7612 115.503 26.8425 115.31 27.0084C115.117 27.1709 115.026 27.3368 115.026 27.5162C115.026 27.611 115.046 27.6923 115.086 27.7634C115.127 27.8345 115.198 27.909 115.3 27.9801C115.405 28.0546 115.55 28.1358 115.733 28.2205C115.916 28.3085 116.146 28.4067 116.437 28.5286C116.725 28.6471 116.993 28.7791 117.236 28.9146C117.484 29.0534 117.704 29.2125 117.887 29.392C118.083 29.5646 118.235 29.7745 118.34 30.0183Z" fill="#5BA646"/>
</g>
<mask id="mask10_3_323" style="mask-type:luminance" maskUnits="userSpaceOnUse" x="-3" y="-8" width="170" height="50">
<path d="M166.973 -7.41824H-2.31641V41.5367H166.973V-7.41824Z" fill="white"/>
</mask>
<g mask="url(#mask10_3_323)">
<path d="M127.778 25.0818L127.277 26.9542H124.741L122.957 33.5971H120.932L122.72 26.9542H120.184L120.685 25.0818H127.778Z" fill="#5BA646"/>
</g>
<mask id="mask11_3_323" style="mask-type:luminance" maskUnits="userSpaceOnUse" x="-3" y="-8" width="170" height="50">
<path d="M166.973 -7.41824H-2.31641V41.5367H166.973V-7.41824Z" fill="white"/>
</mask>
<g mask="url(#mask11_3_323)">
<path d="M134.665 25.9418C134.377 25.654 134.008 25.4374 133.561 25.2952C133.121 25.1563 132.58 25.0818 131.957 25.0818H128.852L126.597 33.482L126.566 33.5971H128.588L129.302 30.9291H130.545L131.831 33.5971H134.12L132.688 30.7226C133.538 30.5093 134.191 30.147 134.635 29.6425C135.102 29.1177 135.336 28.4575 135.336 27.6821C135.336 26.9745 135.109 26.3854 134.665 25.9418ZM131.303 29.1177H129.793L130.386 26.9169H131.852C132.403 26.9169 132.789 27.0253 133.003 27.2352C133.159 27.3943 133.236 27.5873 133.236 27.8345C133.236 28.0444 133.189 28.2306 133.098 28.3864C133.003 28.5421 132.867 28.6775 132.698 28.7825C132.525 28.8909 132.315 28.9755 132.082 29.0331C131.841 29.0906 131.581 29.1177 131.303 29.1177Z" fill="#5BA646"/>
</g>
<mask id="mask12_3_323" style="mask-type:luminance" maskUnits="userSpaceOnUse" x="-3" y="-8" width="170" height="50">
<path d="M166.973 -7.41824H-2.31641V41.5367H166.973V-7.41824Z" fill="white"/>
</mask>
<g mask="url(#mask12_3_323)">
<path d="M139.613 25.0818L139.582 25.197L137.324 33.5971H135.303L135.337 33.482L137.588 25.0818H139.613Z" fill="#5BA646"/>
</g>
<mask id="mask13_3_323" style="mask-type:luminance" maskUnits="userSpaceOnUse" x="-3" y="-8" width="170" height="50">
<path d="M166.973 -7.41824H-2.31641V41.5367H166.973V-7.41824Z" fill="white"/>
</mask>
<g mask="url(#mask13_3_323)">
<path d="M143.028 26.8932L142.621 28.4135H146.491L146 30.2045H142.134L141.707 31.7857H146.183L145.692 33.5971H139.219L139.249 33.482L141.504 25.0818H147.92L147.429 26.8932H143.028Z" fill="#5BA646"/>
</g>
<mask id="mask14_3_323" style="mask-type:luminance" maskUnits="userSpaceOnUse" x="-3" y="-8" width="170" height="50">
<path d="M166.973 -7.41824H-2.31641V41.5367H166.973V-7.41824Z" fill="white"/>
</mask>
<g mask="url(#mask14_3_323)">
<path d="M153.863 30.0183C153.971 30.2587 154.025 30.5397 154.025 30.8546C154.025 31.3015 153.931 31.7146 153.741 32.0701C153.555 32.4222 153.301 32.7269 152.993 32.9741C152.685 33.2179 152.319 33.4075 151.909 33.5328C151.5 33.658 151.07 33.7224 150.629 33.7224C148.981 33.7224 147.735 33.1942 146.925 32.1514L146.871 32.0803L148.385 30.8004L148.446 30.8648C148.771 31.2135 149.119 31.481 149.478 31.6604C149.834 31.8399 150.25 31.9313 150.711 31.9313C151.063 31.9313 151.354 31.8568 151.577 31.7078C151.791 31.5656 151.896 31.3828 151.896 31.1526C151.896 31.0645 151.879 30.9833 151.842 30.9156C151.804 30.8445 151.737 30.77 151.638 30.6955C151.537 30.6176 151.395 30.5296 151.219 30.4449C151.039 30.3535 150.809 30.2553 150.535 30.1436C150.264 30.0319 150 29.9066 149.753 29.7745C149.502 29.6425 149.272 29.48 149.079 29.2972C148.879 29.1109 148.723 28.8976 148.608 28.6572C148.493 28.4135 148.432 28.1291 148.432 27.8074C148.432 27.3673 148.527 26.9644 148.71 26.6156C148.893 26.2703 149.143 25.9689 149.455 25.7252C149.763 25.4814 150.128 25.2918 150.535 25.1631C150.944 25.0345 151.378 24.9667 151.831 24.9667C152.563 24.9667 153.192 25.0819 153.7 25.3087C154.212 25.5356 154.652 25.847 155.017 26.2364L155.078 26.3007L153.69 27.6889L153.626 27.628C153.318 27.3402 153.01 27.1235 152.712 26.9779C152.421 26.8357 152.075 26.7612 151.689 26.7612C151.324 26.7612 151.042 26.8425 150.85 27.0084C150.66 27.1709 150.565 27.3368 150.565 27.5162C150.565 27.611 150.582 27.6923 150.623 27.7634C150.663 27.8345 150.734 27.909 150.836 27.9801C150.944 28.0546 151.087 28.1358 151.269 28.2205C151.452 28.3085 151.682 28.4067 151.974 28.5286C152.261 28.6471 152.532 28.7791 152.776 28.9146C153.023 29.0534 153.243 29.2125 153.426 29.392C153.606 29.5646 153.755 29.7745 153.863 30.0183Z" fill="#5BA646"/>
</g>
<mask id="mask15_3_323" style="mask-type:luminance" maskUnits="userSpaceOnUse" x="-3" y="-8" width="170" height="50">
<path d="M166.973 -7.41824H-2.31641V41.5367H166.973V-7.41824Z" fill="white"/>
</mask>
<g mask="url(#mask15_3_323)">
<path d="M36.1384 14.5893L18.1531 8.14279L12.6038 14.7789C11.4764 16.1197 11.4764 17.5823 12.6004 17.9751L18.1633 19.9964L36.8866 16.465C37.1406 15.5949 36.8866 14.8466 36.1384 14.5893Z" fill="#5BA646"/>
</g>
<mask id="mask16_3_323" style="mask-type:luminance" maskUnits="userSpaceOnUse" x="-3" y="-8" width="170" height="50">
<path d="M166.973 -7.41824H-2.31641V41.5367H166.973V-7.41824Z" fill="white"/>
</mask>
<g mask="url(#mask16_3_323)">
<path d="M22.0143 5.33939C21.0358 5.50191 19.9896 6.13843 19.2177 7.00519L33.0926 11.8367L34.4977 11.5591C36.4885 11.1799 38.5606 9.94066 39.9996 8.20714L46.8456 0.0304871L22.0143 5.33939ZM12.3479 22.4782C10.3571 22.8506 8.28162 24.1203 6.85282 25.8234L0 34L25.7455 29.1685C26.7781 28.9755 27.8954 28.3085 28.6674 27.3571L36.2786 17.9887C36.282 17.9717 36.2888 17.9717 36.2888 17.9717L19.5698 21.1171L12.3479 22.4782Z" fill="#18355F"/>
</g>
<mask id="mask17_3_323" style="mask-type:luminance" maskUnits="userSpaceOnUse" x="-3" y="-8" width="170" height="50">
<path d="M166.973 -7.41824H-2.31641V41.5367H166.973V-7.41824Z" fill="white"/>
</mask>
<g mask="url(#mask17_3_323)">
<path d="M55.4623 1.1444L42.8672 20.5551H48.7415L51.809 15.5238H59.2577L59.7927 20.5551H65.5858L62.5555 1.1444H55.4623ZM53.4274 12.3412L56.0006 8.16651C56.6879 7.04243 57.4159 5.54253 58.066 4.36089H58.1438C58.2589 5.54253 58.4113 7.09999 58.5264 8.16651L59.0275 12.3412H53.4274ZM78.3806 9.17547C76.1934 8.25792 74.619 7.56384 74.619 6.44653C74.619 5.38001 75.9632 4.39475 78.5364 4.39475C80.683 4.36089 82.5248 4.90262 83.3747 5.25135L85.1014 1.79109C83.9841 1.33739 82.1422 0.819366 78.9968 0.819366C73.3561 0.819366 68.7887 3.20973 68.7887 7.13046C68.7887 9.66979 71.3958 11.1697 74.1619 12.2836C76.5422 13.2113 77.6527 13.9257 77.6527 15.0363C77.6527 16.5632 75.7025 17.3013 73.5491 17.3013C71.1689 17.3013 68.9817 16.7562 67.4446 16.0655L65.6027 19.4615C66.8351 20.1589 69.4049 20.8429 73.0176 20.8429C78.7734 20.8429 83.5304 18.6218 83.5304 14.2982C83.5236 12.0026 81.5294 10.4079 78.3806 9.17547ZM137.253 8.19698C136.528 11.0444 136.179 13.1741 136.068 15.1717H135.949C135.336 13.0454 134.635 11.0207 133.599 8.5491L130.193 1.1444H123.706L118.793 20.5551H123.93L125.626 13.7564C126.394 10.6991 127.004 7.9295 127.315 6.06055L127.427 6.0267C128.114 8.42044 128.805 10.1709 129.963 12.7983L133.569 20.5551H139.291L144.156 1.1444H139.02L137.253 8.19698ZM145.433 1.1444L144.468 4.78073H151.304L147.346 20.5551H152.881L156.833 4.78073H163.746L164.66 1.1444H145.433ZM95.5905 9.17547C93.3999 8.25792 91.8289 7.56384 91.8289 6.44653C91.8289 5.38001 93.1697 4.39475 95.7429 4.39475C97.8963 4.36089 99.7381 4.90262 100.578 5.25135L102.305 1.79109C101.194 1.33739 99.3522 0.819366 96.2034 0.819366C90.5593 0.819366 85.9885 3.20973 85.9885 7.13046C85.9885 9.66979 88.6023 11.1697 91.3651 12.2836C93.7487 13.2113 94.8626 13.9257 94.8626 15.0363C94.8626 16.5632 92.9056 17.3013 90.7523 17.3013C88.3687 17.3013 86.1849 16.7562 84.6511 16.0655L82.8058 19.4615C84.0349 20.1589 86.6047 20.8429 90.2105 20.8429C95.9765 20.8429 100.737 18.6218 100.737 14.2982C100.737 12.0026 98.7326 10.4079 95.5905 9.17547ZM110.458 4.67577H120.209L121.129 1.1444H105.816L100.899 20.5551H116.752L117.635 17.0102H107.312L108.497 12.3107H117.706L118.594 8.83351H109.381L110.458 4.67577Z" fill="#18355F"/>
</g>
</svg>
