<svg width="26" height="27" viewBox="0 0 26 27" fill="none" xmlns="http://www.w3.org/2000/svg">
<path d="M7 13.5L12.1429 17.7857L19 9.21429M13 25.5C11.4241 25.5 9.86371 25.1896 8.4078 24.5866C6.95189 23.9835 5.62902 23.0996 4.51472 21.9853C3.40042 20.871 2.5165 19.5481 1.91345 18.0922C1.31039 16.6363 1 15.0759 1 13.5C1 11.9241 1.31039 10.3637 1.91345 8.9078C2.5165 7.45189 3.40042 6.12902 4.51472 5.01472C5.62902 3.90042 6.95189 3.0165 8.4078 2.41345C9.86371 1.81039 11.4241 1.5 13 1.5C16.1826 1.5 19.2348 2.76428 21.4853 5.01472C23.7357 7.26516 25 10.3174 25 13.5C25 16.6826 23.7357 19.7348 21.4853 21.9853C19.2348 24.2357 16.1826 25.5 13 25.5Z" stroke="#5BA646" stroke-width="2"/>
</svg>
