<svg width="22" height="20" viewBox="0 0 22 20" fill="none" xmlns="http://www.w3.org/2000/svg">
<path d="M21.9688 12.26V20H17.4653V12.78C17.4653 10.968 16.8151 9.728 15.1855 9.728C13.9412 9.728 13.2027 10.56 12.8776 11.368C12.7572 11.656 12.7291 12.056 12.7291 12.46V19.996H8.22563C8.22563 19.996 8.28584 7.768 8.22563 6.5H12.7291V8.412C12.7291 8.412 12.709 8.44 12.701 8.456H12.7291V8.412C13.3271 7.496 14.3948 6.184 16.787 6.184C19.7491 6.184 21.9688 8.112 21.9688 12.256V12.26ZM3.51749 0C1.9762 0 0.96875 1.008 0.96875 2.332C0.96875 3.656 1.94811 4.664 3.45728 4.664H3.48538C5.05476 4.664 6.0301 3.628 6.0301 2.332C6.00201 1.008 5.05476 0 3.51347 0H3.51749ZM1.23767 20H5.7371V6.504H1.23767V20Z" fill="#1F1F1F"/>
</svg>
