<svg width="33" height="33" viewBox="0 0 33 33" fill="none" xmlns="http://www.w3.org/2000/svg">
<path d="M26.4805 20.98C24.5105 20.98 22.7803 22.0301 21.8203 23.5901L11.6006 18.48C11.8406 17.86 11.9805 17.18 11.9805 16.48C11.9805 15.78 11.8406 15.1 11.6006 14.48L21.8203 9.37012C22.7903 10.9301 24.5105 11.98 26.4805 11.98C29.5105 11.98 31.9707 9.51999 31.9707 6.48999C31.9707 3.45999 29.5105 1 26.4805 1C23.4505 1 20.9902 3.45999 20.9902 6.48999C20.9902 7.19999 21.1301 7.86999 21.3701 8.48999L11.1504 13.6001C10.1804 12.0401 8.46023 10.99 6.49023 10.99C3.46023 10.99 1 13.45 1 16.48C1 19.51 3.46023 21.97 6.49023 21.97C8.46023 21.97 10.1904 20.9201 11.1504 19.3601L21.3701 24.47C21.1301 25.09 20.9902 25.77 20.9902 26.47C20.9902 29.5 23.4505 31.96 26.4805 31.96C29.5105 31.96 31.9707 29.5 31.9707 26.47C31.9707 23.44 29.5105 20.98 26.4805 20.98ZM26.4805 1.96997C28.9705 1.96997 30.9902 3.98998 30.9902 6.47998C30.9902 8.96998 28.9705 10.99 26.4805 10.99C23.9905 10.99 21.9707 8.96998 21.9707 6.47998C21.9707 3.98998 23.9905 1.96997 26.4805 1.96997ZM6.49023 20.98C4.01023 20.98 1.98047 18.96 1.98047 16.47C1.98047 13.98 4.00023 11.96 6.49023 11.96C8.98023 11.96 11 13.98 11 16.47C11 18.96 8.98023 20.98 6.49023 20.98ZM26.4805 30.98C24.0005 30.98 21.9707 28.96 21.9707 26.47C21.9707 23.98 23.9905 21.96 26.4805 21.96C28.9705 21.96 30.9902 23.98 30.9902 26.47C30.9902 28.96 28.9705 30.98 26.4805 30.98Z" fill="#1F1F1F" stroke="black"/>
</svg>
