<svg width="37" height="38" viewBox="0 0 37 38" fill="none" xmlns="http://www.w3.org/2000/svg">
<path d="M3.92578 33.1289L3.92578 38.0007" stroke="white" strokeWidth="2" strokeLinejoin="round"/>
<path d="M11.7188 31.1797V38.0002" stroke="white" strokeWidth="2" strokeLinejoin="round"/>
<path d="M19.5156 26.3086V38.0009" stroke="white" strokeWidth="2" strokeLinejoin="round"/>
<path d="M27.3086 20.4609V37.9994" stroke="white" strokeWidth="2" strokeLinejoin="round"/>
<path d="M35.1055 13.6406V37.9996" stroke="white" strokeWidth="2" strokeLinejoin="round"/>
<path d="M10.0128 18.0256C14.9834 18.0256 19.0256 13.9834 19.0256 9.01282C19.0256 4.04225 14.9834 0 10.0128 0C5.04225 0 1 4.04225 1 9.01282C1 13.9834 5.04225 18.0256 10.0128 18.0256ZM13.0171 15.8866C12.0948 16.2907 11.0823 16.5235 10.0128 16.5235C8.9433 16.5235 7.93086 16.2922 7.00855 15.8866V13.5192C7.00855 12.6901 7.68301 12.0171 8.51068 12.0171H11.515C12.3426 12.0171 13.0171 12.6901 13.0171 13.5192V15.8866ZM10.0128 1.50214C14.1542 1.50214 17.5235 4.87143 17.5235 9.01282C17.5235 11.4568 16.3323 13.6109 14.5192 14.9823V13.5192C14.5192 11.8624 13.1718 10.515 11.515 10.515H8.51068C6.85383 10.515 5.50641 11.8624 5.50641 13.5192V14.9823C3.69333 13.6094 2.50214 11.4553 2.50214 9.01282C2.50214 4.87143 5.87143 1.50214 10.0128 1.50214ZM10.0128 9.01282C11.6697 9.01282 13.0171 7.6654 13.0171 6.00855C13.0171 4.35169 11.6697 3.00427 10.0128 3.00427C8.35596 3.00427 7.00855 4.35169 7.00855 6.00855C7.00855 7.6654 8.35596 9.01282 10.0128 9.01282ZM10.0128 4.50641C10.8405 4.50641 11.515 5.17937 11.515 6.00855C11.515 6.83773 10.8405 7.51068 10.0128 7.51068C9.18514 7.51068 8.51068 6.83773 8.51068 6.00855C8.51068 5.17937 9.18514 4.50641 10.0128 4.50641Z" fill="white"/>
<path d="M32.6093 2.5268C32.3889 2.02038 31.7997 1.78847 31.2933 2.00882L23.0407 5.59963C22.5343 5.81998 22.3024 6.40915 22.5227 6.91557C22.7431 7.42199 23.3322 7.6539 23.8386 7.43355L31.1743 4.24172L34.3662 11.5774C34.5865 12.0838 35.1757 12.3157 35.6821 12.0954C36.1885 11.875 36.4204 11.2859 36.2001 10.7794L32.6093 2.5268ZM21.9487 18.5155L21.2806 17.7714L21.9487 18.5155ZM1 28.7463C1.29471 29.7019 1.29488 29.7018 1.2951 29.7018C1.29525 29.7017 1.29553 29.7016 1.29582 29.7015C1.29641 29.7014 1.29722 29.7011 1.29826 29.7008C1.30032 29.7001 1.30326 29.6992 1.30707 29.6981C1.31469 29.6957 1.32579 29.6922 1.34027 29.6877C1.36923 29.6787 1.41175 29.6653 1.46711 29.6478C1.57784 29.6127 1.74001 29.5608 1.94807 29.4929C2.36414 29.3571 2.96397 29.1572 3.70307 28.8995C5.18058 28.3844 7.2182 27.6371 9.45902 26.7081C13.9043 24.865 19.2818 22.254 22.6168 19.2596L21.2806 17.7714C18.2201 20.5194 13.1232 23.0238 8.69304 24.8606C6.49612 25.7714 4.49573 26.5051 3.04466 27.011C2.31947 27.2638 1.73236 27.4595 1.32757 27.5916C1.1252 27.6576 0.968461 27.7078 0.862888 27.7412C0.810103 27.7579 0.770115 27.7705 0.743616 27.7788C0.730367 27.7829 0.72049 27.786 0.714073 27.788C0.710864 27.789 0.708521 27.7897 0.707053 27.7902C0.706319 27.7904 0.705803 27.7905 0.705509 27.7906C0.705361 27.7907 0.705306 27.7907 0.705232 27.7907C0.705232 27.7907 0.705287 27.7907 1 28.7463ZM22.6168 19.2596C25.5423 16.6329 28.045 12.6056 29.7956 9.31154C30.678 7.65119 31.3829 6.15075 31.8676 5.06482C32.11 4.52151 32.2978 4.08108 32.4254 3.77522C32.4892 3.62226 32.538 3.50289 32.5711 3.42106C32.5877 3.38014 32.6003 3.3486 32.609 3.32694C32.6133 3.31611 32.6166 3.30774 32.6189 3.30191C32.6201 3.29899 32.621 3.2967 32.6216 3.29506C32.622 3.29424 32.6222 3.29357 32.6224 3.29307C32.6225 3.29282 32.6226 3.29256 32.6227 3.29244C32.6227 3.29222 32.6228 3.29205 31.6923 2.92578C30.7618 2.55951 30.7618 2.55942 30.7619 2.55937C30.7618 2.5594 30.7618 2.55939 30.7618 2.55946C30.7618 2.5596 30.7616 2.5599 30.7615 2.56036C30.7611 2.56129 30.7605 2.56285 30.7596 2.56503C30.7579 2.56941 30.7551 2.57629 30.7514 2.58563C30.744 2.60431 30.7325 2.6328 30.7172 2.6706C30.6866 2.7462 30.6405 2.85904 30.5795 3.00519C30.4576 3.29752 30.2764 3.72283 30.0412 4.24973C29.5706 5.30421 28.8857 6.762 28.0295 8.37295C26.3031 11.6215 23.934 15.3891 21.2806 17.7714L22.6168 19.2596Z" fill="white"/>
</svg>
