<svg width="46" height="37" viewBox="0 0 46 37" fill="none" xmlns="http://www.w3.org/2000/svg">
<g clip-path="url(#clip0_1_3663)">
<path d="M23.0995 13.3906C28.9847 13.3906 33.7616 18.1675 33.7616 24.0527V31.2536C33.7616 33.5156 31.9273 35.3499 29.6653 35.3499H16.5338C14.2718 35.3499 12.4375 33.5156 12.4375 31.2536V24.0527C12.4375 18.1675 17.2144 13.3906 23.0995 13.3906Z" stroke="white" stroke-width="2" stroke-miterlimit="10"/>
<path d="M23.1814 13.1207C26.3494 13.1207 28.9175 10.5525 28.9175 7.38455C28.9175 4.21658 26.3494 1.64844 23.1814 1.64844C20.0135 1.64844 17.4453 4.21658 17.4453 7.38455C17.4453 10.5525 20.0135 13.1207 23.1814 13.1207Z" stroke="white" stroke-width="2" stroke-linecap="round" stroke-linejoin="round"/>
<path d="M12.6088 21.9346H1.6875C1.6875 21.9346 2.12824 13.9495 10.0162 13.9495C10.0162 13.9495 13.0106 13.8782 15.7977 16.2245" stroke="white" stroke-width="2" stroke-miterlimit="10"/>
<path d="M9.97789 13.7058C12.3906 13.7058 14.3464 11.7499 14.3464 9.33727C14.3464 6.9246 12.3906 4.96875 9.97789 4.96875C7.56523 4.96875 5.60938 6.9246 5.60938 9.33727C5.60938 11.7499 7.56523 13.7058 9.97789 13.7058Z" stroke="white" stroke-width="2" stroke-linecap="round" stroke-linejoin="round"/>
<path d="M33.6512 21.9346H44.5789C44.5789 21.9346 44.1382 13.9495 36.2502 13.9495C36.2502 13.9495 33.2558 13.8782 30.4688 16.2245" stroke="white" stroke-width="2" stroke-miterlimit="10"/>
<path d="M36.4545 13.7058C38.8671 13.7058 40.823 11.7499 40.823 9.33727C40.823 6.9246 38.8671 4.96875 36.4545 4.96875C34.0418 4.96875 32.0859 6.9246 32.0859 9.33727C32.0859 11.7499 34.0418 13.7058 36.4545 13.7058Z" stroke="white" stroke-width="2" stroke-linecap="round" stroke-linejoin="round"/>
</g>
<defs>
<clipPath id="clip0_1_3663">
<rect width="46" height="37" fill="white"/>
</clipPath>
</defs>
</svg>
