<svg width="38" height="37" viewBox="0 0 38 37" fill="none" xmlns="http://www.w3.org/2000/svg">
<g clip-path="url(#clip0_1_3647)">
<path d="M19.3125 32.2897V7.33203" stroke="white" strokeWidth="2" strokeLinecap="round" strokeLinejoin="round"/>
<path d="M19.3148 7.37957C20.8909 7.37957 22.1686 6.10186 22.1686 4.52572C22.1686 2.94959 20.8909 1.67188 19.3148 1.67188C17.7386 1.67188 16.4609 2.94959 16.4609 4.52572C16.4609 6.10186 17.7386 7.37957 19.3148 7.37957Z" stroke="white" strokeWidth="2" strokeLinecap="round" strokeLinejoin="round"/>
<path d="M8.30768 19.5308C8.30095 19.1875 8.30768 13.0692 8.30768 10.3769C8.30768 9.68365 8.87306 9.125 9.56633 9.125H28.5942C29.2875 9.125 29.8529 9.69038 29.8529 10.3837V19.5375" stroke="white" strokeWidth="2" strokeLinecap="round" strokeLinejoin="round"/>
<path d="M13.4052 19.5296C13.4052 22.3431 11.1235 24.6248 8.31004 24.6248C5.49657 24.6248 3.21484 22.3431 3.21484 19.5296L8.31004 12.3008L13.4052 19.5296Z" stroke="white" strokeWidth="2" strokeLinecap="round" strokeLinejoin="round"/>
<path d="M1.67188 19.5312H14.743" stroke="white" strokeWidth="2" strokeLinecap="round" strokeLinejoin="round"/>
<path d="M34.9013 19.5296C34.9013 22.3431 32.6196 24.6248 29.8061 24.6248C26.9927 24.6248 24.7109 22.3431 24.7109 19.5296L29.8061 12.3008L34.9013 19.5296Z" stroke="white" strokeWidth="2" strokeLinecap="round" strokeLinejoin="round"/>
<path d="M23.1719 19.5312H36.243" stroke="white" strokeWidth="2" strokeLinecap="round" strokeLinejoin="round"/>
<path d="M13.8413 32.293H24.7788C25.2433 32.293 25.6269 32.6699 25.6269 33.141V35.3285H13V33.141C13 32.6766 13.3769 32.293 13.8481 32.293H13.8413Z" stroke="white" strokeWidth="2" strokeLinecap="round" strokeLinejoin="round"/>
</g>
<defs>
<clipPath id="clip0_1_3647">
<rect width="38" height="37" fill="white"/>
</clipPath>
</defs>
</svg>
