<svg width="28" height="23" viewBox="0 0 28 23" fill="none" xmlns="http://www.w3.org/2000/svg">
<path d="M9.2623 7.26557H6.92131C6.6 6.85246 6.20984 6.51967 5.75082 6.26721C5.2918 6.01475 4.78689 5.88852 4.23607 5.88852C3.33708 5.88852 2.57305 6.20318 1.94397 6.83249C1.31466 7.46157 1 8.22561 1 9.12459V18.7639C1 19.6629 1.31466 20.427 1.94397 21.056C2.57305 21.6853 3.33708 22 4.23607 22C4.78689 22 5.2918 21.8738 5.75082 21.6213C6.20984 21.3689 6.6 21.0361 6.92131 20.623H26.7508V10.5016C26.7508 9.60266 26.4362 8.83862 25.8069 8.20954C25.1778 7.58023 24.4137 7.26557 23.5148 7.26557H21.2426M9.2623 7.26557V1H21.2426V7.26557M9.2623 7.26557H21.2426M7.50317 20.623V7.26557M9.74426 17.3869H15.2525V10.5016H9.74426V17.3869Z" stroke="white" strokeWidth="1.5"/>
</svg>
