<svg width="20" height="20" viewBox="0 0 20 20" fill="none" xmlns="http://www.w3.org/2000/svg">
<path d="M10.8182 1C14.8427 1.55245 18.0385 4.70979 18.6504 8.71678M16.7762 16.6853C16.5559 17.1678 16.0594 17.5874 15.2867 17.9441C14.5175 18.3007 13.8322 18.479 13.2308 18.479C13.0629 18.479 12.8846 18.465 12.6958 18.4406C12.507 18.4126 12.3462 18.3881 12.2168 18.3636C12.0839 18.3357 11.9126 18.2902 11.6958 18.2238C11.479 18.1538 11.3252 18.1014 11.2308 18.0664C11.1364 18.028 10.9615 17.965 10.7098 17.8706C10.458 17.7762 10.3007 17.7168 10.2378 17.6958C8.51748 17.0664 6.83217 15.9301 5.19231 14.2867C3.54895 12.6434 2.41259 10.9615 1.78322 9.24126C1.76224 9.17832 1.70629 9.02098 1.61189 8.76923C1.51748 8.51748 1.45105 8.34615 1.41608 8.25175C1.38112 8.15734 1.32867 8.0035 1.25874 7.78671C1.18881 7.56993 1.14336 7.3986 1.11538 7.26573C1.09091 7.13287 1.06294 6.97552 1.03846 6.78671C1.01049 6.5979 1 6.41958 1 6.25175C1 5.65385 1.17832 4.96853 1.53497 4.1958C1.89161 3.42657 2.31119 2.93007 2.79371 2.70979C3.34965 2.47902 3.88112 2.36364 4.38462 2.36364C4.5 2.36364 4.58392 2.37413 4.63636 2.3951C4.68881 2.41608 4.77622 2.51049 4.89511 2.67832C5.01748 2.84615 5.14685 3.05944 5.29021 3.31469C5.43357 3.57343 5.56993 3.82168 5.70979 4.06294C5.84615 4.3042 5.97552 4.54196 6.1049 4.77972C6.23077 5.01748 6.31119 5.16434 6.33916 5.22727C6.37063 5.27972 6.44056 5.37762 6.54546 5.52797C6.65035 5.67482 6.73077 5.80769 6.77972 5.92308C6.83217 6.03846 6.86014 6.14685 6.86014 6.25525C6.86014 6.41259 6.75175 6.6049 6.53846 6.82867C6.32168 7.05245 6.08741 7.26224 5.82867 7.45105C5.56993 7.63986 5.33566 7.84266 5.11888 8.05594C4.90559 8.26923 4.7972 8.44755 4.7972 8.58392C4.7972 8.65734 4.81469 8.74476 4.85315 8.84266C4.89161 8.94406 4.92308 9.02448 4.95455 9.08741C4.98601 9.15035 5.03497 9.24126 5.1049 9.35664C5.17133 9.47203 5.21678 9.54545 5.23776 9.57692C5.81469 10.6154 6.47902 11.5105 7.23077 12.2622C7.98252 13.014 8.87413 13.6783 9.91608 14.2552C9.94755 14.2762 10.021 14.3217 10.1364 14.3881C10.2517 14.4545 10.3427 14.5035 10.4021 14.5385C10.465 14.5699 10.5455 14.6049 10.6469 14.6399C10.7483 14.6783 10.8322 14.6958 10.9091 14.6958C11.0769 14.6958 11.3077 14.521 11.6014 14.1748C11.8951 13.8287 12.1923 13.4825 12.5 13.1434C12.8042 12.8042 13.049 12.6329 13.2413 12.6329C13.3462 12.6329 13.458 12.6608 13.5734 12.7098C13.6888 12.7622 13.8182 12.8427 13.9685 12.9476C14.1154 13.0524 14.2133 13.1189 14.2692 13.1538L15.1049 13.6084C15.6608 13.9021 16.1259 14.1608 16.5 14.3881C16.8706 14.6154 17.0734 14.7692 17.1049 14.8531C17.1259 14.9056 17.1364 14.9895 17.1364 15.1049C17.1364 15.6084 17.021 16.1399 16.7902 16.6958L16.7762 16.6853Z" stroke="white" stroke-width="1.5" stroke-miterlimit="10" stroke-linecap="round"/>
</svg>
