<svg width="40" height="35" viewBox="0 0 40 35" fill="none" xmlns="http://www.w3.org/2000/svg">
<path d="M27.334 32.3883C27.3249 32.3954 27.3162 32.4028 27.3079 32.4105C26.7737 32.8262 26.2861 33.1951 25.4424 33.1951C24.8722 33.1951 24.4264 32.8605 23.9063 32.4703C23.0479 31.826 22.0179 31.0531 19.9658 31.0531C18.1273 31.0531 17.0594 31.7789 16.1343 32.4077C15.5189 32.8261 14.976 33.1951 14.3286 33.1951C13.6941 33.1951 13.2312 32.8477 12.698 32.4475C11.8455 31.8077 10.8401 31.0531 8.79099 31.0531C6.72515 31.0531 5.69822 31.7896 4.60587 32.573C4.3097 32.7854 4.0084 33.0015 3.69603 33.1951H1.79836V4.21704H3.30362C3.38156 4.21704 3.45428 4.19469 3.51572 4.15606C4.12273 3.84834 4.60289 3.50394 5.07058 3.16852C6.05535 2.46229 6.98113 1.79835 8.79099 1.79835C10.6499 1.79835 11.8867 2.73253 12.7848 3.41088C13.3827 3.86243 13.852 4.21703 14.3539 4.21703C14.7816 4.21703 15.2425 3.88771 15.8413 3.4598C16.7992 2.77538 18.1664 1.79836 19.9658 1.79836C21.8216 1.79836 23.0447 2.72137 23.9418 3.39842C24.5479 3.85583 25.0265 4.21703 25.5457 4.21703C25.9558 4.21703 26.4049 3.89581 26.9926 3.47544C27.9508 2.79011 29.3374 1.79836 31.1407 1.79836C32.9892 1.79836 33.7159 2.34982 34.5796 3.00519C35.0834 3.38746 35.629 3.80258 36.4269 4.17887M27.334 32.3883L27.5792 32.7033M27.334 32.3883C28.1404 31.7605 29.0495 31.0531 31.1407 31.0531C33.2516 31.0531 34.0779 31.6801 35.0598 32.4252C35.3893 32.6753 35.7383 32.9401 36.1703 33.1951H38.5222V4.21703H36.603C36.544 4.21791 36.4839 4.20574 36.4269 4.17887M36.4269 4.17887L36.5972 3.81784M1.39917 3.41867H3.21142C3.72482 3.15176 4.17103 2.83176 4.60596 2.51985C5.69831 1.73649 6.72522 1 8.79099 1C10.9154 1 12.2766 2.02811 13.265 2.77471C13.7426 3.13544 14.1177 3.41867 14.3539 3.41867C14.5296 3.41867 14.8993 3.15444 15.3798 2.81113C16.4239 2.06507 17.9143 1 19.9658 1C22.087 1 23.434 2.01657 24.4221 2.76225C24.9081 3.12902 25.2919 3.41867 25.5457 3.41867C25.7035 3.41867 26.062 3.16231 26.5311 2.82678C27.5747 2.08027 29.0851 1 31.1407 1C33.2516 1 34.0779 1.62702 35.0598 2.37214C35.5107 2.71425 35.9979 3.08393 36.6858 3.41867H38.9214C39.1419 3.41867 39.3206 3.59742 39.3206 3.81786V33.5943C39.3206 33.8147 39.1419 33.9935 38.9214 33.9935H36.0652C35.9818 33.9935 35.9043 33.9678 35.8403 33.9241C35.3416 33.6366 34.9492 33.3388 34.5796 33.0583C33.7159 32.4029 32.9892 31.8514 31.1407 31.8514C29.323 31.8514 28.5289 32.4695 27.8243 33.018C27.8152 33.0251 27.8061 33.0319 27.7966 33.0381C27.1467 33.5438 26.5537 33.9935 25.4424 33.9935C24.6112 33.9935 24.0656 33.5841 23.4292 33.1065C22.6691 32.536 21.7569 31.8515 19.9659 31.8515C18.3668 31.8515 17.4095 32.5021 16.5803 33.0657C15.8551 33.5586 15.2154 33.9935 14.3286 33.9935C13.433 33.9935 12.8697 33.5707 12.2209 33.0837C11.4675 32.5183 10.5791 31.8515 8.791 31.8515C6.98108 31.8515 6.05527 32.5154 5.0705 33.2217C4.74207 33.4572 4.40733 33.6973 4.01051 33.9355C3.94503 33.9748 3.87349 33.9942 3.80235 33.9935H1.39918C1.17874 33.9935 1 33.8147 1 33.5943V3.81786C1 3.59742 1.17873 3.41867 1.39917 3.41867Z" stroke="white" stroke-width="0.8"/>
<path d="M3.4043 33.5838C3.4043 33.8042 3.58304 33.983 3.80348 33.983C4.02392 33.983 4.20266 33.8042 4.20266 33.5838V3.53199C4.20266 3.31156 4.02392 3.13281 3.80348 3.13281C3.58304 3.13281 3.4043 3.31156 3.4043 3.53199V33.5838Z" stroke="white" stroke-width="0.8"/>
<path d="M36.9986 3.82496C36.9986 3.60452 36.8198 3.42578 36.5994 3.42578C36.3789 3.42578 36.2002 3.60453 36.2002 3.82496V33.6C36.2002 33.8204 36.3789 33.9992 36.5994 33.9992C36.8198 33.9992 36.9986 33.8204 36.9986 33.6V3.82496Z" stroke="white" stroke-width="0.8"/>
<path d="M12.7544 2.83278C12.7544 2.61234 12.5757 2.43359 12.3552 2.43359C12.1348 2.43359 11.9561 2.61234 11.9561 2.83278V32.5681C11.9561 32.7885 12.1348 32.9672 12.3552 32.9672C12.5757 32.9672 12.7544 32.7885 12.7544 32.5681V2.83278Z" stroke="white" stroke-width="0.8"/>
<path d="M16.7456 2.83278C16.7456 2.61234 16.5669 2.43359 16.3464 2.43359C16.126 2.43359 15.9473 2.61234 15.9473 2.83278V32.5681C15.9473 32.7885 16.126 32.9672 16.3464 32.9672C16.5669 32.9672 16.7456 32.7885 16.7456 32.5681V2.83278Z" stroke="white" stroke-width="0.8"/>
<path d="M23.8355 2.83278C23.8355 2.61234 23.6567 2.43359 23.4363 2.43359C23.2159 2.43359 23.0371 2.61234 23.0371 2.83278V32.5681C23.0371 32.7885 23.2159 32.9672 23.4363 32.9672C23.6567 32.9672 23.8355 32.7885 23.8355 32.5681V2.83278Z" stroke="white" stroke-width="0.8"/>
<path d="M27.8257 2.83278C27.8257 2.61234 27.647 2.43359 27.4265 2.43359C27.2061 2.43359 27.0273 2.61234 27.0273 2.83278V32.5681C27.0273 32.7885 27.2061 32.9672 27.4265 32.9672C27.647 32.9672 27.8257 32.7885 27.8257 32.5681V2.83278Z" stroke="white" stroke-width="0.8"/>
</svg>
