<svg width="40" height="38" viewBox="0 0 40 38" fill="none" xmlns="http://www.w3.org/2000/svg">
<path d="M2.50241 38V35.0478H10.0096L3.50337 14.1365C2.41899 13.6444 1.564 12.9474 0.938402 12.0453C0.312801 11.1433 0 10.0772 0 8.84711C0 7.24801 0.573468 5.88467 1.7204 4.7571C2.86734 3.62952 4.25409 3.06574 5.88065 3.06574C7.3821 3.06574 8.65415 3.52702 9.69682 4.44958C10.7395 5.37214 11.4277 6.55096 11.7613 7.98606H21.2705V3.92679C21.2705 3.68078 21.3539 3.47576 21.5207 3.31175C21.6875 3.14774 21.8961 3.06574 22.1463 3.06574C22.3965 3.06574 22.6051 3.14774 22.7719 3.31175C22.9387 3.47576 23.0221 3.68078 23.0221 3.92679V4.78785L27.6516 0.605578C27.9852 0.277556 28.3502 0.0827938 28.7464 0.0212898C29.1426 -0.0402141 29.5284 0.0315405 29.9038 0.236554L39.2878 4.54183C39.538 4.66484 39.7361 4.8391 39.8821 5.06462C40.0281 5.29013 40.0385 5.5259 39.9134 5.77191C39.7883 6.01793 39.611 6.17169 39.3816 6.23319C39.1522 6.2947 38.9124 6.26394 38.6622 6.14094L29.0279 1.71265L23.0221 7.125V10.5692L29.0279 15.8586L38.6622 11.4303C38.9124 11.3073 39.1522 11.2765 39.3816 11.338C39.611 11.3995 39.7883 11.5533 39.9134 11.7993C40.0385 12.0453 40.0281 12.2811 39.8821 12.5066C39.7361 12.7321 39.538 12.9064 39.2878 13.0294L29.9038 17.3347C29.5284 17.5397 29.1426 17.6012 28.7464 17.5192C28.3502 17.4372 27.9852 17.2527 27.6516 16.9656L23.0221 12.9064V13.7674C23.0221 14.0134 22.9387 14.2185 22.7719 14.3825C22.6051 14.5465 22.3965 14.6285 22.1463 14.6285C21.8961 14.6285 21.6875 14.5465 21.5207 14.3825C21.3539 14.2185 21.2705 14.0134 21.2705 13.7674V9.70817H11.7613C11.6362 10.3232 11.4068 10.9382 11.0731 11.5533C10.7395 12.1683 10.385 12.6604 10.0096 13.0294L22.0212 35.0478H31.7806V38H2.50241ZM5.88065 12.9064C7.00674 12.9064 7.97642 12.5066 8.7897 11.707C9.60298 10.9075 10.0096 9.95418 10.0096 8.84711C10.0096 7.74004 9.60298 6.78673 8.7897 5.98718C7.97642 5.18762 7.00674 4.78785 5.88065 4.78785C4.75457 4.78785 3.78489 5.18762 2.97161 5.98718C2.15833 6.78673 1.75168 7.74004 1.75168 8.84711C1.75168 9.95418 2.15833 10.9075 2.97161 11.707C3.78489 12.5066 4.75457 12.9064 5.88065 12.9064ZM11.8864 35.0478H20.0192L8.50818 14.0134C8.17453 14.2185 7.71575 14.3927 7.13186 14.5362C6.54796 14.6797 6.00577 14.7105 5.50529 14.6285L11.8864 35.0478Z" fill="white"/>
</svg>
