<svg width="38" height="46" viewBox="0 0 38 46" fill="none" xmlns="http://www.w3.org/2000/svg">
<path d="M26.7061 43.944C26.361 44.296 25.9681 44.56 25.5272 44.736C25.0863 44.912 24.655 45 24.2332 45C23.8115 45 23.3898 44.912 22.9681 44.736C22.5463 44.56 22.1629 44.296 21.8179 43.944L19.0575 41.1867C18.7125 40.8347 18.4633 40.4436 18.3099 40.0133C18.1565 39.5831 18.0799 39.1529 18.0799 38.7227C18.0799 38.2924 18.1661 37.8622 18.3387 37.432C18.5112 37.0018 18.7508 36.6107 19.0575 36.2587L19.7476 35.496L1 8.15733L8.01597 1L35.9649 29.512C36.3099 29.864 36.5687 30.2649 36.7412 30.7147C36.9137 31.1644 37 31.6044 37 32.0347C37 32.4649 36.9137 32.8951 36.7412 33.3253C36.5687 33.7556 36.3099 34.1467 35.9649 34.4987L26.7061 43.944ZM20.8403 34.3227L29.6965 25.4053L8.01597 3.288L3.07029 8.33333L20.8403 34.3227ZM23.0256 42.7707C23.4089 43.1227 23.8498 43.2987 24.3482 43.2987C24.8466 43.2987 25.2684 43.1227 25.6134 42.7707L34.8147 33.384C35.1597 33.032 35.3323 32.6018 35.3323 32.0933C35.3323 31.5849 35.1597 31.1351 34.8147 30.744L30.7891 26.52L20.2077 37.3147C19.8243 37.7058 19.6326 38.1653 19.6326 38.6933C19.6326 39.2213 19.8243 39.6613 20.2077 40.0133L23.0256 42.7707Z" fill="white" stroke="white"/>
</svg>
