<svg width="36" height="41" viewBox="0 0 36 41" fill="none" xmlns="http://www.w3.org/2000/svg">
<path d="M17.2054 16.4454C17.7569 14.8645 17.8989 7.23126 17.9731 3.28844C17.9899 2.38125 18.0032 1.66756 18.0172 1.27006C18.0228 1.11582 18.1523 0.995237 18.3062 1.00014C18.3797 1.00295 18.4455 1.0338 18.4938 1.08217L18.4945 1.08147L34.9182 17.5335C34.9798 17.5952 35.0064 17.6786 34.9987 17.7592C34.963 18.9987 34.9581 20.316 34.9525 21.6684C34.9378 25.2796 34.9224 29.1376 34.3373 32.3478C33.9391 34.5316 32.6997 36.4617 30.9353 37.8372C29.2073 39.184 26.9755 40 24.5399 40C22.469 40 20.592 39.2197 19.2322 37.9571C18.9445 37.69 18.68 37.4011 18.4413 37.0941C18.4231 37.0828 18.4056 37.0695 18.3902 37.0534L2.48091 21.1153C2.46692 21.1033 2.45432 21.09 2.44312 21.0753C1.98191 20.4864 1.61728 19.8288 1.36953 19.1214C1.12947 18.4358 1 17.7074 1 16.953C1 15.0181 1.84404 13.2668 3.20947 12.0006C4.57001 10.7387 6.44634 9.95772 8.51724 9.95772C9.21081 9.95772 9.87288 10.0867 10.4783 10.323C11.1039 10.567 11.6694 10.9259 12.146 11.3746L12.1523 11.3809L17.2075 16.4454H17.2054ZM3.52441 19.2329C3.49712 19.2055 3.49642 19.1614 3.52371 19.134C3.55101 19.1067 3.5951 19.106 3.62239 19.1333L8.69081 24.1299C8.7181 24.1572 8.7188 24.2014 8.69151 24.2287C8.66421 24.2561 8.62012 24.2568 8.59283 24.2294L3.52441 19.2329ZM18.5309 3.29896C18.4532 7.44158 18.3006 15.6133 17.6295 16.8703L28.0756 27.3366C28.0973 27.3562 28.1197 27.3758 28.1407 27.3962C29.0695 28.2578 29.6433 29.4489 29.6433 30.7662C29.6433 32.0835 29.0688 33.2746 28.1407 34.1362C27.2169 34.993 25.9432 35.523 24.5385 35.523C23.8002 35.523 23.1297 35.2432 22.6426 34.7917C22.5257 34.6831 22.4193 34.5653 22.3256 34.4384L18.1999 30.3484C17.8023 31.1581 17.5812 32.0576 17.5812 33.0047C17.5812 34.7784 18.3573 36.3846 19.6115 37.5484C20.8705 38.7163 22.6125 39.4391 24.5392 39.4391C26.846 39.4391 28.9568 38.668 30.5896 37.3955C32.2496 36.1013 33.4156 34.2905 33.7879 32.2469C34.3639 29.0864 34.3793 25.2537 34.394 21.6663C34.3996 20.3427 34.4045 19.052 34.4374 17.8448L18.5582 1.93818C18.5498 2.31185 18.5414 2.77175 18.5316 3.29825L18.5309 3.29896ZM17.4405 35.3133C17.169 34.5905 17.0213 33.8131 17.0213 33.004C17.0213 31.848 17.3229 30.7578 17.8562 29.7973C17.8681 29.7595 17.8877 29.723 17.9164 29.6915C18.2671 29.0857 18.7115 28.5333 19.2308 28.0517C20.5913 26.7897 22.4676 26.0087 24.5385 26.0087C25.1306 26.0087 26.6509 26.9429 27.18 27.1161L11.7618 11.7812C11.3384 11.3823 10.8338 11.0626 10.2732 10.8446C9.73221 10.6336 9.13802 10.5179 8.51444 10.5179C6.58842 10.5179 4.84575 11.2407 3.5867 12.4087C2.33254 13.5724 1.55639 15.1786 1.55639 16.9523C1.55639 17.6464 1.67397 18.3124 1.89233 18.9349C2.11768 19.5785 2.45152 20.1793 2.87424 20.7206L18.34 36.5179L17.4405 35.3133ZM19.6108 28.4604C19.1699 28.8691 18.7884 29.3325 18.4791 29.8394L21.8532 33.1835C21.849 33.1239 21.8462 33.0643 21.8462 33.004C21.8462 32.305 22.1506 31.6734 22.6426 31.217C22.9883 30.8959 23.4272 30.6617 23.9171 30.5531L20.8915 27.5223C20.4254 27.7881 19.9957 28.1035 19.6108 28.4604ZM24.5385 26.5696C23.4146 26.5696 22.3529 26.8157 21.4136 27.2531L24.6708 30.5159L24.6771 30.5229C24.7611 30.5713 24.8178 30.6624 24.8178 30.7662C24.8178 30.9211 24.6925 31.0466 24.5378 31.0466C23.9437 31.0466 23.4083 31.2682 23.0219 31.6264C22.6405 31.9798 22.4053 32.4677 22.4053 33.0047C22.4053 33.5417 22.6412 34.029 23.0219 34.383C23.4083 34.7413 23.9437 34.9628 24.5378 34.9628C25.7983 34.9628 26.937 34.491 27.7593 33.7275C28.5768 32.969 29.0828 31.9216 29.0828 30.7669C29.0828 29.6115 28.5768 28.5648 27.7593 27.8063C26.937 27.0428 25.7976 26.571 24.5378 26.571L24.5385 26.5696Z" stroke="white"/>
</svg>
