<svg width="48" height="44" viewBox="0 0 48 44" fill="none" xmlns="http://www.w3.org/2000/svg">
<path d="M7.21345 25.7457L7.21729 30.2358L7.2288 33.3277L26.271 33.3507L45.3132 33.3737L45.5663 33.4696C45.7044 33.5195 45.9116 33.6154 46.019 33.6806C46.322 33.8571 46.7287 34.2944 46.886 34.6128C47.1468 35.1383 47.1583 35.2572 47.1583 36.9106C47.1583 38.5639 47.1468 38.6828 46.886 39.2122C46.7133 39.5651 46.2799 40.0063 45.9231 40.1981C45.4628 40.4359 45.2595 40.4743 44.381 40.4973L43.5793 40.5203L43.5563 41.8783C43.5371 43.1634 43.5332 43.2439 43.4488 43.336C43.2494 43.5585 43.4066 43.5546 40.7713 43.5546C38.1359 43.5546 38.2011 43.5661 38.0362 43.2516C37.9671 43.1173 37.9594 42.9792 37.9594 41.8092C37.9594 40.9768 37.9441 40.5165 37.9172 40.5165H10.2363L10.2132 41.8553C10.1979 43.0521 10.1826 43.2056 10.1135 43.313C9.9524 43.5546 9.97925 43.5546 7.41293 43.5546C4.84661 43.5546 4.86579 43.5546 4.70084 43.2861C4.61644 43.1518 4.61261 43.0713 4.61261 41.8284C4.61261 40.808 4.59726 40.5165 4.5589 40.5126C4.52821 40.5126 4.28654 40.5126 4.02185 40.5165C3.03982 40.5242 2.48359 40.3899 1.98874 40.0216C1.50924 39.661 1.19468 39.1662 1.07193 38.5831C0.976025 38.1343 0.976025 26.1428 1.07193 25.6441C1.25222 24.7119 2.0271 23.9255 2.93625 23.7606C3.07818 23.7376 3.40808 23.7145 3.6651 23.7145C3.92212 23.7145 4.1331 23.703 4.1331 23.68C4.1331 23.6647 4.10241 23.5726 4.07172 23.4767C3.81087 22.7325 3.53851 21.3093 3.43494 20.1892C3.36972 19.4527 3.40425 17.481 3.50015 16.7905C3.58454 16.1614 3.79169 15.1371 3.93746 14.5886C4.463 12.613 5.44119 10.5991 6.6649 8.97258C8.2185 6.90879 10.1519 5.33217 12.6645 4.07394C15.0927 2.86175 17.9621 2.26716 20.6281 2.42827C22.9183 2.56637 24.8631 3.07273 26.8656 4.03942C28.5726 4.87184 29.7695 5.71577 31.1965 7.11977C31.6146 7.53406 31.9483 7.8256 31.979 7.81026C32.0097 7.79492 32.4739 7.53023 33.0109 7.22334C33.7551 6.78603 33.9815 6.63643 33.9776 6.57505C33.9431 6.32954 33.9699 5.97279 34.0313 5.78099C34.1541 5.40505 34.4111 5.1864 35.3126 4.66853C36.5017 3.98571 37.6027 3.3566 39.6205 2.1866C40.614 1.60736 41.527 1.10867 41.6382 1.07414V1.05113C42.0717 0.91303 42.6279 1.06264 42.9617 1.40404C43.1074 1.56132 44.8145 4.46522 45.0101 4.89102C45.2096 5.33984 45.0753 5.9843 44.7071 6.33721C44.5344 6.49833 44.1969 6.6978 40.3263 8.93039C39.2752 9.53265 38.2241 10.1464 37.9863 10.2807C37.3457 10.6566 36.9199 10.7065 36.4519 10.4725L36.2524 10.3689L35.4238 10.8599C34.9712 11.1323 34.4878 11.4085 34.3574 11.4737C34.227 11.5389 33.9162 11.7154 33.6631 11.865C33.4099 12.0146 32.9112 12.3061 32.5506 12.5133C31.8946 12.893 31.8908 12.8969 31.6721 13.2268C31.5494 13.4109 29.9574 13.8214 29.6237 14.297M29.6237 14.297C29.6467 14.2472 29.6582 14.2126 29.6544 14.2126C29.6467 14.2126 29.2708 14.4275 28.8181 14.6921C28.3616 14.953 27.9819 15.1755 27.9627 15.1793C27.9473 15.187 27.9972 15.444 28.0816 15.7471C28.68 18.0257 28.423 20.3311 27.3297 22.4793C26.4052 24.3053 24.8325 25.8512 23.018 26.7182C22.1894 27.1171 21.5296 27.332 20.5859 27.5084C19.8839 27.6388 18.4761 27.6734 17.7242 27.5736C15.6566 27.3089 13.8153 26.419 12.3077 24.9651C12.0507 24.7119 11.8321 24.5086 11.8282 24.5086C11.8206 24.5086 10.4779 25.2988 10.2746 25.4254C10.1877 25.4817 10.18 25.5098 10.2516 25.5098C10.313 25.5098 10.6697 25.4868 11.0418 25.4561L11.7247 25.4101L11.8781 25.529C11.974 25.6019 12.0507 25.7093 12.0814 25.8129C12.1236 25.9586 12.1044 26.0545 11.8206 27.0059C11.6479 27.5775 11.5137 28.057 11.5213 28.08C11.5329 28.0992 12.0162 27.9035 12.5993 27.6427C13.1824 27.3818 13.7041 27.1632 13.7616 27.1632C13.8997 27.1632 14.0915 27.2706 14.1989 27.4048C14.2871 27.5161 14.291 27.5698 14.291 28.7321C14.291 29.4111 14.3102 29.9366 14.3293 29.929C14.3485 29.9213 14.5173 29.7755 14.7053 29.6067C16.1246 28.3217 16.2244 28.2488 16.5159 28.3332C16.7998 28.4099 16.8535 28.5211 17.3943 30.1438C17.5593 30.6463 17.613 30.7537 17.6552 30.7077C17.6821 30.677 17.9467 30.2474 18.2421 29.7487C18.5337 29.2538 18.8329 28.8012 18.9019 28.7398C19.0745 28.594 19.3584 28.594 19.531 28.7359C19.6001 28.7935 19.9261 29.2653 20.256 29.7794C20.5859 30.2972 20.8621 30.7154 20.8737 30.7038C20.8852 30.6923 20.9849 30.2397 21.0923 29.6911C21.1997 29.1426 21.3071 28.64 21.334 28.5748C21.4222 28.3562 21.7521 28.2104 21.9784 28.2871C22.0475 28.3101 22.504 28.64 22.9873 29.0237C23.4745 29.3996 23.885 29.7141 23.9003 29.7141C23.9156 29.7141 23.9233 29.6604 23.9118 29.5914C23.9041 29.5262 23.8543 28.993 23.8006 28.406C23.7123 27.401 23.7123 27.3281 23.7775 27.1977C23.8811 26.9982 24.0921 26.8793 24.3031 26.9023C24.4412 26.9138 24.6215 27.0212 25.17 27.4087C26.5318 28.3715 26.4091 28.2986 26.4091 28.1797C26.4091 28.126 26.34 27.6005 26.2556 27.0174C26.0868 25.8436 26.0907 25.7477 26.3247 25.5827C26.5625 25.4101 26.6623 25.4254 27.7479 25.8014C28.3079 25.9932 28.7644 26.1428 28.7759 26.1351C28.7874 26.1274 28.5611 25.6671 28.2734 25.1147C27.8399 24.2746 27.7517 24.0713 27.7517 23.9102C27.7517 23.6762 27.9051 23.4767 28.1353 23.4115C28.2274 23.3923 28.7836 23.3693 29.3744 23.3693C29.9651 23.3693 30.4484 23.3501 30.4484 23.3348C30.4484 23.3194 30.1185 22.9282 29.7119 22.4678C29.3053 22.0075 28.9562 21.5932 28.9294 21.551C28.9102 21.5011 28.8872 21.3861 28.8872 21.2902C28.8872 21.1482 28.9179 21.083 29.0291 20.9641C29.1519 20.8337 29.3053 20.7723 30.2682 20.4501C30.8666 20.2544 31.3614 20.0741 31.3614 20.0626C31.3614 20.0473 30.9164 19.7749 30.3641 19.4565C29.7963 19.1305 29.336 18.8351 29.2976 18.7737C29.1825 18.6049 29.1749 18.3748 29.2746 18.2175C29.3206 18.1408 29.7656 17.784 30.3027 17.3927L31.2502 16.7061L31.0315 16.6524C30.9126 16.6255 30.4293 16.5066 29.9498 16.3954C29.1327 16.2036 29.0713 16.1805 28.9409 16.0424C28.822 15.9197 28.7989 15.8621 28.7989 15.6895C28.7989 15.5016 28.8296 15.4402 29.1902 14.9223C29.405 14.6154 29.6007 14.3277 29.6275 14.2855L29.6237 14.297ZM42.1407 2.14057C42.2251 2.20194 44.0396 5.336 44.0396 5.41656C44.0396 5.54315 43.7787 5.7081 42.064 6.6978C39.8736 7.95603 38.8916 8.5276 37.8559 9.12603C37.1922 9.50963 37.0656 9.56717 36.9736 9.53265C36.8623 9.49429 36.7549 9.3255 35.5849 7.28088C35.2972 6.77836 35.0556 6.33721 35.044 6.30269C35.0018 6.18377 35.0862 6.05335 35.278 5.94594C35.3816 5.8884 36.3061 5.35135 37.3303 4.75292C40.357 2.98834 41.9451 2.0907 42.0372 2.0907C42.0564 2.0907 42.1024 2.11755 42.1407 2.1444V2.14057ZM21.568 3.58292C23.275 3.79391 24.8555 4.26574 26.4321 5.04063C29.0828 6.34489 31.2579 8.35114 32.7884 10.9098L32.8843 11.0671L32.6312 11.2205C32.4317 11.3394 31.2694 12.0107 30.2298 12.6053C30.1454 12.6514 29.5048 13.0273 28.8066 13.4301C28.1046 13.8329 27.5254 14.1589 27.5215 14.1513C27.5139 14.1436 27.418 13.9633 27.3106 13.7523C26.1828 11.6118 24.3299 9.99681 22.1357 9.22576C20.4018 8.61967 18.3419 8.52377 16.6003 8.96491C14.6209 9.46744 12.8448 10.5761 11.6288 12.0529C10.5393 13.3764 9.85266 14.907 9.53427 16.7214C9.42686 17.3544 9.42686 18.9809 9.53427 19.61C9.78745 21.0331 10.2708 22.2799 11.0073 23.3731L11.1684 23.6148L9.20437 24.7464L7.24031 25.8781L7.1866 25.6134C7.11371 25.2643 6.87972 24.7848 6.65339 24.524C6.42323 24.2593 5.97057 23.9639 5.5908 23.8258L5.28775 23.7184L5.165 23.3348C4.85811 22.3489 4.61644 21.1904 4.52821 20.2122C4.47067 19.5985 4.47067 17.9835 4.52821 17.4081C5.00005 12.6015 7.58939 8.40101 11.6134 5.8999C13.1325 4.95623 14.6784 4.2926 16.2589 3.90515C17.1028 3.69801 17.6015 3.61745 18.8789 3.49853C19.2663 3.46017 21.0424 3.51771 21.5718 3.57525L21.568 3.58292ZM34.6489 7.82944C34.718 7.95603 34.9558 8.36649 35.1745 8.75009C35.397 9.12603 35.5657 9.4636 35.5581 9.48662C35.5389 9.52881 34.0352 10.4303 33.874 10.4878C33.8357 10.4993 33.7666 10.4265 33.6669 10.2615C33.4674 9.92776 32.9496 9.14904 32.7654 8.90737L32.6197 8.71173L32.7424 8.64652C32.9112 8.55829 34.0313 7.90232 34.296 7.73737C34.4188 7.66065 34.5185 7.59928 34.5223 7.59928C34.5223 7.59928 34.5876 7.70285 34.6566 7.8256L34.6489 7.82944ZM20.4632 9.90091C22.1933 10.273 23.532 10.975 24.7327 12.1182C27.7786 15.0259 28.1545 19.7557 25.6265 23.1928C25.2736 23.6724 24.4067 24.5316 23.9118 24.8999C22.9144 25.6326 21.8173 26.1236 20.5476 26.3998C20.0412 26.5072 19.9338 26.511 18.9211 26.511C17.9084 26.511 17.7971 26.5034 17.2831 26.3921C14.1145 25.7246 11.7093 23.4921 10.8155 20.4002C10.5777 19.5793 10.5393 19.2609 10.5431 18.1561C10.5431 17.2124 10.5508 17.0935 10.6621 16.5795C11.0265 14.8724 11.7937 13.4186 12.9407 12.2639C14.3293 10.8676 15.8638 10.1042 17.9199 9.80117C17.9928 9.7935 18.503 9.78966 19.0477 9.79734C19.8609 9.80884 20.1256 9.82802 20.4632 9.90091ZM5.29159 24.9037C5.5908 24.9996 5.86316 25.2106 6.00126 25.4523L6.10867 25.6479L6.12018 29.5032L6.12785 33.3546L4.12159 33.3469L2.1115 33.3354L2.09999 29.6643C2.09232 26.4151 2.09999 25.9702 2.16137 25.7592C2.28796 25.3257 2.59868 24.9958 3.01297 24.8615C3.29684 24.7695 4.98087 24.8002 5.29159 24.9037ZM45.3323 34.5514C45.4551 34.6128 45.6469 34.7586 45.7543 34.8813C46.0727 35.2381 46.0842 35.3225 46.0727 37.0103C46.0612 38.4143 46.0535 38.4604 45.9615 38.656C45.831 38.9245 45.5894 39.1624 45.317 39.2851L45.0945 39.3887L24.0384 39.381L2.98228 39.3695L2.78664 39.2506C2.52196 39.0933 2.33399 38.89 2.21507 38.6291C2.11533 38.4105 2.11533 38.3951 2.10383 36.4234L2.09232 34.4402H45.1137L45.34 34.5514H45.3323ZM9.09696 40.5165C9.09696 40.5165 9.12764 40.9538 9.12764 41.4947V42.4729H5.69821V41.5062C5.69821 40.973 5.70588 40.5242 5.71739 40.5165C5.7289 40.505 8.24919 40.5088 9.10079 40.5203L9.09696 40.5165ZM42.4438 40.5165C42.4438 40.5165 42.4745 40.9538 42.4745 41.4947V42.4729H39.045V41.4985C39.045 40.8847 39.0642 40.5165 39.0872 40.5088C39.1179 40.5011 41.7188 40.505 42.4438 40.5165Z" stroke="white" stroke-width="0.8" stroke-miterlimit="10"/>
</svg>
