<svg width="41" height="41" viewBox="0 0 41 41" fill="none" xmlns="http://www.w3.org/2000/svg">
<path d="M7.2041 31.1367H13.8341C15.2701 32.7398 17.8846 33.7958 20.4995 33.7958C23.1145 33.7958 25.729 32.7398 27.165 31.1367H33.795" stroke="white" stroke-width="2" stroke-linecap="round"/>
<path fill-rule="evenodd" clip-rule="evenodd" d="M16.9541 20.502C16.9541 22.4617 18.5407 24.0474 20.4996 24.0474C22.4497 24.0474 24.045 22.4617 24.045 20.502C24.045 19.8441 23.8659 19.2278 23.5534 18.6981L27.3248 14.9275C27.6705 14.5813 27.6705 14.0239 27.3248 13.6777C26.9789 13.3314 26.4206 13.3314 26.0748 13.6777L22.3034 17.4482C21.775 17.1366 21.1583 16.9565 20.4996 16.9565C19.8361 16.9565 19.2154 17.1366 18.6848 17.4551C17.6483 18.0748 16.9541 19.207 16.9541 20.502ZM21.7495 19.252L21.7209 19.2209C21.4024 18.9162 20.9718 18.7292 20.4996 18.7292C19.5245 18.7292 18.7269 19.5256 18.7269 20.502C18.7269 21.4783 19.5245 22.2747 20.4996 22.2747C21.4747 22.2747 22.2723 21.4783 22.2723 20.502C22.2723 20.0276 22.0853 19.5983 21.7815 19.2797L21.7495 19.252Z" stroke="white" stroke-width="2"/>
<path d="M35.5771 27.2897C36.1562 26.0155 36.7392 24.5682 37.0686 23.0067C37.2382 22.2 37.3408 21.3621 37.3408 20.5" stroke="white" stroke-width="2"/>
<path d="M34.4248 11.582C34.9476 12.3957 35.3943 13.244 35.763 14.1268C36.2014 15.1725 36.5303 16.2631 36.7472 17.3884" stroke="white" stroke-width="2"/>
<path d="M32.2343 8.8796L32.1893 8.81727L32.1205 8.74111C29.9491 6.59794 27.2368 5.09875 24.2852 4.40625" stroke="white" stroke-width="2"/>
<path d="M11.6982 6.49585C14.6941 4.60885 17.6544 3.66016 20.4996 3.66016C20.5627 3.66016 20.6242 3.66362 20.6835 3.67747L20.8129 3.71556L20.925 3.76749L21.0237 3.82981" stroke="white" stroke-width="2"/>
<path d="M8.80764 8.80859C7.71135 9.9027 6.78168 11.1388 6.03905 12.4753C5.2985 13.8048 4.74322 15.2382 4.39355 16.734" stroke="white" stroke-width="2"/>
<path d="M5.57153 27.4143C5.46942 27.3277 5.3846 27.217 5.32572 27.0854C4.78258 25.832 4.22816 24.4194 3.91263 22.9098C3.74947 22.1273 3.65039 21.3206 3.65039 20.5" stroke="white" stroke-width="2"/>
<path fill-rule="evenodd" clip-rule="evenodd" d="M20.5 1C9.7485 1 1 9.7494 1 20.5C1 31.2506 9.7485 40 20.5 40C31.2515 40 40 31.2506 40 20.5C40 9.7494 31.2515 1 20.5 1Z" stroke="white" stroke-width="2"/>
</svg>
