<svg width="45" height="35" viewBox="0 0 45 35" fill="none" xmlns="http://www.w3.org/2000/svg">
<path d="M9.84887 13.878H22.2926M9.84887 8.5122H22.2926M31.1415 15.4878V13.6098M31.1415 15.4878H34.4598C35.6005 15.4878 36.5771 15.0936 37.3896 14.3053C38.2017 13.5174 38.6077 12.5701 38.6077 11.4634V11.1951H43.0322C43.3064 11.1951 43.5361 11.1057 43.7214 10.9268C43.9071 10.748 44 10.5253 44 10.2588C44 9.99183 43.9071 9.76825 43.7214 9.58805C43.5361 9.4074 43.3064 9.31707 43.0322 9.31707H38.6077V9.04878C38.6077 7.94207 38.2017 6.99455 37.3896 6.20622C36.5771 5.41833 35.6005 5.02439 34.4598 5.02439H31.1415M31.1415 15.4878V5.02439M31.1415 15.4878C31.1415 16.5945 30.7354 17.5418 29.9234 18.3297C29.1108 19.118 28.1342 19.5122 26.9936 19.5122H20.7717M31.1415 6.90244V5.02439M31.1415 5.02439C31.1415 3.91768 30.7354 2.97016 29.9234 2.18183C29.1108 1.39394 28.1342 1 26.9936 1H8.46624C6.41302 1 4.65546 1.70919 3.19355 3.12756C1.73118 4.54638 1 6.25183 1 8.2439V12.2683C1 14.2604 1.73118 15.9658 3.19355 17.3846C4.65546 18.803 6.41302 19.5122 8.46624 19.5122H11.3698M18.836 25.5488H20.7717V19.5122M13.3055 25.5488H11.3698V19.5122M11.3698 19.5122H20.7717M10.3328 34C9.46865 34 8.73424 33.7064 8.12957 33.1193C7.52443 32.5327 7.22186 31.8201 7.22186 30.9817V28.5671C7.22186 27.7287 7.52443 27.0159 8.12957 26.4288C8.73424 25.8421 9.46865 25.5488 10.3328 25.5488H21.8087C22.6728 25.5488 23.4075 25.8421 24.0126 26.4288C24.6173 27.0159 24.9196 27.7287 24.9196 28.5671V30.9817C24.9196 31.8201 24.6173 32.5327 24.0126 33.1193C23.4075 33.7064 22.6728 34 21.8087 34H10.3328Z" stroke="white" stroke-width="2"/>
</svg>
