<svg width="30" height="46" viewBox="0 0 30 46" fill="none" xmlns="http://www.w3.org/2000/svg">
<path d="M24.9204 2.2267V3.31304H26.9824H29.0445V2.15628V0.999524H27.0528C25.9564 0.999524 25.0209 1.0297 24.9908 1.06993C24.9505 1.10011 24.9204 1.62317 24.9204 2.2267ZM24.9204 2.2267V2.88052M24.9204 2.2267V1.57287L18.4123 1.51252C15.3243 1.52258 12.367 1.56281 11.8339 1.61311C7.77013 1.94505 4.11879 4.45974 2.26797 8.19155C-0.0455493 12.8387 0.859742 18.2906 4.55132 21.9721C5.92937 23.3602 7.44825 24.2957 9.27895 24.8891C10.8884 25.4122 11.3913 25.4424 17.9597 25.4424H24.9204V24.8388M24.9204 24.2353V24.8388M24.9204 24.8388V25.9453H26.9824H29.0445V24.8388V23.7324H26.9824H24.9204V24.8388Z" stroke="white" strokeWidth="1.5"/>
<path d="M28.9591 28.2219C29.0395 28.9663 29.0943 40.5521 29.1145 42.071C29.1346 43.1976 29.1145 43.3686 28.9133 43.7407C27.9175 45.5915 25.2116 45.3501 24.6182 43.3585C24.4874 42.9461 24.2413 41.603 24.5431 34.8435C24.7242 30.6289 24.8193 25.9149 24.8193 25.8948C24.8193 25.8848 25.8466 25.8948 26.7519 25.8948L28.9591 26.0148V28.2219Z" stroke="white" strokeWidth="1.5"/>
<path d="M26.751 3.20703V23.8074" stroke="white" strokeWidth="1.5"/>
</svg>
