<svg width="41" height="41" viewBox="0 0 41 41" fill="none" xmlns="http://www.w3.org/2000/svg">
<path d="M20.501 29.6445C20.5948 29.5663 20.7016 29.4718 20.8164 29.3672L21.1787 29.0264L21.957 28.2588V21.2686H23.1572C24.1567 21.2686 24.9285 20.694 25.1562 19.8848C25.158 19.8743 25.1627 19.8489 25.168 19.8027C25.1748 19.7423 25.1813 19.6622 25.1885 19.5635C25.2028 19.3665 25.2167 19.1061 25.2285 18.7998C25.2521 18.1876 25.2686 17.4013 25.2686 16.5859V13.3389L25.54 13.2002L26 12.9639C26.2027 12.8519 26.54 12.5779 26.6953 12.374L26.7051 12.3604L26.9893 12.0127L27.0508 6.7627L27.1152 1.3252L27.1211 0.833008L27.6133 0.831055L34.043 0.806641V0.805664C37.1827 0.786521 38.7775 0.776331 39.6172 0.740234C40.0361 0.722222 40.2261 0.699544 40.3164 0.677734C40.3288 0.658839 40.3361 0.646226 40.3379 0.638672C40.3401 0.629135 40.3392 0.624241 40.3389 0.623047C40.3384 0.621436 40.3358 0.617449 40.3291 0.610352C40.3252 0.606168 40.3164 0.60351 40.3057 0.59668C40.2971 0.596178 40.2877 0.594287 40.2773 0.59375C40.1976 0.589623 40.0804 0.585152 39.9268 0.581055C39.6205 0.572892 39.1802 0.565571 38.624 0.558594C37.5118 0.544642 35.9425 0.533365 34.0684 0.524414C30.3202 0.506514 25.3551 0.498409 20.3906 0.5C15.4261 0.501592 10.4627 0.512915 6.71777 0.533203C4.8451 0.543348 3.27779 0.555665 2.16797 0.570312C1.61288 0.57764 1.17398 0.585401 0.869141 0.59375C0.716263 0.597938 0.600358 0.602283 0.521484 0.606445C0.514173 0.606831 0.507351 0.608031 0.500977 0.608398C0.499518 0.615736 0.499427 0.640472 0.522461 0.677734C0.612802 0.699542 0.802821 0.722225 1.22168 0.740234C2.0614 0.776331 3.65613 0.786521 6.7959 0.805664L6.79492 0.806641L13.2256 0.831055L13.7178 0.833008L13.7236 1.3252L13.7881 6.67285V6.67383C13.8136 9.00065 13.8354 10.3404 13.873 11.1396C13.9123 11.9721 13.9693 12.1237 13.9951 12.1719L13.9941 12.1729C14.1659 12.4804 14.3498 12.6724 14.7168 12.8779L14.8867 12.9678L14.8975 12.9736L15.3047 13.1904L15.5703 13.3311V16.5859C15.5703 17.4013 15.5867 18.1876 15.6104 18.7998C15.6222 19.1061 15.6351 19.3665 15.6494 19.5635C15.6566 19.6622 15.6641 19.7423 15.6709 19.8027C15.6761 19.8487 15.6798 19.8742 15.6816 19.8848C15.9093 20.6941 16.6821 21.2686 17.6816 21.2686H18.8818V28.2588L19.6602 29.0264C19.9083 29.2683 20.15 29.488 20.3379 29.6445C20.3663 29.6682 20.3944 29.6883 20.4189 29.708C20.4437 29.6882 20.4724 29.6684 20.501 29.6445ZM14.8379 12.7568L14.5068 12.4131L14.1504 12.0693L13.999 11.9229L13.9971 11.7129L13.959 6.49219L13.9209 1.27051L13.917 0.767578H26.9209L26.918 1.27051L26.8799 6.49219L26.8408 11.7129L26.8398 11.9229L26.6885 12.0693L26.332 12.4131L26.001 12.7568L25.8535 12.9092H14.9854L14.8379 12.7568ZM20.335 21.002C19.4973 20.9988 18.6566 20.9839 18.002 20.959C17.6755 20.9465 17.3896 20.9314 17.1719 20.9131C17.0639 20.904 16.9658 20.8941 16.8848 20.8818C16.8445 20.8757 16.8021 20.868 16.7617 20.8584C16.7456 20.8546 16.7209 20.8483 16.6924 20.8389L16.5977 20.7998L16.5918 20.7959C16.3978 20.6918 16.2198 20.5473 16.083 20.3184C15.955 20.1042 15.8815 19.8463 15.833 19.5469C15.7377 18.9578 15.7168 18.0383 15.7168 16.5732C15.7168 15.8059 15.7261 15.0939 15.7422 14.5654C15.7502 14.3021 15.7601 14.0796 15.7715 13.917C15.7771 13.8369 15.7839 13.7627 15.792 13.7031C15.7959 13.6747 15.8016 13.6383 15.8105 13.6016C15.8149 13.5836 15.823 13.5545 15.8359 13.5215C15.8418 13.5066 15.8606 13.456 15.9023 13.3994L15.9521 13.3418C16.0218 13.2721 16.0968 13.236 16.1367 13.2188C16.1821 13.1992 16.2255 13.1865 16.2607 13.1777C16.3317 13.1601 16.4073 13.1497 16.4775 13.1436C16.62 13.1312 16.7898 13.1316 16.9609 13.1465L16.96 13.1475L17.4639 13.1846L17.917 13.2178L17.9268 13.6719L17.9648 15.416V15.4199C17.9779 16.2528 17.9914 16.6468 18.0254 16.8545C18.0282 16.8715 18.0318 16.8852 18.0342 16.8965C18.0381 16.8981 18.0409 16.8997 18.043 16.9004C18.0509 16.8988 18.0699 16.8934 18.1045 16.8779C18.1211 16.7813 18.1322 16.6378 18.1406 16.4121L18.1621 15.4326V15.4297L18.2002 13.6719L18.2109 13.1943L18.6885 13.1826L19.2363 13.1699L19.7705 13.1572L20.2822 13.1455V16.0771C20.2822 17.1218 20.2891 17.7141 20.3174 18.0703C20.344 18.4044 20.3865 18.4274 20.3711 18.4043C20.3875 18.4222 20.4027 18.4327 20.4131 18.4414C20.4291 18.4313 20.4514 18.4156 20.4795 18.3906C20.4885 18.3634 20.5056 18.2944 20.5195 18.1348C20.549 17.7955 20.5566 17.2003 20.5566 16.0771V13.0654L21.0957 13.1084L21.5791 13.1465H21.5869L21.5938 13.1475L22.0654 13.1982L22.501 13.2451L22.5107 13.6846L22.5498 15.3525V15.3555C22.5627 16.1119 22.5786 16.493 22.6133 16.7119C22.6294 16.8136 22.6451 16.8489 22.6494 16.8574C22.6503 16.8591 22.6527 16.863 22.668 16.8789L22.6895 16.8672L22.6982 16.8623L22.791 16.8105L22.8232 15.3525L22.8613 13.6084L22.873 13.0967L23.3838 13.1201L23.9316 13.1455L23.9326 13.1445L24.5059 13.1572L24.9951 13.168V16.6621C24.9951 18.241 24.9902 19.1455 24.8965 19.6865C24.847 19.972 24.7645 20.2179 24.6016 20.4229C24.482 20.5733 24.3392 20.6744 24.207 20.752L24.0791 20.8223L24.0752 20.8252L23.9795 20.8643C23.9507 20.8737 23.9264 20.88 23.9102 20.8838C23.8694 20.8933 23.8266 20.9003 23.7861 20.9062C23.7048 20.9182 23.6062 20.9281 23.498 20.9365C23.28 20.9534 22.9936 20.9665 22.667 20.9766C22.0124 20.9967 21.1724 21.0051 20.335 21.002ZM21.8105 28.1689L21.6592 28.3164L21.2139 28.749L20.7676 29.1826L20.4199 29.5195L20.0723 29.1836L19.6895 28.8135L19.3076 28.4443L19.1553 28.2969V21.2686H21.8105V28.1689Z" fill="white" stroke="white"/>
<path d="M16.9248 7.64453C16.9594 7.64263 16.9931 7.6345 17.0215 7.62305C17.0379 7.61641 17.049 7.6075 17.0576 7.60156C17.0661 7.56993 17.0818 7.4983 17.0918 7.35645C17.1028 7.20147 17.1076 6.99334 17.1074 6.70703L17.0918 5.58789V5.58496C17.079 4.70959 17.0597 4.18687 17.0273 3.875C17.0197 3.80142 17.012 3.74605 17.0049 3.70508C16.9763 3.69942 16.9449 3.69335 16.9111 3.69434C16.901 3.76868 16.8897 3.86887 16.8809 4C16.8566 4.36155 16.8438 4.9056 16.8438 5.66699C16.8438 6.42815 16.8566 6.97152 16.8809 7.33301C16.8899 7.46697 16.9008 7.56874 16.9111 7.64355C16.9155 7.64351 16.9202 7.64478 16.9248 7.64453Z" fill="white" stroke="white"/>
<path d="M16.9336 10.0557C16.98 10.0537 17.006 10.0504 17.0186 10.0469C17.0267 10.0337 17.043 10.0024 17.0615 9.9375L17.0645 9.92676L17.0684 9.91699C17.0778 9.88865 17.0776 9.86015 17.0635 9.8252C17.0473 9.78532 17.0132 9.74055 16.9658 9.70605C16.9174 9.67087 16.8766 9.66159 16.8594 9.66113L16.8516 9.66406C16.8611 9.65456 16.8466 9.66315 16.8398 9.71777C16.8332 9.7718 16.839 9.84415 16.8623 9.91797C16.8834 9.98491 16.9124 10.0307 16.9336 10.0557Z" fill="white" stroke="white"/>
<path d="M22.1953 32.2148L23.3857 30.9912V30.9902C25.5751 28.7435 26.671 27.6065 27.1709 26.9736C27.2845 26.8298 27.3515 26.728 27.3926 26.6602C27.3582 26.6828 27.3157 26.7134 27.2637 26.7539C26.8488 27.0767 26.1502 27.786 24.832 29.1748H24.833L22.2471 31.9004L22.1016 32.0537L21.8887 32.0557L20.4111 32.0684H18.7148L18.5674 31.9121L16.3008 29.5195C15.6766 28.8636 15.0697 28.2307 14.5938 27.7373L13.6787 26.7959C13.5104 26.6329 13.4184 26.6072 13.3984 26.6045C13.3967 26.6043 13.3957 26.6045 13.3955 26.6045C13.3925 26.6057 13.3779 26.6146 13.3506 26.6396C13.3825 26.6899 13.4281 26.7575 13.4961 26.8447C13.8092 27.2466 14.4297 27.9139 15.5723 29.1123L16.8965 30.4971L16.8975 30.498L18.5332 32.2148H22.1953Z" fill="white" stroke="white"/>
<path d="M20.5459 40.5C27.0485 40.5 30.6997 40.4934 32.7568 40.4648C33.7874 40.4505 34.4072 40.4307 34.7822 40.4043C34.9707 40.391 35.0829 40.3776 35.1484 40.3652C35.1578 40.3635 35.1657 40.3618 35.1719 40.3604L35.2002 40.3418V34.5947C35.2002 32.9417 35.188 31.4262 35.1689 30.3154C35.1594 29.7596 35.1485 29.3069 35.1367 28.9902C35.1317 28.8552 35.125 28.7479 35.1201 28.6689C35.0703 28.6456 34.9694 28.6122 34.7627 28.585C34.3307 28.5281 33.6021 28.5117 32.2998 28.5117H29.8613L26.8887 31.5449H26.8877L23.7686 34.7402L23.6221 34.8906H17.3418L17.1953 34.7402L14.0752 31.5449L11.1025 28.5137L8.64062 28.5244H8.6377C7.90302 28.5244 7.21667 28.5337 6.70312 28.5479C6.44602 28.555 6.23503 28.5627 6.08398 28.5713C6.03871 28.5739 6.00037 28.5777 5.96875 28.5801C5.96453 28.6557 5.95937 28.7522 5.95508 28.8691C5.94332 29.1898 5.93238 29.6478 5.92285 30.21C5.90381 31.3335 5.89062 32.8653 5.89062 34.5312V40.3418L5.91797 40.3604C5.92436 40.3618 5.93247 40.3634 5.94238 40.3652C6.00784 40.3776 6.12019 40.391 6.30859 40.4043C6.68369 40.4307 7.30418 40.4505 8.33496 40.4648C10.3922 40.4934 14.0434 40.5 20.5459 40.5ZM6.03711 28.7842H10.8975L11.0439 28.9336L13.209 31.123L13.2109 31.125L16.3271 34.3047L16.334 34.3115L17.1416 35.1514H20.3691L23.584 35.1641L26.5557 32.1191V32.1182L29.6758 28.9346L29.8232 28.7842H34.7998V40.2266H6.03711V28.7842Z" fill="white" stroke="white"/>
</svg>
