<svg width="47" height="47" viewBox="0 0 47 47" fill="none" xmlns="http://www.w3.org/2000/svg">
<path d="M1 17.1354H28.6608L42.3895 1H17.9907L1 17.1354Z" stroke="white" stroke-width="2" stroke-linecap="round" stroke-linejoin="round"/>
<path d="M1 17.4813V25.0625H8.2931C9.98157 25.0625 11.3518 26.4336 11.3518 28.1232V35.1471C11.3518 36.8367 9.98157 38.2079 8.2931 38.2079H1V45.2317H28.6608L45.3774 24.9209V18.5959H41.8325C41.8325 18.5959 38.1816 18.4898 38.4645 12.9609" stroke="white" stroke-width="2" stroke-linecap="round" stroke-linejoin="round"/>
<path d="M28.6606 45.2293V38.347H21.5001C19.8116 38.347 18.4414 36.9758 18.4414 35.2862V28.1208C18.4414 26.4312 19.8116 25.06 21.5001 25.06H28.6606L42.3893 8.0312V1.07812" stroke="white" stroke-width="2" stroke-linecap="round" stroke-linejoin="round"/>
<path d="M28.6641 25.064V16.9609" stroke="white" stroke-width="2" stroke-linecap="round" stroke-linejoin="round"/>
<path d="M28.6641 38.3472L45.3807 18.5938" stroke="white" stroke-width="2" stroke-linecap="round" stroke-linejoin="round"/>
<path d="M1 38.2096L11.3518 28.125" stroke="white" stroke-width="2" stroke-linecap="round" stroke-linejoin="round"/>
</svg>
