<svg width="40" height="44" viewBox="0 0 40 44" fill="none" xmlns="http://www.w3.org/2000/svg">
<mask id="path-1-inside-1_2001_2368" fill="white">
<path d="M18.7805 9.92683V1.87805H8.04878V0H31.3902V1.87805H20.6585V9.92683H18.7805ZM0 44V26.0244H1.87805V28.7073H13.4146V17.1707H10.7317V15.2927H28.7073V17.1707H26.0244V28.7073H37.561V26.0244H39.439V44H37.561V41.3171H1.87805V44H0ZM1.87805 39.439H37.561V30.5854H24.1463V17.1707H15.2927V30.5854H1.87805V39.439Z"/>
</mask>
<path d="M18.7805 9.92683H16.7805V11.9268H18.7805V9.92683ZM18.7805 1.87805H20.7805V-0.121951H18.7805V1.87805ZM8.04878 1.87805H6.04878V3.87805H8.04878V1.87805ZM8.04878 0V-2H6.04878V0H8.04878ZM31.3902 0H33.3902V-2H31.3902V0ZM31.3902 1.87805V3.87805H33.3902V1.87805H31.3902ZM20.6585 1.87805V-0.121951H18.6585V1.87805H20.6585ZM20.6585 9.92683V11.9268H22.6585V9.92683H20.6585ZM0 44H-2V46H0V44ZM0 26.0244V24.0244H-2V26.0244H0ZM1.87805 26.0244H3.87805V24.0244H1.87805V26.0244ZM1.87805 28.7073H-0.121951V30.7073H1.87805V28.7073ZM13.4146 28.7073V30.7073H15.4146V28.7073H13.4146ZM13.4146 17.1707H15.4146V15.1707H13.4146V17.1707ZM10.7317 17.1707H8.73171V19.1707H10.7317V17.1707ZM10.7317 15.2927V13.2927H8.73171V15.2927H10.7317ZM28.7073 15.2927H30.7073V13.2927H28.7073V15.2927ZM28.7073 17.1707V19.1707H30.7073V17.1707H28.7073ZM26.0244 17.1707V15.1707H24.0244V17.1707H26.0244ZM26.0244 28.7073H24.0244V30.7073H26.0244V28.7073ZM37.561 28.7073V30.7073H39.561V28.7073H37.561ZM37.561 26.0244V24.0244H35.561V26.0244H37.561ZM39.439 26.0244H41.439V24.0244H39.439V26.0244ZM39.439 44V46H41.439V44H39.439ZM37.561 44H35.561V46H37.561V44ZM37.561 41.3171H39.561V39.3171H37.561V41.3171ZM1.87805 41.3171V39.3171H-0.121951V41.3171H1.87805ZM1.87805 44V46H3.87805V44H1.87805ZM1.87805 39.439H-0.121951V41.439H1.87805V39.439ZM37.561 39.439V41.439H39.561V39.439H37.561ZM37.561 30.5854H39.561V28.5854H37.561V30.5854ZM24.1463 30.5854H22.1463V32.5854H24.1463V30.5854ZM24.1463 17.1707H26.1463V15.1707H24.1463V17.1707ZM15.2927 17.1707V15.1707H13.2927V17.1707H15.2927ZM15.2927 30.5854V32.5854H17.2927V30.5854H15.2927ZM1.87805 30.5854V28.5854H-0.121951V30.5854H1.87805ZM18.7805 9.92683H20.7805V1.87805H18.7805H16.7805V9.92683H18.7805ZM18.7805 1.87805V-0.121951H8.04878V1.87805V3.87805H18.7805V1.87805ZM8.04878 1.87805H10.0488V0H8.04878H6.04878V1.87805H8.04878ZM8.04878 0V2H31.3902V0V-2H8.04878V0ZM31.3902 0H29.3902V1.87805H31.3902H33.3902V0H31.3902ZM31.3902 1.87805V-0.121951H20.6585V1.87805V3.87805H31.3902V1.87805ZM20.6585 1.87805H18.6585V9.92683H20.6585H22.6585V1.87805H20.6585ZM20.6585 9.92683V7.92683H18.7805V9.92683V11.9268H20.6585V9.92683ZM0 44H2V26.0244H0H-2V44H0ZM0 26.0244V28.0244H1.87805V26.0244V24.0244H0V26.0244ZM1.87805 26.0244H-0.121951V28.7073H1.87805H3.87805V26.0244H1.87805ZM1.87805 28.7073V30.7073H13.4146V28.7073V26.7073H1.87805V28.7073ZM13.4146 28.7073H15.4146V17.1707H13.4146H11.4146V28.7073H13.4146ZM13.4146 17.1707V15.1707H10.7317V17.1707V19.1707H13.4146V17.1707ZM10.7317 17.1707H12.7317V15.2927H10.7317H8.73171V17.1707H10.7317ZM10.7317 15.2927V17.2927H28.7073V15.2927V13.2927H10.7317V15.2927ZM28.7073 15.2927H26.7073V17.1707H28.7073H30.7073V15.2927H28.7073ZM28.7073 17.1707V15.1707H26.0244V17.1707V19.1707H28.7073V17.1707ZM26.0244 17.1707H24.0244V28.7073H26.0244H28.0244V17.1707H26.0244ZM26.0244 28.7073V30.7073H37.561V28.7073V26.7073H26.0244V28.7073ZM37.561 28.7073H39.561V26.0244H37.561H35.561V28.7073H37.561ZM37.561 26.0244V28.0244H39.439V26.0244V24.0244H37.561V26.0244ZM39.439 26.0244H37.439V44H39.439H41.439V26.0244H39.439ZM39.439 44V42H37.561V44V46H39.439V44ZM37.561 44H39.561V41.3171H37.561H35.561V44H37.561ZM37.561 41.3171V39.3171H1.87805V41.3171V43.3171H37.561V41.3171ZM1.87805 41.3171H-0.121951V44H1.87805H3.87805V41.3171H1.87805ZM1.87805 44V42H0V44V46H1.87805V44ZM1.87805 39.439V41.439H37.561V39.439V37.439H1.87805V39.439ZM37.561 39.439H39.561V30.5854H37.561H35.561V39.439H37.561ZM37.561 30.5854V28.5854H24.1463V30.5854V32.5854H37.561V30.5854ZM24.1463 30.5854H26.1463V17.1707H24.1463H22.1463V30.5854H24.1463ZM24.1463 17.1707V15.1707H15.2927V17.1707V19.1707H24.1463V17.1707ZM15.2927 17.1707H13.2927V30.5854H15.2927H17.2927V17.1707H15.2927ZM15.2927 30.5854V28.5854H1.87805V30.5854V32.5854H15.2927V30.5854ZM1.87805 30.5854H-0.121951V39.439H1.87805H3.87805V30.5854H1.87805Z" fill="white" mask="url(#path-1-inside-1_2001_2368)"/>
</svg>
