<svg width="26" height="39" viewBox="0 0 26 39" fill="none" xmlns="http://www.w3.org/2000/svg">
<path d="M16.632 17.1196C16.7345 17.1293 16.847 17.1065 16.9669 17.0545C17.6753 16.7479 18.4949 15.5935 19.1977 14.0127C19.9215 12.3849 20.4986 10.3297 20.691 8.28259C20.8361 6.73953 20.7627 5.20558 20.368 3.87224L14.8532 15.8686L14.1836 15.5626L20.0737 2.7499L20.4184 2L20.7462 2.7571C21.4504 4.38383 21.6105 6.36639 21.4241 8.34898C21.2238 10.4801 20.6232 12.6191 19.8702 14.3129C19.0961 16.0537 18.1396 17.3485 17.2585 17.7299C17.025 17.831 16.7929 17.8741 16.5656 17.8527L16.632 17.1196Z" stroke="white"/>
<path d="M9.62056 17.7051C9.38892 17.7269 9.15109 17.6823 8.91072 17.5783C8.01044 17.1886 7.01434 15.8767 6.20558 14.1193C5.41747 12.4069 4.78677 10.2477 4.58526 8.10417C4.40724 6.21042 4.56487 4.32364 5.24389 2.75498L5.57074 2L5.91637 2.74633L11.8504 15.5591L11.1808 15.868L5.62364 3.86899C5.25188 5.13696 5.18141 6.58092 5.31837 8.03783C5.51145 10.0915 6.11749 12.1642 6.8752 13.8106C7.61226 15.4121 8.4713 16.5866 9.20225 16.903C9.32909 16.9579 9.44731 16.9821 9.55419 16.972L9.62056 17.7051Z" stroke="white"/>
<path d="M13.3851 20.0083L9.40849 17.6778C9.23317 17.575 9.17437 17.3494 9.27716 17.1741C9.37994 16.9988 9.60547 16.94 9.7808 17.0428L13.758 19.3721C13.7648 19.376 13.7713 19.3802 13.7777 19.3844C14.2169 19.6419 21.3666 24.0041 24.993 37.538C25.0455 37.7348 24.9286 37.9371 24.7318 37.9897C24.5349 38.0422 24.3327 37.9253 24.2801 37.7285C20.736 24.5013 13.85 20.2818 13.4089 20.0227C13.4007 20.0186 13.3932 20.013 13.3851 20.0083ZM13.3851 20.0083L13.5713 19.6908" stroke="white"/>
<path d="M11.5145 15.3472C11.3113 15.3472 11.1465 15.5119 11.1465 15.7152C11.1465 15.9184 11.3113 16.0832 11.5145 16.0832L14.4038 16.0775C15.4396 16.8317 24.9073 24.1019 24.2675 37.6001C24.2579 37.8033 24.4149 37.9758 24.6181 37.9854C24.8214 37.9949 24.9939 37.8379 25.0035 37.6347C25.6841 23.2755 15.2208 15.7498 14.7528 15.4202C14.6895 15.3698 14.6093 15.3397 14.5221 15.3398L11.5145 15.3472Z" stroke="white"/>
<path d="M12.6543 20.012C12.6463 20.0167 12.6382 20.021 12.6299 20.0251C12.1888 20.2842 5.30285 24.5037 1.75866 37.7309C1.70608 37.9277 1.50384 38.0447 1.307 37.9921C1.11015 37.9395 0.993212 37.7373 1.04579 37.5404C4.67222 24.0065 11.8218 19.6443 12.2611 19.3869C12.2675 19.3826 12.2763 19.3787 12.283 19.3747L12.8028 19.0701C12.9781 18.9673 13.2037 19.0261 13.3064 19.2015C13.4092 19.3768 13.3504 19.6023 13.1751 19.7051L12.6543 20.012ZM12.6543 20.012L12.4676 19.6932" stroke="white"/>
<path d="M11.7246 16.0102C11.8912 15.893 11.9312 15.663 11.8141 15.4965C11.6969 15.3299 11.4669 15.2898 11.3004 15.407C11.2689 15.4291 0.336683 22.9677 1.0318 37.6341C1.04134 37.8373 1.21389 37.9943 1.41711 37.9847C1.62034 37.9752 1.77734 37.8027 1.76779 37.5994C1.09204 23.3422 11.6942 16.0316 11.7246 16.0102Z" stroke="white"/>
</svg>
