<svg width="39" height="39" viewBox="0 0 39 39" fill="none" xmlns="http://www.w3.org/2000/svg">
<path d="M2.94062 15.088L16.4186 22.036C17.3612 22.5302 18.4331 22.7962 19.5049 22.7962C20.5768 22.7962 21.6486 22.5302 22.5836 22.036L36.0692 15.088C37.2627 14.4647 38.0001 13.2332 38.0001 11.8953C38.0001 10.5573 37.2627 9.32586 36.0616 8.69491L22.5988 1.74688C20.706 0.751041 18.3114 0.751041 16.4338 1.74688L2.94062 8.69491C1.74714 9.31825 1.00977 10.5421 1.00977 11.8877C1.00977 13.2332 1.74714 14.4571 2.94062 15.0804V15.088ZM3.46514 9.70595L16.9583 2.75791C18.5243 1.93692 20.5007 1.93692 22.0743 2.75791L35.5523 9.70595C36.3657 10.1316 36.875 10.9754 36.875 11.8953C36.875 12.8151 36.3657 13.6513 35.5599 14.077L22.0743 21.025C20.5083 21.846 18.5319 21.846 16.9583 21.025L3.47274 14.077C2.65935 13.6513 2.15003 12.8075 2.15003 11.8877C2.15003 10.9678 2.65935 10.1316 3.46514 9.70595Z" fill="white" stroke="white"/>
<path d="M37.1702 28.1168L22.0655 36.2203C20.4843 37.0489 18.5307 37.0489 16.9571 36.2203L1.84475 28.1168C1.57109 27.9724 1.22141 28.0712 1.06937 28.3524C0.917334 28.6261 1.02376 28.9758 1.30503 29.1278L16.4174 37.2389C17.36 37.733 18.4319 37.9991 19.5037 37.9991C20.5756 37.9991 21.6398 37.733 22.59 37.2389L37.7024 29.1354C37.9836 28.9834 38.0825 28.6413 37.938 28.36C37.786 28.0788 37.4439 27.98 37.1627 28.1244L37.1702 28.1168Z" fill="white" stroke="white"/>
<path d="M37.1702 20.5152L22.0655 28.6187C20.4919 29.4473 18.5307 29.4473 16.9571 28.6187L1.84475 20.5152C1.57109 20.3708 1.22141 20.4696 1.06937 20.7509C0.917334 21.0245 1.02376 21.3742 1.30503 21.5263L16.4174 29.6374C17.36 30.1315 18.4319 30.3975 19.5037 30.3975C20.5756 30.3975 21.6474 30.1315 22.59 29.6374L37.7024 21.5339C37.9836 21.3818 38.0825 21.0397 37.938 20.7585C37.786 20.4848 37.4439 20.3784 37.1627 20.5228L37.1702 20.5152Z" fill="white" stroke="white"/>
</svg>
