<svg width="75" height="80" viewBox="0 0 75 80" fill="none" xmlns="http://www.w3.org/2000/svg">
<g filter="url(#filter0_d_305_26348)">
<path d="M71 33.5C71 52.0015 56.0015 67 37.5 67C18.9985 67 4 52.0015 4 33.5C4 14.9985 18.9985 0 37.5 0C56.0015 0 71 14.9985 71 33.5Z" fill="#5BA646"/>
<path d="M47.566 42.6974H43.3702V35.9475C43.3702 34.2535 42.7644 33.0942 41.2461 33.0942C40.0868 33.0942 39.3988 33.872 39.0958 34.6274C38.9837 34.8967 38.9575 35.2706 38.9575 35.6483V42.6937H34.7617C34.7617 42.6937 34.8178 31.2618 34.7617 30.0763H38.9575V31.8639C38.9575 31.8639 38.9388 31.89 38.9313 31.905H38.9575V31.8639C39.5147 31.0075 40.5094 29.7809 42.7382 29.7809C45.498 29.7809 47.566 31.5834 47.566 35.4576V42.6974ZM30.3751 23.9995C28.9391 23.9995 28.0005 24.9419 28.0005 26.1797C28.0005 27.4175 28.913 28.3599 30.319 28.3599H30.3452C31.8074 28.3599 32.7161 27.3913 32.7161 26.1797C32.6899 24.9419 31.8074 23.9995 30.3714 23.9995H30.3751ZM28.251 42.6974H32.4431V30.0801H28.251V42.6974Z" fill="white"/>
</g>
<defs>
<filter id="filter0_d_305_26348" x="0" y="0" width="75" height="80" filterUnits="userSpaceOnUse" color-interpolation-filters="sRGB">
<feFlood flood-opacity="0" result="BackgroundImageFix"/>
<feColorMatrix in="SourceAlpha" type="matrix" values="0 0 0 0 0 0 0 0 0 0 0 0 0 0 0 0 0 0 127 0" result="hardAlpha"/>
<feOffset dy="9"/>
<feGaussianBlur stdDeviation="2"/>
<feComposite in2="hardAlpha" operator="out"/>
<feColorMatrix type="matrix" values="0 0 0 0 0.121569 0 0 0 0 0.121569 0 0 0 0 0.121569 0 0 0 0.12 0"/>
<feBlend mode="normal" in2="BackgroundImageFix" result="effect1_dropShadow_305_26348"/>
<feBlend mode="normal" in="SourceGraphic" in2="effect1_dropShadow_305_26348" result="shape"/>
</filter>
</defs>
</svg>
