<svg width="65" height="65" viewBox="0 0 65 65" fill="none" xmlns="http://www.w3.org/2000/svg">
<circle cx="32.5" cy="32.5" r="32.5" fill="#5BA646"/>
<path d="M35.2803 30C38.1903 28.88 40.2603 26.06 40.2603 22.76C40.2603 18.48 36.78 15 32.5 15C28.22 15 24.7402 18.48 24.7402 22.76C24.7402 26.06 26.8102 28.88 29.7202 30C24.2402 30.7 20 35.39 20 41.05V45.11C20 47.52 21.9601 49.48 24.3701 49.48H40.6304C43.0404 49.48 45 47.52 45 45.11V41.05C45 35.39 40.7503 30.7 35.2803 30ZM25.3604 22.76C25.3604 18.82 28.56 15.62 32.5 15.62C36.44 15.62 39.6401 18.82 39.6401 22.76C39.6401 26.7 36.44 29.9 32.5 29.9C28.56 29.9 25.3604 26.7 25.3604 22.76ZM44.3804 45.11C44.3804 47.18 42.7001 48.87 40.6201 48.87H24.3604C22.2904 48.87 20.6001 47.19 20.6001 45.11V41.05C20.6001 35.24 25.3204 30.52 31.1304 30.52H33.8403C39.6503 30.52 44.3701 35.24 44.3701 41.05V45.11H44.3804Z" stroke="white" stroke-width="1.2"/>
</svg>
