<svg width="65" height="65" viewBox="0 0 65 65" fill="none" xmlns="http://www.w3.org/2000/svg">
<circle cx="32.5" cy="32.5" r="32.5" fill="#5BA646"/>
<path d="M28.375 32.5C32.9249 32.5 36.625 28.7999 36.625 24.25C36.625 19.7001 32.9249 16 28.375 16C23.8251 16 20.125 19.7001 20.125 24.25C20.125 28.7999 23.8251 32.5 28.375 32.5ZM28.375 17.375C32.1659 17.375 35.25 20.4591 35.25 24.25C35.25 28.0409 32.1659 31.125 28.375 31.125C24.5841 31.125 21.5 28.0409 21.5 24.25C21.5 20.4591 24.5841 17.375 28.375 17.375ZM22.1875 35.25H30.5145C30.2656 35.6763 30.0718 36.1355 29.9453 36.625H22.1875C19.5338 36.625 17.375 38.7838 17.375 41.4375V49H16V41.4375C16 38.0261 18.7761 35.25 22.1875 35.25ZM46.25 35.25H44.875V34.5625C44.875 33.4254 43.9496 32.5 42.8125 32.5H38.6875C37.5504 32.5 36.625 33.4254 36.625 34.5625V35.25H35.25C33.7334 35.25 32.5 36.4834 32.5 38V49H49V38C49 36.4834 47.7666 35.25 46.25 35.25ZM38 34.5625C38 34.183 38.308 33.875 38.6875 33.875H42.8125C43.192 33.875 43.5 34.183 43.5 34.5625V35.25H38V34.5625ZM35.25 36.625H46.25C47.0076 36.625 47.625 37.2424 47.625 38V40.75H33.875V38C33.875 37.2424 34.4924 36.625 35.25 36.625ZM33.875 47.625V42.125H40.0625V44.875H41.4375V42.125H47.625V47.625H33.875Z" fill="white" stroke="white" stroke-width="0.5"/>
</svg>
