<svg width="65" height="65" viewBox="0 0 65 65" fill="none" xmlns="http://www.w3.org/2000/svg">
<circle cx="32.5" cy="32.5" r="32.5" fill="#5BA646"/>
<path d="M33 49C30.7931 49 28.7165 48.5785 26.7701 47.7356C24.8238 46.8927 23.1303 45.751 21.6897 44.3103C20.249 42.8697 19.1073 41.1762 18.2644 39.2299C17.4215 37.2835 17 35.2069 17 33C17 30.7931 17.4215 28.7165 18.2644 26.7701C19.1073 24.8238 20.249 23.1303 21.6897 21.6897C23.1303 20.249 24.8238 19.1073 26.7701 18.2644C28.7165 17.4215 30.7931 17 33 17C35.2069 17 37.2835 17.4215 39.2299 18.2644C41.1762 19.1073 42.8697 20.249 44.3103 21.6897C45.751 23.1303 46.8927 24.8238 47.7356 26.7701C48.5785 28.7165 49 30.7931 49 33C49 35.2069 48.5785 37.2835 47.7356 39.2299C46.8927 41.1762 45.751 42.8697 44.3103 44.3103C42.8697 45.751 41.1762 46.8927 39.2299 47.7356C37.2835 48.5785 35.2069 49 33 49ZM33 47.7586C34.1648 46.2874 35.1149 44.8621 35.8506 43.4828C36.5862 42.1034 37.1839 40.5402 37.6437 38.7931H28.3563C28.8774 40.6628 29.4904 42.2874 30.1954 43.6667C30.9004 45.046 31.8352 46.41 33 47.7586ZM31.3908 47.6207C30.4406 46.6092 29.567 45.2989 28.7701 43.6897C27.9732 42.0805 27.3908 40.4483 27.023 38.7931H19.4828C20.5862 41.3065 22.1954 43.3448 24.3103 44.908C26.4253 46.4713 28.7854 47.3755 31.3908 47.6207ZM34.6092 47.6207C37.2146 47.3755 39.5747 46.4713 41.6897 44.908C43.8046 43.3448 45.4138 41.3065 46.5172 38.7931H38.977C38.4559 40.4789 37.7969 42.1264 37 43.7356C36.2031 45.3448 35.4061 46.6398 34.6092 47.6207ZM18.977 37.5057H26.7471C26.5939 36.7088 26.4866 35.9349 26.4253 35.1839C26.364 34.433 26.3333 33.705 26.3333 33C26.3333 32.295 26.364 31.567 26.4253 30.8161C26.4866 30.0651 26.5939 29.2912 26.7471 28.4943H18.977C18.7625 29.1379 18.5939 29.8582 18.4713 30.6552C18.3487 31.4521 18.2874 32.2337 18.2874 33C18.2874 33.7663 18.3487 34.5479 18.4713 35.3448C18.5939 36.1418 18.7625 36.8621 18.977 37.5057ZM28.0345 37.5057H37.9655C38.1188 36.7088 38.2261 35.9502 38.2874 35.2299C38.3487 34.5096 38.3793 33.7663 38.3793 33C38.3793 32.2337 38.3487 31.4904 38.2874 30.7701C38.2261 30.0498 38.1188 29.2912 37.9655 28.4943H28.0345C27.8812 29.2912 27.7739 30.0498 27.7126 30.7701C27.6513 31.4904 27.6207 32.2337 27.6207 33C27.6207 33.7663 27.6513 34.5096 27.7126 35.2299C27.7739 35.9502 27.8812 36.7088 28.0345 37.5057ZM39.2529 37.5057H47.023C47.2375 36.8621 47.4061 36.1418 47.5287 35.3448C47.6513 34.5479 47.7126 33.7663 47.7126 33C47.7126 32.2337 47.6513 31.4521 47.5287 30.6552C47.4061 29.8582 47.2375 29.1379 47.023 28.4943H39.2529C39.4061 29.2912 39.5134 30.0651 39.5747 30.8161C39.636 31.567 39.6667 32.295 39.6667 33C39.6667 33.705 39.636 34.433 39.5747 35.1839C39.5134 35.9349 39.4061 36.7088 39.2529 37.5057ZM38.977 27.2069H46.5172C45.3831 24.6322 43.7969 22.5939 41.7586 21.092C39.7203 19.59 37.3372 18.6705 34.6092 18.3333C35.5594 19.4981 36.4176 20.8621 37.1839 22.4253C37.9502 23.9885 38.5479 25.5824 38.977 27.2069ZM28.3563 27.2069H37.6437C37.1226 25.3678 36.4866 23.7203 35.7356 22.2644C34.9847 20.8084 34.0728 19.4674 33 18.2414C31.9272 19.4674 31.0153 20.8084 30.2644 22.2644C29.5134 23.7203 28.8774 25.3678 28.3563 27.2069ZM19.4828 27.2069H27.023C27.4521 25.5824 28.0498 23.9885 28.8161 22.4253C29.5824 20.8621 30.4406 19.4981 31.3908 18.3333C28.6322 18.6705 26.2414 19.5977 24.2184 21.1149C22.1954 22.6322 20.6169 24.6628 19.4828 27.2069Z" fill="white" stroke="white" strokeWidth="0.1"/>
</svg>
