<svg width="65" height="65" viewBox="0 0 65 65" fill="none" xmlns="http://www.w3.org/2000/svg">
<circle cx="32.5" cy="32.5" r="32.5" fill="#5BA646"/>
<path d="M36.4783 26.7391H41.3478M36.4783 33.6957H41.3478M36.4783 40.6522H41.3478M28.1304 25.3478H17M28.1304 42.0435H17M37.8696 18.3913H46.2174C46.9858 18.3913 47.6087 19.0142 47.6087 19.7826V47.6087C47.6087 48.3771 46.9858 49 46.2174 49H37.8696C37.1012 49 36.4783 48.3771 36.4783 47.6087V19.7826C36.4783 19.0142 37.1012 18.3913 37.8696 18.3913ZM17 22.5652L22.5652 17L28.1304 22.5652V47.6087C28.1304 47.9777 27.9839 48.3316 27.7229 48.5925C27.462 48.8534 27.1081 49 26.7391 49H18.3913C18.0223 49 17.6684 48.8534 17.4075 48.5925C17.1466 48.3316 17 47.9777 17 47.6087V22.5652Z" stroke="white" strokeWidth="2" strokeLinecap="round" strokeLinejoin="round"/>
</svg>
